<?xml version="1.0" encoding="UTF-8" standalone="no"?>
<!-- Created with Inkscape (http://www.inkscape.org/) -->

<svg
   version="1.1"
   id="svg1"
   width="2158.6667"
   height="2002.6667"
   viewBox="0 0 2158.6667 2002.6667"
   sodipodi:docname="5Fifty.svg"
   inkscape:version="1.4.2 (ebf0e940d0, 2025-05-08)"
   xml:space="preserve"
   xmlns:inkscape="http://www.inkscape.org/namespaces/inkscape"
   xmlns:sodipodi="http://sodipodi.sourceforge.net/DTD/sodipodi-0.dtd"
   xmlns="http://www.w3.org/2000/svg"
   xmlns:svg="http://www.w3.org/2000/svg"><defs
     id="defs1" /><sodipodi:namedview
     id="namedview1"
     pagecolor="#ffffff"
     bordercolor="#000000"
     borderopacity="0.25"
     inkscape:showpageshadow="2"
     inkscape:pageopacity="0.0"
     inkscape:pagecheckerboard="0"
     inkscape:deskcolor="#d1d1d1"
     inkscape:zoom="0.40046603"
     inkscape:cx="960.13138"
     inkscape:cy="996.33919"
     inkscape:window-width="1920"
     inkscape:window-height="1008"
     inkscape:window-x="0"
     inkscape:window-y="0"
     inkscape:window-maximized="1"
     inkscape:current-layer="layer3" /><rect
     style="fill:#1a1a1a;stroke-width:5;stroke-linejoin:round"
     id="rect1"
     width="2158.6667"
     height="2002.6667"
     x="0"
     y="0"
     inkscape:label="bg" /><g
     inkscape:groupmode="layer"
     id="layer1"
     inkscape:label="Roads"><path
       style="baseline-shift:baseline;display:inline;overflow:visible;vector-effect:none;fill:#999999;stroke-linejoin:round;enable-background:accumulate;stop-color:#000000;stop-opacity:1;opacity:1"
       d="M 476.38281,76.746094 452.53516,103.04492 1030.3184,626.96484 730.60352,979.85547 A 17.751775,17.751775 0 0 0 729.36328,981.5 l -29.96484,44.9473 a 17.751775,17.751775 0 0 0 -2.98047,9.8457 v 39.9531 a 17.751775,17.751775 0 0 0 4.33594,11.625 l 32.46289,37.457 a 17.751775,17.751775 0 0 0 5.47461,4.25 l 34.95898,17.4805 a 17.751775,17.751775 0 0 0 9.54688,1.8008 l 54.93554,-4.9942 a 17.751775,17.751775 0 0 0 10.33203,-4.5429 l 27.46875,-24.9707 a 17.751775,17.751775 0 0 0 1.74805,-1.834 l 296.73436,-359.45901 495.9063,432.56051 -325.3262,375.9336 a 17.751775,17.751775 0 0 0 -4.0879,8.6973 l -4.9941,29.9648 a 17.751775,17.751775 0 0 0 0,5.836 l 9.9882,59.9297 a 17.751775,17.751775 0 0 0 9.2422,12.789 l 47.4453,24.9707 a 17.751775,17.751775 0 0 0 13.3672,1.295 l 49.9414,-14.9825 a 17.751775,17.751775 0 0 0 8.252,-5.3066 l 282.1699,-322.125 a 17.751775,17.751775 0 0 0 3.0625,-4.9375 l 17.4785,-42.4492 a 17.751775,17.751775 0 0 0 0.8067,-2.4531 l 9.9902,-39.9551 a 17.751775,17.751775 0 0 0 -2.5723,-14.3282 l -32.4609,-47.4433 a 17.751775,17.751775 0 0 0 -2.9824,-3.3535 L 1065.5684,611.00781 Z M 1056.877,650.5332 l 90.7773,79.18164 -296.54102,359.22266 -22.12305,20.1113 -43.97851,3.9981 -27.2832,-13.6406 -25.81055,-29.7813 v -27.959 l 26.41211,-39.6172 z m 640.1992,558.4219 27.5273,24.0117 26.6778,38.9922 -7.7383,30.9551 -15.8653,38.5312 -276.8691,316.0703 -38.1055,11.4317 -33.2304,-17.4903 -8.0547,-48.3242 3.6875,-22.125 z"
       id="path4" /><path
       style="fill:#4d4d4d;stroke-width:5;stroke-linejoin:round"
       d="M 574.33086,0 0,654.23777 V 546.86287 L 479.44142,0 Z"
       id="path1" /><path
       style="fill:#4d4d4d;stroke-width:5;stroke-linejoin:round"
       d="M 1583.1555,2002.6667 34.95927,564.3425 0,619.76413 v 52.97129 L 1499.503,2002.6667 Z"
       id="path2" /></g><g
     inkscape:groupmode="layer"
     id="layer2"
     inkscape:label="Buildings"><path
       style="fill:#ffffff;stroke:none;stroke-width:35.5;stroke-linejoin:round;stroke-dasharray:none"
       d="M 625.52122,576.82795 466.95596,745.38158 387.04906,677.96013 548.11141,506.90941 Z"
       id="path5" /><path
       style="fill:#ffffff;stroke:none;stroke-width:35.5;stroke-linejoin:round;stroke-dasharray:none"
       d="m 367.07233,689.19704 -69.91854,81.15544 177.29344,152.32254 71.16709,-73.66418 z"
       id="path6" /><path
       style="fill:#ffffff;stroke:none;stroke-width:35.5;stroke-linejoin:round;stroke-dasharray:none"
       d="m 719.16212,706.67667 -214.7498,242.2178 71.16709,68.67003 222.24107,-244.71493 z"
       id="path7" /><path
       style="fill:#ffffff;stroke:none;stroke-width:35.5;stroke-linejoin:round;stroke-dasharray:none"
       d="M 674.21449,558.09977 858.9992,717.91358 927.6692,643.00086 739.13885,478.19287 Z"
       id="path8" /><path
       style="fill:#ffffff;stroke:none;stroke-width:35.5;stroke-linejoin:round;stroke-dasharray:none"
       d="M 1157.4016,1048.7781 925.17211,1314.7183 847.7623,1248.5454 1082.4888,985.10228 Z"
       id="path9"
       sodipodi:nodetypes="ccccc" /><path
       style="fill:#ffffff;stroke:none;stroke-width:35.5;stroke-linejoin:round;stroke-dasharray:none"
       d="m 1102.4655,943.90029 69.9186,-88.64672 173.5478,148.57693 -71.1671,87.3981 z"
       id="path10" /><path
       style="fill:#ffffff;stroke:none;stroke-width:35.5;stroke-linejoin:round;stroke-dasharray:none"
       d="m 1367.1572,1055.0208 -59.9302,68.67 176.0449,163.5595 67.4214,-74.9128 z"
       id="path11" /><path
       style="fill:#ffffff;stroke:none;stroke-width:35.5;stroke-linejoin:round;stroke-dasharray:none"
       d="m 1422.0932,1324.7066 -209.7557,247.212 -77.4098,-64.9244 218.4955,-245.9634 z"
       id="path12" /><path
       style="fill:#ffffff;stroke:none;stroke-width:35.5;stroke-linejoin:round;stroke-dasharray:none"
       d="m 1186.1181,1399.6193 -171.0507,-149.8254 -72.41566,79.9069 176.04486,154.8196 z"
       id="path13" /><path
       style="fill:#ffffff;stroke:none;stroke-width:35.5;stroke-linejoin:round;stroke-dasharray:none"
       d="m 1802.8995,1419.5961 81.1554,-83.6526 189.7789,172.2993 -82.404,82.404 z"
       id="path14" /><path
       style="fill:#ffffff;stroke:none;stroke-width:35.5;stroke-linejoin:round;stroke-dasharray:none"
       d="m 1935.2453,1630.6002 -81.1554,-67.4214 -166.0566,179.7905 84.9011,74.9127 z"
       id="path15" /><path
       style="fill:#ffffff;stroke:none;stroke-width:35.5;stroke-linejoin:round;stroke-dasharray:none"
       d="m 1489.5146,1817.882 177.2934,158.5653 68.67,-76.1613 -182.2876,-159.8138 z"
       id="path16" /></g><g
     inkscape:groupmode="layer"
     id="layer3"
     inkscape:label="Labels"><text
       xml:space="preserve"
       style="font-weight:bold;font-size:48px;line-height:1;font-family:sans-serif;-inkscape-font-specification:'sans-serif, Bold';text-align:center;writing-mode:lr-tb;direction:ltr;text-anchor:middle;fill:#ffffff;stroke:none;stroke-width:35.5;stroke-linejoin:round;stroke-dasharray:none;font-style:normal;font-stretch:normal;font-variant:normal;font-variant-ligatures:normal;font-variant-caps:normal;font-variant-numeric:normal;font-variant-east-asian:normal"
       x="-68.252724"
       y="404.08847"
       id="text16"
       transform="rotate(-49.805827)"><tspan
         sodipodi:role="line"
         id="tspan16"
         x="-68.252724"
         y="404.08847">Heimer</tspan></text><text
       xml:space="preserve"
       style="font-weight:bold;font-size:48px;line-height:1;font-family:sans-serif;-inkscape-font-specification:'sans-serif, Bold';text-align:center;writing-mode:lr-tb;direction:ltr;text-anchor:middle;fill:#ffffff;stroke:none;stroke-width:35.5;stroke-linejoin:round;stroke-dasharray:none;font-style:normal;font-stretch:normal;font-variant:normal;font-variant-ligatures:normal;font-variant-caps:normal;font-variant-numeric:normal;font-variant-east-asian:normal"
       x="1312.12"
       y="475.89395"
       id="text17"
       transform="rotate(41.462834)"><tspan
         sodipodi:role="line"
         id="tspan17"
         x="1312.12"
         y="475.89395">Cross Canyon</tspan></text><text
       xml:space="preserve"
       style="font-weight:bold;font-size:48px;line-height:1;font-family:sans-serif;-inkscape-font-specification:'sans-serif, Bold';text-align:center;writing-mode:lr-tb;direction:ltr;text-anchor:middle;fill:#000000;stroke:none;stroke-width:35.5;stroke-linejoin:round;stroke-dasharray:none;font-style:normal;font-stretch:normal;font-variant:normal;font-variant-ligatures:normal;font-variant-caps:normal;font-variant-numeric:normal;font-variant-east-asian:normal"
       x="428.25107"
       y="829.03412"
       id="text18"><tspan
         sodipodi:role="line"
         id="tspan18"
         x="428.25107"
         y="829.03412">4</tspan></text><text
       xml:space="preserve"
       style="font-weight:bold;font-size:48px;line-height:1;font-family:sans-serif;-inkscape-font-specification:'sans-serif, Bold';text-align:center;writing-mode:lr-tb;direction:ltr;text-anchor:middle;fill:#000000;stroke:none;stroke-width:35.5;stroke-linejoin:round;stroke-dasharray:none;font-style:normal;font-stretch:normal;font-variant:normal;font-variant-ligatures:normal;font-variant-caps:normal;font-variant-numeric:normal;font-variant-east-asian:normal"
       x="652.9892"
       y="876.47882"
       id="text19"><tspan
         sodipodi:role="line"
         id="tspan19"
         x="652.9892"
         y="876.47882">3</tspan></text><text
       xml:space="preserve"
       style="font-weight:bold;font-size:48px;line-height:1;font-family:sans-serif;-inkscape-font-specification:'sans-serif, Bold';text-align:center;writing-mode:lr-tb;direction:ltr;text-anchor:middle;fill:#000000;stroke:none;stroke-width:35.5;stroke-linejoin:round;stroke-dasharray:none;font-style:normal;font-stretch:normal;font-variant:normal;font-variant-ligatures:normal;font-variant-caps:normal;font-variant-numeric:normal;font-variant-east-asian:normal"
       x="809.05737"
       y="620.52704"
       id="text20"><tspan
         sodipodi:role="line"
         id="tspan20"
         x="809.05737"
         y="620.52704">2</tspan></text><text
       xml:space="preserve"
       style="font-weight:bold;font-size:48px;line-height:1;font-family:sans-serif;-inkscape-font-specification:'sans-serif, Bold';text-align:center;writing-mode:lr-tb;direction:ltr;text-anchor:middle;fill:#000000;stroke:none;stroke-width:35.5;stroke-linejoin:round;stroke-dasharray:none;font-style:normal;font-stretch:normal;font-variant:normal;font-variant-ligatures:normal;font-variant-caps:normal;font-variant-numeric:normal;font-variant-east-asian:normal"
       x="998.8363"
       y="1168.6384"
       id="text21"><tspan
         sodipodi:role="line"
         id="tspan21"
         x="998.8363"
         y="1168.6384">10</tspan></text><text
       xml:space="preserve"
       style="font-weight:bold;font-size:48px;line-height:1;font-family:sans-serif;-inkscape-font-specification:'sans-serif, Bold';text-align:center;writing-mode:lr-tb;direction:ltr;text-anchor:middle;fill:#000000;stroke:none;stroke-width:35.5;stroke-linejoin:round;stroke-dasharray:none;font-style:normal;font-stretch:normal;font-variant:normal;font-variant-ligatures:normal;font-variant-caps:normal;font-variant-numeric:normal;font-variant-east-asian:normal"
       x="1067.5062"
       y="1383.3882"
       id="text22"><tspan
         sodipodi:role="line"
         id="tspan22"
         x="1067.5062"
         y="1383.3882">9</tspan></text><text
       xml:space="preserve"
       style="font-weight:bold;font-size:48px;line-height:1;font-family:sans-serif;-inkscape-font-specification:'sans-serif, Bold';text-align:center;writing-mode:lr-tb;direction:ltr;text-anchor:middle;fill:#000000;stroke:none;stroke-width:35.5;stroke-linejoin:round;stroke-dasharray:none;font-style:normal;font-stretch:normal;font-variant:normal;font-variant-ligatures:normal;font-variant-caps:normal;font-variant-numeric:normal;font-variant-east-asian:normal"
       x="1279.759"
       y="1433.3301"
       id="text23"><tspan
         sodipodi:role="line"
         id="tspan23"
         x="1279.759"
         y="1433.3301">8</tspan></text><text
       xml:space="preserve"
       style="font-weight:bold;font-size:48px;line-height:1;font-family:sans-serif;-inkscape-font-specification:'sans-serif, Bold';text-align:center;writing-mode:lr-tb;direction:ltr;text-anchor:middle;fill:#000000;stroke:none;stroke-width:35.5;stroke-linejoin:round;stroke-dasharray:none;font-style:normal;font-stretch:normal;font-variant:normal;font-variant-ligatures:normal;font-variant-caps:normal;font-variant-numeric:normal;font-variant-east-asian:normal"
       x="1616.8662"
       y="1880.3092"
       id="text24"><tspan
         sodipodi:role="line"
         id="tspan24"
         x="1616.8662"
         y="1880.3092">13</tspan></text><text
       xml:space="preserve"
       style="font-weight:bold;font-size:48px;line-height:1;font-family:sans-serif;-inkscape-font-specification:'sans-serif, Bold';text-align:center;writing-mode:lr-tb;direction:ltr;text-anchor:middle;fill:#000000;stroke:none;stroke-width:35.5;stroke-linejoin:round;stroke-dasharray:none;font-style:normal;font-stretch:normal;font-variant:normal;font-variant-ligatures:normal;font-variant-caps:normal;font-variant-numeric:normal;font-variant-east-asian:normal"
       x="1812.8878"
       y="1706.7615"
       id="text25"><tspan
         sodipodi:role="line"
         id="tspan25"
         x="1812.8878"
         y="1706.7615">12</tspan></text><text
       xml:space="preserve"
       style="font-weight:bold;font-size:48px;line-height:1;font-family:sans-serif;-inkscape-font-specification:'sans-serif, Bold';text-align:center;writing-mode:lr-tb;direction:ltr;text-anchor:middle;fill:#000000;stroke:none;stroke-width:35.5;stroke-linejoin:round;stroke-dasharray:none;font-style:normal;font-stretch:normal;font-variant:normal;font-variant-ligatures:normal;font-variant-caps:normal;font-variant-numeric:normal;font-variant-east-asian:normal"
       x="1427.0874"
       y="1182.3724"
       id="text26"><tspan
         sodipodi:role="line"
         id="tspan26"
         x="1427.0874"
         y="1182.3724">7</tspan></text><text
       xml:space="preserve"
       style="font-weight:bold;font-size:48px;line-height:1;font-family:sans-serif;-inkscape-font-specification:'sans-serif, Bold';text-align:center;writing-mode:lr-tb;direction:ltr;text-anchor:middle;fill:#000000;stroke:none;stroke-width:35.5;stroke-linejoin:round;stroke-dasharray:none;font-style:normal;font-stretch:normal;font-variant:normal;font-variant-ligatures:normal;font-variant-caps:normal;font-variant-numeric:normal;font-variant-east-asian:normal"
       x="509.40649"
       y="643.00085"
       id="text27"><tspan
         sodipodi:role="line"
         id="tspan27"
         x="509.40649"
         y="643.00085">5</tspan></text><text
       xml:space="preserve"
       style="font-weight:bold;font-size:48px;line-height:1;font-family:sans-serif;-inkscape-font-specification:'sans-serif, Bold';text-align:center;writing-mode:lr-tb;direction:ltr;text-anchor:middle;fill:#000000;stroke:none;stroke-width:35.5;stroke-linejoin:round;stroke-dasharray:none;font-style:normal;font-stretch:normal;font-variant:normal;font-variant-ligatures:normal;font-variant-caps:normal;font-variant-numeric:normal;font-variant-east-asian:normal"
       x="1217.3317"
       y="981.35669"
       id="text28"><tspan
         sodipodi:role="line"
         id="tspan28"
         x="1217.3317"
         y="981.35669">6</tspan></text><text
       xml:space="preserve"
       style="font-weight:bold;font-size:48px;line-height:1;font-family:sans-serif;-inkscape-font-specification:'sans-serif Bold';text-align:center;writing-mode:lr-tb;direction:ltr;text-anchor:middle;fill:#000000;stroke:none;stroke-width:35.5;stroke-linejoin:round;stroke-dasharray:none;font-style:normal;font-stretch:normal;font-variant:normal"
       x="1940.2396"
       y="1480.7748"
       id="text29"><tspan
         sodipodi:role="line"
         id="tspan29"
         x="1940.2396"
         y="1480.7748">11</tspan></text></g><path
     id="rect1-3"
     style="baseline-shift:baseline;display:inline;overflow:visible;vector-effect:none;fill:#ffffff;stroke-width:0.17049;stroke-linejoin:round;enable-background:accumulate;stop-color:#000000"
     d="m 461.98562,74.90099 c -3.04913,0 -5.57122,2.522427 -5.57122,5.57156 v 14.859125 c 1.48789,0 2.93498,0.008 4.3232,0.02305 V 80.47255 c 0,-0.728913 0.51911,-1.248357 1.24802,-1.248357 h 23.46133 c 0.72891,0 1.24802,0.519444 1.24802,1.248357 v 38.22435 c 0,0.72891 -0.51911,1.24836 -1.24802,1.24836 h -23.46133 c -0.72891,0 -1.24802,-0.51945 -1.24802,-1.24836 v -14.88217 c -1.38822,0.0151 -2.83531,0.023 -4.3232,0.023 v 14.85912 c 0,3.04914 2.52209,5.57145 5.57122,5.57145 h 23.46133 c 3.04913,0 5.57122,-2.52231 5.57122,-5.57145 V 80.47255 c 0,-3.049133 -2.52209,-5.57156 -5.57122,-5.57156 z m 10.23016,18.455873 0.006,4.090481 h -15.84224 v 4.340686 h 15.84881 l 0.006,4.09048 10.83434,-6.277526 z" /></svg>
