<?xml version="1.0" encoding="UTF-8" standalone="no"?>
<!-- Created with Inkscape (http://www.inkscape.org/) -->

<svg
   version="1.1"
   id="svg1"
   width="2269.3333"
   height="1764"
   viewBox="0 0 2269.3333 1764"
   sodipodi:docname="Altamonte.svg"
   inkscape:version="1.4.2 (ebf0e940d0, 2025-05-08)"
   xml:space="preserve"
   xmlns:inkscape="http://www.inkscape.org/namespaces/inkscape"
   xmlns:sodipodi="http://sodipodi.sourceforge.net/DTD/sodipodi-0.dtd"
   xmlns="http://www.w3.org/2000/svg"
   xmlns:svg="http://www.w3.org/2000/svg"><defs
     id="defs1" /><sodipodi:namedview
     id="namedview1"
     pagecolor="#ffffff"
     bordercolor="#000000"
     borderopacity="0.25"
     inkscape:showpageshadow="2"
     inkscape:pageopacity="0.0"
     inkscape:pagecheckerboard="0"
     inkscape:deskcolor="#d1d1d1"
     inkscape:zoom="0.32148506"
     inkscape:cx="1160.2406"
     inkscape:cy="783.86225"
     inkscape:window-width="1920"
     inkscape:window-height="1008"
     inkscape:window-x="0"
     inkscape:window-y="0"
     inkscape:window-maximized="1"
     inkscape:current-layer="svg1" /><rect
     style="fill:#1a1a1a;stroke:none;stroke-width:20;stroke-linejoin:round;stroke-dasharray:none"
     id="rect38"
     width="2269.3333"
     height="1764"
     x="0"
     y="0"
     inkscape:label="bg" /><g
     inkscape:groupmode="layer"
     id="layer7"
     inkscape:label="Roads"><path
       id="path40"
       style="fill:#999999;stroke:none;stroke-width:20;stroke-linejoin:round;stroke-dasharray:none;fill-opacity:1"
       d="M 143.86361,250.40044 131.42135,209.9631 109.6474,198.29849 91.761653,212.29603 108.86976,244.17931 Z m 237.65787,-149.25396 -27.49414,3.29883 a 10.001,10.001 0 0 0 -3.67578,1.19336 l -67.08594,37.39258 a 10.001,10.001 0 0 0 -0.79687,0.49414 l -129.11719,88.76758 -4.00586,-15.4082 a 10.001,10.001 0 0 0 -2.77734,-4.72266 l -23.64453,-22.54492 a 10.001,10.001 0 0 0 -13.44141,-0.32617 l -20.345701,17.59765 a 10.001,10.001 0 0 0 -2.361328,12.11719 l 12.097656,23.64453 a 10.001,10.001 0 0 0 2.847653,3.4043 l 18.57618,14.13476 -31.45313,29.44336 a 10.001,10.001 0 0 0 -2.291016,3.20899 l -14.296875,31.89257 a 10.001,10.001 0 0 0 -0.853515,3.43946 l -3.298828,50.58984 a 10.001,10.001 0 0 0 0.173828,2.61133 L 74.875,414.36719 a 10.001,10.001 0 0 0 3.541016,5.83398 l 123.173824,98.97852 a 10.001,10.001 0 0 0 0.9375,0.66797 l 97.87696,61.58593 a 10.001,10.001 0 0 0 0.48632,0.28711 l 51.17579,28.31055 57.46484,41.20117 67.5918,57.7793 33.38476,32.90234 -47.65429,60.19531 15.67968,12.41407 46.30469,-58.48828 27.91602,27.51171 a 10.001,10.001 0 0 0 0.25195,0.24024 l 270.95898,249.01759 39.03711,52.0508 A 10.001,10.001 0 0 0 864,1085.9941 l 56.30078,55.2188 51.04102,83.6211 a 10.001,10.001 0 0 0 7.55859,4.7422 l 123.17191,12.0957 a 10.001,10.001 0 0 0 0.3125,0.027 l 98.9765,6.5977 a 10.001,10.001 0 0 0 0.666,0.022 h 139.625 l 124.2266,1.0996 a 10.001,10.001 0 0 0 2.3789,-0.2657 l 56.0879,-13.1953 a 10.001,10.001 0 0 0 2.4492,-0.9297 l 42.8906,-23.0957 a 10.001,10.001 0 0 0 0.8809,-0.5332 l 113.2734,-76.9824 a 10.001,10.001 0 0 0 0.5743,-0.4199 l 98.9765,-78.082 a 10.001,10.001 0 0 0 0.8379,-0.7422 l 194.1524,-192.01956 230.3886,204.08986 10.0684,23.7969 -3.4121,19.623 -518.586,590.6426 -17.6289,5.0371 -17.3203,-4.5586 -25.6347,-12.3047 -82.6172,-65.2226 -83.3203,-69.0684 -209.8887,-190.1113 -13.4277,14.8242 210.0527,190.2578 a 10.001,10.001 0 0 0 0.332,0.2871 l 83.5801,69.2832 a 10.001,10.001 0 0 0 0.1855,0.1504 l 83.5821,65.9844 a 10.001,10.001 0 0 0 1.8691,1.166 l 27.4922,13.1973 a 10.001,10.001 0 0 0 1.7832,0.6562 l 20.8945,5.4981 a 10.001,10.001 0 0 0 5.293,-0.055 l 23.0957,-6.5996 a 10.001,10.001 0 0 0 4.7656,-3.0157 l 522.3828,-594.9668 a 10.001,10.001 0 0 0 2.3379,-4.8828 l 4.3985,-25.2949 a 10.001,10.001 0 0 0 -0.6426,-5.6094 l -12.0977,-28.5937 a 10.001,10.001 0 0 0 -2.5781,-3.5899 L 1982.8828,840.42187 a 10.001,10.001 0 0 0 -0.1816,-0.15625 L 1862.8281,739.08789 a 10.001,10.001 0 0 0 -1.8164,-1.21875 l -48.3887,-25.29492 a 10.001,10.001 0 0 0 -2.2695,-0.85352 l -37.418,-9.10156 -40.7656,-50.17383 a 10.001,10.001 0 0 0 -0.5957,-0.66992 l -80.2812,-82.48047 a 10.001,10.001 0 0 0 -0.2012,-0.20117 l -74.7832,-72.58398 a 10.001,10.001 0 0 0 -0.5723,-0.51368 l -84.6816,-70.38476 a 10.001,10.001 0 0 0 -0.01,-0.006 l -96.7793,-80.28125 a 10.001,10.001 0 0 0 -0.2929,-0.23438 l -75.8828,-58.28711 a 10.001,10.001 0 0 0 -1.3204,-0.85742 l -38.4921,-20.89648 a 10.001,10.001 0 0 0 -5.3243,-1.19531 l -19.7968,1.0996 a 10.001,10.001 0 0 0 -4.4297,1.31641 l -166.3575,95.68164 -82.1738,7.375 -54.05858,-10.59961 -32.38476,-10.79492 a 10.001,10.001 0 0 0 -0.5625,-0.16797 l -113.28125,-30.5 -367.41602,-195.22461 a 10.001,10.001 0 0 0 -0.67382,-0.32422 l -45.08985,-19.79687 a 10.001,10.001 0 0 0 -5.21094,-0.77149 z m -0.32812,20.18165 42.24805,18.54882 360.58007,191.5918 -38.42382,88.26758 -94.96875,145.18164 -127.63282,161.2207 -32.08593,-31.62109 a 10.001,10.001 0 0 0 -0.52149,-0.47852 l -68.18555,-58.28711 a 10.001,10.001 0 0 0 -0.66992,-0.52539 L 363.24609,593.4375 a 10.001,10.001 0 0 0 -0.98632,-0.625 l -51.44141,-28.45703 -97.15234,-61.12891 -119.890629,-96.34179 -5.628907,-28.13672 3.097657,-47.47461 12.736329,-28.41407 49.67187,-46.50195 139.76172,-96.08594 64.95313,-36.20312 z m -265.49805,89.03124 15.01172,14.3125 5.38867,20.72657 -0.99023,0.92578 -19.46289,-14.8086 -7.48828,-14.63281 z m 1155.53909,73.6211 35.3027,19.16406 75.1074,57.69141 96.6309,80.16015 84.3809,70.13477 74.4042,72.21484 79.8692,82.0586 40.4844,49.82422 -17.7969,33.81445 -31.0801,25.0625 -30.709,10.23633 -268.1133,54.71679 -185.3418,9.58789 -27.5878,-36.15234 -89.3692,-297.53125 -12.7461,-137.01172 161.9727,-93.16015 z m -468.55862,54.74023 105.03516,28.27735 32.71289,10.90429 a 10.001,10.001 0 0 0 1.23828,0.32813 L 997.75,389.22656 a 10.001,10.001 0 0 0 2.8164,0.14649 l 74.459,-6.68164 12.5684,135.11718 a 10.001,10.001 0 0 0 0.3808,1.95118 l 90.1797,300.23242 a 10.001,10.001 0 0 0 1.627,3.18945 l 31.625,41.44141 -8.1368,26.85742 -26.7832,21.04492 -344.55075,99.53511 0.35742,1.2364 -265.625,-244.11721 -29.34375,-28.91797 129.26758,-163.2832 a 10.001,10.001 0 0 0 0.52734,-0.73438 l 95.67773,-146.26562 a 10.001,10.001 0 0 0 0.80079,-1.48438 z m 972.81642,385.10352 28.9473,7.04101 46.332,24.2168 112.4629,94.92383 -192.6699,190.55274 -98.2598,77.5156 -112.5547,76.4922 -41.2715,22.2246 -53.6269,12.6172 -114.7676,-1.0137 -35.0235,-110.3789 -31.8007,-139.26365 -19.4981,4.45117 31.8926,139.66798 a 10.001,10.001 0 0 0 0.2187,0.7988 l 33.2051,104.6485 h -126.7168 l -98.4902,-6.5645 -118.05469,-11.5957 -49.0918,-80.4258 a 10.001,10.001 0 0 0 -1.5332,-1.9297 l -56.64454,-55.5547 -32.56835,-43.4257 337.92968,-97.62503 a 10.001,10.001 0 0 0 3.4023,-1.74219 l 30.793,-24.19531 a 10.001,10.001 0 0 0 3.3926,-4.9629 l 9.6875,-31.9746 180.3125,-9.32813 a 10.001,10.001 0 0 0 1.4844,-0.18945 l 269.4375,-54.98633 a 10.001,10.001 0 0 0 1.164,-0.3125 l 32.9922,-10.99609 a 10.001,10.001 0 0 0 3.1153,-1.70313 l 34.0918,-27.49414 a 10.001,10.001 0 0 0 2.5722,-3.12695 z" /><path
       style="display:inline;fill:#4d4d4d;stroke-width:13;stroke-linejoin:round"
       d="m 2269.3333,1038.9285 -322.1199,-273.72963 -214.629,-192.855 -424.592,-387.26528 -96.4275,49.76903 -94.8722,60.65601 c 0,0 -51.3244,40.43734 -147.75186,17.1081 -89.23977,-21.59027 -195.96556,-77.76411 -195.96556,-77.76411 0,0 -323.49872,-172.63633 -381.04415,-172.63633 C 289.2825,62.21129 0,297.05891 0,297.05891 v -46.65847 c 0,0 261.23065,-228.248308 387.26528,-225.515924 172.5383,3.740567 524.13012,283.061364 636.11042,259.732134 111.9803,-23.32923 135.3096,-57.54544 135.3096,-57.54544 l 87.0958,-54.43488 29.5503,-13.99754 L 1102.6951,0 h 57.5455 L 1318.8793,143.08597 1437.0808,51.324314 1465.0759,0 h 31.1056 l -35.7715,60.656008 -40.4373,35.771491 -80.8747,65.321851 930.2353,825.85488 z"
       id="path1"
       sodipodi:nodetypes="ccccccscsccsscccccccccccccc" /><path
       style="display:inline;fill:#4d4d4d;stroke-width:13;stroke-linejoin:round"
       d="M 1063.8131,1764 H 934.72463 c 0,0 -102.64863,-365.8013 -167.97048,-470.0052 C 701.43229,1189.7909 674.9925,1146.243 674.9925,1146.243 L 583.23084,1045.1497 46.658467,558.34633 0,508.57729 V 385.71 l 183.52331,155.52822 472.8058,421.48149 80.87468,87.09579 71.54298,93.317 68.43242,122.8672 49.76903,121.3121 46.65847,144.6412 21.77395,77.7641 z"
       id="path2" /></g><g
     inkscape:groupmode="layer"
     id="layer9"
     inkscape:label="Buildings"
     style="display:inline"><path
       style="fill:#ffffff;stroke:#00ff00;stroke-width:5;stroke-linejoin:round;stroke-dasharray:none"
       d="m 1594.1643,1609.7171 139.9754,-177.3022 74.6536,60.6561 -136.8649,171.081 z"
       id="path9" /><path
       style="fill:#ffffff;stroke:#00ff00;stroke-width:5;stroke-linejoin:round;stroke-dasharray:none"
       d="m 1875.6704,1265.9997 -132.199,155.5283 66.8771,54.4349 133.7543,-153.973 z"
       id="path10" /><path
       style="fill:#ffffff;stroke:#00ff00;stroke-width:5;stroke-linejoin:round;stroke-dasharray:none"
       d="m 1897.4443,1248.8916 65.3219,62.2113 125.9779,-122.8673 -68.4325,-68.4324 z"
       id="path11" /><path
       style="fill:#ffffff;stroke:#00ff00;stroke-width:5;stroke-linejoin:round;stroke-dasharray:none"
       d="m 2093.4099,1063.8131 69.9877,62.2112 -48.2137,52.8796 -68.4325,-63.7665 z"
       id="path12" /><path
       style="fill:#ffffff;stroke:#00ff00;stroke-width:5;stroke-linejoin:round;stroke-dasharray:none"
       d="m 1972.0979,961.16443 71.543,52.87957 -35.7715,52.8796 -73.0983,-49.769 z"
       id="path13" /><path
       style="fill:#ffffff;stroke:#00ff00;stroke-width:5;stroke-linejoin:round;stroke-dasharray:none"
       d="m 1914.5524,1042.0391 -129.0884,144.6413 60.656,55.9901 129.0885,-147.7518 z"
       id="path14" /><path
       style="fill:#ffffff;stroke:#00ff00;stroke-width:5;stroke-linejoin:round;stroke-dasharray:none"
       d="m 1755.9137,1182.0145 55.9901,80.8747 -181.968,119.7567 -51.3243,-80.8747 z"
       id="path15" /><path
       style="fill:#ffffff;stroke:#00ff00;stroke-width:5;stroke-linejoin:round;stroke-dasharray:none"
       d="m 1423.0833,1311.1029 200.6314,167.9705 -59.1008,77.7641 -202.1867,-177.3021 z"
       id="path16" /><path
       style="fill:#ffffff;stroke:#00ff00;stroke-width:5;stroke-linejoin:round;stroke-dasharray:none"
       d="m 1446.4125,936.27991 65.3218,255.06629 -93.3169,23.3292 -62.2113,-253.51097 z"
       id="path17" /><path
       style="fill:#ffffff;stroke:#00ff00;stroke-width:5;stroke-linejoin:round;stroke-dasharray:none"
       d="m 1491.5157,1004.7123 213.0736,-160.19404 66.8772,87.09581 -213.0737,161.74933 z"
       id="path18" /><path
       style="fill:#ffffff;stroke:#00ff00;stroke-width:5;stroke-linejoin:round;stroke-dasharray:none"
       d="m 1771.4665,791.63866 87.0958,60.65601 -38.8821,57.54544 -88.6511,-62.21129 z"
       id="path19" /><path
       style="fill:#ffffff;stroke:#00ff00;stroke-width:5;stroke-linejoin:round;stroke-dasharray:none"
       d="m 998.4912,1073.1448 12.4423,108.8697 73.0982,-7.7764 -9.3317,-105.7592 z"
       id="path20" /><path
       style="fill:#ffffff;stroke:#00ff00;stroke-width:5;stroke-linejoin:round;stroke-dasharray:none"
       d="m 1124.4691,992.27007 35.7715,169.52573 93.3169,-20.2186 -38.8821,-167.97051 z"
       id="path21" /><path
       style="fill:#ffffff;stroke:#ff0000;stroke-width:5;stroke-linejoin:round;stroke-dasharray:none"
       d="m 1594.1643,707.65342 111.9803,-29.55036 15.5528,59.10073 -111.9803,29.55036 z"
       id="path22" /><path
       style="fill:#ffffff;stroke:#ff0000;stroke-width:5;stroke-linejoin:round;stroke-dasharray:none"
       d="m 1538.1741,583.23084 91.7617,34.21621 -24.8845,66.87714 -88.6511,-34.21621 z"
       id="path23" /><path
       style="fill:#ffffff;stroke:#ff0000;stroke-width:5;stroke-linejoin:round;stroke-dasharray:none"
       d="m 1527.2872,541.23822 -40.4374,59.10073 -80.8746,-60.65601 41.9926,-57.54544 z"
       id="path24" /><path
       style="fill:#ffffff;stroke:#ff0000;stroke-width:5;stroke-linejoin:round;stroke-dasharray:none"
       d="m 1416.8621,426.14734 -15.5528,69.9877 -99.5381,-24.88452 13.9976,-69.9877 z"
       id="path25" /><path
       style="fill:#ffffff;stroke:#ff0000;stroke-width:5;stroke-linejoin:round;stroke-dasharray:none"
       d="m 1267.555,351.49379 37.3268,55.99016 -104.2039,62.21129 -35.7715,-55.99016 z"
       id="path26" /><path
       style="fill:#ffffff;stroke:#ff0000;stroke-width:5;stroke-linejoin:round;stroke-dasharray:none"
       d="m 1248.8916,479.02693 65.3219,171.08105 -69.9877,26.4398 -65.3219,-172.63633 z"
       id="path27" /><path
       style="fill:#ffffff;stroke:#ff0000;stroke-width:5;stroke-linejoin:round;stroke-dasharray:none"
       d="m 1438.6361,685.87947 20.2186,83.98524 -195.9655,38.88206 -20.2187,-90.20637 z"
       id="path28" /><path
       style="fill:#ffffff;stroke:#ff0000;stroke-width:5;stroke-linejoin:round;stroke-dasharray:none"
       d="m 1028.0416,446.366 10.8869,73.09827 -105.75915,6.22113 -7.77641,-69.9877 z"
       id="path29" /><path
       style="fill:#ffffff;stroke:#ff0000;stroke-width:5;stroke-linejoin:round;stroke-dasharray:none"
       d="m 902.0637,423.03677 -13.99754,68.43242 -101.09334,-24.88452 13.99754,-69.9877 z"
       id="path30" /><path
       style="fill:#ffffff;stroke:#ff0000;stroke-width:5;stroke-linejoin:round;stroke-dasharray:none"
       d="m 828.96544,500.80088 68.43242,57.54545 -199.07613,222.40536 -66.87714,-65.32186 z"
       id="path31" /><path
       style="fill:#ffffff;stroke:#ff0000;stroke-width:5;stroke-linejoin:round;stroke-dasharray:none"
       d="m 1038.9285,541.23822 63.7666,214.62895 -80.8747,20.21867 -60.65597,-209.9631 z"
       id="path32" /><path
       style="fill:#ffffff;stroke:#ff0000;stroke-width:5;stroke-linejoin:round;stroke-dasharray:none"
       d="M 788.5281,751.20133 934.72463,903.61899 874.06862,962.71971 726.31681,813.41262 Z"
       id="path33" /><path
       style="fill:#ffffff;stroke:#ff0000;stroke-width:5;stroke-linejoin:round;stroke-dasharray:none"
       d="M 1141.5772,869.40278 973.60669,926.94822 948.72217,846.07354 1116.6927,791.63866 Z"
       id="path34" /><path
       style="fill:#ffffff;stroke:#ff0000;stroke-width:5;stroke-linejoin:round;stroke-dasharray:none"
       d="M 651.66326,500.80088 531.90653,629.88931 468.13996,575.45443 592.56254,446.366 Z"
       id="path35" /><path
       style="fill:#ffffff;stroke:#ff0000;stroke-width:5;stroke-linejoin:round;stroke-dasharray:none"
       d="m 676.54778,444.81072 -245.7346,-125.97786 38.88206,-82.42996 253.511,124.42258 z"
       id="path36" /><path
       style="fill:#ffffff;stroke:#ff0000;stroke-width:5;stroke-linejoin:round;stroke-dasharray:none"
       d="m 469.69524,474.36109 -150.86238,-38.88206 -23.32923,82.42996 152.41766,35.77149 z"
       id="path37" /><path
       style="fill:#ffffff;stroke:#ff0000;stroke-width:5;stroke-linejoin:round;stroke-dasharray:none"
       d="m 443.25544,231.73705 -146.19653,99.53807 -45.10319,-66.87714 144.64125,-96.4275 z"
       id="path38" /></g><g
     inkscape:groupmode="layer"
     id="layer8"
     inkscape:label="Labels"><text
       xml:space="preserve"
       style="font-weight:bold;font-size:32px;line-height:1;font-family:'DejaVu Sans Mono';-inkscape-font-specification:'DejaVu Sans Mono, Bold';text-align:center;writing-mode:lr-tb;direction:ltr;text-anchor:middle;fill:#ffffff;stroke:none;stroke-width:20;stroke-linejoin:round;stroke-dasharray:none"
       x="1630.1296"
       y="-734.63525"
       id="text38"
       transform="rotate(41.657443)"><tspan
         sodipodi:role="line"
         id="tspan38"
         x="1630.1296"
         y="-734.63525">Blue Crest</tspan></text><text
       xml:space="preserve"
       style="font-weight:bold;font-size:48px;line-height:1;font-family:'DejaVu Sans Mono';-inkscape-font-specification:'DejaVu Sans Mono, Bold';text-align:center;writing-mode:lr-tb;direction:ltr;text-anchor:middle;fill:#ffffff;stroke:none;stroke-width:20;stroke-linejoin:round;stroke-dasharray:none"
       x="1191.1322"
       y="261.75433"
       id="text39"
       transform="rotate(46.288949)"><tspan
         sodipodi:role="line"
         id="tspan39"
         x="1191.1322"
         y="261.75433">Starcrest</tspan></text><text
       xml:space="preserve"
       style="font-weight:bold;font-size:32px;line-height:1;font-family:'DejaVu Sans Mono';-inkscape-font-specification:'DejaVu Sans Mono, Bold';text-align:center;writing-mode:lr-tb;direction:ltr;text-anchor:middle;fill:#ffffff;stroke:none;stroke-width:20;stroke-linejoin:round;stroke-dasharray:none"
       x="550.83862"
       y="-126.3934"
       id="text40"
       transform="rotate(24.484603)"><tspan
         sodipodi:role="line"
         id="tspan40"
         x="550.83862"
         y="-126.3934">Skyblue Ln</tspan></text><text
       xml:space="preserve"
       style="font-weight:bold;font-size:48px;line-height:1;font-family:'DejaVu Sans Mono';-inkscape-font-specification:'DejaVu Sans Mono, Bold';text-align:center;writing-mode:lr-tb;direction:ltr;text-anchor:middle;fill:#000000;fill-opacity:1;stroke:none;stroke-width:20;stroke-linejoin:round;stroke-dasharray:none"
       x="346.82794"
       y="261.28741"
       id="text41"><tspan
         sodipodi:role="line"
         id="tspan41"
         x="346.82794"
         y="261.28741">2</tspan></text><text
       xml:space="preserve"
       style="font-weight:bold;font-size:48px;line-height:1;font-family:'DejaVu Sans Mono';-inkscape-font-specification:'DejaVu Sans Mono, Bold';text-align:center;writing-mode:lr-tb;direction:ltr;text-anchor:middle;fill:#000000;fill-opacity:1;stroke:none;stroke-width:20;stroke-linejoin:round;stroke-dasharray:none"
       x="575.45441"
       y="354.60437"
       id="text42"><tspan
         sodipodi:role="line"
         id="tspan42"
         x="575.45441"
         y="354.60437">3</tspan></text><text
       xml:space="preserve"
       style="font-weight:bold;font-size:48px;line-height:1;font-family:'DejaVu Sans Mono';-inkscape-font-specification:'DejaVu Sans Mono, Bold';text-align:center;writing-mode:lr-tb;direction:ltr;text-anchor:middle;fill:#000000;fill-opacity:1;stroke:none;stroke-width:20;stroke-linejoin:round;stroke-dasharray:none"
       x="384.15469"
       y="510.13257"
       id="text43"><tspan
         sodipodi:role="line"
         id="tspan43"
         x="384.15469"
         y="510.13257">1</tspan></text><text
       xml:space="preserve"
       style="font-weight:bold;font-size:48px;line-height:1;font-family:'DejaVu Sans Mono';-inkscape-font-specification:'DejaVu Sans Mono, Bold';text-align:center;writing-mode:lr-tb;direction:ltr;text-anchor:middle;fill:#000000;fill-opacity:1;stroke:none;stroke-width:20;stroke-linejoin:round;stroke-dasharray:none"
       x="558.34631"
       y="550.56995"
       id="text44"><tspan
         sodipodi:role="line"
         id="tspan44"
         x="558.34631"
         y="550.56995">4</tspan></text><text
       xml:space="preserve"
       style="font-weight:bold;font-size:48px;line-height:1;font-family:'DejaVu Sans Mono';-inkscape-font-specification:'DejaVu Sans Mono, Bold';text-align:center;writing-mode:lr-tb;direction:ltr;text-anchor:middle;fill:#000000;fill-opacity:1;stroke:none;stroke-width:20;stroke-linejoin:round;stroke-dasharray:none"
       x="846.07355"
       y="458.80826"
       id="text45"><tspan
         sodipodi:role="line"
         id="tspan45"
         x="846.07355"
         y="458.80826">5</tspan></text><text
       xml:space="preserve"
       style="font-weight:bold;font-size:48px;line-height:1;font-family:'DejaVu Sans Mono';-inkscape-font-specification:'DejaVu Sans Mono, Bold';text-align:center;writing-mode:lr-tb;direction:ltr;text-anchor:middle;fill:#000000;fill-opacity:1;stroke:none;stroke-width:20;stroke-linejoin:round;stroke-dasharray:none"
       x="979.82782"
       y="500.8009"
       id="text46"><tspan
         sodipodi:role="line"
         id="tspan46"
         x="979.82782"
         y="500.8009">10</tspan></text><text
       xml:space="preserve"
       style="font-weight:bold;font-size:48px;line-height:1;font-family:'DejaVu Sans Mono';-inkscape-font-specification:'DejaVu Sans Mono, Bold';text-align:center;writing-mode:lr-tb;direction:ltr;text-anchor:middle;fill:#000000;fill-opacity:1;stroke:none;stroke-width:20;stroke-linejoin:round;stroke-dasharray:none"
       x="763.64362"
       y="650.10797"
       id="text47"><tspan
         sodipodi:role="line"
         id="tspan47"
         x="763.64362"
         y="650.10797">6</tspan></text><text
       xml:space="preserve"
       style="font-weight:bold;font-size:48px;line-height:1;font-family:'DejaVu Sans Mono';-inkscape-font-specification:'DejaVu Sans Mono, Bold';text-align:center;writing-mode:lr-tb;direction:ltr;text-anchor:middle;fill:#000000;fill-opacity:1;stroke:none;stroke-width:20;stroke-linejoin:round;stroke-dasharray:none"
       x="1029.5969"
       y="667.21606"
       id="text48"><tspan
         sodipodi:role="line"
         id="tspan48"
         x="1029.5969"
         y="667.21606">9</tspan></text><text
       xml:space="preserve"
       style="font-weight:bold;font-size:48px;line-height:1;font-family:'DejaVu Sans Mono';-inkscape-font-specification:'DejaVu Sans Mono, Bold';text-align:center;writing-mode:lr-tb;direction:ltr;text-anchor:middle;fill:#000000;fill-opacity:1;stroke:none;stroke-width:20;stroke-linejoin:round;stroke-dasharray:none"
       x="830.52075"
       y="875.6239"
       id="text49"><tspan
         sodipodi:role="line"
         id="tspan49"
         x="830.52075"
         y="875.6239">7</tspan></text><text
       xml:space="preserve"
       style="font-weight:bold;font-size:48px;line-height:1;font-family:'DejaVu Sans Mono';-inkscape-font-specification:'DejaVu Sans Mono, Bold';text-align:center;writing-mode:lr-tb;direction:ltr;text-anchor:middle;fill:#000000;fill-opacity:1;stroke:none;stroke-width:20;stroke-linejoin:round;stroke-dasharray:none"
       x="1040.4838"
       y="874.0686"
       id="text50"><tspan
         sodipodi:role="line"
         id="tspan50"
         x="1040.4838"
         y="874.0686">8</tspan></text><text
       xml:space="preserve"
       style="font-weight:bold;font-size:48px;line-height:1;font-family:'DejaVu Sans Mono';-inkscape-font-specification:'DejaVu Sans Mono, Bold';text-align:center;writing-mode:lr-tb;direction:ltr;text-anchor:middle;fill:#000000;fill-opacity:1;stroke:none;stroke-width:20;stroke-linejoin:round;stroke-dasharray:none"
       x="1043.5944"
       y="1141.5771"
       id="text51"><tspan
         sodipodi:role="line"
         id="tspan51"
         x="1043.5944"
         y="1141.5771">1</tspan></text><text
       xml:space="preserve"
       style="font-weight:bold;font-size:48px;line-height:1;font-family:'DejaVu Sans Mono';-inkscape-font-specification:'DejaVu Sans Mono, Bold';text-align:center;writing-mode:lr-tb;direction:ltr;text-anchor:middle;fill:#000000;fill-opacity:1;stroke:none;stroke-width:20;stroke-linejoin:round;stroke-dasharray:none"
       x="1191.3462"
       y="1084.0317"
       id="text52"><tspan
         sodipodi:role="line"
         id="tspan52"
         x="1191.3462"
         y="1084.0317">2</tspan></text><text
       xml:space="preserve"
       style="font-weight:bold;font-size:48px;line-height:1;font-family:'DejaVu Sans Mono';-inkscape-font-specification:'DejaVu Sans Mono, Bold';text-align:center;writing-mode:lr-tb;direction:ltr;text-anchor:middle;fill:#000000;fill-opacity:1;stroke:none;stroke-width:20;stroke-linejoin:round;stroke-dasharray:none"
       x="1227.1177"
       y="429.25787"
       id="text53"><tspan
         sodipodi:role="line"
         id="tspan53"
         x="1227.1177"
         y="429.25787">11</tspan></text><text
       xml:space="preserve"
       style="font-weight:bold;font-size:48px;line-height:1;font-family:'DejaVu Sans Mono';-inkscape-font-specification:'DejaVu Sans Mono, Bold';text-align:center;writing-mode:lr-tb;direction:ltr;text-anchor:middle;fill:#000000;fill-opacity:1;stroke:none;stroke-width:20;stroke-linejoin:round;stroke-dasharray:none"
       x="1357.7615"
       y="465.02939"
       id="text54"><tspan
         sodipodi:role="line"
         id="tspan54"
         x="1357.7615"
         y="465.02939">17</tspan></text><text
       xml:space="preserve"
       style="font-weight:bold;font-size:48px;line-height:1;font-family:'DejaVu Sans Mono';-inkscape-font-specification:'DejaVu Sans Mono, Bold';text-align:center;writing-mode:lr-tb;direction:ltr;text-anchor:middle;fill:#000000;fill-opacity:1;stroke:none;stroke-width:20;stroke-linejoin:round;stroke-dasharray:none"
       x="1461.9653"
       y="553.68048"
       id="text55"><tspan
         sodipodi:role="line"
         id="tspan55"
         x="1461.9653"
         y="553.68048">16</tspan></text><text
       xml:space="preserve"
       style="font-weight:bold;font-size:48px;line-height:1;font-family:'DejaVu Sans Mono';-inkscape-font-specification:'DejaVu Sans Mono, Bold';text-align:center;writing-mode:lr-tb;direction:ltr;text-anchor:middle;fill:#000000;fill-opacity:1;stroke:none;stroke-width:20;stroke-linejoin:round;stroke-dasharray:none"
       x="1566.1693"
       y="646.99744"
       id="text56"><tspan
         sodipodi:role="line"
         id="tspan56"
         x="1566.1693"
         y="646.99744">15</tspan></text><text
       xml:space="preserve"
       style="font-weight:bold;font-size:48px;line-height:1;font-family:'DejaVu Sans Mono';-inkscape-font-specification:'DejaVu Sans Mono, Bold';text-align:center;writing-mode:lr-tb;direction:ltr;text-anchor:middle;fill:#000000;fill-opacity:1;stroke:none;stroke-width:20;stroke-linejoin:round;stroke-dasharray:none"
       x="1653.265"
       y="737.2038"
       id="text57"><tspan
         sodipodi:role="line"
         id="tspan57"
         x="1653.265"
         y="737.2038">14</tspan></text><text
       xml:space="preserve"
       style="font-weight:bold;font-size:48px;line-height:1;font-family:'DejaVu Sans Mono';-inkscape-font-specification:'DejaVu Sans Mono, Bold';text-align:center;writing-mode:lr-tb;direction:ltr;text-anchor:middle;fill:#000000;fill-opacity:1;stroke:none;stroke-width:20;stroke-linejoin:round;stroke-dasharray:none"
       x="1242.6704"
       y="589.45197"
       id="text58"><tspan
         sodipodi:role="line"
         id="tspan58"
         x="1242.6704"
         y="589.45197">12</tspan></text><text
       xml:space="preserve"
       style="font-weight:bold;font-size:48px;line-height:1;font-family:'DejaVu Sans Mono';-inkscape-font-specification:'DejaVu Sans Mono, Bold';text-align:center;writing-mode:lr-tb;direction:ltr;text-anchor:middle;fill:#000000;fill-opacity:1;stroke:none;stroke-width:20;stroke-linejoin:round;stroke-dasharray:none"
       x="1345.3191"
       y="763.64355"
       id="text59"><tspan
         sodipodi:role="line"
         id="tspan59"
         x="1345.3191"
         y="763.64355">13</tspan></text><text
       xml:space="preserve"
       style="font-weight:bold;font-size:48px;line-height:1;font-family:'DejaVu Sans Mono';-inkscape-font-specification:'DejaVu Sans Mono, Bold';text-align:center;writing-mode:lr-tb;direction:ltr;text-anchor:middle;fill:#000000;fill-opacity:1;stroke:none;stroke-width:20;stroke-linejoin:round;stroke-dasharray:none"
       x="1432.4149"
       y="1091.8081"
       id="text60"><tspan
         sodipodi:role="line"
         id="tspan60"
         x="1432.4149"
         y="1091.8081">3</tspan></text><text
       xml:space="preserve"
       style="font-weight:bold;font-size:48px;line-height:1;font-family:'DejaVu Sans Mono';-inkscape-font-specification:'DejaVu Sans Mono, Bold';text-align:center;writing-mode:lr-tb;direction:ltr;text-anchor:middle;fill:#000000;fill-opacity:1;stroke:none;stroke-width:20;stroke-linejoin:round;stroke-dasharray:none"
       x="1629.9358"
       y="984.49365"
       id="text61"><tspan
         sodipodi:role="line"
         id="tspan61"
         x="1629.9358"
         y="984.49365">4</tspan></text><text
       xml:space="preserve"
       style="font-weight:bold;font-size:48px;line-height:1;font-family:'DejaVu Sans Mono';-inkscape-font-specification:'DejaVu Sans Mono, Bold';text-align:center;writing-mode:lr-tb;direction:ltr;text-anchor:middle;fill:#000000;fill-opacity:1;stroke:none;stroke-width:20;stroke-linejoin:round;stroke-dasharray:none"
       x="1794.7958"
       y="866.29218"
       id="text62"><tspan
         sodipodi:role="line"
         id="tspan62"
         x="1794.7958"
         y="866.29218">5</tspan></text><text
       xml:space="preserve"
       style="font-weight:bold;font-size:48px;line-height:1;font-family:'DejaVu Sans Mono';-inkscape-font-specification:'DejaVu Sans Mono, Bold';text-align:center;writing-mode:lr-tb;direction:ltr;text-anchor:middle;fill:#000000;fill-opacity:1;stroke:none;stroke-width:20;stroke-linejoin:round;stroke-dasharray:none"
       x="1987.6506"
       y="1031.1522"
       id="text63"><tspan
         sodipodi:role="line"
         id="tspan63"
         x="1987.6506"
         y="1031.1522">6</tspan></text><text
       xml:space="preserve"
       style="font-weight:bold;font-size:48px;line-height:1;font-family:'DejaVu Sans Mono';-inkscape-font-specification:'DejaVu Sans Mono, Bold';text-align:center;writing-mode:lr-tb;direction:ltr;text-anchor:middle;fill:#000000;fill-opacity:1;stroke:none;stroke-width:20;stroke-linejoin:round;stroke-dasharray:none"
       x="2101.1863"
       y="1136.9114"
       id="text64"><tspan
         sodipodi:role="line"
         id="tspan64"
         x="2101.1863"
         y="1136.9114">14</tspan></text><text
       xml:space="preserve"
       style="font-weight:bold;font-size:48px;line-height:1;font-family:'DejaVu Sans Mono';-inkscape-font-specification:'DejaVu Sans Mono, Bold';text-align:center;writing-mode:lr-tb;direction:ltr;text-anchor:middle;fill:#000000;fill-opacity:1;stroke:none;stroke-width:20;stroke-linejoin:round;stroke-dasharray:none"
       x="1881.8916"
       y="1160.2406"
       id="text65"><tspan
         sodipodi:role="line"
         id="tspan65"
         x="1881.8916"
         y="1160.2406">7</tspan></text><text
       xml:space="preserve"
       style="font-weight:bold;font-size:48px;line-height:1;font-family:'DejaVu Sans Mono';-inkscape-font-specification:'DejaVu Sans Mono, Bold';text-align:center;writing-mode:lr-tb;direction:ltr;text-anchor:middle;fill:#000000;fill-opacity:1;stroke:none;stroke-width:20;stroke-linejoin:round;stroke-dasharray:none"
       x="1989.2059"
       y="1234.8942"
       id="text66"><tspan
         sodipodi:role="line"
         id="tspan66"
         x="1989.2059"
         y="1234.8942">13</tspan></text><text
       xml:space="preserve"
       style="font-weight:bold;font-size:48px;line-height:1;font-family:'DejaVu Sans Mono';-inkscape-font-specification:'DejaVu Sans Mono, Bold';text-align:center;writing-mode:lr-tb;direction:ltr;text-anchor:middle;fill:#000000;fill-opacity:1;stroke:none;stroke-width:20;stroke-linejoin:round;stroke-dasharray:none"
       x="1695.2576"
       y="1295.5502"
       id="text67"><tspan
         sodipodi:role="line"
         id="tspan67"
         x="1695.2576"
         y="1295.5502">8</tspan></text><text
       xml:space="preserve"
       style="font-weight:bold;font-size:48px;line-height:1;font-family:'DejaVu Sans Mono';-inkscape-font-specification:'DejaVu Sans Mono, Bold';text-align:center;writing-mode:lr-tb;direction:ltr;text-anchor:middle;fill:#000000;fill-opacity:1;stroke:none;stroke-width:20;stroke-linejoin:round;stroke-dasharray:none"
       x="1839.8989"
       y="1388.8669"
       id="text68"><tspan
         sodipodi:role="line"
         id="tspan68"
         x="1839.8989"
         y="1388.8669">12</tspan></text><text
       xml:space="preserve"
       style="font-weight:bold;font-size:48px;line-height:1;font-family:'DejaVu Sans Mono';-inkscape-font-specification:'DejaVu Sans Mono, Bold';text-align:center;writing-mode:lr-tb;direction:ltr;text-anchor:middle;fill:#000000;fill-opacity:1;stroke:none;stroke-width:20;stroke-linejoin:round;stroke-dasharray:none"
       x="1496.1814"
       y="1451.0784"
       id="text69"><tspan
         sodipodi:role="line"
         id="tspan69"
         x="1496.1814"
         y="1451.0784">10</tspan></text><text
       xml:space="preserve"
       style="font-weight:bold;font-size:48px;line-height:1;font-family:'DejaVu Sans Mono';-inkscape-font-specification:'DejaVu Sans Mono, Bold';text-align:center;writing-mode:lr-tb;direction:ltr;text-anchor:middle;fill:#000000;fill-opacity:1;stroke:none;stroke-width:20;stroke-linejoin:round;stroke-dasharray:none"
       x="1707.7"
       y="1559.9481"
       id="text70"><tspan
         sodipodi:role="line"
         id="tspan70"
         x="1707.7"
         y="1559.9481">11</tspan></text></g><g
     inkscape:groupmode="layer"
     id="layer10"
     inkscape:label="Legend"
     transform="translate(-142.95647,128.92426)"><rect
       style="display:inline;fill:#ff0000;fill-opacity:1;stroke:none;stroke-width:5;stroke-linejoin:round;stroke-dasharray:none"
       id="rect70"
       width="29.550364"
       height="29.550364"
       x="1757.469"
       y="69.987701" /><text
       xml:space="preserve"
       style="font-weight:bold;font-size:32px;line-height:1;font-family:'DejaVu Sans Mono';-inkscape-font-specification:'DejaVu Sans Mono, Bold';text-align:center;writing-mode:lr-tb;direction:ltr;text-anchor:middle;display:inline;fill:#ff0000;fill-opacity:1;stroke:none;stroke-width:5;stroke-linejoin:round;stroke-dasharray:none"
       x="2046.3387"
       y="96.427498"
       id="text71"><tspan
         sodipodi:role="line"
         id="tspan71"
         x="2046.3387"
         y="96.427498">Phase 1 - 12474 Starcrest</tspan></text><rect
       style="display:inline;fill:#00ff00;fill-opacity:1;stroke:none;stroke-width:5;stroke-linejoin:round;stroke-dasharray:none"
       id="rect70-3"
       width="29.550364"
       height="29.550364"
       x="1757.2709"
       y="114.67937" /><text
       xml:space="preserve"
       style="font-weight:bold;font-size:32px;line-height:1;font-family:'DejaVu Sans Mono';-inkscape-font-specification:'DejaVu Sans Mono, Bold';text-align:center;writing-mode:lr-tb;direction:ltr;text-anchor:middle;display:inline;fill:#00ff00;fill-opacity:1;stroke:none;stroke-width:5;stroke-linejoin:round;stroke-dasharray:none"
       x="2046.1406"
       y="141.11917"
       id="text71-6"><tspan
         sodipodi:role="line"
         id="tspan71-0"
         x="2046.1406"
         y="141.11917">Phase 2 - 12470 Starcrest</tspan></text></g><path
     id="rect1"
     style="baseline-shift:baseline;display:inline;overflow:visible;vector-effect:none;fill:#ffffff;stroke-width:0.110009;stroke-linejoin:round;enable-background:accumulate;stop-color:#000000"
     d="m 91.096825,179.50537 c -1.967463,0 -3.594851,1.6276 -3.594851,3.59507 v 9.5879 c 0.960066,0 1.893816,0.005 2.78957,0.0148 v -9.60278 c 0,-0.47033 0.334957,-0.80551 0.805281,-0.80551 h 15.138515 c 0.47032,0 0.80529,0.33518 0.80529,0.80551 v 24.66441 c 0,0.47032 -0.33497,0.8055 -0.80529,0.8055 H 91.096825 c -0.470324,0 -0.805281,-0.33518 -0.805281,-0.8055 v -9.60279 c -0.895754,0.0103 -1.829504,0.0148 -2.78957,0.0148 v 9.58791 c 0,1.96746 1.627388,3.59499 3.594851,3.59499 h 15.138515 c 1.96746,0 3.59485,-1.62753 3.59485,-3.59499 v -24.66441 c 0,-1.96747 -1.62739,-3.59507 -3.59485,-3.59507 z m 6.601042,11.90872 0.0039,2.6394 H 87.479462 v 2.80084 h 10.226515 l 0.0039,2.6394 6.990893,-4.05059 z"
     inkscape:label="Entrance" /></svg>
