<?xml version="1.0" encoding="UTF-8" standalone="no"?>
<!-- Created with Inkscape (http://www.inkscape.org/) -->

<svg
   version="1.1"
   id="svg1"
   width="2231"
   height="1858.6667"
   viewBox="0 0 2231.0001 1858.6667"
   sodipodi:docname="Arbor Hill.svg"
   inkscape:version="1.4.2 (ebf0e940d0, 2025-05-08)"
   xml:space="preserve"
   xmlns:inkscape="http://www.inkscape.org/namespaces/inkscape"
   xmlns:sodipodi="http://sodipodi.sourceforge.net/DTD/sodipodi-0.dtd"
   xmlns="http://www.w3.org/2000/svg"
   xmlns:svg="http://www.w3.org/2000/svg"><defs
     id="defs1" /><sodipodi:namedview
     id="namedview1"
     pagecolor="#ffffff"
     bordercolor="#000000"
     borderopacity="0.25"
     inkscape:showpageshadow="2"
     inkscape:pageopacity="0.0"
     inkscape:pagecheckerboard="0"
     inkscape:deskcolor="#d1d1d1"
     inkscape:zoom="0.30511098"
     inkscape:cx="919.33761"
     inkscape:cy="917.69886"
     inkscape:window-width="1920"
     inkscape:window-height="1008"
     inkscape:window-x="0"
     inkscape:window-y="0"
     inkscape:window-maximized="1"
     inkscape:current-layer="layer3" /><rect
     style="fill:#1a1a1a;stroke:none;stroke-width:32.4;stroke-linejoin:round"
     id="rect32"
     width="2231"
     height="1858.6667"
     x="0"
     y="0"
     inkscape:label="bg" /><g
     inkscape:groupmode="layer"
     id="layer1"
     inkscape:label="Roads"
     style="display:inline"><path
       style="baseline-shift:baseline;display:inline;overflow:visible;vector-effect:none;fill:#999999;stroke-linejoin:round;enable-background:accumulate;stop-color:#000000;stop-opacity:1;opacity:1"
       d="m 2152.7031,227.55469 -302.7226,903.25981 -15.0117,27.75 -300.4551,-265.70122 a 16.201621,16.201621 0 0 0 -9.5782,-4.02344 l -32.4453,-2.3164 a 16.201621,16.201621 0 0 0 -12.7793,4.875 l -38.2382,39.39843 23.25,22.56641 32.9843,-33.98437 19.4512,1.38867 301.9844,267.05272 -22.5742,41.7266 28.4961,15.416 54.08,-99.9629 a 16.201621,16.201621 0 0 0 1.1114,-2.5605 l 303.1679,-904.58989 z"
       id="path6" /><path
       style="baseline-shift:baseline;display:inline;overflow:visible;opacity:1;vector-effect:none;fill:#999999;stroke-linejoin:round;enable-background:accumulate;stop-color:#000000;stop-opacity:1"
       d="m 352.87695,153.24805 a 16.201621,16.201621 0 0 0 -15.1914,5.34765 L 74.644531,463.35156 99.171875,484.52148 351.73437,191.90625 677.41992,467.31836 639.16016,517.50781 469.80078,676.49805 491.97656,700.12109 662.31641,540.21094 a 16.201621,16.201621 0 0 0 1.79492,-1.99024 L 771.87695,396.84961 746.11133,377.20898 697.08789,441.51758 360.4082,156.81055 a 16.201621,16.201621 0 0 0 -7.53125,-3.5625 z M 1079.7656,673.72852 856.12305,911.27539 a 16.201621,16.201621 0 0 0 -4.12696,8.11914 l -10.42968,55.62109 a 16.201621,16.201621 0 0 0 4.80468,14.76758 l 82.27344,77.6387 a 16.201621,16.201621 0 0 0 13.4082,4.2539 l 32.44532,-4.6348 a 16.201621,16.201621 0 0 0 9.93164,-5.4023 l 232.91211,-267.67581 -24.4434,-21.26758 -228.95309,263.12499 -18.74414,2.6777 -70.1582,-66.20698 7.92383,-42.25977 220.3887,-234.09375 z m 350.502,319.51953 -106.1192,230.69535 -76.9882,118.8789 -87.6133,78.5117 21.6211,24.1289 89.2265,-79.9551 a 16.201621,16.201621 0 0 0 2.7852,-3.2578 l 78.7969,-121.6719 a 16.201621,16.201621 0 0 0 1.1191,-2.0351 l 42.3594,-92.084 45.0742,11.9062 138.4551,124.836 a 16.201621,16.201621 0 0 0 2.4961,1.8515 l 138.6015,83.3848 -145.0605,327.2305 29.6211,13.1308 148.6797,-335.3965 59.0449,-76.0761 -25.5957,-19.8653 -49.3555,63.5918 -137.8945,-82.9589 -140.211,-126.42 a 16.201621,16.201621 0 0 0 -6.7109,-3.6308 l -43.4004,-11.4649 50.5039,-109.789 z"
       id="path7" /><path
       style="fill:#4d4d4d;stroke-width:32.4;stroke-linejoin:round"
       d="M 296.64507,0 H 428.74482 L 1761.3301,1193.5329 2231,1425.4116 v 81.1139 L 1712.6618,1260.7415 359.21864,62.573569 0,440.33252 V 336.04324 Z"
       id="path1"
       sodipodi:nodetypes="cccccccccc" /></g><g
     inkscape:groupmode="layer"
     id="layer2"
     inkscape:label="Buildings"><path
       style="fill:#ffffff;stroke:none;stroke-width:32.4;stroke-linejoin:round"
       d="M 444.9676,325.61431 289.69245,501.74732 223.64257,439.17375 383.5528,266.51705 Z"
       id="path8" /><path
       style="fill:#ffffff;stroke:none;stroke-width:32.4;stroke-linejoin:round"
       d="m 535.35164,383.5528 63.73234,54.46218 -161.069,188.87948 -68.36742,-49.8271 z"
       id="path9" /><path
       style="fill:#ffffff;stroke:none;stroke-width:32.4;stroke-linejoin:round"
       d="m 480.88946,753.20037 -323.29677,-287.37491 -52.14464,49.8271 322.138,290.85122 z"
       id="path10" /><path
       style="fill:#ffffff;stroke:none;stroke-width:32.4;stroke-linejoin:round"
       d="M 708.00834,720.75481 534.19288,917.74568 454.23776,847.06072 631.52954,652.38739 Z"
       id="path11" /><path
       style="fill:#ffffff;stroke:none;stroke-width:32.4;stroke-linejoin:round"
       d="M 740.4539,791.43977 589.81383,960.62016 652.38739,1018.5586 806.50378,852.85457 Z"
       id="path12" /><path
       style="fill:#ffffff;stroke:none;stroke-width:32.4;stroke-linejoin:round"
       d="M 775.21699,975.68417 928.17461,1106.6252 872.55365,1169.1987 721.91358,1037.099 Z"
       id="path13" /><path
       style="fill:#ffffff;stroke:none;stroke-width:32.4;stroke-linejoin:round"
       d="m 1200.4855,1261.9003 -171.4979,-151.7988 56.7797,-62.5736 172.6567,150.6401 z"
       id="path14" /><path
       style="fill:#ffffff;stroke:none;stroke-width:32.4;stroke-linejoin:round"
       d="m 1154.1347,1325.6326 -67.2086,77.6376 -198.14967,-176.133 67.20865,-77.6376 z"
       id="path15" /><path
       style="fill:#ffffff;stroke:none;stroke-width:32.4;stroke-linejoin:round"
       d="m 1375.4597,1046.3691 -190.0382,-170.33914 -67.2086,81.11389 190.0382,168.02165 z"
       id="path16" /><path
       style="fill:#ffffff;stroke:none;stroke-width:32.4;stroke-linejoin:round"
       d="m 1635.0242,1378.9361 -97.3367,212.0548 -81.1139,-35.9218 103.1305,-215.5312 z"
       id="path17" /><path
       style="fill:#ffffff;stroke:none;stroke-width:32.4;stroke-linejoin:round"
       d="m 1495.9718,1274.6468 -93.8603,190.0382 -70.685,-33.6043 93.8603,-191.197 z"
       id="path18" /><path
       style="fill:#ffffff;stroke:none;stroke-width:32.4;stroke-linejoin:round"
       d="m 1254.9477,1447.3035 318.6617,286.2161 -56.7797,62.5736 -326.7731,-293.1688 z"
       id="path19" /><path
       style="fill:#ffffff;stroke-width:32.4;stroke-linejoin:round"
       d="m 1520.7581,755.46281 298.2521,306.44589 62.2725,-68.82744 -293.3359,-309.72336 z"
       id="path2" /><path
       style="fill:#ffffff;stroke-width:32.4;stroke-linejoin:round"
       d="m 1935.3613,675.16416 -68.8274,213.03723 -80.2986,-29.49746 68.8274,-213.03723 z"
       id="path3" /><path
       style="fill:#ffffff;stroke-width:32.4;stroke-linejoin:round"
       d="m 2102.5136,209.75974 -157.3198,414.60323 -88.4924,-29.49746 160.5973,-411.32574 z"
       id="path4" /></g><g
     inkscape:groupmode="layer"
     id="layer3"
     inkscape:label="Labels"
     style="display:inline"><text
       xml:space="preserve"
       style="font-weight:normal;font-size:48px;line-height:1;font-family:sans-serif;-inkscape-font-specification:'sans-serif, Normal';text-align:center;writing-mode:lr-tb;direction:ltr;text-anchor:middle;fill:#000000;stroke:none;stroke-width:32.4;stroke-linejoin:round;font-style:normal;font-stretch:normal;font-variant:normal;font-variant-ligatures:normal;font-variant-caps:normal;font-variant-numeric:normal;font-variant-east-asian:normal"
       x="336.04324"
       y="403.25189"
       id="text19"><tspan
         sodipodi:role="line"
         id="tspan19"
         x="336.04324"
         y="403.25189">12</tspan></text><text
       xml:space="preserve"
       style="font-weight:normal;font-size:48px;line-height:1;font-family:sans-serif;-inkscape-font-specification:'sans-serif, Normal';text-align:center;writing-mode:lr-tb;direction:ltr;text-anchor:middle;fill:#000000;stroke:none;stroke-width:32.4;stroke-linejoin:round;font-style:normal;font-stretch:normal;font-variant:normal;font-variant-ligatures:normal;font-variant-caps:normal;font-variant-numeric:normal;font-variant-east-asian:normal"
       x="283.89859"
       y="645.43475"
       id="text20"><tspan
         sodipodi:role="line"
         id="tspan20"
         x="283.89859"
         y="645.43475">10</tspan></text><text
       xml:space="preserve"
       style="font-weight:normal;font-size:48px;line-height:1;font-family:sans-serif;-inkscape-font-specification:'sans-serif, Normal';text-align:center;writing-mode:lr-tb;direction:ltr;text-anchor:middle;fill:#000000;stroke:none;stroke-width:32.4;stroke-linejoin:round;font-style:normal;font-stretch:normal;font-variant:normal;font-variant-ligatures:normal;font-variant-caps:normal;font-variant-numeric:normal;font-variant-east-asian:normal"
       x="485.52454"
       y="522.60522"
       id="text21"><tspan
         sodipodi:role="line"
         id="tspan21"
         x="485.52454"
         y="522.60522">11</tspan></text><text
       xml:space="preserve"
       style="font-weight:normal;font-size:48px;line-height:1;font-family:sans-serif;-inkscape-font-specification:'sans-serif, Normal';text-align:center;writing-mode:lr-tb;direction:ltr;text-anchor:middle;fill:#000000;stroke:none;stroke-width:32.4;stroke-linejoin:round;font-style:normal;font-stretch:normal;font-variant:normal;font-variant-ligatures:normal;font-variant-caps:normal;font-variant-numeric:normal;font-variant-east-asian:normal"
       x="580.54364"
       y="798.3924"
       id="text22"><tspan
         sodipodi:role="line"
         id="tspan22"
         x="580.54364"
         y="798.3924">9</tspan></text><text
       xml:space="preserve"
       style="font-weight:normal;font-size:48px;line-height:1;font-family:sans-serif;-inkscape-font-specification:'sans-serif, Normal';text-align:center;writing-mode:lr-tb;direction:ltr;text-anchor:middle;fill:#000000;stroke:none;stroke-width:32.4;stroke-linejoin:round;font-style:normal;font-stretch:normal;font-variant:normal;font-variant-ligatures:normal;font-variant-caps:normal;font-variant-numeric:normal;font-variant-east-asian:normal"
       x="698.73822"
       y="918.90448"
       id="text23"><tspan
         sodipodi:role="line"
         id="tspan23"
         x="698.73822"
         y="918.90448">8</tspan></text><text
       xml:space="preserve"
       style="font-weight:normal;font-size:48px;line-height:1;font-family:sans-serif;-inkscape-font-specification:'sans-serif, Normal';text-align:center;writing-mode:lr-tb;direction:ltr;text-anchor:middle;fill:#000000;stroke:none;stroke-width:32.4;stroke-linejoin:round;font-style:normal;font-stretch:normal;font-variant:normal;font-variant-ligatures:normal;font-variant-caps:normal;font-variant-numeric:normal;font-variant-east-asian:normal"
       x="825.04407"
       y="1086.926"
       id="text24"><tspan
         sodipodi:role="line"
         id="tspan24"
         x="825.04407"
         y="1086.926">7</tspan></text><text
       xml:space="preserve"
       style="font-weight:normal;font-size:48px;line-height:1;font-family:sans-serif;-inkscape-font-specification:'sans-serif, Normal';text-align:center;writing-mode:lr-tb;direction:ltr;text-anchor:middle;fill:#000000;stroke:none;stroke-width:32.4;stroke-linejoin:round;font-style:normal;font-stretch:normal;font-variant:normal;font-variant-ligatures:normal;font-variant-caps:normal;font-variant-numeric:normal;font-variant-east-asian:normal"
       x="1017.3998"
       y="1289.7108"
       id="text25"><tspan
         sodipodi:role="line"
         id="tspan25"
         x="1017.3998"
         y="1289.7108">6</tspan></text><text
       xml:space="preserve"
       style="font-weight:normal;font-size:48px;line-height:1;font-family:sans-serif;-inkscape-font-specification:'sans-serif, Normal';text-align:center;writing-mode:lr-tb;direction:ltr;text-anchor:middle;fill:#000000;stroke:none;stroke-width:32.4;stroke-linejoin:round;font-style:normal;font-stretch:normal;font-variant:normal;font-variant-ligatures:normal;font-variant-caps:normal;font-variant-numeric:normal;font-variant-east-asian:normal"
       x="1139.0707"
       y="1165.7224"
       id="text26"><tspan
         sodipodi:role="line"
         id="tspan26"
         x="1139.0707"
         y="1165.7224">5</tspan></text><text
       xml:space="preserve"
       style="font-weight:normal;font-size:48px;line-height:1;font-family:sans-serif;-inkscape-font-specification:'sans-serif, Normal';text-align:center;writing-mode:lr-tb;direction:ltr;text-anchor:middle;fill:#000000;stroke:none;stroke-width:32.4;stroke-linejoin:round;font-style:normal;font-stretch:normal;font-variant:normal;font-variant-ligatures:normal;font-variant-caps:normal;font-variant-numeric:normal;font-variant-east-asian:normal"
       x="1250.3126"
       y="1017.3999"
       id="text27"><tspan
         sodipodi:role="line"
         id="tspan27"
         x="1250.3126"
         y="1017.3999">4</tspan></text><text
       xml:space="preserve"
       style="font-weight:normal;font-size:48px;line-height:1;font-family:sans-serif;-inkscape-font-specification:'sans-serif, Normal';text-align:center;writing-mode:lr-tb;direction:ltr;text-anchor:middle;fill:#000000;stroke:none;stroke-width:32.4;stroke-linejoin:round;font-style:normal;font-stretch:normal;font-variant:normal;font-variant-ligatures:normal;font-variant-caps:normal;font-variant-numeric:normal;font-variant-east-asian:normal"
       x="1416.0167"
       y="1366.1896"
       id="text28"><tspan
         sodipodi:role="line"
         id="tspan28"
         x="1416.0167"
         y="1366.1896">3</tspan></text><text
       xml:space="preserve"
       style="font-weight:normal;font-size:48px;line-height:1;font-family:sans-serif;-inkscape-font-specification:'sans-serif, Normal';text-align:center;writing-mode:lr-tb;direction:ltr;text-anchor:middle;fill:#000000;stroke:none;stroke-width:32.4;stroke-linejoin:round;font-style:normal;font-stretch:normal;font-variant:normal;font-variant-ligatures:normal;font-variant-caps:normal;font-variant-numeric:normal;font-variant-east-asian:normal"
       x="1545.7988"
       y="1483.2253"
       id="text29"><tspan
         sodipodi:role="line"
         id="tspan29"
         x="1545.7988"
         y="1483.2253">2</tspan></text><text
       xml:space="preserve"
       style="font-weight:normal;font-size:48px;line-height:1;font-family:sans-serif;-inkscape-font-specification:'sans-serif, Normal';text-align:center;writing-mode:lr-tb;direction:ltr;text-anchor:middle;fill:#000000;stroke:none;stroke-width:32.4;stroke-linejoin:round;font-style:normal;font-stretch:normal;font-variant:normal;font-variant-ligatures:normal;font-variant-caps:normal;font-variant-numeric:normal;font-variant-east-asian:normal"
       x="1383.571"
       y="1635.0242"
       id="text30"><tspan
         sodipodi:role="line"
         id="tspan30"
         x="1383.571"
         y="1635.0242">1</tspan></text><text
       xml:space="preserve"
       style="font-weight:normal;font-size:48px;line-height:1;font-family:sans-serif;-inkscape-font-specification:'sans-serif, Normal';text-align:center;writing-mode:lr-tb;direction:ltr;text-anchor:middle;fill:#ffffff;stroke:none;stroke-width:32.4;stroke-linejoin:round;font-style:normal;font-stretch:normal;font-variant:normal;font-variant-ligatures:normal;font-variant-caps:normal;font-variant-numeric:normal;font-variant-east-asian:normal"
       x="1053.4541"
       y="-226.48959"
       id="text31"
       transform="rotate(41.950001)"><tspan
         sodipodi:role="line"
         id="tspan31"
         x="1053.4541"
         y="-226.48959">Perennial</tspan></text><text
       xml:space="preserve"
       style="font-weight:normal;font-size:48px;line-height:1;font-family:sans-serif;-inkscape-font-specification:'sans-serif, Normal';text-align:center;writing-mode:lr-tb;direction:ltr;text-anchor:middle;fill:#ffffff;stroke:none;stroke-width:32.4;stroke-linejoin:round;font-style:normal;font-stretch:normal;font-variant:normal;font-variant-ligatures:normal;font-variant-caps:normal;font-variant-numeric:normal;font-variant-east-asian:normal"
       x="-93.592537"
       y="270.80002"
       id="text32"
       transform="rotate(-48.893098)"><tspan
         sodipodi:role="line"
         id="tspan32"
         x="-93.592537"
         y="270.80002">Heimer</tspan></text><text
       xml:space="preserve"
       style="font-weight:normal;font-size:48px;line-height:1;font-family:sans-serif;-inkscape-font-specification:'sans-serif, Normal';text-align:center;writing-mode:lr-tb;direction:ltr;text-anchor:middle;display:inline;fill:#000000;stroke-width:32.4;stroke-linejoin:round;font-style:normal;font-stretch:normal;font-variant:normal;font-variant-ligatures:normal;font-variant-caps:normal;font-variant-numeric:normal;font-variant-east-asian:normal"
       x="1689.5492"
       y="880.00763"
       id="text4"><tspan
         sodipodi:role="line"
         id="tspan4"
         x="1689.5492"
         y="880.00763">13</tspan></text><text
       xml:space="preserve"
       style="font-weight:normal;font-size:48px;line-height:1;font-family:sans-serif;-inkscape-font-specification:'sans-serif, Normal';text-align:center;writing-mode:lr-tb;direction:ltr;text-anchor:middle;fill:#000000;stroke-width:32.4;stroke-linejoin:round;font-style:normal;font-stretch:normal;font-variant:normal;font-variant-ligatures:normal;font-variant-caps:normal;font-variant-numeric:normal;font-variant-east-asian:normal"
       x="1859.9789"
       y="770.21149"
       id="text5"><tspan
         sodipodi:role="line"
         id="tspan5"
         x="1859.9789"
         y="770.21149">14</tspan></text><text
       xml:space="preserve"
       style="font-weight:normal;font-size:48px;line-height:1;font-family:sans-serif;-inkscape-font-specification:'sans-serif, Normal';text-align:center;writing-mode:lr-tb;direction:ltr;text-anchor:middle;fill:#000000;stroke-width:32.4;stroke-linejoin:round;stroke:none;font-style:normal;font-stretch:normal;font-variant:normal;font-variant-ligatures:normal;font-variant-caps:normal;font-variant-numeric:normal;font-variant-east-asian:normal"
       x="1979.6075"
       y="417.88071"
       id="text6"><tspan
         sodipodi:role="line"
         id="tspan6"
         x="1979.6075"
         y="417.88071">15</tspan></text></g><path
     id="rect1"
     style="baseline-shift:baseline;display:inline;overflow:visible;vector-effect:none;fill:#ffffff;stroke-width:0.155405;stroke-linejoin:round;enable-background:accumulate;stop-color:#000000"
     d="m 752.17314,359.47237 c -2.77935,0 -5.0783,2.29923 -5.0783,5.07864 v 13.54439 c 1.35625,0 2.67531,0.008 3.9407,0.0206 v -13.56542 c 0,-0.66447 0.47318,-1.13791 1.1376,-1.13791 h 21.38552 c 0.66443,0 1.1376,0.47344 1.1376,1.13791 v 34.84234 c 0,0.66438 -0.47317,1.1379 -1.1376,1.1379 h -21.38552 c -0.66442,0 -1.1376,-0.47352 -1.1376,-1.1379 v -13.56543 c -1.26539,0.0135 -2.58445,0.0206 -3.9407,0.0206 v 13.54447 c 0,2.77933 2.29895,5.07848 5.0783,5.07848 h 21.38552 c 2.77935,0 5.0783,-2.29915 5.0783,-5.07848 v -34.84234 c 0,-2.77941 -2.29895,-5.07864 -5.0783,-5.07864 z m 9.32501,16.82297 0.006,3.72851 h -14.44056 v 3.95669 h 14.44655 l 0.006,3.72851 9.87575,-5.72206 z" /><path
     id="rect1-2"
     style="baseline-shift:baseline;display:inline;overflow:visible;vector-effect:none;fill:#ffffff;stroke-width:0.155405;stroke-linejoin:round;enable-background:accumulate;stop-color:#000000"
     d="m 1084.7483,651.63954 c -2.7794,0 -5.0783,2.29923 -5.0783,5.07864 v 13.54439 c 1.3562,0 2.6753,0.008 3.9407,0.0206 v -13.56542 c 0,-0.66447 0.4731,-1.13791 1.1376,-1.13791 h 21.3855 c 0.6644,0 1.1376,0.47344 1.1376,1.13791 v 34.84234 c 0,0.66438 -0.4732,1.1379 -1.1376,1.1379 h -21.3855 c -0.6645,0 -1.1376,-0.47352 -1.1376,-1.1379 v -13.56543 c -1.2654,0.0135 -2.5845,0.0206 -3.9407,0.0206 v 13.54447 c 0,2.77933 2.2989,5.07848 5.0783,5.07848 h 21.3855 c 2.7793,0 5.0783,-2.29915 5.0783,-5.07848 v -34.84234 c 0,-2.77941 -2.299,-5.07864 -5.0783,-5.07864 z m 9.325,16.82297 0.01,3.72851 h -14.4446 v 3.95669 h 14.4466 l 0.01,3.72851 9.8757,-5.72206 z" /><path
     id="rect1-7"
     style="baseline-shift:baseline;display:inline;overflow:visible;vector-effect:none;fill:#ffffff;stroke-width:0.155405;stroke-linejoin:round;enable-background:accumulate;stop-color:#000000"
     d="m 1196.7483,752.4458 c -2.7794,0 -5.0783,2.29923 -5.0783,5.07864 v 13.54439 c 1.3562,0 2.6753,0.008 3.9407,0.0206 v -13.56542 c 0,-0.66447 0.4731,-1.13791 1.1376,-1.13791 h 21.3855 c 0.6644,0 1.1376,0.47344 1.1376,1.13791 v 34.84234 c 0,0.66438 -0.4732,1.1379 -1.1376,1.1379 h -21.3855 c -0.6645,0 -1.1376,-0.47352 -1.1376,-1.1379 v -13.56543 c -1.2654,0.0135 -2.5845,0.0206 -3.9407,0.0206 v 13.54447 c 0,2.77933 2.2989,5.07848 5.0783,5.07848 h 21.3855 c 2.7793,0 5.0783,-2.29915 5.0783,-5.07848 v -34.84234 c 0,-2.77941 -2.299,-5.07864 -5.0783,-5.07864 z m 9.325,16.82297 0.01,3.72851 h -14.4446 v 3.95669 h 14.4466 l 0.01,3.72851 9.8757,-5.72206 z" /><path
     id="rect1-6"
     style="baseline-shift:baseline;display:inline;overflow:visible;vector-effect:none;fill:#ffffff;stroke-width:0.155405;stroke-linejoin:round;enable-background:accumulate;stop-color:#000000"
     d="m 1443.0258,970.08455 c -2.7794,0 -5.0783,2.29923 -5.0783,5.07864 v 13.54439 c 1.3562,0 2.6753,0.008 3.9407,0.0206 v -13.56542 c 0,-0.66447 0.4731,-1.13791 1.1376,-1.13791 h 21.3855 c 0.6644,0 1.1376,0.47344 1.1376,1.13791 v 34.84234 c 0,0.6644 -0.4732,1.1379 -1.1376,1.1379 h -21.3855 c -0.6645,0 -1.1376,-0.4735 -1.1376,-1.1379 v -13.56544 c -1.2654,0.014 -2.5845,0.021 -3.9407,0.021 v 13.54454 c 0,2.7793 2.2989,5.0785 5.0783,5.0785 h 21.3855 c 2.7793,0 5.0783,-2.2992 5.0783,-5.0785 v -34.8424 c 0,-2.77941 -2.299,-5.07864 -5.0783,-5.07864 z m 9.325,16.82297 0.01,3.72851 h -14.4446 v 3.95669 h 14.4466 l 0.01,3.72854 9.8757,-5.72209 z" /><path
     id="rect1-61"
     style="baseline-shift:baseline;display:inline;overflow:visible;vector-effect:none;fill:#ffffff;stroke-width:0.155405;stroke-linejoin:round;enable-background:accumulate;stop-color:#000000"
     d="m 1790.7482,1255.5296 c -2.7793,0 -5.0783,2.2992 -5.0783,5.0786 v 13.5444 c 1.3563,0 2.6753,0.01 3.9407,0.021 v -13.5654 c 0,-0.6645 0.4732,-1.1379 1.1376,-1.1379 h 21.3856 c 0.6644,0 1.1376,0.4734 1.1376,1.1379 v 34.8423 c 0,0.6644 -0.4732,1.1379 -1.1376,1.1379 h -21.3856 c -0.6644,0 -1.1376,-0.4735 -1.1376,-1.1379 v -13.5654 c -1.2654,0.014 -2.5844,0.021 -3.9407,0.021 v 13.5445 c 0,2.7793 2.299,5.0785 5.0783,5.0785 h 21.3856 c 2.7793,0 5.0783,-2.2992 5.0783,-5.0785 v -34.8424 c 0,-2.7794 -2.299,-5.0786 -5.0783,-5.0786 z m 9.3251,16.823 0.01,3.7285 h -14.4446 v 3.9567 h 14.4465 l 0.01,3.7285 9.8758,-5.7221 z" /></svg>
