<?xml version="1.0" encoding="UTF-8" standalone="no"?>
<!-- Created with Inkscape (http://www.inkscape.org/) -->

<svg
   version="1.1"
   id="svg1"
   width="1721.3333"
   height="1541.3333"
   viewBox="0 0 1721.3333 1541.3333"
   sodipodi:docname="Burning Tree.svg"
   inkscape:version="1.4.2 (ebf0e940d0, 2025-05-08)"
   xml:space="preserve"
   xmlns:inkscape="http://www.inkscape.org/namespaces/inkscape"
   xmlns:sodipodi="http://sodipodi.sourceforge.net/DTD/sodipodi-0.dtd"
   xmlns="http://www.w3.org/2000/svg"
   xmlns:svg="http://www.w3.org/2000/svg"><defs
     id="defs1" /><sodipodi:namedview
     id="namedview1"
     pagecolor="#ffffff"
     bordercolor="#000000"
     borderopacity="0.25"
     inkscape:showpageshadow="2"
     inkscape:pageopacity="0.0"
     inkscape:pagecheckerboard="0"
     inkscape:deskcolor="#d1d1d1"
     inkscape:zoom="0.52032875"
     inkscape:cx="844.6583"
     inkscape:cy="759.13545"
     inkscape:window-width="1920"
     inkscape:window-height="1008"
     inkscape:window-x="0"
     inkscape:window-y="0"
     inkscape:window-maximized="1"
     inkscape:current-layer="layer3" /><rect
     style="fill:#1a1a1a;stroke-width:46.8;stroke-linejoin:round"
     id="rect1"
     width="1721.3333"
     height="1541.3333"
     x="0"
     y="0"
     inkscape:label="bg" /><g
     inkscape:groupmode="layer"
     id="layer1"
     inkscape:label="Roads"><path
       style="baseline-shift:baseline;display:inline;overflow:visible;vector-effect:none;fill:#999999;stroke-linejoin:round;enable-background:accumulate;stop-color:#000000;stop-opacity:1;opacity:1"
       d="M 968.36133,35.890625 939.61914,72.826172 1143.5215,231.50391 463.5293,930.08984 107.83203,618.39453 76.988281,653.59375 855.64844,1335.9258 l -110.875,153.3769 37.92773,27.418 L 944.83984,1292.4258 1399,816.64062 1666.5078,616.68555 a 23.40234,23.40234 0 0 0 0.3613,-37.20899 z M 1180.6816,260.42187 1613.916,597.56836 1369.4141,780.32617 a 23.40234,23.40234 0 0 0 -2.918,2.58594 L 909.88477,1261.2676 a 23.40234,23.40234 0 0 0 -2.03711,2.4472 l -24.66211,34.1153 -384.41016,-336.85549 z"
       id="path4" /><path
       style="fill:#4d4d4d;stroke-width:46.8;stroke-linejoin:round"
       d="M 709.16704,0 H 551.57437 L 0,609.23023 v 171.04571 z"
       id="path1" /></g><g
     inkscape:groupmode="layer"
     id="layer2"
     inkscape:label="Buildings"><path
       style="fill:#ffffff;stroke:none;stroke-width:46.8;stroke-linejoin:round"
       d="M 989.32404,239.17724 794.99253,464.76486 672.68599,342.45832 872.45334,126.38343 Z"
       id="path5" /><path
       style="fill:#ffffff;stroke:none;stroke-width:46.8;stroke-linejoin:round"
       d="M 574.84075,376.43236 332.94559,667.25014 468.84175,782.76188 706.66003,493.30306 Z"
       id="path6" /><path
       style="fill:#ffffff;stroke:none;stroke-width:46.8;stroke-linejoin:round"
       d="m 1357.6026,712.09587 -199.7673,-187.5367 101.9221,-112.79381 207.9211,175.30605 z"
       id="path7" /><path
       style="fill:#ffffff;stroke:none;stroke-width:46.8;stroke-linejoin:round"
       d="M 1243.4499,784.12084 1123.8612,675.40391 906.42738,932.24765 1028.7339,1028.7339 Z"
       id="path8" /><path
       style="fill:#ffffff;stroke:none;stroke-width:46.8;stroke-linejoin:round"
       d="M 970.29857,1046.4004 819.45384,905.06842 675.40391,1058.6311 l 154.92162,141.332 z"
       id="path9" /><path
       style="fill:#ffffff;stroke:none;stroke-width:46.8;stroke-linejoin:round"
       d="M 529.99502,1110.2716 801.78734,1337.2182 697.1473,1474.4733 422.63705,1246.1678 Z"
       id="path10" /></g><g
     inkscape:groupmode="layer"
     id="layer3"
     inkscape:label="Labels"><text
       xml:space="preserve"
       style="font-size:64px;line-height:1;font-family:sans-serif;-inkscape-font-specification:'sans-serif, Normal';text-align:center;writing-mode:lr-tb;direction:ltr;text-anchor:middle;fill:#ffffff;stroke:none;stroke-width:46.8;stroke-linejoin:round"
       x="12.135201"
       y="481.03384"
       id="text10"
       transform="rotate(-48.130488)"><tspan
         sodipodi:role="line"
         id="tspan10"
         x="12.135201"
         y="481.03384">Jones Maltsberger</tspan></text><text
       xml:space="preserve"
       style="font-size:64px;line-height:1;font-family:sans-serif;-inkscape-font-specification:'sans-serif, Normal';text-align:center;writing-mode:lr-tb;direction:ltr;text-anchor:middle;fill:#000000;stroke-width:46.8;stroke-linejoin:round"
       x="518.90271"
       y="601.54279"
       id="text1"><tspan
         sodipodi:role="line"
         id="tspan1"
         x="518.90271"
         y="601.54279">1</tspan></text><text
       xml:space="preserve"
       style="font-size:64px;line-height:1;font-family:sans-serif;-inkscape-font-specification:'sans-serif, Normal';text-align:center;writing-mode:lr-tb;direction:ltr;text-anchor:middle;fill:#000000;stroke-width:46.8;stroke-linejoin:round"
       x="834.08807"
       y="313.26349"
       id="text2"><tspan
         sodipodi:role="line"
         id="tspan2"
         x="834.08807"
         y="313.26349">2</tspan></text><text
       xml:space="preserve"
       style="font-size:64px;line-height:1;font-family:sans-serif;-inkscape-font-specification:'sans-serif, Normal';text-align:center;writing-mode:lr-tb;direction:ltr;text-anchor:middle;fill:#000000;stroke-width:46.8;stroke-linejoin:round"
       x="1314.5536"
       y="578.48041"
       id="text3"><tspan
         sodipodi:role="line"
         id="tspan3"
         x="1314.5536"
         y="578.48041">3</tspan></text><text
       xml:space="preserve"
       style="font-size:64px;line-height:1;font-family:sans-serif;-inkscape-font-specification:'sans-serif, Normal';text-align:center;writing-mode:lr-tb;direction:ltr;text-anchor:middle;fill:#000000;stroke-width:46.8;stroke-linejoin:round"
       x="1080.0864"
       y="874.44714"
       id="text4"><tspan
         sodipodi:role="line"
         id="tspan4"
         x="1080.0864"
         y="874.44714">4</tspan></text><text
       xml:space="preserve"
       style="font-size:64px;line-height:1;font-family:sans-serif;-inkscape-font-specification:'sans-serif, Normal';text-align:center;writing-mode:lr-tb;direction:ltr;text-anchor:middle;fill:#000000;stroke-width:46.8;stroke-linejoin:round"
       x="826.40057"
       y="1072.3989"
       id="text5"><tspan
         sodipodi:role="line"
         id="tspan5"
         x="826.40057"
         y="1072.3989">5</tspan></text><text
       xml:space="preserve"
       style="font-size:64px;line-height:1;font-family:sans-serif;-inkscape-font-specification:'sans-serif, Normal';text-align:center;writing-mode:lr-tb;direction:ltr;text-anchor:middle;fill:#000000;stroke-width:46.8;stroke-linejoin:round"
       x="609.23022"
       y="1314.5536"
       id="text6"><tspan
         sodipodi:role="line"
         id="tspan6"
         x="609.23022"
         y="1314.5536">6</tspan></text></g><path
     id="rect1-3"
     style="baseline-shift:baseline;display:inline;overflow:visible;vector-effect:none;fill:#ffffff;stroke-width:0.180989;stroke-linejoin:round;enable-background:accumulate;stop-color:#000000"
     d="m 94.291753,615.24034 c -3.23691,0 -5.91433,2.67777 -5.91433,5.91468 v 15.77422 c 1.57953,0 3.11573,0.008 4.58945,0.0245 v -15.79869 c 0,-0.7738 0.55108,-1.32523 1.32488,-1.32523 h 24.906167 c 0.77381,0 1.32489,0.55143 1.32489,1.32523 v 40.57831 c 0,0.7738 -0.55108,1.3253 -1.32489,1.3253 H 94.291753 c -0.7738,0 -1.32488,-0.5515 -1.32488,-1.3253 v -15.7986 c -1.47372,0.016 -3.00992,0.024 -4.58945,0.024 v 15.7742 c 0,3.237 2.67742,5.9146 5.91433,5.9146 h 24.906167 c 3.23691,0 5.91433,-2.6776 5.91433,-5.9146 v -40.57831 c 0,-3.23691 -2.67742,-5.91468 -5.91433,-5.91468 z m 10.860167,19.59247 0.007,4.34235 H 88.341043 v 4.608 h 16.824847 l 0.007,4.3424 11.50157,-6.6641 z" /></svg>
