<?xml version="1.0" encoding="UTF-8" standalone="no"?>
<!-- Created with Inkscape (http://www.inkscape.org/) -->

<svg
   version="1.1"
   id="svg1"
   width="1258.6667"
   height="1905.3333"
   viewBox="0 0 1258.6667 1905.3333"
   sodipodi:docname="Canyon Oaks.svg"
   inkscape:version="1.4.2 (ebf0e940d0, 2025-05-08)"
   xml:space="preserve"
   xmlns:inkscape="http://www.inkscape.org/namespaces/inkscape"
   xmlns:sodipodi="http://sodipodi.sourceforge.net/DTD/sodipodi-0.dtd"
   xmlns="http://www.w3.org/2000/svg"
   xmlns:svg="http://www.w3.org/2000/svg"><defs
     id="defs1" /><sodipodi:namedview
     id="namedview1"
     pagecolor="#ffffff"
     bordercolor="#000000"
     borderopacity="0.25"
     inkscape:showpageshadow="2"
     inkscape:pageopacity="0.0"
     inkscape:pagecheckerboard="0"
     inkscape:deskcolor="#d1d1d1"
     inkscape:zoom="0.42092374"
     inkscape:cx="333.78968"
     inkscape:cy="966.92099"
     inkscape:window-width="1920"
     inkscape:window-height="1008"
     inkscape:window-x="0"
     inkscape:window-y="0"
     inkscape:window-maximized="1"
     inkscape:current-layer="layer3" /><rect
     style="fill:#1a1a1a;stroke:none;stroke-width:35.5;stroke-linejoin:round"
     id="rect39"
     width="1258.6667"
     height="1905.3333"
     x="0"
     y="0"
     inkscape:label="bg" /><g
     inkscape:groupmode="layer"
     id="layer1"
     inkscape:label="Roads"><path
       style="baseline-shift:baseline;display:inline;overflow:visible;vector-effect:none;stroke-linejoin:round;enable-background:accumulate;stop-color:#000000;stop-opacity:1;opacity:1;fill:#999999"
       d="m 1018.084,106.12695 -16.291,370.07813 -146.14652,-44.1836 a 17.751775,17.751775 0 0 0 -8.39257,-0.45703 l -102.21094,19.08008 6.79297,-174.36914 A 17.751775,17.751775 0 0 0 734.73242,257.8457 l -199.56055,-7.12695 a 17.751775,17.751775 0 0 0 -18.37109,17.09766 l -6.79492,188.02343 -193.08789,-10.29687 -1.89063,35.44922 342.78711,18.28125 -22.02343,257.66601 -58.61524,199.29492 -43.74023,104.97463 -247.97461,-166.0547 -19.75196,29.49804 196.16016,131.35746 -121.01367,150.7382 -251.005861,241.5333 24.613281,25.582 251.82813,-242.3242 a 17.751775,17.751775 0 0 0 1.5332,-1.6797 l 123.65234,-154.0235 36.7793,24.6289 31.18359,55.6836 a 17.751775,17.751775 0 0 0 6.32617,6.5313 l 313.2461,188.7246 -99.40039,124.7383 27.76367,22.125 102.30664,-128.3848 38.57617,23.2422 18.32031,-30.4062 -35.4746,-21.3731 a 17.751775,17.751775 0 0 0 0.52734,-1.0019 L 1173.9551,546.84961 a 17.751775,17.751775 0 0 0 -11.8399,-22.17383 l -130.5996,-39.48437 5.4043,0.23828 16.6309,-377.74219 z m -466.44728,180.70313 164.0332,5.85742 -6.41406,164.63672 -38.09766,7.11133 -125.69922,-6.70313 z m 297.8789,180.42578 285.28908,86.25 -234.86525,769.06444 -311.82422,-187.8711 -30.03711,-53.6367 4.72461,1.9688 47.51368,-114.03521 a 17.751775,17.751775 0 0 0 0.64453,-1.81836 l 59.39258,-201.9375 a 17.751775,17.751775 0 0 0 0.65625,-3.49609 L 693.69531,496.3418 Z"
       id="path8" /><path
       style="fill:#4d4d4d;stroke-width:35.5;stroke-linejoin:round"
       d="m 1258.6667,370.61345 -56.5487,232.82127 -244.69992,738.85118 -33.26018,128.2893 -182.931,285.0872 -137.79218,97.4049 -87.90191,52.266 h 111.65918 l 123.53782,-97.4049 123.53782,-152.0465 80.77472,-142.5436 303.62435,-921.78222 V 377.74063 Z"
       id="path1" /><path
       style="fill:#4d4d4d;stroke-width:35.5;stroke-linejoin:round"
       d="m 0,1339.9102 140.16791,130.665 116.41063,152.0465 76.02327,140.1679 66.52037,142.5437 H 330.22609 L 211.43972,1667.7605 92.653363,1515.714 0,1434.9393 Z"
       id="path2" /><path
       style="fill:#999999;stroke:none;stroke-width:35.5;stroke-linejoin:round"
       d="M 191.50778,1389.2714 467.01021,1580.7792 362.85686,1708.451 141.111,1424.5491 Z"
       id="path29"
       sodipodi:nodetypes="ccccc" /></g><g
     inkscape:groupmode="layer"
     id="layer2"
     inkscape:label="Buildings"><path
       style="display:inline;fill:#ffffff;stroke:none;stroke-width:35.5;stroke-linejoin:round"
       d="m 1117.7797,95.02909 2.3757,324.28677 92.6534,-2.37573 -3.5636,-321.91104 z"
       id="path9" /><path
       style="fill:#ffffff;stroke:none;stroke-width:35.5;stroke-linejoin:round"
       d="m 934.84867,248.2635 -3.56359,134.22859 -105.71986,-4.75146 11.87863,-134.22859 z"
       id="path10" /><path
       style="fill:#ffffff;stroke:none;stroke-width:35.5;stroke-linejoin:round"
       d="M 946.72731,86.714045 941.97585,194.80963 662.82791,190.05818 668.76722,83.150453 Z"
       id="path11"
       sodipodi:nodetypes="ccccc" /><path
       style="fill:#ffffff;stroke:none;stroke-width:35.5;stroke-linejoin:round"
       d="m 596.30754,62.956772 -4.75146,135.416458 -109.28345,-3.5636 8.31505,-140.167903 z"
       id="path13" /><path
       style="fill:#ffffff;stroke:none;stroke-width:35.5;stroke-linejoin:round"
       d="m 582.05318,565.42309 -4.75146,137.79218 -100.96841,-7.12719 7.12718,-134.22859 z"
       id="path16" /><path
       style="fill:#ffffff;stroke:none;stroke-width:35.5;stroke-linejoin:round"
       d="M 412.18868,555.92018 408.62509,874.26763 300.5295,871.8919 317.15959,548.79299 Z"
       id="path17"
       sodipodi:nodetypes="ccccc" /><path
       style="fill:#ffffff;stroke:none;stroke-width:35.5;stroke-linejoin:round"
       d="M 560.67163,755.48126 507.21777,950.2909 419.31586,924.1579 473.95759,731.72399 Z"
       id="path19" /><path
       style="fill:#ffffff;stroke:none;stroke-width:35.5;stroke-linejoin:round"
       d="M 988.30254,747.16622 932.47294,977.61176 845.7589,950.2909 906.33995,722.22108 Z"
       id="path20" /><path
       style="fill:#ffffff;stroke:none;stroke-width:35.5;stroke-linejoin:round"
       d="M 850.51035,711.53031 751.91767,1014.4355 659.26431,977.61176 775.67495,684.20945 Z"
       id="path21" /><path
       style="fill:#ffffff;stroke:none;stroke-width:35.5;stroke-linejoin:round"
       d="M 1020.3749,716.28177 737.66331,627.19199 774.48708,523.84786 1052.4472,604.62258 Z"
       id="path22" /><path
       style="fill:#ffffff;stroke:none;stroke-width:35.5;stroke-linejoin:round"
       d="m 649.7614,1641.6275 -127.10141,155.6102 -103.34413,-72.4597 130.665,-155.6102 z"
       id="path23" /><path
       style="fill:#ffffff;stroke:none;stroke-width:35.5;stroke-linejoin:round"
       d="m 709.15458,1649.9426 74.83541,-86.7141 -243.51204,-174.6159 -62.95677,85.5262 z"
       id="path24" /><path
       style="fill:#ffffff;stroke:none;stroke-width:35.5;stroke-linejoin:round"
       d="M 773.29922,1376.7339 597.4954,1260.3233 540.47795,1345.8495 715.0939,1459.8844 Z"
       id="path25" /><path
       style="fill:#ffffff;stroke:none;stroke-width:35.5;stroke-linejoin:round"
       d="m 503.65418,1175.985 66.52036,43.9509 -182.931,264.8936 -84.33832,-55.8296 z"
       id="path26" /><path
       style="fill:#ffffff;stroke:none;stroke-width:35.5;stroke-linejoin:round"
       d="m 356.35909,1050.0714 -115.22277,-80.77468 -52.266,80.77468 111.65918,79.5869 z"
       id="path27" /><path
       style="fill:#ffffff;stroke:none;stroke-width:35.5;stroke-linejoin:round"
       d="M 244.69991,1154.6034 133.04073,1331.5951 52.265999,1280.517 163.92518,1107.0889 Z"
       id="path28" /><path
       style="fill:#ffffff;stroke:none;stroke-width:35.5;stroke-linejoin:round"
       d="m 939.60013,1029.8778 -55.82959,212.6276 -175.80382,-57.0175 23.75727,-64.1446 97.40482,30.8844 35.63591,-137.7922 z"
       id="path30" /><path
       style="fill:#ffffff;stroke:none;stroke-width:35.5;stroke-linejoin:round"
       d="M 337.35327,73.647545 332.60181,387.24354 444.261,389.61927 446.63672,76.023272 Z"
       id="path39" /></g><g
     inkscape:groupmode="layer"
     id="layer3"
     inkscape:label="Labels"><text
       xml:space="preserve"
       style="font-weight:normal;font-size:42.93332291px;line-height:1;font-family:sans-serif;-inkscape-font-specification:'sans-serif, Normal';text-align:center;writing-mode:lr-tb;direction:ltr;text-anchor:middle;fill:#000000;stroke:none;stroke-width:35.5;stroke-linejoin:round;font-style:normal;font-stretch:normal;font-variant:normal;font-variant-ligatures:normal;font-variant-caps:normal;font-variant-numeric:normal;font-variant-east-asian:normal"
       x="810.12299"
       y="1190.2394"
       id="text31"><tspan
         sodipodi:role="line"
         id="tspan31"
         x="810.12299"
         y="1190.2394">office</tspan></text><text
       xml:space="preserve"
       style="font-weight:normal;font-size:42.93332291px;line-height:1;font-family:sans-serif;-inkscape-font-specification:'sans-serif, Normal';text-align:center;writing-mode:lr-tb;direction:ltr;text-anchor:middle;fill:#ffffff;stroke:none;stroke-width:35.5;stroke-linejoin:round;font-style:normal;font-stretch:normal;font-variant:normal;font-variant-ligatures:normal;font-variant-caps:normal;font-variant-numeric:normal;font-variant-east-asian:normal"
       x="-884.18372"
       y="1637.1285"
       id="text40"
       transform="rotate(-55.598292)"><tspan
         sodipodi:role="line"
         id="tspan40"
         x="-884.18372"
         y="1637.1285">Canyon Ledge</tspan></text><text
       xml:space="preserve"
       style="font-weight:normal;font-size:42.93332291px;line-height:1;font-family:sans-serif;-inkscape-font-specification:'sans-serif, Normal';text-align:center;writing-mode:lr-tb;direction:ltr;text-anchor:middle;fill:#ffffff;stroke:none;stroke-width:35.5;stroke-linejoin:round;font-style:normal;font-stretch:normal;font-variant:normal;font-variant-ligatures:normal;font-variant-caps:normal;font-variant-numeric:normal;font-variant-east-asian:normal"
       x="1616.9553"
       y="673.37134"
       id="text41"
       transform="rotate(58.920464)"><tspan
         sodipodi:role="line"
         id="tspan41"
         x="1616.9553"
         y="673.37134">Henderson Pass</tspan></text><text
       xml:space="preserve"
       style="font-weight:normal;font-size:42.93332291px;line-height:1;font-family:sans-serif;-inkscape-font-specification:'sans-serif, Normal';text-align:center;writing-mode:lr-tb;direction:ltr;text-anchor:middle;fill:#000000;stroke:none;stroke-width:35.5;stroke-linejoin:round;font-style:normal;font-stretch:normal;font-variant:normal;font-variant-ligatures:normal;font-variant-caps:normal;font-variant-numeric:normal;font-variant-east-asian:normal"
       x="893.27344"
       y="633.13129"
       id="text30"><tspan
         sodipodi:role="line"
         id="tspan30"
         x="893.27344"
         y="633.13129">17</tspan></text><text
       xml:space="preserve"
       style="font-weight:normal;font-size:42.93332291px;line-height:1;font-family:sans-serif;-inkscape-font-specification:'sans-serif, Normal';text-align:center;writing-mode:lr-tb;direction:ltr;text-anchor:middle;fill:#000000;stroke:none;stroke-width:35.5;stroke-linejoin:round;font-style:normal;font-stretch:normal;font-variant:normal;font-variant-ligatures:normal;font-variant-caps:normal;font-variant-numeric:normal;font-variant-east-asian:normal"
       x="655.70068"
       y="1375.5461"
       id="text32"><tspan
         sodipodi:role="line"
         id="tspan32"
         x="655.70068"
         y="1375.5461">14</tspan></text><text
       xml:space="preserve"
       style="font-weight:normal;font-size:42.93332291px;line-height:1;font-family:sans-serif;-inkscape-font-specification:'sans-serif, Normal';text-align:center;writing-mode:lr-tb;direction:ltr;text-anchor:middle;fill:#000000;stroke:none;stroke-width:35.5;stroke-linejoin:round;font-style:normal;font-stretch:normal;font-variant:normal;font-variant-ligatures:normal;font-variant-caps:normal;font-variant-numeric:normal;font-variant-east-asian:normal"
       x="535.7265"
       y="1696.2693"
       id="text33"><tspan
         sodipodi:role="line"
         id="tspan33"
         x="535.7265"
         y="1696.2693">12</tspan></text><text
       xml:space="preserve"
       style="font-weight:normal;font-size:42.93332291px;line-height:1;font-family:sans-serif;-inkscape-font-specification:'sans-serif, Normal';text-align:center;writing-mode:lr-tb;direction:ltr;text-anchor:middle;fill:#000000;stroke:none;stroke-width:35.5;stroke-linejoin:round;font-style:normal;font-stretch:normal;font-variant:normal;font-variant-ligatures:normal;font-variant-caps:normal;font-variant-numeric:normal;font-variant-east-asian:normal"
       x="439.50955"
       y="1341.098"
       id="text34"><tspan
         sodipodi:role="line"
         id="tspan34"
         x="439.50955"
         y="1341.098">11</tspan></text><text
       xml:space="preserve"
       style="font-weight:normal;font-size:42.93332291px;line-height:1;font-family:sans-serif;-inkscape-font-specification:'sans-serif, Normal';text-align:center;writing-mode:lr-tb;direction:ltr;text-anchor:middle;fill:#000000;stroke:none;stroke-width:35.5;stroke-linejoin:round;font-style:normal;font-stretch:normal;font-variant:normal;font-variant-ligatures:normal;font-variant-caps:normal;font-variant-numeric:normal;font-variant-east-asian:normal"
       x="1166.4822"
       y="266.08145"
       id="text35"><tspan
         sodipodi:role="line"
         id="tspan35"
         x="1166.4822"
         y="266.08145">1</tspan></text><text
       xml:space="preserve"
       style="font-weight:normal;font-size:42.93332291px;line-height:1;font-family:sans-serif;-inkscape-font-specification:'sans-serif, Normal';text-align:center;writing-mode:lr-tb;direction:ltr;text-anchor:middle;fill:#000000;stroke:none;stroke-width:35.5;stroke-linejoin:round;font-style:normal;font-stretch:normal;font-variant:normal;font-variant-ligatures:normal;font-variant-caps:normal;font-variant-numeric:normal;font-variant-east-asian:normal"
       x="879.01904"
       y="325.47464"
       id="text36"><tspan
         sodipodi:role="line"
         id="tspan36"
         x="879.01904"
         y="325.47464">2</tspan></text><text
       xml:space="preserve"
       style="font-weight:normal;font-size:42.93332291px;line-height:1;font-family:sans-serif;-inkscape-font-specification:'sans-serif, Normal';text-align:center;writing-mode:lr-tb;direction:ltr;text-anchor:middle;fill:#000000;stroke:none;stroke-width:35.5;stroke-linejoin:round;font-style:normal;font-stretch:normal;font-variant:normal;font-variant-ligatures:normal;font-variant-caps:normal;font-variant-numeric:normal;font-variant-east-asian:normal"
       x="917.0307"
       y="864.76477"
       id="text37"><tspan
         sodipodi:role="line"
         id="tspan37"
         x="917.0307"
         y="864.76477">16</tspan></text><text
       xml:space="preserve"
       style="font-weight:normal;font-size:42.93332291px;line-height:1;font-family:sans-serif;-inkscape-font-specification:'sans-serif, Normal';text-align:center;writing-mode:lr-tb;direction:ltr;text-anchor:middle;fill:#000000;stroke:none;stroke-width:35.5;stroke-linejoin:round;font-style:normal;font-stretch:normal;font-variant:normal;font-variant-ligatures:normal;font-variant-caps:normal;font-variant-numeric:normal;font-variant-east-asian:normal"
       x="755.48126"
       y="867.14044"
       id="text38"><tspan
         sodipodi:role="line"
         id="tspan38"
         x="755.48126"
         y="867.14044">15</tspan></text><text
       xml:space="preserve"
       style="font-weight:normal;font-size:42.93332291px;line-height:1;font-family:sans-serif;-inkscape-font-specification:'sans-serif, Normal';text-align:center;writing-mode:lr-tb;direction:ltr;text-anchor:middle;fill:#000000;stroke:none;stroke-width:35.5;stroke-linejoin:round;font-style:normal;font-stretch:normal;font-variant:normal;font-variant-ligatures:normal;font-variant-caps:normal;font-variant-numeric:normal;font-variant-east-asian:normal"
       x="622.44049"
       y="1532.3441"
       id="text39"><tspan
         sodipodi:role="line"
         id="tspan39"
         x="622.44049"
         y="1532.3441">13</tspan></text><text
       xml:space="preserve"
       style="font-weight:normal;font-size:42.93332291px;line-height:1;font-family:sans-serif;-inkscape-font-specification:'sans-serif, Normal';text-align:center;writing-mode:lr-tb;direction:ltr;text-anchor:middle;fill:#000000;stroke-width:32.4;stroke-linejoin:round;font-style:normal;font-stretch:normal;font-variant:normal;font-variant-ligatures:normal;font-variant-caps:normal;font-variant-numeric:normal;font-variant-east-asian:normal"
       x="384.8678"
       y="244.69991"
       id="text1"><tspan
         sodipodi:role="line"
         id="tspan1"
         x="384.8678"
         y="244.69991">5</tspan></text><text
       xml:space="preserve"
       style="font-weight:normal;font-size:42.93332291px;line-height:1;font-family:sans-serif;-inkscape-font-specification:'sans-serif, Normal';text-align:center;writing-mode:lr-tb;direction:ltr;text-anchor:middle;fill:#000000;stroke-width:32.4;stroke-linejoin:round;font-style:normal;font-stretch:normal;font-variant:normal;font-variant-ligatures:normal;font-variant-caps:normal;font-variant-numeric:normal;font-variant-east-asian:normal"
       x="536.91437"
       y="147.29509"
       id="text2"><tspan
         sodipodi:role="line"
         id="tspan2"
         x="536.91437"
         y="147.29509">4</tspan></text><text
       xml:space="preserve"
       style="font-weight:normal;font-size:42.93332291px;line-height:1;font-family:sans-serif;-inkscape-font-specification:'sans-serif, Normal';text-align:center;writing-mode:lr-tb;direction:ltr;text-anchor:middle;fill:#000000;stroke-width:32.4;stroke-linejoin:round;font-style:normal;font-stretch:normal;font-variant:normal;font-variant-ligatures:normal;font-variant-caps:normal;font-variant-numeric:normal;font-variant-east-asian:normal"
       x="791.11719"
       y="152.04654"
       id="text3"><tspan
         sodipodi:role="line"
         id="tspan3"
         x="791.11719"
         y="152.04654">3</tspan></text><text
       xml:space="preserve"
       style="font-weight:normal;font-size:42.93332291px;line-height:1;font-family:sans-serif;-inkscape-font-specification:'sans-serif, Normal';text-align:center;writing-mode:lr-tb;direction:ltr;text-anchor:middle;fill:#000000;stroke-width:32.4;stroke-linejoin:round;font-style:normal;font-stretch:normal;font-variant:normal;font-variant-ligatures:normal;font-variant-caps:normal;font-variant-numeric:normal;font-variant-east-asian:normal"
       x="356.35907"
       y="715.09387"
       id="text4"><tspan
         sodipodi:role="line"
         id="tspan4"
         x="356.35907"
         y="715.09387">7</tspan></text><text
       xml:space="preserve"
       style="font-weight:normal;font-size:42.93332291px;line-height:1;font-family:sans-serif;-inkscape-font-specification:'sans-serif, Normal';text-align:center;writing-mode:lr-tb;direction:ltr;text-anchor:middle;fill:#000000;stroke-width:32.4;stroke-linejoin:round;font-style:normal;font-stretch:normal;font-variant:normal;font-variant-ligatures:normal;font-variant-caps:normal;font-variant-numeric:normal;font-variant-east-asian:normal"
       x="529.78717"
       y="641.44635"
       id="text5"><tspan
         sodipodi:role="line"
         id="tspan5"
         x="529.78717"
         y="641.44635">6</tspan></text><text
       xml:space="preserve"
       style="font-style:normal;font-variant:normal;font-weight:normal;font-stretch:normal;font-size:42.93332291px;line-height:1;font-family:sans-serif;-inkscape-font-specification:'sans-serif, Normal';font-variant-ligatures:normal;font-variant-caps:normal;font-variant-numeric:normal;font-variant-east-asian:normal;text-align:center;writing-mode:lr-tb;direction:ltr;text-anchor:middle;fill:#000000;stroke-width:32.4;stroke-linejoin:round"
       x="491.77554"
       y="852.88605"
       id="text6"><tspan
         sodipodi:role="line"
         id="tspan6"
         x="491.77554"
         y="852.88605">8</tspan></text><text
       xml:space="preserve"
       style="font-weight:normal;font-size:42.93332291px;line-height:1;font-family:sans-serif;-inkscape-font-specification:'sans-serif, Normal';text-align:center;writing-mode:lr-tb;direction:ltr;text-anchor:middle;fill:#000000;stroke-width:32.4;stroke-linejoin:round;font-style:normal;font-stretch:normal;font-variant:normal;font-variant-ligatures:normal;font-variant-caps:normal;font-variant-numeric:normal;font-variant-east-asian:normal"
       x="273.20862"
       y="1059.5743"
       id="text7"><tspan
         sodipodi:role="line"
         id="tspan7"
         x="273.20862"
         y="1059.5743">9</tspan></text><text
       xml:space="preserve"
       style="font-weight:normal;font-size:42.93332291px;line-height:1;font-family:sans-serif;-inkscape-font-specification:'sans-serif, Normal';text-align:center;writing-mode:lr-tb;direction:ltr;text-anchor:middle;fill:#000000;stroke-width:32.4;stroke-linejoin:round;font-style:normal;font-stretch:normal;font-variant:normal;font-variant-ligatures:normal;font-variant-caps:normal;font-variant-numeric:normal;font-variant-east-asian:normal"
       x="152.04654"
       y="1216.3724"
       id="text8"><tspan
         sodipodi:role="line"
         id="tspan8"
         x="152.04654"
         y="1216.3724">10</tspan></text></g><path
     id="rect1"
     style="baseline-shift:baseline;display:inline;overflow:visible;vector-effect:none;fill:#ffffff;stroke-width:0.158494;stroke-linejoin:round;enable-background:accumulate;stop-color:#000000"
     d="m 82.854345,1449.0109 c -2.8346,0 -5.17924,2.3449 -5.17924,5.1796 v 13.8136 c 1.3832,0 2.72848,0.01 4.01902,0.021 V 1454.19 c 0,-0.6776 0.48259,-1.1605 1.16022,-1.1605 h 21.810585 c 0.67763,0 1.16022,0.4829 1.16022,1.1605 v 35.5349 c 0,0.6776 -0.48259,1.1605 -1.16022,1.1605 H 82.854345 c -0.67763,0 -1.16022,-0.4829 -1.16022,-1.1605 v -13.8351 c -1.29054,0.014 -2.63582,0.021 -4.01902,0.021 v 13.8137 c 0,2.8346 2.34464,5.1794 5.17924,5.1794 h 21.810585 c 2.8346,0 5.17924,-2.3448 5.17924,-5.1794 v -35.5349 c 0,-2.8347 -2.34464,-5.1796 -5.17924,-5.1796 z m 9.51036,17.1574 0.006,3.8026 h -14.72759 v 4.0353 h 14.7337 l 0.006,3.8027 10.072035,-5.8359 z"
     inkscape:label="Entrance 1" /><path
     id="rect1-2"
     style="baseline-shift:baseline;display:inline;overflow:visible;vector-effect:none;fill:#ffffff;stroke-width:0.158494;stroke-linejoin:round;enable-background:accumulate;stop-color:#000000"
     d="m 961.27669,1362.5894 c -2.8346,0 -5.17924,2.3449 -5.17924,5.1796 v 13.8136 c 1.3832,0 2.72848,0.01 4.01902,0.021 v -13.8351 c 0,-0.6776 0.48259,-1.1605 1.16022,-1.1605 h 21.81058 c 0.67763,0 1.16022,0.4829 1.16022,1.1605 v 35.5349 c 0,0.6776 -0.48259,1.1605 -1.16022,1.1605 h -21.81058 c -0.67763,0 -1.16022,-0.4829 -1.16022,-1.1605 v -13.8351 c -1.29054,0.014 -2.63582,0.021 -4.01902,0.021 v 13.8137 c 0,2.8346 2.34464,5.1794 5.17924,5.1794 h 21.81058 c 2.8346,0 5.17924,-2.3448 5.17924,-5.1794 v -35.5349 c 0,-2.8347 -2.34464,-5.1796 -5.17924,-5.1796 z m 9.51036,17.1574 0.006,3.8026 h -14.72759 v 4.0353 h 14.7337 l 0.006,3.8027 10.07204,-5.8359 z"
     inkscape:label="Entrance 2" /></svg>
