<?xml version="1.0" encoding="UTF-8" standalone="no"?>
<!-- Created with Inkscape (http://www.inkscape.org/) -->

<svg
   version="1.1"
   id="svg1"
   width="1822.6667"
   height="1314.6667"
   viewBox="0 0 1822.6667 1314.6667"
   sodipodi:docname="Canyon Point.svg"
   inkscape:version="1.4.2 (ebf0e940d0, 2025-05-08)"
   xml:space="preserve"
   xmlns:inkscape="http://www.inkscape.org/namespaces/inkscape"
   xmlns:sodipodi="http://sodipodi.sourceforge.net/DTD/sodipodi-0.dtd"
   xmlns="http://www.w3.org/2000/svg"
   xmlns:svg="http://www.w3.org/2000/svg"><defs
     id="defs1" /><sodipodi:namedview
     id="namedview1"
     pagecolor="#ffffff"
     bordercolor="#000000"
     borderopacity="0.25"
     inkscape:showpageshadow="2"
     inkscape:pageopacity="0.0"
     inkscape:pagecheckerboard="0"
     inkscape:deskcolor="#d1d1d1"
     inkscape:zoom="0.4313638"
     inkscape:cx="787.03869"
     inkscape:cy="649.10407"
     inkscape:window-width="1920"
     inkscape:window-height="1008"
     inkscape:window-x="0"
     inkscape:window-y="0"
     inkscape:window-maximized="1"
     inkscape:current-layer="svg1" /><rect
     style="fill:#1a1a1a;stroke-width:35.5;stroke-linejoin:round"
     id="rect2"
     width="1822.6667"
     height="1314.6667"
     x="0"
     y="0"
     inkscape:label="bg" /><g
     inkscape:groupmode="layer"
     id="layer4"
     inkscape:label="Roads"><path
       id="path8"
       style="fill:#999999;stroke:none;stroke-width:35.5;stroke-linejoin:round"
       d="m 458.57609,661.02165 -49.99668,74.58521 39.34165,21.31006 45.07897,-78.68329 z M 1020.1055,259.28711 a 17.751775,17.751775 0 0 0 -18.1934,16.30469 l -16.75585,206 -311.07813,-170.93946 a 17.751775,17.751775 0 0 0 -24.07617,6.95508 L 473.35547,636.50977 272.79492,520.66016 l -17.75586,30.74023 904.81054,522.64651 -41.8379,61.832 29.4004,19.8945 43.2559,-63.9257 34.1113,19.7031 -36.9961,64.8183 30.832,17.5977 190.7129,-334.14453 31.9492,8.83789 85.9336,62.0625 20.7852,-28.7793 -88.5195,-63.92969 a 17.751775,17.751775 0 0 0 -5.6602,-2.71875 l -33.9746,-9.39844 15.1562,-338.50195 326.1583,18.81836 2.0449,-35.44141 -326.6153,-18.84179 7.2813,-162.63086 a 17.751775,17.751775 0 0 0 -17.2324,-18.53711 z m 15.8261,35.96094 371.6641,10.49023 -22.8555,510.44922 -7.9687,-2.20313 a 17.751775,17.751775 0 0 0 -15.4492,2.95899 l -54.0957,40.98242 a 17.751775,17.751775 0 0 0 -3.9825,4.19922 L 1179.7949,1044.5703 865.72266,863.15234 1006.9414,628.79102 a 17.751775,17.751775 0 0 0 2.4883,-7.72071 z M 672.48437,350.2832 982.00195,520.36328 974.38281,614.03906 834.97656,845.39258 504.09961,654.26953 Z m 699.73443,502.94336 -129.8418,227.49224 -31.7657,-18.3477 120.3907,-177.92188 z" /><path
       style="fill:#4d4d4d;stroke-width:35.5;stroke-linejoin:round"
       d="M 0,484.50983 1460.4842,1314.6667 H 1254.1618 L 0,574.92076 Z"
       id="path1" /><path
       style="fill:#4d4d4d;stroke-width:35.5;stroke-linejoin:round"
       d="M 324.55204,0 0,261.95986 V 185.45831 L 236.45934,0 Z"
       id="path2" /></g><g
     inkscape:groupmode="layer"
     id="layer5"
     inkscape:label="Buildings"><path
       style="fill:#ffffff;stroke:none;stroke-width:35.5;stroke-linejoin:round"
       d="M 16.392353,406.53037 214.73983,513.08066 270.47383,418.00501 76.598062,306.93476 Z"
       id="path9"
       sodipodi:nodetypes="ccccc" /><path
       style="fill:#ffffff;stroke:none;stroke-width:35.5;stroke-linejoin:round"
       d="M 442.59354,550.78308 586.84625,278.67001 475.37825,227.85371 352.4356,488.49213 Z"
       id="path10" /><path
       style="fill:#ffffff;stroke:none;stroke-width:35.5;stroke-linejoin:round"
       d="m 622.90943,122.94265 160.64507,3.27847 -4.91771,108.18953 -168.84124,-6.55694 z"
       id="path11" /><path
       style="fill:#ffffff;stroke:none;stroke-width:35.5;stroke-linejoin:round"
       d="M 840.92773,26.227766 821.25691,358.99254 H 929.44644 L 944.19956,26.227766 Z"
       id="path12" /><path
       style="fill:#ffffff;stroke:none;stroke-width:35.5;stroke-linejoin:round"
       d="m 990.09815,26.227766 -11.47465,175.398184 104.9111,6.55694 8.1961,-181.955124 z"
       id="path13" /><path
       style="fill:#ffffff;stroke:none;stroke-width:35.5;stroke-linejoin:round"
       d="m 699.95349,422.92272 -90.15794,190.1513 83.601,47.53782 96.71489,-191.79053 z"
       id="path14" /><path
       style="fill:#ffffff;stroke:none;stroke-width:35.5;stroke-linejoin:round"
       d="m 824.53538,498.32755 -86.87947,185.23359 91.79718,44.25935 88.5187,-188.51206 z"
       id="path15" /><path
       style="fill:#ffffff;stroke:none;stroke-width:35.5;stroke-linejoin:round"
       d="m 1083.5346,377.02413 -14.7532,311.45472 101.6326,1.63923 13.1139,-311.45471 z"
       id="path16" /><path
       style="fill:#ffffff;stroke:none;stroke-width:35.5;stroke-linejoin:round"
       d="m 1229.4265,383.58107 -16.3923,313.09395 99.9933,1.63924 9.8354,-314.73319 z"
       id="path17" /><path
       style="fill:#ffffff;stroke:none;stroke-width:35.5;stroke-linejoin:round"
       d="m 1147.4647,173.75895 299.9801,4.9177 4.9177,-113.107236 -303.2585,-9.835412 z"
       id="path18" /><path
       style="fill:#ffffff;stroke:none;stroke-width:35.5;stroke-linejoin:round"
       d="m 1488.4257,68.847885 -6.5569,149.170415 h 108.1895 l 4.9177,-142.613474 z"
       id="path19" /><path
       style="fill:#ffffff;stroke:none;stroke-width:35.5;stroke-linejoin:round"
       d="m 1650.71,73.765591 -19.6708,331.125539 126.2211,3.27847 14.7531,-331.125539 z"
       id="path20" /><path
       style="fill:#ffffff;stroke:none;stroke-width:35.5;stroke-linejoin:round"
       d="m 1501.5396,562.25772 -6.557,216.37907 106.5503,1.63924 -4.9177,-216.37907 z"
       id="path21" /><path
       style="fill:#ffffff;stroke:none;stroke-width:35.5;stroke-linejoin:round"
       d="m 1745.7856,575.37161 -6.5569,311.45471 -104.9111,-6.55694 8.1962,-309.81548 z"
       id="path22" /><path
       style="fill:#ffffff;stroke:none;stroke-width:35.5;stroke-linejoin:round"
       d="m 1419.5778,940.92109 -113.1072,186.87281 80.3225,49.1771 112.147,-187.94959 z"
       id="path23"
       sodipodi:nodetypes="ccccc" /><path
       style="fill:#ffffff;stroke:none;stroke-width:35.5;stroke-linejoin:round"
       d="m 1601.5329,954.03497 -177.0374,252.44223 81.9618,55.734 177.0374,-258.9992 z"
       id="path24" /></g><g
     inkscape:groupmode="layer"
     id="layer6"
     inkscape:label="Labels"><text
       xml:space="preserve"
       style="font-style:normal;font-variant:normal;font-weight:bold;font-stretch:normal;font-size:57.1429px;line-height:1;font-family:Sans;-inkscape-font-specification:'Sans, Bold';font-variant-ligatures:normal;font-variant-caps:normal;font-variant-numeric:normal;font-variant-east-asian:normal;text-align:center;writing-mode:lr-tb;direction:ltr;text-anchor:middle;fill:#ffffff;stroke:none;stroke-width:35.5;stroke-linejoin:round"
       x="1162.0177"
       y="477.61807"
       id="text24"
       transform="rotate(29.997034)"><tspan
         sodipodi:role="line"
         id="tspan24"
         x="1162.0177"
         y="477.61807">Henderson Pass</tspan></text><text
       xml:space="preserve"
       style="font-weight:bold;font-size:37.33333333px;line-height:1;font-family:Sans;-inkscape-font-specification:'Sans, Bold';text-align:center;writing-mode:lr-tb;direction:ltr;text-anchor:middle;fill:#ffffff;stroke:none;stroke-width:35.5;stroke-linejoin:round;font-style:normal;font-stretch:normal;font-variant:normal;font-variant-ligatures:normal;font-variant-caps:normal;font-variant-numeric:normal;font-variant-east-asian:normal"
       x="42.166889"
       y="185.70522"
       id="text25"
       transform="rotate(-39.386417)"><tspan
         sodipodi:role="line"
         id="tspan25"
         x="42.166889"
         y="185.70522">Turkey Point</tspan></text><text
       xml:space="preserve"
       style="font-weight:bold;font-size:57.1428566px;line-height:1;font-family:Sans;-inkscape-font-specification:'Sans, Bold';text-align:center;writing-mode:lr-tb;direction:ltr;text-anchor:middle;fill:#1a1a1a;stroke:none;stroke-width:35.5;stroke-linejoin:round;font-style:normal;font-stretch:normal;font-variant:normal;font-variant-ligatures:normal;font-variant-caps:normal;font-variant-numeric:normal;font-variant-east-asian:normal"
       x="143.73018"
       y="433.50879"
       id="text26"><tspan
         sodipodi:role="line"
         id="tspan26"
         x="143.73018"
         y="433.50879">1</tspan></text><text
       xml:space="preserve"
       style="font-weight:bold;font-size:57.1428566px;line-height:1;font-family:Sans;-inkscape-font-specification:'Sans, Bold';text-align:center;writing-mode:lr-tb;direction:ltr;text-anchor:middle;fill:#1a1a1a;stroke:none;stroke-width:35.5;stroke-linejoin:round;font-style:normal;font-stretch:normal;font-variant:normal;font-variant-ligatures:normal;font-variant-caps:normal;font-variant-numeric:normal;font-variant-east-asian:normal"
       x="469.12598"
       y="399.41437"
       id="text27"><tspan
         sodipodi:role="line"
         id="tspan27"
         x="469.12598"
         y="399.41437">2</tspan></text><text
       xml:space="preserve"
       style="font-weight:bold;font-size:57.1428566px;line-height:1;font-family:Sans;-inkscape-font-specification:'Sans, Bold';text-align:center;writing-mode:lr-tb;direction:ltr;text-anchor:middle;fill:#1a1a1a;stroke:none;stroke-width:35.5;stroke-linejoin:round;font-style:normal;font-stretch:normal;font-variant:normal;font-variant-ligatures:normal;font-variant-caps:normal;font-variant-numeric:normal;font-variant-east-asian:normal"
       x="702.58807"
       y="563.6109"
       id="text28"><tspan
         sodipodi:role="line"
         id="tspan28"
         x="702.58807"
         y="563.6109">9</tspan></text><text
       xml:space="preserve"
       style="font-weight:bold;font-size:57.1428566px;line-height:1;font-family:Sans;-inkscape-font-specification:'Sans, Bold';text-align:center;writing-mode:lr-tb;direction:ltr;text-anchor:middle;fill:#1a1a1a;stroke:none;stroke-width:35.5;stroke-linejoin:round;font-style:normal;font-stretch:normal;font-variant:normal;font-variant-ligatures:normal;font-variant-caps:normal;font-variant-numeric:normal;font-variant-east-asian:normal"
       x="824.02228"
       y="636.83392"
       id="text29"><tspan
         sodipodi:role="line"
         id="tspan29"
         x="824.02228"
         y="636.83392">10</tspan></text><text
       xml:space="preserve"
       style="font-weight:bold;font-size:57.1428566px;line-height:1;font-family:Sans;-inkscape-font-specification:'Sans, Bold';text-align:center;writing-mode:lr-tb;direction:ltr;text-anchor:middle;fill:#1a1a1a;stroke:none;stroke-width:35.5;stroke-linejoin:round;font-style:normal;font-stretch:normal;font-variant:normal;font-variant-ligatures:normal;font-variant-caps:normal;font-variant-numeric:normal;font-variant-east-asian:normal"
       x="1401.5795"
       y="1082.8942"
       id="text30"><tspan
         sodipodi:role="line"
         id="tspan30"
         x="1401.5795"
         y="1082.8942">15</tspan></text><text
       xml:space="preserve"
       style="font-weight:bold;font-size:64px;line-height:1;font-family:Sans;-inkscape-font-specification:'Sans, Bold';text-align:center;writing-mode:lr-tb;direction:ltr;text-anchor:middle;fill:#000000;stroke-width:32.4;stroke-linejoin:round"
       x="697.78687"
       y="199.36768"
       id="text1"><tspan
         sodipodi:role="line"
         id="tspan1"
         x="697.78687"
         y="199.36768">3</tspan></text><text
       xml:space="preserve"
       style="font-weight:bold;font-size:64px;line-height:1;font-family:Sans;-inkscape-font-specification:'Sans, Bold';text-align:center;writing-mode:lr-tb;direction:ltr;text-anchor:middle;fill:#000000;stroke-width:32.4;stroke-linejoin:round"
       x="885.56348"
       y="210.95882"
       id="text2"><tspan
         sodipodi:role="line"
         id="tspan2"
         x="885.56348"
         y="210.95882">4</tspan></text><text
       xml:space="preserve"
       style="font-weight:bold;font-size:64px;line-height:1;font-family:Sans;-inkscape-font-specification:'Sans, Bold';text-align:center;writing-mode:lr-tb;direction:ltr;text-anchor:middle;fill:#000000;stroke-width:32.4;stroke-linejoin:round"
       x="1033.9301"
       y="143.73018"
       id="text3"><tspan
         sodipodi:role="line"
         id="tspan3"
         x="1033.9301"
         y="143.73018">5</tspan></text><text
       xml:space="preserve"
       style="font-weight:bold;font-size:64px;line-height:1;font-family:Sans;-inkscape-font-specification:'Sans, Bold';text-align:center;writing-mode:lr-tb;direction:ltr;text-anchor:middle;fill:#000000;stroke-width:32.4;stroke-linejoin:round"
       x="1288.9352"
       y="139.09372"
       id="text4"><tspan
         sodipodi:role="line"
         id="tspan4"
         x="1288.9352"
         y="139.09372">6</tspan></text><text
       xml:space="preserve"
       style="font-weight:bold;font-size:64px;line-height:1;font-family:Sans;-inkscape-font-specification:'Sans, Bold';text-align:center;writing-mode:lr-tb;direction:ltr;text-anchor:middle;fill:#000000;stroke-width:32.4;stroke-linejoin:round"
       x="1534.6676"
       y="166.91248"
       id="text5"><tspan
         sodipodi:role="line"
         id="tspan5"
         x="1534.6676"
         y="166.91248">7</tspan></text><text
       xml:space="preserve"
       style="font-weight:bold;font-size:64px;line-height:1;font-family:Sans;-inkscape-font-specification:'Sans, Bold';text-align:center;writing-mode:lr-tb;direction:ltr;text-anchor:middle;fill:#000000;stroke-width:32.4;stroke-linejoin:round"
       x="1703.8983"
       y="255.00517"
       id="text6"><tspan
         sodipodi:role="line"
         id="tspan6"
         x="1703.8983"
         y="255.00517">8</tspan></text><text
       xml:space="preserve"
       style="font-weight:bold;font-size:64px;line-height:1;font-family:Sans;-inkscape-font-specification:'Sans, Bold';text-align:center;writing-mode:lr-tb;direction:ltr;text-anchor:middle;fill:#000000;stroke-width:32.4;stroke-linejoin:round"
       x="1546.2587"
       y="693.15039"
       id="text7"><tspan
         sodipodi:role="line"
         id="tspan7"
         x="1546.2587"
         y="693.15039">13</tspan></text><text
       xml:space="preserve"
       style="font-weight:bold;font-size:64px;line-height:1;font-family:Sans;-inkscape-font-specification:'Sans, Bold';text-align:center;writing-mode:lr-tb;direction:ltr;text-anchor:middle;fill:#000000;stroke-width:32.4;stroke-linejoin:round"
       x="1687.6707"
       y="737.19672"
       id="text8"><tspan
         sodipodi:role="line"
         id="tspan8"
         x="1687.6707"
         y="737.19672">14</tspan></text><text
       xml:space="preserve"
       style="font-weight:bold;font-size:64px;line-height:1;font-family:Sans;-inkscape-font-specification:'Sans, Bold';text-align:center;writing-mode:lr-tb;direction:ltr;text-anchor:middle;fill:#000000;stroke-width:32.4;stroke-linejoin:round"
       x="1555.5316"
       y="1126.6593"
       id="text9"><tspan
         sodipodi:role="line"
         id="tspan9"
         x="1555.5316"
         y="1126.6593">16</tspan></text><text
       xml:space="preserve"
       style="font-weight:bold;font-size:64px;line-height:1;font-family:Sans;-inkscape-font-specification:'Sans, Bold';text-align:center;writing-mode:lr-tb;direction:ltr;text-anchor:middle;fill:#000000;stroke-width:32.4;stroke-linejoin:round"
       x="1126.6592"
       y="554.05664"
       id="text10"><tspan
         sodipodi:role="line"
         id="tspan10"
         x="1126.6592"
         y="554.05664">11</tspan></text><text
       xml:space="preserve"
       style="font-weight:bold;font-size:64px;line-height:1;font-family:Sans;-inkscape-font-specification:'Sans, Bold';text-align:center;writing-mode:lr-tb;direction:ltr;text-anchor:middle;fill:#000000;stroke-width:32.4;stroke-linejoin:round"
       x="1268.0712"
       y="577.23895"
       id="text11"><tspan
         sodipodi:role="line"
         id="tspan11"
         x="1268.0712"
         y="577.23895">12</tspan></text></g><path
     id="rect1"
     style="baseline-shift:baseline;display:inline;overflow:visible;vector-effect:none;fill:#ffffff;stroke-width:0.199518;stroke-linejoin:round;enable-background:accumulate;stop-color:#000000"
     d="m 401.38909,738.6164 c -3.5683,0 -6.51982,2.9519 -6.51982,6.5202 v 17.3892 c 1.74124,0 3.43471,0.01 5.0593,0.027 v -17.4161 c 0,-0.853 0.6075,-1.4609 1.46052,-1.4609 h 27.45602 c 0.85302,0 1.46052,0.6079 1.46052,1.4609 v 44.7327 c 0,0.853 -0.6075,1.4609 -1.46052,1.4609 h -27.45602 c -0.85302,0 -1.46052,-0.6079 -1.46052,-1.4609 v -17.4161 c -1.62459,0.018 -3.31806,0.027 -5.0593,0.027 v 17.3891 c 0,3.5683 2.95152,6.5201 6.51982,6.5201 h 27.45602 c 3.5683,0 6.51982,-2.9518 6.51982,-6.5201 v -44.7327 c 0,-3.5683 -2.95152,-6.5202 -6.51982,-6.5202 z m 11.97201,21.5983 0.007,4.787 h -18.53965 v 5.0797 h 18.54734 l 0.007,4.787 12.67907,-7.3464 z" /><path
     id="rect1-7"
     style="baseline-shift:baseline;display:inline;overflow:visible;vector-effect:none;fill:#ffffff;stroke-width:0.199518;stroke-linejoin:round;enable-background:accumulate;stop-color:#000000"
     d="m 1142.052,1164.6758 c -3.5683,0 -6.5199,2.9519 -6.5199,6.5202 v 17.3892 c 1.7413,0 3.4347,0.01 5.0593,0.027 v -17.4161 c 0,-0.853 0.6075,-1.4609 1.4606,-1.4609 h 27.456 c 0.853,0 1.4605,0.6079 1.4605,1.4609 v 44.7327 c 0,0.853 -0.6075,1.4609 -1.4605,1.4609 h -27.456 c -0.8531,0 -1.4606,-0.6079 -1.4606,-1.4609 v -17.4161 c -1.6246,0.018 -3.318,0.027 -5.0593,0.027 v 17.3891 c 0,3.5683 2.9516,6.5201 6.5199,6.5201 h 27.456 c 3.5683,0 6.5198,-2.9518 6.5198,-6.5201 v -44.7327 c 0,-3.5683 -2.9515,-6.5202 -6.5198,-6.5202 z m 11.972,21.5983 0.01,4.787 h -18.5397 v 5.0797 h 18.5474 l 0.01,4.787 12.679,-7.3464 z" /></svg>
