<?xml version="1.0" encoding="UTF-8" standalone="no"?>
<!-- Created with Inkscape (http://www.inkscape.org/) -->

<svg
   version="1.1"
   id="svg1"
   width="2136"
   height="2241.3333"
   viewBox="0 0 2136 2241.3333"
   sodipodi:docname="Connemara Estates.svg"
   inkscape:version="1.4.2 (ebf0e940d0, 2025-05-08)"
   xml:space="preserve"
   xmlns:inkscape="http://www.inkscape.org/namespaces/inkscape"
   xmlns:sodipodi="http://sodipodi.sourceforge.net/DTD/sodipodi-0.dtd"
   xmlns="http://www.w3.org/2000/svg"
   xmlns:svg="http://www.w3.org/2000/svg"><defs
     id="defs1" /><sodipodi:namedview
     id="namedview1"
     pagecolor="#ffffff"
     bordercolor="#000000"
     borderopacity="0.25"
     inkscape:showpageshadow="2"
     inkscape:pageopacity="0.0"
     inkscape:pagecheckerboard="0"
     inkscape:deskcolor="#d1d1d1"
     inkscape:zoom="0.35782274"
     inkscape:cx="993.50869"
     inkscape:cy="1025.6475"
     inkscape:window-width="1920"
     inkscape:window-height="1008"
     inkscape:window-x="0"
     inkscape:window-y="0"
     inkscape:window-maximized="1"
     inkscape:current-layer="layer2" /><rect
     style="fill:#1a1a1a;stroke-width:46.8;stroke-linejoin:round"
     id="rect1"
     width="2136"
     height="2241.3333"
     x="0"
     y="0"
     inkscape:label="bg" /><g
     inkscape:groupmode="layer"
     id="layer1"
     inkscape:label="Roads"><path
       style="baseline-shift:baseline;display:inline;overflow:visible;vector-effect:none;fill:#999999;stroke-linejoin:round;enable-background:accumulate;stop-color:#000000;stop-opacity:1;opacity:1"
       d="m 1422.6406,145.61914 -310.2109,313.00391 a 23.40234,23.40234 0 0 0 -2.3984,2.84179 L 989.85937,629.14453 a 23.40234,23.40234 0 0 0 -1.49218,2.37109 L 911.93555,770.73047 758.28906,913.40234 509.65039,1139.6914 a 23.40234,23.40234 0 0 0 -1.91211,1.957 l -204.01172,234.752 a 23.40234,23.40234 0 0 0 1.73828,32.498 l 586.88282,544.9629 a 23.40234,23.40234 0 0 0 32.22851,-0.3633 l 97.81253,-95.0195 a 23.40234,23.40234 0 0 0 2.1875,-2.4453 l 106.1972,-136.9375 a 23.40234,23.40234 0 0 0 2.0684,-3.168 l 69.3848,-127.666 220.1093,-332.914 277.7481,-167.75 a 23.40234,23.40234 0 0 0 3.8242,-2.8829 l 195.6289,-181.65425 a 23.40234,23.40234 0 0 0 4.4434,-5.625 l 120.1718,-212.39453 -40.7324,-23.04688 -118.3867,209.24023 -58.1973,54.03907 -574.8125,-520.83789 223.8575,-225.87305 z m -223.5937,292.0918 573.3652,519.52734 -98.584,91.54302 -280.2011,169.2324 a 23.40234,23.40234 0 0 0 -7.4219,7.125 l -223.5742,338.1562 a 23.40234,23.40234 0 0 0 -1.0411,1.7305 l -68.9609,126.8887 -104.02734,134.1406 -80.69336,78.3887 -554.00586,-514.4336 188.26172,-216.6289 247.71289,-225.44731 a 23.40234,23.40234 0 0 0 0.17188,-0.1582 L 946.55078,802.45312 a 23.40234,23.40234 0 0 0 4.58984,-5.88671 l 77.57618,-141.29883 118.2676,-165.02539 z"
       id="path3" /><path
       style="display:inline;fill:#4d4d4d;stroke-width:46.8;stroke-linejoin:round"
       d="M 2136,676.31253 1380.5719,0 H 1193.3283 L 2136,821.63588 Z"
       id="path1" /></g><g
     inkscape:groupmode="layer"
     id="layer2"
     inkscape:label="Buildings"><path
       style="fill:#ffffff;stroke:none;stroke-width:46.8;stroke-linejoin:round"
       d="M 1421.0947,322.78552 1545.458,449.94346 1472.7963,526.79715 1351.2277,395.4472 Z"
       id="path4" /><path
       style="fill:#ffffff;stroke:none;stroke-width:46.8;stroke-linejoin:round"
       d="m 1591.5702,483.47962 139.734,118.77389 -81.0457,89.42976 -131.35,-125.7606 z"
       id="path5" /><path
       style="fill:#ffffff;stroke:none;stroke-width:46.8;stroke-linejoin:round"
       d="m 1887.8062,744.78218 -50.3042,76.8537 -143.926,-102.00581 60.0856,-79.64838 z"
       id="path6" /><path
       style="fill:#ffffff;stroke:none;stroke-width:46.8;stroke-linejoin:round"
       d="m 2087.6259,932.02574 -86.6351,89.42976 -75.4564,-75.45637 88.0324,-90.82709 z"
       id="path7" /><path
       style="fill:#ffffff;stroke:none;stroke-width:46.8;stroke-linejoin:round"
       d="m 1973.044,1057.7863 -114.5819,124.3633 -75.4563,-68.4697 111.7871,-124.36323 z"
       id="path8" /><path
       style="fill:#ffffff;stroke:none;stroke-width:46.8;stroke-linejoin:round"
       d="m 1750.8669,1168.1762 58.6883,100.6085 -95.0191,48.9069 -62.8803,-97.8138 z"
       id="path9" /><path
       style="fill:#ffffff;stroke:none;stroke-width:46.8;stroke-linejoin:round"
       d="m 1503.5378,1337.2543 134.1446,110.3899 75.4564,-88.0324 -129.9527,-108.9926 z"
       id="path10" /><path
       style="fill:#ffffff;stroke:none;stroke-width:46.8;stroke-linejoin:round"
       d="m 1583.1861,1439.2601 -122.9659,-85.2377 -58.6882,86.6351 129.9526,83.8404 z"
       id="path11" /><path
       style="fill:#ffffff;stroke:none;stroke-width:46.8;stroke-linejoin:round"
       d="m 1504.9351,1581.7888 -78.251,72.6617 -121.5686,-121.5686 72.6617,-68.4696 z"
       id="path12" /><path
       style="fill:#ffffff;stroke:none;stroke-width:46.8;stroke-linejoin:round"
       d="m 1380.5719,1682.3973 -51.7016,95.0191 -110.3899,-53.0989 48.9069,-95.0191 z"
       id="path13" /><path
       style="fill:#ffffff;stroke:none;stroke-width:46.8;stroke-linejoin:round"
       d="m 1288.3474,1794.1845 -99.2111,152.31 -74.059,-46.1122 99.2111,-152.31 z"
       id="path14" /><path
       style="fill:#ffffff;stroke:none;stroke-width:46.8;stroke-linejoin:round"
       d="m 1158.3948,1971.6466 -69.867,-58.6882 -127.15793,122.9659 68.46963,57.2909 z"
       id="path15" /><path
       style="fill:#ffffff;stroke:none;stroke-width:46.8;stroke-linejoin:round"
       d="m 892.90022,2058.2817 92.22443,46.1122 -55.89359,104.8005 -99.21114,-54.4962 z"
       id="path16" /><path
       style="fill:#ffffff;stroke:none;stroke-width:46.8;stroke-linejoin:round"
       d="m 728.01411,1918.5477 -67.07232,72.6617 122.96591,103.4032 64.27764,-75.4564 z"
       id="path17" /><path
       style="fill:#ffffff;stroke:none;stroke-width:46.8;stroke-linejoin:round"
       d="m 621.81627,1943.6998 57.29094,-72.6616 -102.00582,-82.4431 -58.68827,81.0457 z"
       id="path18" /><path
       style="fill:#ffffff;stroke:none;stroke-width:46.8;stroke-linejoin:round"
       d="m 533.78385,1741.0856 -72.66167,72.6616 -131.34996,-134.1446 69.867,-68.4697 z"
       id="path19" /><path
       style="fill:#ffffff;stroke:none;stroke-width:46.8;stroke-linejoin:round"
       d="m 345.14296,1581.7888 -64.27763,71.2643 -117.37656,-107.5951 62.8803,-68.4697 z"
       id="path20" /><path
       style="fill:#ffffff;stroke:none;stroke-width:46.8;stroke-linejoin:round"
       d="m 99.211135,1340.049 -48.906897,110.3899 90.827092,43.3175 54.49626,-120.1712 z"
       id="path21" /><path
       style="fill:#ffffff;stroke:none;stroke-width:46.8;stroke-linejoin:round"
       d="m 258.50789,1148.6134 -114.58188,127.158 71.26434,64.2776 111.78719,-128.5553 z"
       id="path22" /><path
       style="fill:#ffffff;stroke:none;stroke-width:46.8;stroke-linejoin:round"
       d="m 401.03656,989.31667 75.45636,69.86703 -114.58188,141.1313 -76.85369,-64.2776 z"
       id="path23" /><path
       style="fill:#ffffff;stroke:none;stroke-width:46.8;stroke-linejoin:round"
       d="m 521.2078,864.95342 -90.8271,83.84039 78.25104,83.84039 93.62177,-86.63507 z"
       id="path24" /><path
       style="fill:#ffffff;stroke:none;stroke-width:46.8;stroke-linejoin:round"
       d="m 613.43223,744.78218 -57.29094,78.25104 146.7207,113.18454 55.89359,-79.64838 z"
       id="path25" /><path
       style="fill:#ffffff;stroke:none;stroke-width:46.8;stroke-linejoin:round"
       d="m 743.38484,612.03489 -72.66167,74.05902 124.36325,122.96591 76.8537,-69.867 z"
       id="path26" /><path
       style="fill:#ffffff;stroke:none;stroke-width:46.8;stroke-linejoin:round"
       d="m 902.6816,430.3807 83.84039,47.50956 -85.23773,162.09143 -90.8271,-51.70158 z"
       id="path27" /><path
       style="fill:#ffffff;stroke:none;stroke-width:46.8;stroke-linejoin:round"
       d="m 1270.182,183.05153 -132.7473,127.15794 -67.0723,-69.867 124.3632,-128.55528 z"
       id="path28" /><path
       style="fill:#ffffff;stroke:none;stroke-width:46.8;stroke-linejoin:round"
       d="m 1559.4314,850.98002 127.1579,117.37655 -69.867,76.85373 -135.542,-120.17126 z"
       id="path29" /><path
       style="fill:#ffffff;stroke:none;stroke-width:46.8;stroke-linejoin:round"
       d="m 1465.8096,951.58849 61.4829,89.42981 -141.1313,92.2244 -55.8936,-89.4298 z"
       id="path30" /><path
       style="fill:#ffffff;stroke:none;stroke-width:46.8;stroke-linejoin:round"
       d="m 1117.8719,673.51785 -61.4829,74.05901 138.3366,110.38986 57.291,-72.66168 z"
       id="path31" /><path
       style="fill:#ffffff;stroke:none;stroke-width:46.8;stroke-linejoin:round"
       d="m 1205.9044,551.94927 -72.6617,86.63508 129.9526,108.99251 72.6617,-83.84039 z"
       id="path32" /><path
       style="fill:#ffffff;stroke:none;stroke-width:46.8;stroke-linejoin:round"
       d="m 1429.4788,680.50455 82.443,111.78719 -86.6351,61.48296 -79.6483,-110.38986 z"
       id="path33" /><path
       style="fill:#ffffff;stroke:none;stroke-width:46.8;stroke-linejoin:round"
       d="m 1039.6209,975.34327 -78.25103,-83.84039 -97.81379,100.60847 78.25104,76.85365 z"
       id="path34" /><path
       style="fill:#ffffff;stroke:none;stroke-width:46.8;stroke-linejoin:round"
       d="m 838.40396,1021.4555 64.27764,68.4696 -127.15794,132.7473 -72.66167,-85.2377 z"
       id="path35" /><path
       style="fill:#ffffff;stroke:none;stroke-width:46.8;stroke-linejoin:round"
       d="m 667.92849,1163.9842 71.26433,72.6616 -78.25103,102.0059 -81.04572,-76.8537 z"
       id="path36" /><path
       style="fill:#ffffff;stroke:none;stroke-width:46.8;stroke-linejoin:round"
       d="m 554.74395,1291.1421 64.27764,57.2909 -115.97921,142.5287 -72.66168,-65.675 z"
       id="path37" /><path
       style="fill:#ffffff;stroke:none;stroke-width:46.8;stroke-linejoin:round"
       d="m 712.64337,1359.6118 78.25103,85.2377 -139.73399,114.5819 -65.67498,-83.8404 z"
       id="path38" /><path
       style="fill:#ffffff;stroke:none;stroke-width:46.8;stroke-linejoin:round"
       d="m 883.11884,1555.2393 -82.44306,-55.8936 -79.64837,108.9926 89.42975,57.2909 z"
       id="path39" /><path
       style="fill:#ffffff;stroke:none;stroke-width:46.8;stroke-linejoin:round"
       d="m 932.02574,1625.1063 65.67497,58.6883 -118.77389,139.734 -69.867,-65.675 z"
       id="path40" /><path
       style="fill:#ffffff;stroke:none;stroke-width:46.8;stroke-linejoin:round"
       d="m 1095.5145,1516.1138 -65.675,127.158 -93.62174,-47.5096 74.05904,-125.7606 z"
       id="path41" /><path
       style="fill:#ffffff;stroke:none;stroke-width:46.8;stroke-linejoin:round"
       d="m 1193.3283,1390.3532 -55.8936,102.0058 -156.50207,-82.443 51.70157,-99.2111 z"
       id="path42" /><path
       style="fill:#ffffff;stroke:none;stroke-width:46.8;stroke-linejoin:round"
       d="m 1036.4839,285.55181 83.9858,71.14093 -84.9739,87.9381 -86.95,-77.06934 z"
       id="path43" /></g><g
     inkscape:groupmode="layer"
     id="layer3"
     inkscape:label="Labels"><text
       xml:space="preserve"
       style="font-size:64px;line-height:1;font-family:sans-serif;-inkscape-font-specification:'sans-serif, Normal';text-align:center;writing-mode:lr-tb;direction:ltr;text-anchor:middle;fill:#ffffff;stroke:none;stroke-width:46.8;stroke-linejoin:round"
       x="1564.092"
       y="-832.41595"
       id="text43"
       transform="rotate(41.636826)"><tspan
         sodipodi:role="line"
         id="tspan43"
         x="1564.092"
         y="-832.41595">Thousand Oaks</tspan></text></g><path
     id="rect1-3"
     style="baseline-shift:baseline;display:inline;overflow:visible;vector-effect:none;fill:#ffffff;stroke-width:0.198083;stroke-linejoin:round;enable-background:accumulate;stop-color:#000000"
     d="m 1983.0408,657.94975 c -3.5426,0 -6.4729,2.9307 -6.4729,6.4733 v 17.2641 c 1.7287,0 3.41,0.01 5.0229,0.027 v -17.2908 c 0,-0.8469 0.6031,-1.4504 1.45,-1.4504 h 27.2585 c 0.8469,0 1.45,0.6035 1.45,1.4504 v 44.4109 c 0,0.8469 -0.6031,1.4504 -1.45,1.4504 h -27.2585 c -0.8469,0 -1.45,-0.6035 -1.45,-1.4504 v -17.2908 c -1.6129,0.017 -3.2942,0.027 -5.0229,0.027 v 17.264 c 0,3.5427 2.9303,6.4732 6.4729,6.4732 h 27.2585 c 3.5426,0 6.4729,-2.9305 6.4729,-6.4732 v -44.4109 c 0,-3.5426 -2.9303,-6.4733 -6.4729,-6.4733 z m 11.8859,21.4429 0.01,4.7526 h -18.4063 v 5.0432 h 18.4139 l 0.01,4.7525 12.5879,-7.2935 z" /><path
     id="rect1-3-1"
     style="baseline-shift:baseline;display:inline;overflow:visible;vector-effect:none;fill:#ffffff;stroke-width:0.198083;stroke-linejoin:round;enable-background:accumulate;stop-color:#000000"
     d="m 1402.921,147.82128 c -3.5426,0 -6.4729,2.9307 -6.4729,6.4733 v 17.2641 c 1.7287,0 3.41,0.01 5.0229,0.027 v -17.2908 c 0,-0.8469 0.6031,-1.4504 1.45,-1.4504 h 27.2585 c 0.8469,0 1.45,0.6035 1.45,1.4504 v 44.4109 c 0,0.8469 -0.6031,1.4504 -1.45,1.4504 h -27.2585 c -0.8469,0 -1.45,-0.6035 -1.45,-1.4504 v -17.2908 c -1.6129,0.017 -3.2942,0.027 -5.0229,0.027 v 17.264 c 0,3.5427 2.9303,6.4732 6.4729,6.4732 h 27.2585 c 3.5426,0 6.4729,-2.9305 6.4729,-6.4732 v -44.4109 c 0,-3.5426 -2.9303,-6.4733 -6.4729,-6.4733 z m 11.8859,21.4429 0.01,4.7526 h -18.4063 v 5.0432 h 18.4139 l 0.01,4.7525 12.5879,-7.2935 z" /></svg>
