<?xml version="1.0" encoding="UTF-8" standalone="no"?>
<!-- Created with Inkscape (http://www.inkscape.org/) -->

<svg
   version="1.1"
   id="svg1"
   width="2953.3333"
   height="2170.6667"
   viewBox="0 0 2953.3333 2170.6667"
   sodipodi:docname="Emerald Village.svg"
   inkscape:version="1.4.2 (ebf0e940d0, 2025-05-08)"
   xml:space="preserve"
   xmlns:inkscape="http://www.inkscape.org/namespaces/inkscape"
   xmlns:sodipodi="http://sodipodi.sourceforge.net/DTD/sodipodi-0.dtd"
   xmlns="http://www.w3.org/2000/svg"
   xmlns:svg="http://www.w3.org/2000/svg"><defs
     id="defs1" /><sodipodi:namedview
     id="namedview1"
     pagecolor="#ffffff"
     bordercolor="#000000"
     borderopacity="0.25"
     inkscape:showpageshadow="2"
     inkscape:pageopacity="0.0"
     inkscape:pagecheckerboard="0"
     inkscape:deskcolor="#d1d1d1"
     inkscape:zoom="0.26125597"
     inkscape:cx="1345.4238"
     inkscape:cy="1232.5077"
     inkscape:window-width="1920"
     inkscape:window-height="1008"
     inkscape:window-x="0"
     inkscape:window-y="0"
     inkscape:window-maximized="1"
     inkscape:current-layer="layer3" /><rect
     style="fill:#1a1a1a;stroke:none;stroke-width:22.2;stroke-linejoin:round"
     id="rect1"
     width="2953.3333"
     height="2170.6667"
     x="0"
     y="0"
     inkscape:label="bg" /><g
     inkscape:groupmode="layer"
     id="layer1"
     inkscape:label="Roads"><path
       style="baseline-shift:baseline;display:inline;overflow:visible;opacity:1;vector-effect:none;fill:#999999;stroke-linejoin:round;enable-background:accumulate;stop-color:#000000;stop-opacity:1"
       d="m 268.48828,183.67969 c -8.17361,-0.13347 -16.10338,2.7851 -22.24023,8.18554 l -67.66407,59.54297 c -3.17852,2.79761 -5.78625,6.18329 -7.67968,9.97071 l -29.77344,59.54492 c -2.22737,4.45607 -3.4122,9.36033 -3.46484,14.34179 l -8.09571,760.79688 -44.28906,130.2637 c -1.671911,4.918 -2.153844,10.1624 -1.40625,15.3027 l 21.65234,148.8613 c 0.74517,5.1249 2.69133,10.001 5.67969,14.2305 l 138.14063,195.4785 -64.58985,245.4395 63.53516,16.7207 63.92969,-242.9278 96.26562,-49.2519 h 90.54688 l 1560.36324,424.334 32.3965,30.4902 7.4785,37.4004 -22.277,108.2624 h 67.2945 l 20.6954,-101.821 c 0.8505,-4.2528 0.8505,-8.632 0,-12.8848 l -10.8261,-54.1308 c -1.3386,-6.6919 -4.7279,-12.8009 -9.6973,-17.4785 l -46.0117,-43.3047 c -3.9237,-3.6926 -8.6954,-6.3635 -13.8946,-7.7774 l -434.5019,-118.1601 118.4863,-348.0508 68.7832,-59.2969 416.0723,-214.7461 c 7.9337,-4.0953 13.859,-11.2433 16.4121,-19.7988 l 100.1445,-335.61524 c 1.5626,-5.23797 1.7935,-10.78305 0.6719,-16.13281 l -35.1855,-167.80859 c -1.1467,-5.46655 -3.6682,-10.5505 -7.3262,-14.77149 l -65.9961,-76.15039 -57.4883,-177.69141 c -1.7632,-5.44916 -4.9203,-10.34271 -9.1582,-14.19531 L 2046.6094,235.52344 c -4.7754,-4.34064 -10.7233,-7.17876 -17.1016,-8.16016 l -105.5566,-16.24023 c -1.4754,-0.22676 -2.9646,-0.35271 -4.4571,-0.37696 z m 11.62695,65.90039 1636.06057,26.82031 93.5605,14.39258 135.0723,122.79297 56.8535,175.73047 c 1.357,4.19445 3.5444,8.07289 6.4317,11.40429 l 64.791,74.75977 31.7285,151.31836 -93.7656,314.24217 -407.1016,210.1172 c -2.2893,1.1816 -4.4316,2.6284 -6.3828,4.3106 l -78.4903,67.664 c -4.4317,3.8207 -7.7627,8.7557 -9.6484,14.2949 L 1586.5332,1797.834 512.04102,1505.6309 c -2.80939,-0.7637 -5.70782,-1.1505 -8.61915,-1.1504 H 400.58789 l -43.44922,-246.2227 c -1.15584,-6.546 -4.27017,-12.5874 -8.93164,-17.3262 l -152.82031,-155.3671 7.89453,-742.0313 23.51953,-47.03711 z m -103.08984,911.00782 117.18555,119.1387 44.53125,252.3379 -41.93555,21.4531 -127.39844,-180.2793 -19.38086,-133.2442 z"
       id="path4"
       sodipodi:nodetypes="cccccccccccccccccccccccccccccccccccccccscccccccccsccccccccccccccccccccccccc" /><path
       style="fill:#4d4d4d;stroke:none;stroke-width:22.2;stroke-linejoin:round"
       d="M 1564.3957,2170.6667 0,1745.7357 v 127.2087 l 1071.8005,297.7223 z"
       id="path1" /></g><g
     inkscape:groupmode="layer"
     id="layer2"
     inkscape:label="Buildings"><path
       style="fill:#ffffff;stroke:none;stroke-width:65.7;stroke-linejoin:round;stroke-dasharray:none"
       d="m 506.12803,1023.0823 571.08567,154.2744 -73.0773,276.0698 -576.49881,-151.5678 z"
       id="path5" /><path
       style="fill:#ffffff;stroke:none;stroke-width:65.7;stroke-linejoin:round;stroke-dasharray:none"
       d="m 330.20118,289.60267 -13.53284,530.48714 278.7764,8.1197 29.77224,-533.19371 z"
       id="path6" /><path
       style="fill:#ffffff;stroke:none;stroke-width:65.7;stroke-linejoin:round;stroke-dasharray:none"
       d="m 868.80801,305.84207 -16.2394,535.90027 286.89609,8.1197 24.3591,-538.60683 z"
       id="path7" /><path
       style="fill:#ffffff;stroke:none;stroke-width:65.7;stroke-linejoin:round;stroke-dasharray:none"
       d="m 1975.7939,370.79968 184.0466,544.01997 -267.9502,92.02325 -178.6334,-541.31337 z"
       id="path8" /><path
       style="fill:#ffffff;stroke:none;stroke-width:65.7;stroke-linejoin:round;stroke-dasharray:none"
       d="m 2868.961,138.03492 5.4132,297.72237 -530.4872,-2.70657 V 135.32835 Z"
       id="path9" /><path
       style="fill:#ffffff;stroke:none;stroke-width:65.7;stroke-linejoin:round;stroke-dasharray:none"
       d="m 2779.6443,811.97011 -143.448,525.07399 -278.7764,-81.197 138.0349,-514.24774 z"
       id="path10" /><path
       style="fill:#ffffff;stroke:none;stroke-width:65.7;stroke-linejoin:round;stroke-dasharray:none"
       d="m 1377.6426,1231.488 -100.143,403.2785 178.6335,40.5985 113.6758,-408.6916 z"
       id="path11" /><path
       style="fill:#ffffff;stroke:none;stroke-width:65.7;stroke-linejoin:round;stroke-dasharray:none"
       d="m 2625.37,1464.2528 -105.5561,395.1587 -189.4597,-56.8379 113.6758,-395.1588 z"
       id="path12" /></g><g
     inkscape:groupmode="layer"
     id="layer3"
     inkscape:label="Labels"><text
       xml:space="preserve"
       style="font-weight:normal;font-size:82.96289825px;line-height:1;font-family:sans-serif;-inkscape-font-specification:'sans-serif, Normal';text-align:center;writing-mode:lr-tb;direction:ltr;text-anchor:middle;fill:#ffffff;stroke:none;stroke-width:65.7;stroke-linejoin:round;stroke-dasharray:none;font-style:normal;font-stretch:normal;font-variant:normal;font-variant-ligatures:normal;font-variant-caps:normal;font-variant-numeric:normal;font-variant-east-asian:normal"
       x="1221.6666"
       y="1752.1744"
       id="text12"
       transform="rotate(16.014583)"><tspan
         sodipodi:role="line"
         id="tspan12"
         x="1221.6666"
         y="1752.1744">N Loop 1604 E</tspan></text><text
       xml:space="preserve"
       style="font-style:normal;font-variant:normal;font-weight:normal;font-stretch:normal;font-size:82.96289825px;line-height:1;font-family:sans-serif;-inkscape-font-specification:'sans-serif, Normal';font-variant-ligatures:normal;font-variant-caps:normal;font-variant-numeric:normal;font-variant-east-asian:normal;text-align:center;writing-mode:lr-tb;direction:ltr;text-anchor:middle;fill:#000000;stroke:none;stroke-width:65.7;stroke-linejoin:round;stroke-dasharray:none"
       x="750.22211"
       y="1270.7844"
       id="text13"><tspan
         sodipodi:role="line"
         id="tspan13"
         x="750.22211"
         y="1270.7844">1</tspan></text><text
       xml:space="preserve"
       style="font-style:normal;font-variant:normal;font-weight:normal;font-stretch:normal;font-size:82.96289825px;line-height:1;font-family:sans-serif;-inkscape-font-specification:'sans-serif, Normal';font-variant-ligatures:normal;font-variant-caps:normal;font-variant-numeric:normal;font-variant-east-asian:normal;text-align:center;writing-mode:lr-tb;direction:ltr;text-anchor:middle;fill:#000000;stroke:none;stroke-width:65.7;stroke-linejoin:round;stroke-dasharray:none"
       x="472.97916"
       y="609.33331"
       id="text13-4"><tspan
         sodipodi:role="line"
         id="tspan13-4"
         x="472.97916"
         y="609.33331">2</tspan></text><text
       xml:space="preserve"
       style="font-style:normal;font-variant:normal;font-weight:normal;font-stretch:normal;font-size:82.96289825px;line-height:1;font-family:sans-serif;-inkscape-font-specification:'sans-serif, Normal';font-variant-ligatures:normal;font-variant-caps:normal;font-variant-numeric:normal;font-variant-east-asian:normal;text-align:center;writing-mode:lr-tb;direction:ltr;text-anchor:middle;fill:#000000;stroke:none;stroke-width:65.7;stroke-linejoin:round;stroke-dasharray:none"
       x="1012.5665"
       y="605.71198"
       id="text13-7"><tspan
         sodipodi:role="line"
         id="tspan13-5"
         x="1012.5665"
         y="605.71198">3</tspan></text><text
       xml:space="preserve"
       style="font-style:normal;font-variant:normal;font-weight:normal;font-stretch:normal;font-size:82.96289825px;line-height:1;font-family:sans-serif;-inkscape-font-specification:'sans-serif, Normal';font-variant-ligatures:normal;font-variant-caps:normal;font-variant-numeric:normal;font-variant-east-asian:normal;text-align:center;writing-mode:lr-tb;direction:ltr;text-anchor:middle;fill:#000000;stroke:none;stroke-width:65.7;stroke-linejoin:round;stroke-dasharray:none"
       x="1414.6344"
       y="1493.8164"
       id="text13-78"><tspan
         sodipodi:role="line"
         id="tspan13-57"
         x="1414.6344"
         y="1493.8164">8</tspan></text><text
       xml:space="preserve"
       style="font-style:normal;font-variant:normal;font-weight:normal;font-stretch:normal;font-size:82.96289825px;line-height:1;font-family:sans-serif;-inkscape-font-specification:'sans-serif, Normal';font-variant-ligatures:normal;font-variant-caps:normal;font-variant-numeric:normal;font-variant-east-asian:normal;text-align:center;writing-mode:lr-tb;direction:ltr;text-anchor:middle;fill:#000000;stroke:none;stroke-width:65.7;stroke-linejoin:round;stroke-dasharray:none"
       x="1946.6345"
       y="721.0567"
       id="text13-9"><tspan
         sodipodi:role="line"
         id="tspan13-7"
         x="1946.6345"
         y="721.0567">4</tspan></text><text
       xml:space="preserve"
       style="font-style:normal;font-variant:normal;font-weight:normal;font-stretch:normal;font-size:82.96289825px;line-height:1;font-family:sans-serif;-inkscape-font-specification:'sans-serif, Normal';font-variant-ligatures:normal;font-variant-caps:normal;font-variant-numeric:normal;font-variant-east-asian:normal;text-align:center;writing-mode:lr-tb;direction:ltr;text-anchor:middle;fill:#000000;stroke:none;stroke-width:65.7;stroke-linejoin:round;stroke-dasharray:none"
       x="2612.9792"
       y="330.33331"
       id="text13-3"><tspan
         sodipodi:role="line"
         id="tspan13-1"
         x="2612.9792"
         y="330.33331">5</tspan></text><text
       xml:space="preserve"
       style="font-style:normal;font-variant:normal;font-weight:normal;font-stretch:normal;font-size:82.96289825px;line-height:1;font-family:sans-serif;-inkscape-font-specification:'sans-serif, Normal';font-variant-ligatures:normal;font-variant-caps:normal;font-variant-numeric:normal;font-variant-east-asian:normal;text-align:center;writing-mode:lr-tb;direction:ltr;text-anchor:middle;fill:#000000;stroke:none;stroke-width:65.7;stroke-linejoin:round;stroke-dasharray:none"
       x="2567.2898"
       y="1069.3334"
       id="text13-33"><tspan
         sodipodi:role="line"
         id="tspan13-3"
         x="2567.2898"
         y="1069.3334">6</tspan></text><text
       xml:space="preserve"
       style="font-style:normal;font-variant:normal;font-weight:normal;font-stretch:normal;font-size:82.96289825px;line-height:1;font-family:sans-serif;-inkscape-font-specification:'sans-serif, Normal';font-variant-ligatures:normal;font-variant-caps:normal;font-variant-numeric:normal;font-variant-east-asian:normal;text-align:center;writing-mode:lr-tb;direction:ltr;text-anchor:middle;fill:#000000;stroke:none;stroke-width:65.7;stroke-linejoin:round;stroke-dasharray:none"
       x="2478.6345"
       y="1678.0228"
       id="text13-8"><tspan
         sodipodi:role="line"
         id="tspan13-8"
         x="2478.6345"
         y="1678.0228">7</tspan></text><text
       xml:space="preserve"
       style="font-size:64px;line-height:1;font-family:sans-serif;-inkscape-font-specification:'sans-serif, Normal';text-align:center;writing-mode:lr-tb;direction:ltr;text-anchor:middle;fill:#ffffff;stroke-width:46.8;stroke-linejoin:round"
       x="1247.8184"
       y="111.00225"
       id="text1"><tspan
         sodipodi:role="line"
         id="tspan1"
         x="1247.8184"
         y="111.00225">Apartment numbers are building + 3-digits</tspan></text></g><path
     id="rect1-3"
     style="baseline-shift:baseline;display:inline;overflow:visible;vector-effect:none;fill:#ffffff;stroke-width:0.259478;stroke-linejoin:round;enable-background:accumulate;stop-color:#000000"
     d="m 208.65364,1783.0315 c -4.64065,0 -8.47918,3.839 -8.47918,8.4797 v 22.6149 c 2.26454,0 4.46696,0.012 6.57978,0.035 v -22.65 c 0,-1.1094 0.79005,-1.9 1.8994,-1.9 h 35.70715 c 1.10941,0 1.89946,0.7906 1.89946,1.9 v 58.1758 c 0,1.1094 -0.79005,1.8999 -1.89946,1.8999 h -35.70715 c -1.10935,0 -1.8994,-0.7905 -1.8994,-1.8999 v -22.65 c -2.11282,0.023 -4.31524,0.035 -6.57978,0.035 v 22.615 c 0,4.6407 3.83853,8.4795 8.47918,8.4795 h 35.70715 c 4.64065,0 8.47918,-3.8388 8.47918,-8.4795 v -58.1758 c 0,-4.6407 -3.83853,-8.4797 -8.47918,-8.4797 z m 15.56988,28.0891 0.01,6.2255 h -24.11125 v 6.6063 h 24.12128 l 0.01,6.2256 16.48938,-9.5542 z" /></svg>
