<?xml version="1.0" encoding="UTF-8" standalone="no"?>
<!-- Created with Inkscape (http://www.inkscape.org/) -->

<svg
   version="1.1"
   id="svg1"
   width="1550.6667"
   height="1804"
   viewBox="0 0 1550.6667 1804"
   sodipodi:docname="Estates of Northwoods.svg"
   inkscape:version="1.4.2 (ebf0e940d0, 2025-05-08)"
   xml:space="preserve"
   xmlns:inkscape="http://www.inkscape.org/namespaces/inkscape"
   xmlns:sodipodi="http://sodipodi.sourceforge.net/DTD/sodipodi-0.dtd"
   xmlns="http://www.w3.org/2000/svg"
   xmlns:svg="http://www.w3.org/2000/svg"><defs
     id="defs1" /><sodipodi:namedview
     id="namedview1"
     pagecolor="#ffffff"
     bordercolor="#000000"
     borderopacity="0.25"
     inkscape:showpageshadow="2"
     inkscape:pageopacity="0.0"
     inkscape:pagecheckerboard="0"
     inkscape:deskcolor="#d1d1d1"
     inkscape:zoom="0.44456763"
     inkscape:cx="675.93765"
     inkscape:cy="897.50124"
     inkscape:window-width="1920"
     inkscape:window-height="1008"
     inkscape:window-x="0"
     inkscape:window-y="0"
     inkscape:window-maximized="1"
     inkscape:current-layer="layer1" /><rect
     style="fill:#1a1a1a;stroke:none;stroke-width:15.1648;stroke-linejoin:round;stroke-dasharray:none"
     id="rect8"
     width="1550.6667"
     height="1804"
     x="1.2789769e-13"
     y="-2.9109658e-06"
     inkscape:label="bg" /><g
     inkscape:groupmode="layer"
     id="layer2"
     inkscape:label="Roads"><path
       style="baseline-shift:baseline;display:inline;overflow:visible;vector-effect:none;stroke-linejoin:round;enable-background:accumulate;stop-color:#000000;stop-opacity:1;opacity:1;fill:#999999"
       d="m 256.76758,270.46094 -29.24219,8.99804 a 6.50065,6.50065 0 0 0 -2.47852,1.41797 L 65.341797,427.08594 a 6.50065,6.50065 0 0 0 -1.585938,2.23437 l -13.496093,31.49024 a 6.50065,6.50065 0 0 0 -0.47461,3.36718 l 4.498047,35.99024 a 6.50065,6.50065 0 0 0 1.308594,3.16992 L 539.20703,1128.6641 a 6.50065,6.50065 0 0 0 2.45313,1.9414 l 24.74218,11.248 a 6.50065,6.50065 0 0 0 1.97266,0.541 l 20.24414,2.25 a 6.50065,6.50065 0 0 0 4.76172,-1.3711 l 84.2793,-66.9921 10.76367,6.1503 192.64062,255.3633 a 6.50065,6.50065 0 0 0 1.84571,1.6582 l 65.98242,39.5918 -13.13477,50.0176 -5.39062,12.7422 -63.46094,52.9766 a 6.50065,6.50065 0 0 0 -1.44922,1.7148 l -7.87305,13.4961 a 6.50065,6.50065 0 0 0 -0.88086,3.5078 l 0.5625,15.7461 a 6.50065,6.50065 0 0 0 1.13868,3.4512 l 79.29101,115.2812 a 6.50065,6.50065 0 0 0 2.96875,2.3613 l 21.36914,8.4356 a 6.50065,6.50065 0 0 0 2.2461,0.4531 l 25.86718,0.5625 a 6.50065,6.50065 0 0 0 3.11133,-0.7168 l 20.80669,-10.6855 a 6.50065,6.50065 0 0 0 1.7988,-1.3653 l 14.0586,-15.1836 a 6.50065,6.50065 0 0 0 1.3906,-2.3398 l 65.1953,-193.4082 19.1055,7.3281 a 6.50065,6.50065 0 0 0 0.4922,0.168 l 38.2402,11.2461 a 6.50065,6.50065 0 0 0 3.1094,0.1387 l 44.9863,-8.9981 a 6.50065,6.50065 0 0 0 3.3223,-1.7773 l 31.4902,-31.4922 a 6.50065,6.50065 0 0 0 1.5391,-2.4473 l 188.9472,-539.85155 a 6.50065,6.50065 0 0 0 -0.5976,-5.55273 l -4.6914,-7.62305 30.8847,-16.4082 a 6.50065,6.50065 0 0 0 2.9629,-3.2754 l 41.0528,-100.09765 -12.0293,-4.93164 -40.1602,97.92383 -29.5391,15.69336 -6.4765,-10.52344 a 6.50065,6.50065 0 0 0 -3.084,-2.61328 L 898.06641,626.20312 838.74609,593.24609 785.62695,529.0625 742.9707,472.93555 a 6.50065,6.50065 0 0 0 -1.35156,-1.32422 l -44.59375,-32.43164 93.52344,-150.07032 -11.03321,-6.87695 -92.52734,148.47461 -112.30273,-67.38281 a 6.50065,6.50065 0 0 0 -3.50586,-0.92383 l -88.57032,2.21289 -221.39257,-93.92383 a 6.50065,6.50065 0 0 0 -4.44922,-0.22851 z m 1.55469,13.12304 70.35546,29.84766 -165.11914,308.25977 -96.595699,-124.90039 -4.060547,-32.47852 12.25,-28.58398 157.593746,-144.2754 z m 82.37304,34.94532 138.13281,58.60156 a 6.50065,6.50065 0 0 0 2.70118,0.51367 l 88.08789,-2.20117 113.04297,67.82617 a 6.50065,6.50065 0 0 0 1.82617,2.86524 l 48.71289,35.42773 42.16015,55.47266 a 6.50065,6.50065 0 0 0 0.16602,0.21093 l 53.98633,65.23243 a 6.50065,6.50065 0 0 0 1.84961,1.5371 l 60.73437,33.74024 a 6.50065,6.50065 0 0 0 0.70508,0.33984 l 506.38872,206.14063 15.2597,24.79492 -187.4355,535.53125 -29.0508,29.0508 -41.4863,8.2969 -36.4532,-10.7207 -163.42965,-62.6856 -65.91211,-39.5469 -192.68555,-255.4199 a 6.50065,6.50065 0 0 0 -1.96289,-1.7285 l -15.74609,-8.9981 a 6.50065,6.50065 0 0 0 -7.26953,0.5547 l -85.62696,68.0625 -16.55078,-1.8379 -22.33398,-10.1523 -376.23438,-486.48047 z m 620.30664,1065.5879 123.35545,47.3144 -64.9199,192.5977 -12.332,13.3203 -18.3223,9.4082 -23.05859,-0.5019 -18.44141,-7.2793 -77.09375,-112.086 -0.42773,-11.9726 6.34961,-10.8867 63.79492,-53.254 a 6.50065,6.50065 0 0 0 1.82031,-2.457 l 6.18555,-14.6211 a 6.50065,6.50065 0 0 0 0.30078,-0.8828 z"
       id="path5" /><path
       style="fill:#4d4d4d;stroke:none;stroke-width:3;stroke-linejoin:round"
       d="M 1550.6667,623.07731 1111.192,452.12469 776.03491,299.16708 427.38155,78.72818 294.66833,0 h 188.94763 l 290.16958,184.44888 220.4389,110.21945 242.93266,105.7207 313.5096,123.71571 z"
       id="path1" /></g><g
     inkscape:groupmode="layer"
     id="layer3"
     inkscape:label="Buildings"><path
       style="fill:#ffffff;stroke:none;stroke-width:13;stroke-linejoin:round;stroke-dasharray:none"
       d="m 1437.3516,778.28429 -281.172,-112.46883 38.2394,-96.72319 283.4214,110.21945 z"
       id="path8" /><path
       style="fill:#ffffff;stroke:none;stroke-width:13;stroke-linejoin:round;stroke-dasharray:none"
       d="M 1097.6958,663.56608 1142.6833,575.8404 866.00998,429.63092 825.5212,517.35661 Z"
       id="path9" /><path
       style="fill:#ffffff;stroke:none;stroke-width:13;stroke-linejoin:round;stroke-dasharray:none"
       d="M 489.2394,309.28928 536.47631,214.81546 241.80798,82.102244 196.82045,168.70324 Z"
       id="path10" /><path
       style="fill:#ffffff;stroke:none;stroke-width:13;stroke-linejoin:round;stroke-dasharray:none"
       d="M 186.69825,103.47132 143.9601,330.65835 31.491272,309.28928 74.229426,85.476309 Z"
       id="path11" /><path
       style="fill:#ffffff;stroke:none;stroke-width:13;stroke-linejoin:round;stroke-dasharray:none"
       d="M 451,426.25686 359.90025,596.08479 271.04988,548.84788 363.27431,377.89526 Z"
       id="path12" /><path
       style="fill:#ffffff;stroke:none;stroke-width:13;stroke-linejoin:round;stroke-dasharray:none"
       d="M 439.75312,897.50125 521.85536,836.76808 344.15461,598.33416 258.6783,663.56609 Z"
       id="path13" /><path
       style="fill:#ffffff;stroke:none;stroke-width:13;stroke-linejoin:round;stroke-dasharray:none"
       d="M 453.24938,915.49626 624.202,786.15711 691.68329,870.50873 524.10474,1002.0973 Z"
       id="path14" /><path
       style="fill:#ffffff;stroke:none;stroke-width:13;stroke-linejoin:round;stroke-dasharray:none"
       d="M 942.48878,814.27431 989.72569,728.798 755.79052,600.58354 710.80299,688.30923 Z"
       id="path15" /><path
       style="fill:#ffffff;stroke:none;stroke-width:13;stroke-linejoin:round;stroke-dasharray:none"
       d="M 782.78304,1405.8603 614.0798,1189.9202 692.80798,1129.187 863.7606,1347.3766 Z"
       id="path16" /><path
       style="fill:#ffffff;stroke:none;stroke-width:13;stroke-linejoin:round;stroke-dasharray:none"
       d="m 1135.9352,1462.0948 92.2244,31.4912 -89.9751,249.6808 -96.7232,-35.99 z"
       id="path17" /><path
       style="fill:#ffffff;stroke:none;stroke-width:13;stroke-linejoin:round;stroke-dasharray:none"
       d="m 1201.1671,1291.1421 -31.4913,96.7232 -256.42892,-98.9725 33.74065,-96.7232 z"
       id="path18" /><path
       style="fill:#ffffff;stroke:none;stroke-width:13;stroke-linejoin:round;stroke-dasharray:none"
       d="M 946.98753,1135.9352 787.2818,919.99501 l -83.22694,67.4813 157.45636,211.44139 z"
       id="path19" /><path
       style="fill:#ffffff;stroke:none;stroke-width:13;stroke-linejoin:round;stroke-dasharray:none"
       d="m 1160.6783,1039.212 33.7407,-83.22696 -256.42898,-96.72319 -31.49127,87.72568 z"
       id="path20" /><path
       style="fill:#ffffff;stroke:none;stroke-width:13;stroke-linejoin:round;stroke-dasharray:none"
       d="m 1138.1845,1239.4065 107.9701,-283.42146 92.2245,33.74065 -105.7207,283.42141 z"
       id="path21" /></g><g
     inkscape:groupmode="layer"
     id="layer1"
     inkscape:label="Labels"><text
       xml:space="preserve"
       style="font-weight:normal;font-size:48px;line-height:1;font-family:sans-serif;-inkscape-font-specification:'sans-serif, Normal';text-align:center;writing-mode:lr-tb;direction:ltr;text-anchor:middle;fill:#ffffff;stroke:none;stroke-width:13;stroke-linejoin:round;stroke-dasharray:none;font-style:normal;font-stretch:normal;font-variant:normal;font-variant-ligatures:normal;font-variant-caps:normal;font-variant-numeric:normal;font-variant-east-asian:normal"
       x="1129.7072"
       y="-66.714561"
       id="text6"
       transform="rotate(23.702528)"><tspan
         sodipodi:role="line"
         x="1129.7072"
         y="-66.714561"
         id="tspan7">Henderson Pass</tspan></text><text
       xml:space="preserve"
       style="font-weight:normal;font-size:48px;line-height:1;font-family:sans-serif;-inkscape-font-specification:'sans-serif, Normal';text-align:center;writing-mode:lr-tb;direction:ltr;text-anchor:middle;fill:#000000;stroke:none;stroke-width:13;stroke-linejoin:round;stroke-dasharray:none;font-style:normal;font-stretch:normal;font-variant:normal;font-variant-ligatures:normal;font-variant-caps:normal;font-variant-numeric:normal;font-variant-east-asian:normal"
       x="983.02441"
       y="563.43573"
       id="text21"><tspan
         sodipodi:role="line"
         id="tspan21"
         x="983.02441"
         y="563.43573">1</tspan></text><text
       xml:space="preserve"
       style="font-weight:normal;font-size:48px;line-height:1;font-family:sans-serif;-inkscape-font-specification:'sans-serif, Normal';text-align:center;writing-mode:lr-tb;direction:ltr;text-anchor:middle;fill:#000000;stroke:none;stroke-width:13;stroke-linejoin:round;stroke-dasharray:none;font-style:normal;font-stretch:normal;font-variant:normal;font-variant-ligatures:normal;font-variant-caps:normal;font-variant-numeric:normal;font-variant-east-asian:normal"
       x="1311.1371"
       y="687.56079"
       id="text22"><tspan
         sodipodi:role="line"
         id="tspan22"
         x="1311.1371"
         y="687.56079">3</tspan></text><text
       xml:space="preserve"
       style="font-weight:normal;font-size:48px;line-height:1;font-family:sans-serif;-inkscape-font-specification:'sans-serif, Normal';text-align:center;writing-mode:lr-tb;direction:ltr;text-anchor:middle;fill:#000000;stroke:none;stroke-width:13;stroke-linejoin:round;stroke-dasharray:none;font-style:normal;font-stretch:normal;font-variant:normal;font-variant-ligatures:normal;font-variant-caps:normal;font-variant-numeric:normal;font-variant-east-asian:normal"
       x="845.92548"
       y="720.89209"
       id="text23"><tspan
         sodipodi:role="line"
         id="tspan23"
         x="845.92548"
         y="720.89209">2</tspan></text><text
       xml:space="preserve"
       style="font-weight:normal;font-size:48px;line-height:1;font-family:sans-serif;-inkscape-font-specification:'sans-serif, Normal';text-align:center;writing-mode:lr-tb;direction:ltr;text-anchor:middle;fill:#000000;stroke:none;stroke-width:13;stroke-linejoin:round;stroke-dasharray:none;font-style:normal;font-stretch:normal;font-variant:normal;font-variant-ligatures:normal;font-variant-caps:normal;font-variant-numeric:normal;font-variant-east-asian:normal"
       x="1047.3246"
       y="967.93756"
       id="text24"><tspan
         sodipodi:role="line"
         id="tspan24"
         x="1047.3246"
         y="967.93756">4</tspan></text><text
       xml:space="preserve"
       style="font-weight:normal;font-size:48px;line-height:1;font-family:sans-serif;-inkscape-font-specification:'sans-serif, Normal';text-align:center;writing-mode:lr-tb;direction:ltr;text-anchor:middle;fill:#000000;stroke:none;stroke-width:13;stroke-linejoin:round;stroke-dasharray:none;font-style:normal;font-stretch:normal;font-variant:normal;font-variant-ligatures:normal;font-variant-caps:normal;font-variant-numeric:normal;font-variant-east-asian:normal"
       x="1241.7357"
       y="1120.2363"
       id="text25"><tspan
         sodipodi:role="line"
         id="tspan25"
         x="1241.7357"
         y="1120.2363">5</tspan></text><text
       xml:space="preserve"
       style="font-weight:normal;font-size:48px;line-height:1;font-family:sans-serif;-inkscape-font-specification:'sans-serif, Normal';text-align:center;writing-mode:lr-tb;direction:ltr;text-anchor:middle;fill:#000000;stroke:none;stroke-width:13;stroke-linejoin:round;stroke-dasharray:none;font-style:normal;font-stretch:normal;font-variant:normal;font-variant-ligatures:normal;font-variant-caps:normal;font-variant-numeric:normal;font-variant-east-asian:normal"
       x="824.3634"
       y="1074.0442"
       id="text26"><tspan
         sodipodi:role="line"
         id="tspan26"
         x="824.3634"
         y="1074.0442">9</tspan></text><text
       xml:space="preserve"
       style="font-weight:normal;font-size:48px;line-height:1;font-family:sans-serif;-inkscape-font-specification:'sans-serif, Normal';text-align:center;writing-mode:lr-tb;direction:ltr;text-anchor:middle;fill:#000000;stroke:none;stroke-width:13;stroke-linejoin:round;stroke-dasharray:none;font-style:normal;font-stretch:normal;font-variant:normal;font-variant-ligatures:normal;font-variant-caps:normal;font-variant-numeric:normal;font-variant-east-asian:normal"
       x="1051.2776"
       y="1306.3889"
       id="text27"><tspan
         sodipodi:role="line"
         id="tspan27"
         x="1051.2776"
         y="1306.3889">6</tspan></text><text
       xml:space="preserve"
       style="font-weight:normal;font-size:48px;line-height:1;font-family:sans-serif;-inkscape-font-specification:'sans-serif, Normal';text-align:center;writing-mode:lr-tb;direction:ltr;text-anchor:middle;fill:#000000;stroke:none;stroke-width:13;stroke-linejoin:round;stroke-dasharray:none;font-style:normal;font-stretch:normal;font-variant:normal;font-variant-ligatures:normal;font-variant-caps:normal;font-variant-numeric:normal;font-variant-east-asian:normal"
       x="1140.3208"
       y="1615.5983"
       id="text28"><tspan
         sodipodi:role="line"
         id="tspan28"
         x="1140.3208"
         y="1615.5983">7</tspan></text><text
       xml:space="preserve"
       style="font-weight:normal;font-size:48px;line-height:1;font-family:sans-serif;-inkscape-font-specification:'sans-serif, Normal';text-align:center;writing-mode:lr-tb;direction:ltr;text-anchor:middle;fill:#000000;stroke:none;stroke-width:13;stroke-linejoin:round;stroke-dasharray:none;font-style:normal;font-stretch:normal;font-variant:normal;font-variant-ligatures:normal;font-variant-caps:normal;font-variant-numeric:normal;font-variant-east-asian:normal"
       x="737.40955"
       y="1282.9634"
       id="text29"><tspan
         sodipodi:role="line"
         id="tspan29"
         x="737.40955"
         y="1282.9634">8</tspan></text><text
       xml:space="preserve"
       style="font-weight:normal;font-size:48px;line-height:1;font-family:sans-serif;-inkscape-font-specification:'sans-serif, Normal';text-align:center;writing-mode:lr-tb;direction:ltr;text-anchor:middle;fill:#000000;stroke:none;stroke-width:13;stroke-linejoin:round;stroke-dasharray:none;font-style:normal;font-stretch:normal;font-variant:normal;font-variant-ligatures:normal;font-variant-caps:normal;font-variant-numeric:normal;font-variant-east-asian:normal"
       x="570.61658"
       y="908.36218"
       id="text30"><tspan
         sodipodi:role="line"
         id="tspan30"
         x="570.61658"
         y="908.36218">10</tspan></text><text
       xml:space="preserve"
       style="font-weight:normal;font-size:48px;line-height:1;font-family:sans-serif;-inkscape-font-specification:'sans-serif, Normal';text-align:center;writing-mode:lr-tb;direction:ltr;text-anchor:middle;fill:#000000;stroke:none;stroke-width:13;stroke-linejoin:round;stroke-dasharray:none;font-style:normal;font-stretch:normal;font-variant:normal;font-variant-ligatures:normal;font-variant-caps:normal;font-variant-numeric:normal;font-variant-east-asian:normal"
       x="389.96085"
       y="768.78778"
       id="text31"><tspan
         sodipodi:role="line"
         id="tspan31"
         x="389.96085"
         y="768.78778">11</tspan></text><text
       xml:space="preserve"
       style="font-weight:normal;font-size:48px;line-height:1;font-family:sans-serif;-inkscape-font-specification:'sans-serif, Normal';text-align:center;writing-mode:lr-tb;direction:ltr;text-anchor:middle;fill:#000000;stroke:none;stroke-width:13;stroke-linejoin:round;stroke-dasharray:none;font-style:normal;font-stretch:normal;font-variant:normal;font-variant-ligatures:normal;font-variant-caps:normal;font-variant-numeric:normal;font-variant-east-asian:normal"
       x="358.35651"
       y="506.65552"
       id="text32"><tspan
         sodipodi:role="line"
         id="tspan32"
         x="358.35651"
         y="506.65552">12</tspan></text><text
       xml:space="preserve"
       style="font-weight:normal;font-size:48px;line-height:1;font-family:sans-serif;-inkscape-font-specification:'sans-serif, Normal';text-align:center;writing-mode:lr-tb;direction:ltr;text-anchor:middle;fill:#000000;stroke:none;stroke-width:13;stroke-linejoin:round;stroke-dasharray:none;font-style:normal;font-stretch:normal;font-variant:normal;font-variant-ligatures:normal;font-variant-caps:normal;font-variant-numeric:normal;font-variant-east-asian:normal"
       x="363.24118"
       y="209.07899"
       id="text33"><tspan
         sodipodi:role="line"
         id="tspan33"
         x="363.24118"
         y="209.07899">14</tspan></text><text
       xml:space="preserve"
       style="font-weight:normal;font-size:48px;line-height:1;font-family:sans-serif;-inkscape-font-specification:'sans-serif, Normal';text-align:center;writing-mode:lr-tb;direction:ltr;text-anchor:middle;fill:#000000;stroke:none;stroke-width:13;stroke-linejoin:round;stroke-dasharray:none;font-style:normal;font-stretch:normal;font-variant:normal;font-variant-ligatures:normal;font-variant-caps:normal;font-variant-numeric:normal;font-variant-east-asian:normal"
       x="104.94884"
       y="221.69034"
       id="text34"><tspan
         sodipodi:role="line"
         id="tspan34"
         x="104.94884"
         y="221.69034">13</tspan></text></g><path
     id="rect1"
     style="baseline-shift:baseline;display:inline;overflow:visible;vector-effect:none;fill:#ffffff;stroke-width:0.14862;stroke-linejoin:round;enable-background:accumulate;stop-color:#000000"
     d="m 781.48107,251.43603 c -2.65801,0 -4.85658,2.19886 -4.85658,4.85687 v 12.95309 c 1.29703,0 2.5585,0.007 3.76865,0.0204 v -12.97318 c 0,-0.63538 0.45252,-1.0882 1.08793,-1.0882 h 20.45182 c 0.63542,0 1.08794,0.45282 1.08794,1.0882 v 33.32112 c 0,0.63544 -0.45252,1.08827 -1.08794,1.08827 h -20.45182 c -0.63541,0 -1.08793,-0.45283 -1.08793,-1.08827 v -12.97318 c -1.21015,0.0129 -2.47162,0.0203 -3.76865,0.0203 v 12.95303 c 0,2.658 2.19857,4.85679 4.85658,4.85679 h 20.45182 c 2.65801,0 4.85659,-2.19879 4.85659,-4.85679 v -33.32111 c 0,-2.65801 -2.19858,-4.85688 -4.85659,-4.85688 z m 8.91788,16.08848 0.005,3.56575 h -13.81009 v 3.78385 h 13.81581 l 0.005,3.56582 9.44457,-5.47229 z" /></svg>
