<?xml version="1.0" encoding="UTF-8" standalone="no"?>
<!-- Created with Inkscape (http://www.inkscape.org/) -->

<svg
   version="1.1"
   id="svg1"
   width="1617.3333"
   height="1752"
   viewBox="0 0 1617.3333 1752"
   sodipodi:docname="La Calera.svg"
   inkscape:version="1.4.2 (ebf0e940d0, 2025-05-08)"
   xml:space="preserve"
   xmlns:inkscape="http://www.inkscape.org/namespaces/inkscape"
   xmlns:sodipodi="http://sodipodi.sourceforge.net/DTD/sodipodi-0.dtd"
   xmlns="http://www.w3.org/2000/svg"
   xmlns:svg="http://www.w3.org/2000/svg"><defs
     id="defs1" /><sodipodi:namedview
     id="namedview1"
     pagecolor="#ffffff"
     bordercolor="#000000"
     borderopacity="0.25"
     inkscape:showpageshadow="2"
     inkscape:pageopacity="0.0"
     inkscape:pagecheckerboard="0"
     inkscape:deskcolor="#d1d1d1"
     inkscape:zoom="0.45776256"
     inkscape:cx="789.71072"
     inkscape:cy="889.10723"
     inkscape:window-width="1920"
     inkscape:window-height="1008"
     inkscape:window-x="0"
     inkscape:window-y="0"
     inkscape:window-maximized="1"
     inkscape:current-layer="layer3-9" /><rect
     style="fill:#1a1a1a;stroke-width:46.8;stroke-linejoin:round"
     id="rect1"
     width="1617.3333"
     height="1752"
     x="0"
     y="0"
     inkscape:label="bg" /><g
     inkscape:groupmode="layer"
     id="layer1"
     inkscape:label="Roads"><path
       style="baseline-shift:baseline;display:inline;overflow:visible;vector-effect:none;fill:#999999;stroke-linejoin:round;enable-background:accumulate;stop-color:#000000;stop-opacity:1;opacity:1"
       d="m 1417.3105,157.7207 -397.3437,460.5586 -191.44727,-176.72071 -31.74219,34.38868 211.07426,194.83789 27.7148,40.23242 -3.5898,49.36328 -15.2579,51.70703 -85.623,23.43359 -43.70703,-9.61523 -47.33984,-37.47656 -100.78711,-96.45313 a 23.40234,23.40234 0 0 0 -0.27539,-0.25976 L 664.71094,622.9043 632.9043,657.23437 707.04102,725.91992 808.48437,823 a 23.40234,23.40234 0 0 0 1.6543,1.44141 l 8.32422,6.58984 -374.45312,442.12695 a 23.40234,23.40234 0 0 0 -5.48633,16.7617 l 11.44922,163.1602 -0.93555,0.6816 -320.60547,18.1465 2.64648,46.7266 327.47657,-18.5371 a 23.40234,23.40234 0 0 0 12.43945,-4.4375 l 16.99219,-12.3575 a 23.40234,23.40234 0 0 0 9.58008,-20.5625 L 485.875,1296.1406 855.17773,860.0957 l 7.39063,5.85157 a 23.40234,23.40234 0 0 0 9.49609,4.50781 l 54.61328,12.01367 a 23.40234,23.40234 0 0 0 11.20508,-0.2832 l 97.69139,-26.73633 120.2051,101.60156 30.2109,-35.74414 L 1063.7676,818 l 13.8086,-46.78906 a 23.40234,23.40234 0 0 0 0.8945,-4.92578 l 4.3691,-60.07422 a 23.40234,23.40234 0 0 0 -4.0683,-14.97266 l -26.6113,-38.62891 400.5859,-464.3164 z"
       id="path6" /><path
       style="fill:#4d4d4d;stroke-width:46.8;stroke-linejoin:round"
       d="M 1617.3333,489.33666 504.62843,1752 H 430.35411 L 1617.3333,408.50873 Z"
       id="path1" /><path
       style="fill:#4d4d4d;stroke-width:46.8;stroke-linejoin:round"
       d="M 1129.4065,0 1116.2992,78.643391 1074.793,168.20948 987.41147,277.43641 0,1400.2893 v -65.5362 L 1022.3641,181.31671 1066.0549,104.85785 1087.9002,45.875311 1090.0848,0 Z"
       id="path2" /></g><g
     inkscape:groupmode="layer"
     id="layer2"
     inkscape:label="Buildings"><path
       style="fill:#ffffff;stroke:none;stroke-width:46.8;stroke-linejoin:round"
       d="m 1547.7456,275.25187 -114.6883,220.6384 -79.7356,-37.13716 121.2419,-222.82294 z"
       id="path7" /><path
       style="fill:#ffffff;stroke:none;stroke-width:46.8;stroke-linejoin:round"
       d="M 1357.6908,521.01247 1200.404,750.38902 1118.4838,701.2369 1286.6933,466.399 Z"
       id="path8" /><path
       style="fill:#ffffff;stroke:none;stroke-width:46.8;stroke-linejoin:round"
       d="m 1285.601,62.259351 8.7381,220.638399 -96.1197,1.09227 -2.1845,-222.822938 z"
       id="path9" /><path
       style="fill:#ffffff;stroke:none;stroke-width:46.8;stroke-linejoin:round"
       d="M 1178.5586,322.21945 984.13466,542.85785 920.78304,479.50623 1115.207,259.9601 Z"
       id="path10" /><path
       style="fill:#ffffff;stroke:none;stroke-width:46.8;stroke-linejoin:round"
       d="m 959.01246,895.66084 60.07484,72.08978 -214.08481,183.50128 -55.70574,-74.2744 z"
       id="path11" /><path
       style="fill:#ffffff;stroke:none;stroke-width:46.8;stroke-linejoin:round"
       d="m 768.9576,1184.0199 -76.45885,-48.0598 -158.37905,245.7606 79.73566,44.783 z"
       id="path12" /><path
       style="fill:#ffffff;stroke:none;stroke-width:46.8;stroke-linejoin:round"
       d="m 417.24688,1564.1297 -235.93017,9.8304 2.18454,90.6583 237.02244,-8.7381 z"
       id="path13" /><path
       style="fill:#ffffff;stroke:none;stroke-width:46.8;stroke-linejoin:round"
       d="m 383.38653,1303.0773 2.18454,96.1197 -229.37656,13.1072 -3.27681,-93.9351 z"
       id="path14" /><path
       style="fill:#ffffff;stroke:none;stroke-width:46.8;stroke-linejoin:round"
       d="m 501.35162,1080.2544 -149.6409,178.0399 -60.07481,-61.1671 151.82543,-168.2095 z"
       id="path15" /><path
       style="fill:#ffffff;stroke:none;stroke-width:46.8;stroke-linejoin:round"
       d="M 550.50374,1033.2868 741.65087,825.75561 669.56109,763.49625 492.61346,965.56608 Z"
       id="path16" /></g><g
     inkscape:groupmode="layer"
     id="layer3-9"
     inkscape:label="Labels"
     transform="rotate(-47.789492,191.44425,1333.6044)"><text
       xml:space="preserve"
       style="font-size:37.3333px;line-height:1;font-family:sans-serif;-inkscape-font-specification:'sans-serif, Normal';text-align:center;writing-mode:lr-tb;direction:ltr;text-anchor:middle;fill:#ffffff;stroke:none;stroke-width:46.8;stroke-linejoin:round"
       x="898.2984"
       y="1247.2416"
       id="text16-1"
       transform="rotate(-2.0348994)"><tspan
         sodipodi:role="line"
         id="tspan16-2"
         x="898.2984"
         y="1247.2416">Central Pkwy N</tspan></text><text
       xml:space="preserve"
       style="font-size:48px;line-height:1;font-family:sans-serif;-inkscape-font-specification:'sans-serif, Normal';text-align:center;writing-mode:lr-tb;direction:ltr;text-anchor:middle;fill:#ffffff;stroke:none;stroke-width:46.8;stroke-linejoin:round"
       x="824.38928"
       y="1854.0642"
       id="text16"
       transform="rotate(-1.923462)"><tspan
         sodipodi:role="line"
         id="tspan16"
         x="824.38928"
         y="1854.0642">Heimer Rd</tspan></text><text
       xml:space="preserve"
       style="font-size:64px;line-height:1;font-family:sans-serif;-inkscape-font-specification:'sans-serif, Normal';text-align:center;writing-mode:lr-tb;direction:ltr;text-anchor:middle;fill:#000000;stroke-width:46.8;stroke-linejoin:round"
       x="1809.6929"
       y="460.42755"
       id="text1"
       transform="rotate(47.789492)"><tspan
         sodipodi:role="line"
         id="tspan1"
         x="1809.6929"
         y="460.42755">5</tspan></text><text
       xml:space="preserve"
       style="font-size:64px;line-height:1;font-family:sans-serif;-inkscape-font-specification:'sans-serif, Normal';text-align:center;writing-mode:lr-tb;direction:ltr;text-anchor:middle;fill:#000000;stroke-width:46.8;stroke-linejoin:round"
       x="1578.1317"
       y="720.38763"
       id="text2"
       transform="rotate(47.789492)"><tspan
         sodipodi:role="line"
         id="tspan2"
         x="1578.1317"
         y="720.38763">6</tspan></text><text
       xml:space="preserve"
       style="font-size:64px;line-height:1;font-family:sans-serif;-inkscape-font-specification:'sans-serif, Normal';text-align:center;writing-mode:lr-tb;direction:ltr;text-anchor:middle;fill:#000000;stroke-width:46.8;stroke-linejoin:round"
       x="1226.4211"
       y="1056.8065"
       id="text3"
       transform="rotate(47.789492)"><tspan
         sodipodi:role="line"
         id="tspan3"
         x="1226.4211"
         y="1056.8065">7</tspan></text><text
       xml:space="preserve"
       style="font-size:64px;line-height:1;font-family:sans-serif;-inkscape-font-specification:'sans-serif, Normal';text-align:center;writing-mode:lr-tb;direction:ltr;text-anchor:middle;fill:#000000;stroke-width:46.8;stroke-linejoin:round"
       x="1195.8375"
       y="801.21539"
       id="text4"
       transform="rotate(47.789492)"><tspan
         sodipodi:role="line"
         id="tspan4"
         x="1195.8375"
         y="801.21539">8</tspan></text><text
       xml:space="preserve"
       style="font-size:64px;line-height:1;font-family:sans-serif;-inkscape-font-specification:'sans-serif, Normal';text-align:center;writing-mode:lr-tb;direction:ltr;text-anchor:middle;fill:#000000;stroke-width:46.8;stroke-linejoin:round"
       x="1318.1716"
       y="582.76172"
       id="text5"
       transform="rotate(47.789492)"><tspan
         sodipodi:role="line"
         id="tspan5"
         x="1318.1716"
         y="582.76172">9</tspan></text><text
       xml:space="preserve"
       style="font-size:64px;line-height:1;font-family:sans-serif;-inkscape-font-specification:'sans-serif, Normal';text-align:center;writing-mode:lr-tb;direction:ltr;text-anchor:middle;fill:#000000;stroke-width:46.8;stroke-linejoin:round"
       x="1538.8101"
       y="338.09335"
       id="text6"
       transform="rotate(47.789492)"><tspan
         sodipodi:role="line"
         id="tspan6"
         x="1538.8101"
         y="338.09335">10</tspan></text><text
       xml:space="preserve"
       style="font-size:64px;line-height:1;font-family:sans-serif;-inkscape-font-specification:'sans-serif, Normal';text-align:center;writing-mode:lr-tb;direction:ltr;text-anchor:middle;fill:#000000;stroke-width:46.8;stroke-linejoin:round"
       x="1973.5333"
       y="-157.79692"
       id="text7"
       transform="rotate(47.789492)"><tspan
         sodipodi:role="line"
         id="tspan7"
         x="1973.5333"
         y="-157.79692">1</tspan></text><text
       xml:space="preserve"
       style="font-size:64px;line-height:1;font-family:sans-serif;-inkscape-font-specification:'sans-serif, Normal';text-align:center;writing-mode:lr-tb;direction:ltr;text-anchor:middle;fill:#000000;stroke-width:46.8;stroke-linejoin:round"
       x="2170.1418"
       y="-384.98892"
       id="text8"
       transform="rotate(47.789492)"><tspan
         sodipodi:role="line"
         id="tspan8"
         x="2170.1418"
         y="-384.98892">2</tspan></text><text
       xml:space="preserve"
       style="font-size:64px;line-height:1;font-family:sans-serif;-inkscape-font-specification:'sans-serif, Normal';text-align:center;writing-mode:lr-tb;direction:ltr;text-anchor:middle;fill:#000000;stroke-width:46.8;stroke-linejoin:round"
       x="2377.6729"
       y="-190.56502"
       id="text9"
       transform="rotate(47.789492)"><tspan
         sodipodi:role="line"
         id="tspan9"
         x="2377.6729"
         y="-190.56502">3</tspan></text><text
       xml:space="preserve"
       style="font-size:64px;line-height:1;font-family:sans-serif;-inkscape-font-specification:'sans-serif, Normal';text-align:center;writing-mode:lr-tb;direction:ltr;text-anchor:middle;fill:#000000;stroke-width:46.8;stroke-linejoin:round"
       x="2163.5881"
       y="49.734226"
       id="text10"
       transform="rotate(47.789492)"><tspan
         sodipodi:role="line"
         id="tspan10"
         x="2163.5881"
         y="49.734226">4</tspan></text></g><path
     id="rect1-3"
     style="baseline-shift:baseline;display:inline;overflow:visible;vector-effect:none;fill:#ffffff;stroke-width:0.183006;stroke-linejoin:round;enable-background:accumulate;stop-color:#000000"
     d="m 1156.9872,914.50833 c -3.2729,0 -5.9802,2.70758 -5.9802,5.98056 v 15.95006 c 1.5971,0 3.1505,0.009 4.6406,0.0247 v -15.97479 c 0,-0.78236 0.5572,-1.33996 1.3396,-1.33996 h 25.1839 c 0.7823,0 1.3396,0.5576 1.3396,1.33996 v 41.03069 c 0,0.78244 -0.5573,1.34003 -1.3396,1.34003 h -25.1839 c -0.7824,0 -1.3396,-0.55759 -1.3396,-1.34003 v -15.9748 c -1.4901,0.0162 -3.0435,0.0247 -4.6406,0.0247 v 15.95007 c 0,3.27298 2.7073,5.98048 5.9802,5.98048 h 25.1839 c 3.2729,0 5.9802,-2.7075 5.9802,-5.98048 v -41.03069 c 0,-3.27298 -2.7073,-5.98056 -5.9802,-5.98056 z m 10.9812,19.81086 0.01,4.39079 h -17.0053 v 4.65931 h 17.0124 l 0.01,4.39079 11.6298,-6.73842 z" /></svg>
