<?xml version="1.0" encoding="UTF-8" standalone="no"?>
<!-- Created with Inkscape (http://www.inkscape.org/) -->

<svg
   version="1.1"
   id="svg1"
   width="1458.6667"
   height="1806.6667"
   viewBox="0 0 1458.6667 1806.6667"
   sodipodi:docname="Remington Ranch.svg"
   inkscape:version="1.4.2 (ebf0e940d0, 2025-05-08)"
   xml:space="preserve"
   xmlns:inkscape="http://www.inkscape.org/namespaces/inkscape"
   xmlns:sodipodi="http://sodipodi.sourceforge.net/DTD/sodipodi-0.dtd"
   xmlns="http://www.w3.org/2000/svg"
   xmlns:svg="http://www.w3.org/2000/svg"><defs
     id="defs1" /><sodipodi:namedview
     id="namedview1"
     pagecolor="#ffffff"
     bordercolor="#000000"
     borderopacity="0.25"
     inkscape:showpageshadow="2"
     inkscape:pageopacity="0.0"
     inkscape:pagecheckerboard="0"
     inkscape:deskcolor="#d1d1d1"
     inkscape:zoom="0.44391142"
     inkscape:cx="728.74899"
     inkscape:cy="903.33337"
     inkscape:window-width="1920"
     inkscape:window-height="1008"
     inkscape:window-x="0"
     inkscape:window-y="0"
     inkscape:window-maximized="1"
     inkscape:current-layer="layer1" /><rect
     style="fill:#1a1a1a;stroke-width:46.8;stroke-linejoin:round"
     id="rect2"
     width="1458.6667"
     height="1806.6667"
     x="0"
     y="0"
     inkscape:label="bg" /><g
     inkscape:groupmode="layer"
     id="layer1"
     inkscape:label="Roads"><path
       style="baseline-shift:baseline;display:inline;overflow:visible;vector-effect:none;fill:#999999;stroke-linejoin:round;enable-background:accumulate;stop-color:#000000;stop-opacity:1;opacity:1"
       d="m 705.09766,80.332031 a 23.40234,23.40234 0 0 0 -8.21485,2.363281 l -22.52539,11.263672 a 23.40234,23.40234 0 0 0 -8.56055,7.304686 L 57.568359,950.53125 a 23.40234,23.40234 0 0 0 2.691407,30.38281 L 767.60937,1670.2422 a 23.40234,23.40234 0 0 0 18.27344,6.5605 l 54.06641,-4.5058 a 23.40234,23.40234 0 0 0 15.32812,-7.5332 l 191.48046,-209.5 a 23.40234,23.40234 0 0 0 4.9258,-8.3867 l 27.8144,-83.4454 65.8887,-76.0234 131.7715,121.9356 31.7852,-34.3497 -134.2539,-124.2363 154.0195,-176.6074 a 23.40234,23.40234 0 0 0 5.7226,-16.7676 l -29.2851,-493.34178 a 23.40234,23.40234 0 0 0 -7.7988,-16.08985 L 804.00586,108.67578 a 23.40234,23.40234 0 0 0 -9.29688,-5.07031 L 713.61133,81.078125 a 23.40234,23.40234 0 0 0 -8.51367,-0.746094 z m 4.66211,48.248049 67.18554,18.66211 482.05669,429.22851 28.1445,474.1328 -162.6621,186.5195 a 23.40234,23.40234 0 0 0 -3.4102,6.879 l -79.9883,92.2929 a 23.40234,23.40234 0 0 0 -4.5156,7.9258 l -27.7129,83.1387 -181.93748,199.0605 -34.28906,2.8574 L 107.32422,961.43164 700.4707,133.22461 Z"
       id="path3" /><path
       style="fill:#4d4d4d;stroke-width:46.8;stroke-linejoin:round"
       d="m 1458.6667,1169.1522 -566.59684,637.5145 h 132.90944 l 433.6874,-486.5835 z"
       id="path1" /><path
       style="fill:#4d4d4d;stroke-width:46.8;stroke-linejoin:round"
       d="M 768.17127,1806.6667 0,1049.759 v 105.877 l 664.54699,651.0307 z"
       id="path2" /></g><g
     inkscape:groupmode="layer"
     id="layer2"
     inkscape:label="Buildings"><path
       style="fill:#ffffff;stroke:none;stroke-width:46.8;stroke-linejoin:round"
       d="M 734.38075,211.75396 1128.6035,554.16461 1027.232,669.0524 642.01998,322.13634 Z"
       id="path4" /><path
       style="fill:#ffffff;stroke:none;stroke-width:46.8;stroke-linejoin:round"
       d="M 617.24026,373.94848 885.31176,596.96594 792.95099,702.84292 536.143,488.83626 Z"
       id="path5" /><path
       style="fill:#ffffff;stroke:none;stroke-width:46.8;stroke-linejoin:round"
       d="M 511.36328,727.62264 319.88364,1013.7158 204.99585,928.11309 407.739,651.03078 Z"
       id="path6" /><path
       style="fill:#ffffff;stroke:none;stroke-width:46.8;stroke-linejoin:round"
       d="m 412.24441,950.64011 252.30258,234.28099 -96.86617,105.877 -252.30259,-243.2918 z"
       id="path7" /><path
       style="fill:#ffffff;stroke:none;stroke-width:46.8;stroke-linejoin:round"
       d="M 948.38741,1293.0508 705.09562,1178.163 614.98756,1369.6426 865.03744,1493.5412 Z"
       id="path8" /><path
       style="fill:#ffffff;stroke:none;stroke-width:46.8;stroke-linejoin:round"
       d="m 1193.9319,687.07401 4.5054,288.34582 H 997.94684 L 982.17793,691.57941 Z"
       id="path9" /><path
       style="fill:#ffffff;stroke:none;stroke-width:46.8;stroke-linejoin:round"
       d="M 729.87534,732.12804 943.882,718.61183 950.64011,912.34418 H 738.88615 Z"
       id="path10" /><path
       style="fill:#ffffff;stroke:none;stroke-width:46.8;stroke-linejoin:round"
       d="M 702.84292,813.22531 678.0632,1029.4847 500.09977,997.94684 536.143,781.68748 Z"
       id="path11" /><path
       style="fill:#ffffff;stroke:none;stroke-width:46.8;stroke-linejoin:round"
       d="m 1038.4955,1031.7374 -144.17293,159.9418 94.61347,78.8445 130.65666,-159.9418 z"
       id="path18" /></g><g
     inkscape:groupmode="layer"
     id="layer3"
     inkscape:label="Labels"><text
       xml:space="preserve"
       style="font-size:64px;line-height:1;font-family:sans-serif;-inkscape-font-specification:'sans-serif, Normal';text-align:center;writing-mode:lr-tb;direction:ltr;text-anchor:middle;fill:#000000;stroke:none;stroke-width:46.8;stroke-linejoin:round"
       x="894.32257"
       y="475.32007"
       id="text11"><tspan
         sodipodi:role="line"
         id="tspan11"
         x="894.32257"
         y="475.32007">8</tspan></text><text
       xml:space="preserve"
       style="font-size:64px;line-height:1;font-family:sans-serif;-inkscape-font-specification:'sans-serif, Normal';text-align:center;writing-mode:lr-tb;direction:ltr;text-anchor:middle;fill:#000000;stroke:none;stroke-width:46.8;stroke-linejoin:round"
       x="723.11725"
       y="565.4281"
       id="text12"><tspan
         sodipodi:role="line"
         id="tspan12"
         x="723.11725"
         y="565.4281">7</tspan></text><text
       xml:space="preserve"
       style="font-size:64px;line-height:1;font-family:sans-serif;-inkscape-font-specification:'sans-serif, Normal';text-align:center;writing-mode:lr-tb;direction:ltr;text-anchor:middle;fill:#000000;stroke:none;stroke-width:46.8;stroke-linejoin:round"
       x="360.43228"
       y="853.77399"
       id="text13"><tspan
         sodipodi:role="line"
         id="tspan13"
         x="360.43228"
         y="853.77399">4</tspan></text><text
       xml:space="preserve"
       style="font-size:64px;line-height:1;font-family:sans-serif;-inkscape-font-specification:'sans-serif, Normal';text-align:center;writing-mode:lr-tb;direction:ltr;text-anchor:middle;fill:#000000;stroke:none;stroke-width:46.8;stroke-linejoin:round"
       x="488.83627"
       y="1135.3616"
       id="text14"><tspan
         sodipodi:role="line"
         id="tspan14"
         x="488.83627"
         y="1135.3616">3</tspan></text><text
       xml:space="preserve"
       style="font-size:64px;line-height:1;font-family:sans-serif;-inkscape-font-specification:'sans-serif, Normal';text-align:center;writing-mode:lr-tb;direction:ltr;text-anchor:middle;fill:#000000;stroke:none;stroke-width:46.8;stroke-linejoin:round"
       x="605.97675"
       y="923.60773"
       id="text15"><tspan
         sodipodi:role="line"
         id="tspan15"
         x="605.97675"
         y="923.60773">5</tspan></text><text
       xml:space="preserve"
       style="font-size:64px;line-height:1;font-family:sans-serif;-inkscape-font-specification:'sans-serif, Normal';text-align:center;writing-mode:lr-tb;direction:ltr;text-anchor:middle;fill:#000000;stroke:none;stroke-width:46.8;stroke-linejoin:round"
       x="847.01581"
       y="835.75232"
       id="text16"><tspan
         sodipodi:role="line"
         id="tspan16"
         x="847.01581"
         y="835.75232">6</tspan></text><text
       xml:space="preserve"
       style="font-size:64px;line-height:1;font-family:sans-serif;-inkscape-font-specification:'sans-serif, Normal';text-align:center;writing-mode:lr-tb;direction:ltr;text-anchor:middle;fill:#000000;stroke:none;stroke-width:46.8;stroke-linejoin:round"
       x="1099.3184"
       y="856.02667"
       id="text17"><tspan
         sodipodi:role="line"
         id="tspan17"
         x="1099.3184"
         y="856.02667">9</tspan></text><text
       xml:space="preserve"
       style="font-size:64px;line-height:1;font-family:sans-serif;-inkscape-font-specification:'sans-serif, Normal';text-align:center;writing-mode:lr-tb;direction:ltr;text-anchor:middle;fill:#000000;stroke:none;stroke-width:46.8;stroke-linejoin:round"
       x="783.94019"
       y="1358.3792"
       id="text18"><tspan
         sodipodi:role="line"
         id="tspan18"
         x="783.94019"
         y="1358.3792">2</tspan></text><text
       xml:space="preserve"
       style="font-size:48px;line-height:1;font-family:sans-serif;-inkscape-font-specification:'sans-serif, Normal';text-align:center;writing-mode:lr-tb;direction:ltr;text-anchor:middle;fill:#ffffff;stroke:none;stroke-width:46.8;stroke-linejoin:round"
       x="-294.1427"
       y="1934.5345"
       id="text20"
       transform="rotate(-48.499395)"><tspan
         sodipodi:role="line"
         id="tspan20"
         x="-294.1427"
         y="1934.5345">Jones Maltsberger</tspan></text><text
       xml:space="preserve"
       style="font-size:48px;line-height:1;font-family:sans-serif;-inkscape-font-specification:'sans-serif, Normal';text-align:center;writing-mode:lr-tb;direction:ltr;text-anchor:middle;fill:#ffffff;stroke:none;stroke-width:46.8;stroke-linejoin:round"
       x="1267.5929"
       y="836.98859"
       id="text21"
       transform="rotate(42.941956)"><tspan
         sodipodi:role="line"
         id="tspan21"
         x="1267.5929"
         y="836.98859">Blue Crest</tspan></text><text
       xml:space="preserve"
       style="font-size:64px;line-height:1;font-family:sans-serif;-inkscape-font-specification:'sans-serif, Normal';text-align:center;writing-mode:lr-tb;direction:ltr;text-anchor:middle;fill:#000000;stroke:none;stroke-width:46.8;stroke-linejoin:round"
       x="-173.50314"
       y="1542.6409"
       id="text19"
       transform="rotate(-47.608283)"><tspan
         sodipodi:role="line"
         id="tspan19"
         x="-173.50314"
         y="1542.6409">office</tspan></text></g><path
     id="rect1"
     style="baseline-shift:baseline;display:inline;overflow:visible;vector-effect:none;fill:#ffffff;stroke-width:0.157409;stroke-linejoin:round;enable-background:accumulate;stop-color:#000000"
     d="m 1263.3013,1351.2446 c -2.8152,0 -5.1438,2.3289 -5.1438,5.1441 v 13.7191 c 1.3738,0 2.7098,0.01 3.9915,0.022 v -13.7403 c 0,-0.673 0.4793,-1.1526 1.1523,-1.1526 h 21.6613 c 0.673,0 1.1523,0.4796 1.1523,1.1526 v 35.2916 c 0,0.673 -0.4793,1.1526 -1.1523,1.1526 h -21.6613 c -0.673,0 -1.1523,-0.4796 -1.1523,-1.1526 v -13.7403 c -1.2817,0.014 -2.6177,0.022 -3.9915,0.022 v 13.7191 c 0,2.8152 2.3286,5.144 5.1438,5.144 h 21.6613 c 2.8152,0 5.1438,-2.3288 5.1438,-5.144 v -35.2916 c 0,-2.8153 -2.3286,-5.1442 -5.1438,-5.1442 z m 9.4452,17.0399 0.01,3.7767 h -14.6268 v 4.0076 h 14.6329 l 0.01,3.7767 10.0031,-5.796 z" /></svg>
