<?xml version="1.0" encoding="UTF-8" standalone="no"?>
<!-- Created with Inkscape (http://www.inkscape.org/) -->

<svg
   version="1.1"
   id="svg1"
   width="2710.6667"
   height="1997.3333"
   viewBox="0 0 2710.6667 1997.3333"
   sodipodi:docname="Royal Palms.svg"
   inkscape:version="1.4.2 (ebf0e940d0, 2025-05-08)"
   xml:space="preserve"
   xmlns:inkscape="http://www.inkscape.org/namespaces/inkscape"
   xmlns:sodipodi="http://sodipodi.sourceforge.net/DTD/sodipodi-0.dtd"
   xmlns="http://www.w3.org/2000/svg"
   xmlns:svg="http://www.w3.org/2000/svg"><defs
     id="defs1" /><sodipodi:namedview
     id="namedview1"
     pagecolor="#ffffff"
     bordercolor="#000000"
     borderopacity="0.25"
     inkscape:showpageshadow="2"
     inkscape:pageopacity="0.0"
     inkscape:pagecheckerboard="0"
     inkscape:deskcolor="#d1d1d1"
     inkscape:zoom="0.2839284"
     inkscape:cx="1074.2145"
     inkscape:cy="1102.3906"
     inkscape:window-width="1920"
     inkscape:window-height="1008"
     inkscape:window-x="0"
     inkscape:window-y="0"
     inkscape:window-maximized="1"
     inkscape:current-layer="layer8" /><rect
     style="fill:#1a1a1a;stroke-width:35.5;stroke-linejoin:round"
     id="rect1"
     width="2710.6667"
     height="1997.3333"
     x="0"
     y="0"
     inkscape:label="bg" /><g
     inkscape:groupmode="layer"
     id="layer7"
     inkscape:label="Roads"><path
       style="baseline-shift:baseline;display:inline;overflow:visible;vector-effect:none;fill:#999999;stroke-linejoin:round;enable-background:accumulate;stop-color:#000000;stop-opacity:1;opacity:1"
       d="m 898.54687,112.05273 a 25.0025,25.0025 0 0 0 -16.625,4.6543 l -44.82812,32.375 a 25.0025,25.0025 0 0 0 -7.72461,9.08789 l -27.39453,54.78906 a 25.0025,25.0025 0 0 0 -1.40234,3.41602 l -67.51172,206.62695 -125.53907,-38.47265 -14.65039,47.80664 122.95899,37.68164 -95.9336,142.73047 -70.375,87.36328 -121.83398,112.08789 -85.69336,58.75976 a 25.0025,25.0025 0 0 0 -8.22266,9.4375 l -17.43164,34.86719 a 25.0025,25.0025 0 0 0 -1.94922,17.01367 l 14.94141,62.26172 a 25.0025,25.0025 0 0 0 5.70117,10.85934 l 151.91602,169.3496 a 25.0025,25.0025 0 0 0 1.90625,1.9063 l 513.03123,460.7324 a 25.0025,25.0025 0 0 0 3.7188,2.7617 l 127.0117,77.2051 a 25.0025,25.0025 0 0 0 5.4902,2.4863 l 174.3301,54.7891 a 25.0025,25.0025 0 0 0 4.7734,1.002 l 181.8008,19.9238 a 25.0025,25.0025 0 0 0 6.4785,-0.1348 l 196.7442,-29.8847 a 25.0025,25.0025 0 0 0 4.2715,-1.0411 l 146.9355,-49.8086 a 25.0025,25.0025 0 0 0 5.4609,-2.625 l 159.3887,-102.1093 a 25.0025,25.0025 0 0 0 4.3594,-3.541 l 129.5019,-131.9942 a 25.0025,25.0025 0 0 0 2.3086,-2.7148 l 316.2852,-430.8457 a 25.0025,25.0025 0 0 0 -4.8691,-34.5782 L 1995.1836,642.67187 a 25.0025,25.0025 0 0 0 -0.5703,-0.42578 L 1317.2129,149.13867 a 25.0025,25.0025 0 0 0 -12.7246,-4.70898 z m 5.19336,50.57422 389.74607,31.08399 366.8262,267.02734 -257.1719,350.04102 a 25.0025,25.0025 0 0 0 -3.2051,5.87304 l -16.1875,42.33789 a 25.0025,25.0025 0 0 0 -1.6269,9.99024 l 2.4902,58.52539 a 25.0025,25.0025 0 0 0 9.7676,18.77734 l 37.3555,28.64063 a 25.0025,25.0025 0 0 0 21.3965,4.38281 l 58.5254,-14.94336 a 25.0025,25.0025 0 0 0 13.9804,-9.44531 l 282.9844,-386.21875 156.2773,113.75976 451.1075,348.47262 -300.795,409.7422 -126.2714,128.7012 -154.4395,98.9375 -141.9551,48.1211 -191.334,29.0625 -176.1191,-19.3008 -169.0977,-53.1445 -122.4316,-74.4199 -510.29492,-458.2754 -146.79102,-163.63675 -11.33984,-47.24609 10.4668,-20.93164 81.83398,-56.11524 a 25.0025,25.0025 0 0 0 2.78711,-2.2207 L 584.74609,735.64453 a 25.0025,25.0025 0 0 0 2.54297,-2.71484 l 72.22266,-89.65625 a 25.0025,25.0025 0 0 0 1.2793,-1.73633 L 762.90039,489.61914 a 25.0025,25.0025 0 0 0 3.01367,-6.17969 l 81.61133,-249.77539 23.82031,-47.64258 z m 796.99607,327.53711 67.461,49.10742 -277.5957,378.86329 -38.0782,9.72265 -18.4531,-14.14648 -1.7734,-41.69141 13.1347,-34.35742 z"
       id="path5" /><path
       style="fill:#4d4d4d;stroke-width:35.5;stroke-linejoin:round"
       d="m 739.66082,0 c 0,0 -17.43309,403.45136 -224.13964,610.15791 C 308.81462,816.86447 0,933.91517 0,933.91517 v -87.16541 c 0,0 338.30896,-140.74278 470.69325,-321.26682 C 662.45716,263.98669 647.51452,0 647.51452,0 Z"
       id="path1"
       sodipodi:nodetypes="csccscc" /><path
       style="fill:#4d4d4d;stroke-width:35.5;stroke-linejoin:round"
       d="m 2710.6667,891.57769 0,107.08894 c 0,0 -377.124,767.05567 -954.9062,899.04897 -516.6392,118.0253 -781.99828,-112.0698 -781.99828,-112.0698 L 532.95426,1417.0606 199.23524,1083.3416 0,714.75641 V 590.23439 l 306.32418,515.52121 734.67992,650.0049 c 0,0 290.3708,161.6311 612.6484,99.089 304.9416,-59.1778 473.1837,-216.1397 473.1837,-216.1397 l 165.9168,-171.8404 344.6235,-474.08806 z"
       id="path2"
       sodipodi:nodetypes="ccscccccccscccc" /></g><g
     inkscape:groupmode="layer"
     id="layer8"
     inkscape:label="Buildings"><path
       style="fill:#ffffff;stroke:none;stroke-width:50;stroke-linejoin:round;stroke-dasharray:none"
       d="m 874.1446,353.64255 405.9418,22.41396 4.9809,-107.08894 -408.43226,-24.9044 z"
       id="path7" /><path
       style="fill:#ffffff;stroke:none;stroke-width:50;stroke-linejoin:round;stroke-dasharray:none"
       d="m 1284.5363,269.30414 -79.8711,86.29788 289.5991,212.21841 62.261,-77.20366 z"
       id="path8"
       sodipodi:nodetypes="ccccc" /><path
       style="fill:#ffffff;stroke:none;stroke-width:50;stroke-linejoin:round;stroke-dasharray:none"
       d="m 1456.9077,622.61012 -343.6808,-221.64921 -54.7897,69.73234 331.2286,234.1014 z"
       id="path9" /><path
       style="fill:#ffffff;stroke:none;stroke-width:50;stroke-linejoin:round;stroke-dasharray:none"
       d="m 1367.2518,722.22773 -59.7706,82.18454 -478.16453,-341.19034 64.75146,-82.18454 z"
       id="path10" /><path
       style="fill:#ffffff;stroke:none;stroke-width:50;stroke-linejoin:round;stroke-dasharray:none"
       d="m 1845.4164,645.02408 490.6168,358.62342 -59.7706,74.7132 -480.655,-356.13297 z"
       id="path11" /><path
       style="fill:#ffffff;stroke:none;stroke-width:50;stroke-linejoin:round;stroke-dasharray:none"
       d="m 1770.7032,737.17038 -62.261,82.18453 485.6358,361.11389 59.7706,-82.1846 z"
       id="path12" /><path
       style="fill:#ffffff;stroke:none;stroke-width:50;stroke-linejoin:round;stroke-dasharray:none"
       d="m 1683.5378,849.2402 480.655,376.0565 -62.261,89.6559 -475.6742,-383.52787 z"
       id="path13" /><path
       style="fill:#ffffff;stroke:none;stroke-width:50;stroke-linejoin:round;stroke-dasharray:none"
       d="m 1803.0789,1128.1695 286.4006,211.6875 -64.7514,87.1654 -273.9485,-226.6301 z"
       id="path14" /><path
       style="fill:#ffffff;stroke:none;stroke-width:50;stroke-linejoin:round;stroke-dasharray:none"
       d="m 1927.6009,1382.1945 37.3566,109.5793 -87.1654,34.8662 -37.3566,-117.0507 z"
       id="path15" /><path
       style="fill:#ffffff;stroke:none;stroke-width:50;stroke-linejoin:round;stroke-dasharray:none"
       d="m 1638.7098,973.76222 179.3117,473.18368 -102.108,32.3757 -159.3882,-478.1645 z"
       id="path16" /><path
       style="fill:#ffffff;stroke:none;stroke-width:50;stroke-linejoin:round;stroke-dasharray:none"
       d="m 1531.6209,1031.0424 146.936,470.6932 -99.6176,37.3566 -136.9743,-475.6741 z"
       id="path17" /><path
       style="fill:#ffffff;stroke:none;stroke-width:50;stroke-linejoin:round;stroke-dasharray:none"
       d="m 1404.6084,1065.9085 179.3117,560.3491 -97.1271,29.8853 -171.8404,-557.8587 z"
       id="path18" /><path
       style="fill:#ffffff;stroke:none;stroke-width:50;stroke-linejoin:round;stroke-dasharray:none"
       d="m 1367.2518,1631.2385 -42.3375,-398.4705 -94.6367,4.9809 34.8662,390.9992 z"
       id="path19" /><path
       style="fill:#ffffff;stroke:none;stroke-width:50;stroke-linejoin:round;stroke-dasharray:none"
       d="m 1210.3541,1304.9908 17.433,273.9485 H 1130.66 l -7.4714,-271.4581 z"
       id="path20" /><path
       style="fill:#ffffff;stroke:none;stroke-width:50;stroke-linejoin:round;stroke-dasharray:none"
       d="m 1892.5104,1550.3358 -32.5268,-95.9445 -273.573,104.6244 34.8661,92.1463 z"
       id="path21"
       sodipodi:nodetypes="ccccc" /><path
       style="fill:#ffffff;stroke:none;stroke-width:50;stroke-linejoin:round;stroke-dasharray:none"
       d="M 796.94095,617.62924 928.93429,724.71817 869.16372,804.41227 724.71817,689.85201 Z"
       id="path22" /><path
       style="fill:#ffffff;stroke:none;stroke-width:50;stroke-linejoin:round;stroke-dasharray:none"
       d="M 727.5626,686.75729 798.45165,746.50193 617.62924,941.3865 545.40646,881.61592 Z"
       id="path23"
       sodipodi:nodetypes="ccccc" /><path
       style="fill:#ffffff;stroke:none;stroke-width:50;stroke-linejoin:round;stroke-dasharray:none"
       d="M 520.50206,916.48209 1053.4563,1346.0831 977.49788,1430.758 460.73149,992.44053 Z"
       id="path24" /><path
       style="fill:#ffffff;stroke:none;stroke-width:50;stroke-linejoin:round;stroke-dasharray:none"
       d="m 697.32333,886.59681 -64.75145,78.44887 312.55027,254.02492 48.56359,-87.1655 z"
       id="path25"
       sodipodi:nodetypes="ccccc" /><path
       style="fill:#ffffff;stroke:none;stroke-width:50;stroke-linejoin:round;stroke-dasharray:none"
       d="m 1150.5835,1108.246 -222.89443,14.9426 7.47132,95.882 216.66831,-14.9426 z"
       id="path26" /></g><g
     inkscape:groupmode="layer"
     id="layer9"
     inkscape:label="Labels"><text
       xml:space="preserve"
       style="font-weight:bold;font-size:48px;line-height:1;font-family:'DejaVu Sans Mono';-inkscape-font-specification:'DejaVu Sans Mono, Bold';text-align:center;writing-mode:lr-tb;direction:ltr;text-anchor:middle;fill:#ffffff;stroke:none;stroke-width:50;stroke-linejoin:round;stroke-dasharray:none"
       x="-111.22078"
       y="762.16382"
       id="text6"
       transform="rotate(-40.687607)"><tspan
         sodipodi:role="line"
         id="tspan6"
         x="-111.22078"
         y="762.16382">Henderson Pass</tspan></text><text
       xml:space="preserve"
       style="font-weight:bold;font-size:48px;line-height:1;font-family:'DejaVu Sans Mono';-inkscape-font-specification:'DejaVu Sans Mono, Bold';text-align:center;writing-mode:lr-tb;direction:ltr;text-anchor:middle;fill:#ffffff;stroke:none;stroke-width:50;stroke-linejoin:round;stroke-dasharray:none"
       x="1432.1635"
       y="684.99841"
       id="text7"
       transform="rotate(41.205294)"><tspan
         sodipodi:role="line"
         id="tspan7"
         x="1432.1635"
         y="684.99841">Rough Oaks St</tspan></text><text
       xml:space="preserve"
       style="font-weight:bold;font-size:48px;line-height:1;font-family:'DejaVu Sans Mono';-inkscape-font-specification:'DejaVu Sans Mono, Bold';text-align:center;writing-mode:lr-tb;direction:ltr;text-anchor:middle;fill:#ffffff;stroke:none;stroke-width:50;stroke-linejoin:round;stroke-dasharray:none"
       x="402.20346"
       y="2773.7646"
       id="text7-1"
       transform="rotate(-53.127122)"><tspan
         sodipodi:role="line"
         id="tspan7-8"
         x="402.20346"
         y="2773.7646">Rough Oaks St</tspan></text><text
       xml:space="preserve"
       style="font-weight:bold;font-size:64px;line-height:1;font-family:'DejaVu Sans Mono';-inkscape-font-specification:'DejaVu Sans Mono, Bold';text-align:center;writing-mode:lr-tb;direction:ltr;text-anchor:middle;fill:#000000;stroke:none;stroke-width:50;stroke-linejoin:round;stroke-dasharray:none"
       x="1091.8246"
       y="616.35254"
       id="text26"><tspan
         sodipodi:role="line"
         id="tspan26"
         x="1091.8246"
         y="616.35254">16</tspan></text><text
       xml:space="preserve"
       style="font-weight:bold;font-size:64px;line-height:1;font-family:'DejaVu Sans Mono';-inkscape-font-specification:'DejaVu Sans Mono, Bold';text-align:center;writing-mode:lr-tb;direction:ltr;text-anchor:middle;fill:#000000;stroke:none;stroke-width:50;stroke-linejoin:round;stroke-dasharray:none"
       x="1220.3781"
       y="339.87442"
       id="text27"><tspan
         sodipodi:role="line"
         id="tspan27"
         x="1220.3781"
         y="339.87442">18</tspan></text><text
       xml:space="preserve"
       style="font-weight:bold;font-size:64px;line-height:1;font-family:'DejaVu Sans Mono';-inkscape-font-specification:'DejaVu Sans Mono, Bold';text-align:center;writing-mode:lr-tb;direction:ltr;text-anchor:middle;fill:#000000;stroke:none;stroke-width:50;stroke-linejoin:round;stroke-dasharray:none"
       x="781.88727"
       y="731.69855"
       id="text28"><tspan
         sodipodi:role="line"
         id="tspan28"
         x="781.88727"
         y="731.69855">15</tspan></text><text
       xml:space="preserve"
       style="font-weight:bold;font-size:64px;line-height:1;font-family:'DejaVu Sans Mono';-inkscape-font-specification:'DejaVu Sans Mono, Bold';text-align:center;writing-mode:lr-tb;direction:ltr;text-anchor:middle;fill:#000000;stroke:none;stroke-width:50;stroke-linejoin:round;stroke-dasharray:none"
       x="737.86212"
       y="1183.397"
       id="text29"><tspan
         sodipodi:role="line"
         id="tspan29"
         x="737.86212"
         y="1183.397">13</tspan></text><text
       xml:space="preserve"
       style="font-weight:bold;font-size:64px;line-height:1;font-family:'DejaVu Sans Mono';-inkscape-font-specification:'DejaVu Sans Mono, Bold';text-align:center;writing-mode:lr-tb;direction:ltr;text-anchor:middle;fill:#000000;stroke:none;stroke-width:50;stroke-linejoin:round;stroke-dasharray:none"
       x="1171.0699"
       y="1466.9191"
       id="text30"><tspan
         sodipodi:role="line"
         id="tspan30"
         x="1171.0699"
         y="1466.9191">10</tspan></text><text
       xml:space="preserve"
       style="font-weight:bold;font-size:64px;line-height:1;font-family:'DejaVu Sans Mono';-inkscape-font-specification:'DejaVu Sans Mono, Bold';text-align:center;writing-mode:lr-tb;direction:ltr;text-anchor:middle;fill:#000000;stroke:none;stroke-width:50;stroke-linejoin:round;stroke-dasharray:none"
       x="1299.6234"
       y="1461.6361"
       id="text31"><tspan
         sodipodi:role="line"
         id="tspan31"
         x="1299.6234"
         y="1461.6361">9</tspan></text><text
       xml:space="preserve"
       style="font-weight:bold;font-size:64px;line-height:1;font-family:'DejaVu Sans Mono';-inkscape-font-specification:'DejaVu Sans Mono, Bold';text-align:center;writing-mode:lr-tb;direction:ltr;text-anchor:middle;fill:#000000;stroke:none;stroke-width:50;stroke-linejoin:round;stroke-dasharray:none"
       x="1780.3784"
       y="1557.611"
       id="text32"><tspan
         sodipodi:role="line"
         id="tspan32"
         x="1780.3784"
         y="1557.611">5</tspan></text><text
       xml:space="preserve"
       style="font-weight:bold;font-size:64px;line-height:1;font-family:'DejaVu Sans Mono';-inkscape-font-specification:'DejaVu Sans Mono, Bold';text-align:center;writing-mode:lr-tb;direction:ltr;text-anchor:middle;fill:#000000;stroke:none;stroke-width:50;stroke-linejoin:round;stroke-dasharray:none"
       x="1449.3091"
       y="1387.6737"
       id="text33"><tspan
         sodipodi:role="line"
         id="tspan33"
         x="1449.3091"
         y="1387.6737">8</tspan></text><text
       xml:space="preserve"
       style="font-weight:bold;font-size:64px;line-height:1;font-family:'DejaVu Sans Mono';-inkscape-font-specification:'DejaVu Sans Mono, Bold';text-align:center;writing-mode:lr-tb;direction:ltr;text-anchor:middle;fill:#000000;stroke:none;stroke-width:50;stroke-linejoin:round;stroke-dasharray:none"
       x="1921.259"
       y="1297.8624"
       id="text34"><tspan
         sodipodi:role="line"
         id="tspan34"
         x="1921.259"
         y="1297.8624">4</tspan></text><text
       xml:space="preserve"
       style="font-weight:bold;font-size:64px;line-height:1;font-family:'DejaVu Sans Mono';-inkscape-font-specification:'DejaVu Sans Mono, Bold';text-align:center;writing-mode:lr-tb;direction:ltr;text-anchor:middle;fill:#000000;stroke:none;stroke-width:50;stroke-linejoin:round;stroke-dasharray:none"
       x="1884.278"
       y="1100.6295"
       id="text35"><tspan
         sodipodi:role="line"
         id="tspan35"
         x="1884.278"
         y="1100.6295">3</tspan></text><text
       xml:space="preserve"
       style="font-weight:bold;font-size:64px;line-height:1;font-family:'DejaVu Sans Mono';-inkscape-font-specification:'DejaVu Sans Mono, Bold';text-align:center;writing-mode:lr-tb;direction:ltr;text-anchor:middle;fill:#000000;stroke:none;stroke-width:50;stroke-linejoin:round;stroke-dasharray:none"
       x="1986.4163"
       y="979.12006"
       id="text36"><tspan
         sodipodi:role="line"
         id="tspan36"
         x="1986.4163"
         y="979.12006">2</tspan></text><text
       xml:space="preserve"
       style="font-weight:bold;font-size:64px;line-height:1;font-family:'DejaVu Sans Mono';-inkscape-font-specification:'DejaVu Sans Mono, Bold';text-align:center;writing-mode:lr-tb;direction:ltr;text-anchor:middle;fill:#000000;stroke:none;stroke-width:50;stroke-linejoin:round;stroke-dasharray:none"
       x="2056.8564"
       y="876.98163"
       id="text37"><tspan
         sodipodi:role="line"
         id="tspan37"
         x="2056.8564"
         y="876.98163">1</tspan></text><text
       xml:space="preserve"
       style="font-weight:bold;font-size:64px;line-height:1;font-family:'DejaVu Sans Mono';-inkscape-font-specification:'DejaVu Sans Mono, Bold';text-align:center;writing-mode:lr-tb;direction:ltr;text-anchor:middle;fill:#000000;stroke:none;stroke-width:50;stroke-linejoin:round;stroke-dasharray:none"
       x="1683.5378"
       y="1257.6724"
       id="text38"><tspan
         sodipodi:role="line"
         id="tspan38"
         x="1683.5378"
         y="1257.6724">6</tspan></text><text
       xml:space="preserve"
       style="font-weight:bold;font-size:64px;line-height:1;font-family:'DejaVu Sans Mono';-inkscape-font-specification:'DejaVu Sans Mono, Bold';text-align:center;writing-mode:lr-tb;direction:ltr;text-anchor:middle;fill:#000000;stroke:none;stroke-width:50;stroke-linejoin:round;stroke-dasharray:none"
       x="1559.0157"
       y="1314.9525"
       id="text39"><tspan
         sodipodi:role="line"
         id="tspan39"
         x="1559.0157"
         y="1314.9525">7</tspan></text><text
       xml:space="preserve"
       style="font-weight:bold;font-size:64px;line-height:1;font-family:'DejaVu Sans Mono';-inkscape-font-specification:'DejaVu Sans Mono, Bold';text-align:center;writing-mode:lr-tb;direction:ltr;text-anchor:middle;fill:#000000;stroke:none;stroke-width:50;stroke-linejoin:round;stroke-dasharray:none"
       x="769.54608"
       y="1041.004"
       id="text40"><tspan
         sodipodi:role="line"
         id="tspan40"
         x="769.54608"
         y="1041.004">14</tspan></text><text
       xml:space="preserve"
       style="font-weight:bold;font-size:64px;line-height:1;font-family:'DejaVu Sans Mono';-inkscape-font-specification:'DejaVu Sans Mono, Bold';text-align:center;writing-mode:lr-tb;direction:ltr;text-anchor:middle;fill:#000000;stroke:none;stroke-width:50;stroke-linejoin:round;stroke-dasharray:none"
       x="1235.2584"
       y="562.83954"
       id="text41"><tspan
         sodipodi:role="line"
         id="tspan41"
         x="1235.2584"
         y="562.83954">17</tspan></text></g><path
     id="rect1-6"
     style="baseline-shift:baseline;display:inline;overflow:visible;vector-effect:none;fill:#ffffff;stroke-width:0.220136;stroke-linejoin:round;enable-background:accumulate;stop-color:#000000"
     d="m 592.5448,369.2674 c -3.937,0 -7.1935,3.2569 -7.1935,7.194 v 19.186 c 1.9212,0 3.7896,0.01 5.5821,0.03 v -19.2158 c 0,-0.9412 0.6703,-1.6119 1.6114,-1.6119 h 30.2932 c 0.9412,0 1.6115,0.6707 1.6115,1.6119 v 49.3552 c 0,0.9411 -0.6703,1.6118 -1.6115,1.6118 h -30.2932 c -0.9411,0 -1.6114,-0.6707 -1.6114,-1.6118 v -19.2159 c -1.7925,0.02 -3.6609,0.03 -5.5821,0.03 v 19.1861 c 0,3.937 3.2565,7.1938 7.1935,7.1938 h 30.2932 c 3.9371,0 7.1936,-3.2568 7.1936,-7.1938 v -49.3552 c 0,-3.9371 -3.2565,-7.194 -7.1936,-7.194 z m 13.2092,23.8302 0.01,5.2816 h -20.4555 v 5.6047 h 20.464 l 0.01,5.2816 13.9892,-8.1055 z" /></svg>
