<?xml version="1.0" encoding="UTF-8" standalone="no"?>
<!-- Created with Inkscape (http://www.inkscape.org/) -->

<svg
   version="1.1"
   id="svg1"
   width="2690.6667"
   height="2494.6667"
   viewBox="0 0 2690.6667 2494.6667"
   sodipodi:docname="Santa Fe Condo Apartments.svg"
   inkscape:version="1.4.2 (ebf0e940d0, 2025-05-08)"
   xml:space="preserve"
   xmlns:inkscape="http://www.inkscape.org/namespaces/inkscape"
   xmlns:sodipodi="http://sodipodi.sourceforge.net/DTD/sodipodi-0.dtd"
   xmlns="http://www.w3.org/2000/svg"
   xmlns:svg="http://www.w3.org/2000/svg"><defs
     id="defs1" /><sodipodi:namedview
     id="namedview1"
     pagecolor="#ffffff"
     bordercolor="#000000"
     borderopacity="0.25"
     inkscape:showpageshadow="2"
     inkscape:pageopacity="0.0"
     inkscape:pagecheckerboard="0"
     inkscape:deskcolor="#d1d1d1"
     inkscape:zoom="0.32148583"
     inkscape:cx="1345.3159"
     inkscape:cy="1247.3334"
     inkscape:window-width="1920"
     inkscape:window-height="1008"
     inkscape:window-x="0"
     inkscape:window-y="0"
     inkscape:window-maximized="1"
     inkscape:current-layer="layer3" /><rect
     style="fill:#1a1a1a;stroke-width:46.8;stroke-linejoin:round"
     id="rect1"
     width="2690.6667"
     height="2494.6667"
     x="0"
     y="0"
     inkscape:label="bg" /><g
     inkscape:groupmode="layer"
     id="layer1"
     inkscape:label="Roads"><path
       style="baseline-shift:baseline;display:inline;overflow:visible;vector-effect:none;fill:#999999;stroke-linejoin:round;enable-background:accumulate;stop-color:#000000;stop-opacity:1;opacity:1"
       d="m 2317.6953,415.45703 -501.3672,303.29688 -147.5879,44.27539 -149.7949,-23.49805 -80.7207,-40.35938 -249.4219,-237.10546 -32.2441,33.91992 251.9551,239.51172 a 23.40234,23.40234 0 0 0 5.6562,3.9707 l 87.0957,43.54687 a 23.40234,23.40234 0 0 0 6.8379,2.1875 l 158.6387,24.88477 a 23.40234,23.40234 0 0 0 10.3516,-0.70312 l 155.5273,-46.65821 a 23.40234,23.40234 0 0 0 5.3887,-2.39258 L 2341.9199,455.5 Z m -161.3437,668.82027 a 23.40234,23.40234 0 0 0 -22.2735,8.6602 l -335.9414,429.2559 a 23.40234,23.40234 0 0 0 -1.8613,26.0781 l 83.9844,146.1953 40.58,-23.3105 -76.1328,-132.5313 317.6602,-405.9004 172.9238,28.8203 7.6953,-46.1621 z m -1818.35355,325.1016 -29,36.7324 295.5039,233.293 a 23.40234,23.40234 0 0 0 2.27149,1.584 l 276.62695,169.5469 -73.625,84.4023 a 23.40234,23.40234 0 0 0 -1.54687,1.9766 l -202.18555,289.2812 38.35937,26.8106 201.46485,-288.252 122.82226,-140.7949 135.91995,-50.9707 106.0019,36.2637 329.4121,283.2324 30.5118,-35.4864 -332.8301,-286.1718 a 23.40234,23.40234 0 0 0 -7.6817,-4.3965 l -118.2011,-40.4375 a 23.40234,23.40234 0 0 0 -15.791,0.2305 l -149.30669,55.9902 a 23.40234,23.40234 0 0 0 -9.41797,6.5273 l -22.70508,26.0274 -282.18945,-172.9551 z"
       id="path5" /><path
       style="fill:#4d4d4d;stroke-width:46.8;stroke-linejoin:round"
       d="M 2690.6667,1001.5994 1480.6252,2494.6667 H 1163.3483 L 2615.9785,774.5287 1810.3442,0 h 174.1912 l 706.1313,656.32754 z"
       id="path1" /></g><g
     inkscape:groupmode="layer"
     id="layer2"
     inkscape:label="Buildings"><path
       style="fill:#ffffff;stroke:none;stroke-width:46.8;stroke-linejoin:round"
       d="M 1489.9568,531.90525 1906.7715,292.39236 2015.641,454.14133 1558.3891,693.65422 Z"
       id="path6" /><path
       style="fill:#ffffff;stroke:none;stroke-width:46.8;stroke-linejoin:round"
       d="m 2220.9377,681.21199 90.2062,164.85953 -503.9103,286.17128 -99.5378,-158.63845 z"
       id="path7" /><path
       style="fill:#ffffff;stroke:none;stroke-width:46.8;stroke-linejoin:round"
       d="m 1169.5694,718.53868 479.0258,286.17122 -96.4272,164.8595 -485.2469,-283.06064 z"
       id="path8" /><path
       style="fill:#ffffff;stroke:none;stroke-width:46.8;stroke-linejoin:round"
       d="m 1017.1522,1051.3683 180.4123,68.4322 -202.18625,457.2519 -167.97008,-62.2111 z"
       id="path9" /><path
       style="fill:#ffffff;stroke:none;stroke-width:46.8;stroke-linejoin:round"
       d="m 1250.4439,1265.9967 360.8246,423.0358 -118.2011,108.8695 -382.5985,-385.7091 z"
       id="path10" /><path
       style="fill:#ffffff;stroke:none;stroke-width:46.8;stroke-linejoin:round"
       d="m 1754.3542,1147.7955 -248.8446,264.3974 111.9801,90.2062 255.0656,-264.3974 z"
       id="path11" /><path
       style="fill:#ffffff;stroke:none;stroke-width:46.8;stroke-linejoin:round"
       d="M 1169.5694,1912.9926 746.53369,2298.7017 926.946,2460.4506 1290.8812,2080.9627 Z"
       id="path12" /><path
       style="fill:#ffffff;stroke:none;stroke-width:46.8;stroke-linejoin:round"
       d="M 603.44807,1888.1081 214.62844,1545.9469 80.874483,1685.9219 466.58356,2080.9627 Z"
       id="path13" /></g><g
     inkscape:groupmode="layer"
     id="layer3"
     inkscape:label="Labels"><text
       xml:space="preserve"
       style="font-size:85.3333px;line-height:1;font-family:sans-serif;-inkscape-font-specification:'sans-serif, Normal';text-align:center;writing-mode:lr-tb;direction:ltr;text-anchor:middle;fill:#1a1a1a;stroke:none;stroke-width:46.8;stroke-linejoin:round"
       x="305.26678"
       y="2153.9304"
       id="text13"
       transform="rotate(-43.661615)"><tspan
         sodipodi:role="line"
         id="tspan13"
         x="305.26678"
         y="2153.9304">office</tspan></text><text
       xml:space="preserve"
       style="font-size:85.3333px;line-height:1;font-family:sans-serif;-inkscape-font-specification:'sans-serif, Normal';text-align:center;writing-mode:lr-tb;direction:ltr;text-anchor:middle;fill:#1a1a1a;stroke:none;stroke-width:46.8;stroke-linejoin:round"
       x="1987.6459"
       y="945.60931"
       id="text14"><tspan
         sodipodi:role="line"
         id="tspan14"
         x="1987.6459"
         y="945.60931">6</tspan></text><text
       xml:space="preserve"
       style="font-size:85.3333px;line-height:1;font-family:sans-serif;-inkscape-font-specification:'sans-serif, Normal';text-align:center;writing-mode:lr-tb;direction:ltr;text-anchor:middle;fill:#1a1a1a;stroke:none;stroke-width:46.8;stroke-linejoin:round"
       x="1738.8014"
       y="516.35248"
       id="text15"><tspan
         sodipodi:role="line"
         id="tspan15"
         x="1738.8014"
         y="516.35248">7</tspan></text><text
       xml:space="preserve"
       style="font-size:85.3333px;line-height:1;font-family:sans-serif;-inkscape-font-specification:'sans-serif, Normal';text-align:center;writing-mode:lr-tb;direction:ltr;text-anchor:middle;fill:#1a1a1a;stroke:none;stroke-width:46.8;stroke-linejoin:round"
       x="1353.0924"
       y="970.49384"
       id="text16"><tspan
         sodipodi:role="line"
         id="tspan16"
         x="1353.0924"
         y="970.49384">5</tspan></text><text
       xml:space="preserve"
       style="font-size:85.3333px;line-height:1;font-family:sans-serif;-inkscape-font-specification:'sans-serif, Normal';text-align:center;writing-mode:lr-tb;direction:ltr;text-anchor:middle;fill:#1a1a1a;stroke:none;stroke-width:46.8;stroke-linejoin:round"
       x="1004.71"
       y="1340.65"
       id="text17"><tspan
         sodipodi:role="line"
         id="tspan17"
         x="1004.71"
         y="1340.65">4</tspan></text><text
       xml:space="preserve"
       style="font-size:85.3333px;line-height:1;font-family:sans-serif;-inkscape-font-specification:'sans-serif, Normal';text-align:center;writing-mode:lr-tb;direction:ltr;text-anchor:middle;fill:#1a1a1a;stroke:none;stroke-width:46.8;stroke-linejoin:round"
       x="1356.2029"
       y="1561.4996"
       id="text18"><tspan
         sodipodi:role="line"
         id="tspan18"
         x="1356.2029"
         y="1561.4996">3</tspan></text><text
       xml:space="preserve"
       style="font-size:85.3333px;line-height:1;font-family:sans-serif;-inkscape-font-specification:'sans-serif, Normal';text-align:center;writing-mode:lr-tb;direction:ltr;text-anchor:middle;fill:#1a1a1a;stroke:none;stroke-width:46.8;stroke-linejoin:round"
       x="1035.8156"
       y="2214.7166"
       id="text19"><tspan
         sodipodi:role="line"
         id="tspan19"
         x="1035.8156"
         y="2214.7166">2</tspan></text><text
       xml:space="preserve"
       style="font-size:85.3333px;line-height:1;font-family:sans-serif;-inkscape-font-specification:'sans-serif, Normal';text-align:center;writing-mode:lr-tb;direction:ltr;text-anchor:middle;fill:#1a1a1a;stroke:none;stroke-width:46.8;stroke-linejoin:round"
       x="357.71408"
       y="1844.5603"
       id="text20"><tspan
         sodipodi:role="line"
         id="tspan20"
         x="357.71408"
         y="1844.5603">1</tspan></text><text
       xml:space="preserve"
       style="font-size:85.3333px;line-height:1;font-family:sans-serif;-inkscape-font-specification:'sans-serif, Normal';text-align:center;writing-mode:lr-tb;direction:ltr;text-anchor:middle;fill:#ffffff;stroke:none;stroke-width:46.8;stroke-linejoin:round"
       x="-69.74073"
       y="2633.9734"
       id="text21"
       transform="rotate(-49.516979)"><tspan
         sodipodi:role="line"
         id="tspan21"
         x="-69.74073"
         y="2633.9734">Jones Maltsberger</tspan></text><text
       xml:space="preserve"
       style="font-size:85.3333px;line-height:1;font-family:sans-serif;-inkscape-font-specification:'sans-serif, Normal';text-align:center;writing-mode:lr-tb;direction:ltr;text-anchor:middle;fill:#ffffff;stroke:none;stroke-width:46.8;stroke-linejoin:round"
       x="1686.9733"
       y="-1272.6611"
       id="text22"
       transform="rotate(43.328107)"><tspan
         sodipodi:role="line"
         id="tspan22"
         x="1686.9733"
         y="-1272.6611">Blue Crest</tspan></text></g><path
     id="rect1-3"
     style="baseline-shift:baseline;display:inline;overflow:visible;vector-effect:none;fill:#ffffff;stroke-width:0.200936;stroke-linejoin:round;enable-background:accumulate;stop-color:#000000"
     d="m 1525.2579,2029.9009 c -3.5937,0 -6.5661,2.9729 -6.5661,6.5666 v 17.5126 c 1.7535,0 3.4591,0.01 5.0952,0.027 v -17.5397 c 0,-0.8592 0.6118,-1.4714 1.4709,-1.4714 h 27.6511 c 0.859,0 1.4708,0.6122 1.4708,1.4714 v 45.0504 c 0,0.8591 -0.6118,1.4713 -1.4708,1.4713 h -27.6511 c -0.8591,0 -1.4709,-0.6122 -1.4709,-1.4713 v -17.5399 c -1.6361,0.018 -3.3417,0.027 -5.0952,0.027 v 17.5126 c 0,3.5936 2.9724,6.5664 6.5661,6.5664 h 27.6511 c 3.5936,0 6.5661,-2.9728 6.5661,-6.5664 v -45.0504 c 0,-3.5937 -2.9725,-6.5666 -6.5661,-6.5666 z m 12.057,21.7518 0.01,4.821 h -18.6713 v 5.1158 h 18.679 l 0.01,4.8209 12.7691,-7.3985 z" /><path
     id="rect1-3-9"
     style="baseline-shift:baseline;display:inline;overflow:visible;vector-effect:none;fill:#ffffff;stroke-width:0.200936;stroke-linejoin:round;enable-background:accumulate;stop-color:#000000"
     d="m 1864.3692,1622.8237 c -3.5937,0 -6.5661,2.9728 -6.5661,6.5665 v 17.5126 c 1.7535,0 3.4591,0.01 5.0952,0.027 V 1629.39 c 0,-0.8592 0.6118,-1.4714 1.4709,-1.4714 h 27.651 c 0.8591,0 1.4709,0.6122 1.4709,1.4714 v 45.0504 c 0,0.8591 -0.6118,1.4713 -1.4709,1.4713 h -27.651 c -0.8591,0 -1.4709,-0.6122 -1.4709,-1.4713 v -17.5399 c -1.6361,0.018 -3.3417,0.027 -5.0952,0.027 v 17.5126 c 0,3.5936 2.9724,6.5664 6.5661,6.5664 h 27.651 c 3.5936,0 6.5661,-2.9728 6.5661,-6.5664 v -45.0504 c 0,-3.5937 -2.9725,-6.5666 -6.5661,-6.5666 z m 12.057,21.7517 0.01,4.821 h -18.6714 v 5.1158 h 18.6791 l 0.01,4.8209 12.7692,-7.3985 z" /><path
     id="rect1-3-6"
     style="baseline-shift:baseline;display:inline;overflow:visible;vector-effect:none;fill:#ffffff;stroke-width:0.200936;stroke-linejoin:round;enable-background:accumulate;stop-color:#000000"
     d="m 2296.336,1110.0264 c -3.5936,0 -6.5661,2.9729 -6.5661,6.5666 v 17.5126 c 1.7536,0 3.4591,0.01 5.0953,0.027 v -17.5398 c 0,-0.8591 0.6118,-1.4713 1.4708,-1.4713 h 27.6511 c 0.8591,0 1.4709,0.6122 1.4709,1.4713 v 45.0505 c 0,0.859 -0.6118,1.4712 -1.4709,1.4712 h -27.6511 c -0.859,0 -1.4708,-0.6122 -1.4708,-1.4712 v -17.5399 c -1.6362,0.018 -3.3417,0.027 -5.0953,0.027 v 17.5127 c 0,3.5936 2.9725,6.5664 6.5661,6.5664 h 27.6511 c 3.5936,0 6.5661,-2.9728 6.5661,-6.5664 v -45.0504 c 0,-3.5937 -2.9725,-6.5666 -6.5661,-6.5666 z m 12.0571,21.7518 0.01,4.8209 h -18.6713 v 5.1159 h 18.6791 l 0.01,4.8209 12.7691,-7.3985 z" /><path
     id="rect1-3-1"
     style="baseline-shift:baseline;display:inline;overflow:visible;vector-effect:none;fill:#ffffff;stroke-width:0.200936;stroke-linejoin:round;enable-background:accumulate;stop-color:#000000"
     d="m 2281.2445,425.76038 c -3.5937,0 -6.5661,2.9729 -6.5661,6.5666 v 17.5126 c 1.7535,0 3.4591,0.01 5.0952,0.027 v -17.5398 c 0,-0.8591 0.6118,-1.4713 1.4709,-1.4713 h 27.651 c 0.8591,0 1.4709,0.6122 1.4709,1.4713 v 45.0505 c 0,0.859 -0.6118,1.4712 -1.4709,1.4712 h -27.651 c -0.8591,0 -1.4709,-0.6122 -1.4709,-1.4712 v -17.5399 c -1.6361,0.018 -3.3417,0.027 -5.0952,0.027 v 17.5127 c 0,3.5936 2.9724,6.5664 6.5661,6.5664 h 27.651 c 3.5936,0 6.5661,-2.9728 6.5661,-6.5664 v -45.0504 c 0,-3.5937 -2.9725,-6.5666 -6.5661,-6.5666 z m 12.057,21.7518 0.01,4.8209 h -18.6713 v 5.1159 h 18.679 l 0.01,4.8209 12.7691,-7.3985 z" /></svg>
