<?xml version="1.0" encoding="UTF-8" standalone="no"?>
<!-- Created with Inkscape (http://www.inkscape.org/) -->

<svg
   version="1.1"
   id="svg1"
   width="2505.3333"
   height="2318.6667"
   viewBox="0 0 2505.3333 2318.6667"
   sodipodi:docname="Stoneleigh.svg"
   inkscape:version="1.4.2 (ebf0e940d0, 2025-05-08)"
   xml:space="preserve"
   xmlns:inkscape="http://www.inkscape.org/namespaces/inkscape"
   xmlns:sodipodi="http://sodipodi.sourceforge.net/DTD/sodipodi-0.dtd"
   xmlns="http://www.w3.org/2000/svg"
   xmlns:svg="http://www.w3.org/2000/svg"><defs
     id="defs1" /><sodipodi:namedview
     id="namedview1"
     pagecolor="#ffffff"
     bordercolor="#000000"
     borderopacity="0.25"
     inkscape:showpageshadow="2"
     inkscape:pageopacity="0.0"
     inkscape:pagecheckerboard="0"
     inkscape:deskcolor="#d1d1d1"
     inkscape:zoom="0.25"
     inkscape:cx="618"
     inkscape:cy="1592"
     inkscape:window-width="1920"
     inkscape:window-height="1008"
     inkscape:window-x="0"
     inkscape:window-y="0"
     inkscape:window-maximized="1"
     inkscape:current-layer="layer3" /><rect
     style="fill:#1a1a1a;stroke-width:32.4;stroke-linejoin:round"
     id="rect1"
     width="2505.3333"
     height="2318.6667"
     x="0"
     y="0"
     inkscape:label="bg" /><g
     inkscape:groupmode="layer"
     id="layer1"
     inkscape:label="Roads"><path
       style="baseline-shift:baseline;display:inline;overflow:visible;vector-effect:none;fill:#999999;stroke-linejoin:round;enable-background:accumulate;stop-color:#000000;stop-opacity:1;opacity:1"
       d="M 1798.1953,50.871094 1546.668,331.30859 a 23.40234,23.40234 0 0 0 -4.0176,6.24414 l -20.2383,46.25782 a 23.40234,23.40234 0 0 0 -1.2891,3.80859 L 1451.4824,671.75781 728.19727,1023.7012 612.94922,932.80078 a 23.40234,23.40234 0 0 0 -7.28711,-3.89062 l -98.29688,-31.80274 a 23.40234,23.40234 0 0 0 -13.53906,-0.26172 l -92.51562,26.01953 a 23.40234,23.40234 0 0 0 -11.19336,7.02539 L 80.767578,1279.7148 a 23.40234,23.40234 0 0 0 -5.826172,14.084 l -5.783203,95.4082 a 23.40234,23.40234 0 0 0 7.443359,18.5703 l 719.884768,667.8438 a 23.40234,23.40234 0 0 0 6.01953,4.0508 l 43.36523,20.2383 a 23.40234,23.40234 0 0 0 27.06055,-5.3008 l 292.00196,-315.1309 a 23.40234,23.40234 0 0 0 2.4121,-3.084 l 210.4297,-321.332 303.6094,-148.9941 167.4297,-31.2168 a 23.40234,23.40234 0 0 0 14.1113,-8.545 l 86.5879,-110.205 a 23.40234,23.40234 0 0 0 13.8476,-2.6192 l 147.4453,-86.7324 a 23.40234,23.40234 0 0 0 6.0391,-5.1016 l 338.2578,-401.86324 -35.8027,-30.13672 -335.6778,398.79496 -128.9804,75.8711 -457.0664,-424.02739 68.5215,-279.56641 17.9218,-40.96289 249.0157,-277.638669 z m -330.8476,665.212886 444.4277,412.29882 -80.2031,102.0781 -161.9102,30.1856 a 23.40234,23.40234 0 0 0 -6.0215,1.998 l -312.2383,153.2285 a 23.40234,23.40234 0 0 0 -9.2675,8.1875 l -71.3965,109.0254 -450.72658,-436.8144 a 23.40234,23.40234 0 0 0 -1.79297,-1.5684 l -49.20898,-38.8125 z m -967.6602,227.72852 87.57617,28.33398 201.03516,158.56252 456.33007,442.2461 -115.3594,176.1562 -279.06833,301.1739 -24.57812,-11.4707 -709.08203,-657.8223 4.62695,-76.3145 299.44336,-338.62497 z"
       id="path4" /><path
       style="fill:#4d4d4d;stroke-width:32.4;stroke-linejoin:round"
       d="M 2505.3333,743.01416 1699.9701,0 h 179.2486 l 626.1146,569.54782 z"
       id="path1" /></g><g
     inkscape:groupmode="layer"
     id="layer2"
     inkscape:label="Buildings"><path
       style="fill:#ffffff;stroke:none;stroke-width:46.8;stroke-linejoin:round;stroke-dasharray:none"
       d="m 2156.7648,578.22113 -277.5461,-265.98172 -98.2976,95.40649 292.0017,265.98172 z"
       id="path5" /><path
       style="fill:#ffffff;stroke:none;stroke-width:46.8;stroke-linejoin:round;stroke-dasharray:none"
       d="M 1835.8521,627.36993 2107.616,867.3317 2003.5362,1006.1048 1731.7723,760.36079 Z"
       id="path6" /><path
       style="fill:#ffffff;stroke:none;stroke-width:46.8;stroke-linejoin:round;stroke-dasharray:none"
       d="m 1801.1588,537.74565 -118.5353,-101.18869 -141.6642,156.1197 124.3176,112.75312 z"
       id="path7" /><path
       style="fill:#ffffff;stroke:none;stroke-width:46.8;stroke-linejoin:round;stroke-dasharray:none"
       d="m 1752.01,1139.0956 -54.931,-115.6442 -344.0415,159.0108 52.0399,115.6442 z"
       id="path8" /><path
       style="fill:#ffffff;stroke:none;stroke-width:46.8;stroke-linejoin:round;stroke-dasharray:none"
       d="M 1318.3442,1202.7 1217.1555,1321.2353 930.93602,1078.3824 1043.6891,954.06487 Z"
       id="path9" /><path
       style="fill:#ffffff;stroke:none;stroke-width:46.8;stroke-linejoin:round;stroke-dasharray:none"
       d="m 1376.1663,650.49877 -78.0599,-167.68412 -144.5552,52.0399 83.842,182.13966 z"
       id="path10" /><path
       style="fill:#ffffff;stroke:none;stroke-width:46.8;stroke-linejoin:round;stroke-dasharray:none"
       d="M 1121.749,731.44973 1046.5803,560.8745 693.86536,728.55863 771.92521,878.89612 Z"
       id="path11" /><path
       style="fill:#ffffff;stroke:none;stroke-width:46.8;stroke-linejoin:round;stroke-dasharray:none"
       d="M 459.6858,1006.1048 190.81297,1283.6509 297.78388,1387.7307 581.11224,1121.749 Z"
       id="path12" /><path
       style="fill:#ffffff;stroke:none;stroke-width:46.8;stroke-linejoin:round;stroke-dasharray:none"
       d="m 647.60767,1191.1355 303.56609,239.9618 -86.73317,98.2976 -300.67499,-263.0906 z"
       id="path13" /><path
       style="fill:#ffffff;stroke:none;stroke-width:46.8;stroke-linejoin:round;stroke-dasharray:none"
       d="M 1107.2935,1566.9793 876.00502,1879.2187 745.90526,1801.1588 980.08482,1474.4639 Z"
       id="path14" /><path
       style="fill:#ffffff;stroke:none;stroke-width:46.8;stroke-linejoin:round;stroke-dasharray:none"
       d="M 783.48964,1590.1081 451.01248,1329.9086 352.71489,1468.6817 699.64757,1723.099 Z"
       id="path15" /><path
       style="fill:#ffffff;stroke:none;stroke-width:46.8;stroke-linejoin:round;stroke-dasharray:none"
       d="m 1711.5346,1465.7906 -231.2885,315.1305 -138.7731,-92.5154 251.5262,-315.1305 z"
       id="path16" /><path
       style="fill:#ffffff;stroke:none;stroke-width:46.8;stroke-linejoin:round;stroke-dasharray:none"
       d="m 1298.1064,1766.4656 -274.655,289.1105 118.5353,104.0798 260.1995,-277.5461 z"
       id="path17" /></g><g
     inkscape:groupmode="layer"
     id="layer3"
     inkscape:label="Labels"><text
       xml:space="preserve"
       style="font-size:64px;line-height:1;font-family:sans-serif;-inkscape-font-specification:'sans-serif, Normal';text-align:center;writing-mode:lr-tb;direction:ltr;text-anchor:middle;fill:#ffffff;stroke:none;stroke-width:46.8;stroke-linejoin:round;stroke-dasharray:none"
       x="1805.21"
       y="-1177.9374"
       id="text17"
       transform="rotate(42.218359)"><tspan
         sodipodi:role="line"
         id="tspan17"
         x="1805.21"
         y="-1177.9374">Thousand Oaks</tspan></text><text
       xml:space="preserve"
       style="font-size:85.3333px;line-height:1;font-family:sans-serif;-inkscape-font-specification:'sans-serif, Normal';text-align:center;writing-mode:lr-tb;direction:ltr;text-anchor:middle;fill:#000000;stroke-width:46.8;stroke-linejoin:round"
       x="1972"
       y="516"
       id="text1"><tspan
         sodipodi:role="line"
         id="tspan1"
         x="1972"
         y="516">1</tspan></text><text
       xml:space="preserve"
       style="font-size:85.3333px;line-height:1;font-family:sans-serif;-inkscape-font-specification:'sans-serif, Normal';text-align:center;writing-mode:lr-tb;direction:ltr;text-anchor:middle;fill:#000000;stroke-width:46.8;stroke-linejoin:round"
       x="1672"
       y="600"
       id="text2"><tspan
         sodipodi:role="line"
         id="tspan2"
         x="1672"
         y="600">2</tspan></text><text
       xml:space="preserve"
       style="font-size:85.3333px;line-height:1;font-family:sans-serif;-inkscape-font-specification:'sans-serif, Normal';text-align:center;writing-mode:lr-tb;direction:ltr;text-anchor:middle;fill:#000000;stroke-width:46.8;stroke-linejoin:round"
       x="1920"
       y="844"
       id="text3"><tspan
         sodipodi:role="line"
         id="tspan3"
         x="1920"
         y="844">3</tspan></text><text
       xml:space="preserve"
       style="font-size:85.3333px;line-height:1;font-family:sans-serif;-inkscape-font-specification:'sans-serif, Normal';text-align:center;writing-mode:lr-tb;direction:ltr;text-anchor:middle;fill:#000000;stroke-width:46.8;stroke-linejoin:round"
       x="1264"
       y="624"
       id="text4"><tspan
         sodipodi:role="line"
         id="tspan4"
         x="1264"
         y="624">4</tspan></text><text
       xml:space="preserve"
       style="font-size:85.3333px;line-height:1;font-family:sans-serif;-inkscape-font-specification:'sans-serif, Normal';text-align:center;writing-mode:lr-tb;direction:ltr;text-anchor:middle;fill:#000000;stroke-width:46.8;stroke-linejoin:round"
       x="912"
       y="752"
       id="text5"><tspan
         sodipodi:role="line"
         id="tspan5"
         x="912"
         y="752">5</tspan></text><text
       xml:space="preserve"
       style="font-size:85.3333px;line-height:1;font-family:sans-serif;-inkscape-font-specification:'sans-serif, Normal';text-align:center;writing-mode:lr-tb;direction:ltr;text-anchor:middle;fill:#000000;stroke-width:46.8;stroke-linejoin:round"
       x="1540"
       y="1184"
       id="text6"><tspan
         sodipodi:role="line"
         id="tspan6"
         x="1540"
         y="1184">6</tspan></text><text
       xml:space="preserve"
       style="font-size:85.3333px;line-height:1;font-family:sans-serif;-inkscape-font-specification:'sans-serif, Normal';text-align:center;writing-mode:lr-tb;direction:ltr;text-anchor:middle;fill:#000000;stroke-width:46.8;stroke-linejoin:round"
       x="1120"
       y="1156"
       id="text7"><tspan
         sodipodi:role="line"
         id="tspan7"
         x="1120"
         y="1156">7</tspan></text><text
       xml:space="preserve"
       style="font-size:85.3333px;line-height:1;font-family:sans-serif;-inkscape-font-specification:'sans-serif, Normal';text-align:center;writing-mode:lr-tb;direction:ltr;text-anchor:middle;fill:#000000;stroke-width:46.8;stroke-linejoin:round"
       x="372"
       y="1236"
       id="text8"><tspan
         sodipodi:role="line"
         id="tspan8"
         x="372"
         y="1236">10</tspan></text><text
       xml:space="preserve"
       style="font-size:85.3333px;line-height:1;font-family:sans-serif;-inkscape-font-specification:'sans-serif, Normal';text-align:center;writing-mode:lr-tb;direction:ltr;text-anchor:middle;fill:#000000;stroke-width:46.8;stroke-linejoin:round"
       x="568"
       y="1552"
       id="text9"><tspan
         sodipodi:role="line"
         id="tspan9"
         x="568"
         y="1552">8</tspan></text><text
       xml:space="preserve"
       style="font-size:85.3333px;line-height:1;font-family:sans-serif;-inkscape-font-specification:'sans-serif, Normal';text-align:center;writing-mode:lr-tb;direction:ltr;text-anchor:middle;fill:#000000;stroke-width:46.8;stroke-linejoin:round"
       x="760"
       y="1384"
       id="text10"><tspan
         sodipodi:role="line"
         id="tspan10"
         x="760"
         y="1384">9</tspan></text><text
       xml:space="preserve"
       style="font-size:85.3333px;line-height:1;font-family:sans-serif;-inkscape-font-specification:'sans-serif, Normal';text-align:center;writing-mode:lr-tb;direction:ltr;text-anchor:middle;fill:#000000;stroke-width:46.8;stroke-linejoin:round"
       x="924"
       y="1712"
       id="text11"><tspan
         sodipodi:role="line"
         id="tspan11"
         x="924"
         y="1712">11</tspan></text><text
       xml:space="preserve"
       style="font-size:85.3333px;line-height:1;font-family:sans-serif;-inkscape-font-specification:'sans-serif, Normal';text-align:center;writing-mode:lr-tb;direction:ltr;text-anchor:middle;fill:#000000;stroke-width:46.8;stroke-linejoin:round"
       x="1524"
       y="1612"
       id="text12"><tspan
         sodipodi:role="line"
         id="tspan12"
         x="1524"
         y="1612">12</tspan></text><text
       xml:space="preserve"
       style="font-size:85.3333px;line-height:1;font-family:sans-serif;-inkscape-font-specification:'sans-serif, Normal';text-align:center;writing-mode:lr-tb;direction:ltr;text-anchor:middle;fill:#000000;stroke-width:46.8;stroke-linejoin:round"
       x="1212"
       y="1992"
       id="text13"><tspan
         sodipodi:role="line"
         id="tspan13"
         x="1212"
         y="1992">13</tspan></text></g><path
     id="rect1-3"
     style="baseline-shift:baseline;display:inline;overflow:visible;vector-effect:none;fill:#ffffff;stroke-width:0.224986;stroke-linejoin:round;enable-background:accumulate;stop-color:#000000"
     d="m 2413.4796,613.73823 c -4.0238,0 -7.3521,3.32874 -7.3521,7.35247 v 19.60882 c 1.9635,0 3.8732,0.0104 5.7051,0.0305 v -19.63925 c 0,-0.96192 0.6851,-1.64735 1.647,-1.64735 h 30.9606 c 0.962,0 1.647,0.68543 1.647,1.64735 v 50.44268 c 0,0.96192 -0.685,1.64736 -1.647,1.64736 h -30.9606 c -0.9619,0 -1.647,-0.68544 -1.647,-1.64736 v -19.63924 c -1.8319,0.0201 -3.7416,0.0305 -5.7051,0.0305 v 19.60882 c 0,4.02381 3.3283,7.35234 7.3521,7.35234 h 30.9606 c 4.0238,0 7.3521,-3.32853 7.3521,-7.35234 v -50.44268 c 0,-4.02373 -3.3283,-7.35247 -7.3521,-7.35247 z m 13.5002,24.35521 0.01,5.398 h -20.9062 v 5.7282 h 20.9148 l 0.01,5.398 14.2975,-8.28411 z" /><path
     id="rect1-3-1"
     style="baseline-shift:baseline;display:inline;overflow:visible;vector-effect:none;fill:#ffffff;stroke-width:0.224986;stroke-linejoin:round;enable-background:accumulate;stop-color:#000000"
     d="m 1793.9405,45.673317 c -4.0238,0 -7.3521,3.32874 -7.3521,7.35247 v 19.60882 c 1.9635,0 3.8732,0.0104 5.7051,0.0305 v -19.63925 c 0,-0.96192 0.6851,-1.64735 1.647,-1.64735 h 30.9606 c 0.962,0 1.647,0.68543 1.647,1.64735 v 50.442683 c 0,0.96192 -0.685,1.64736 -1.647,1.64736 h -30.9606 c -0.9619,0 -1.647,-0.68544 -1.647,-1.64736 V 83.829297 c -1.8319,0.0201 -3.7416,0.0305 -5.7051,0.0305 v 19.608823 c 0,4.02381 3.3283,7.35234 7.3521,7.35234 h 30.9606 c 4.0238,0 7.3521,-3.32853 7.3521,-7.35234 V 53.025937 c 0,-4.02373 -3.3283,-7.35247 -7.3521,-7.35247 z m 13.5002,24.35521 0.01,5.398 h -20.9062 v 5.7282 h 20.9148 l 0.01,5.398 14.2975,-8.28411 z" /></svg>
