<?xml version="1.0" encoding="UTF-8" standalone="no"?>
<!-- Created with Inkscape (http://www.inkscape.org/) -->

<svg
   version="1.1"
   id="svg1"
   width="2281.3333"
   height="2049.3333"
   viewBox="0 0 2281.3333 2049.3333"
   sodipodi:docname="Stratton Park.svg"
   inkscape:version="1.4.2 (ebf0e940d0, 2025-05-08)"
   xml:space="preserve"
   xmlns:inkscape="http://www.inkscape.org/namespaces/inkscape"
   xmlns:sodipodi="http://sodipodi.sourceforge.net/DTD/sodipodi-0.dtd"
   xmlns="http://www.w3.org/2000/svg"
   xmlns:svg="http://www.w3.org/2000/svg"><defs
     id="defs1" /><sodipodi:namedview
     id="namedview1"
     pagecolor="#ffffff"
     bordercolor="#000000"
     borderopacity="0.25"
     inkscape:showpageshadow="2"
     inkscape:pageopacity="0.0"
     inkscape:pagecheckerboard="0"
     inkscape:deskcolor="#d1d1d1"
     inkscape:zoom="0.39134679"
     inkscape:cx="1117.9343"
     inkscape:cy="1027.2219"
     inkscape:window-width="1920"
     inkscape:window-height="1008"
     inkscape:window-x="0"
     inkscape:window-y="0"
     inkscape:window-maximized="1"
     inkscape:current-layer="layer3" /><rect
     style="fill:#1a1a1a;stroke-width:46.8;stroke-linejoin:round"
     id="rect1"
     width="2281.3333"
     height="2049.3333"
     x="0"
     y="0"
     inkscape:label="bg" /><g
     inkscape:groupmode="layer"
     id="layer1"
     inkscape:label="Roads"><path
       style="fill:none;stroke-width:46.8;stroke-linejoin:round;stroke:#999999"
       d="m 705.25684,1244.4206 86.87946,-166.0931 66.43724,-761.47298 889.23686,774.24938 -194.2011,664.3724 -84.3242,135.4297"
       id="path2" /><path
       style="fill:none;stroke:#999999;stroke-width:46.8;stroke-linejoin:round"
       d="M 771.69408,1096.2144 127.76392,544.2743"
       id="path3" /><path
       style="fill:#4d4d4d;stroke-width:46.8;stroke-linejoin:round"
       d="M 1694.1496,2049.3333 0,620.93265 V 730.80962 L 1551.054,2049.3333 Z"
       id="path1" /></g><g
     inkscape:groupmode="layer"
     id="layer2"
     inkscape:label="Buildings"><path
       style="fill:#ffffff;stroke:none;stroke-width:46.8;stroke-linejoin:round"
       d="M 293.85702,329.63091 748.69657,715.47795 618.37737,871.34993 163.53782,480.39234 Z"
       id="path4" /><path
       style="fill:#ffffff;stroke:none;stroke-width:46.8;stroke-linejoin:round"
       d="M 764.02824,160.98254 592.82459,477.83706 408.84454,375.62593 580.0482,63.88196 Z"
       id="path5" /><path
       style="fill:#ffffff;stroke:none;stroke-width:46.8;stroke-linejoin:round"
       d="M 1024.6666,595.37987 1400.2926,927.56606 1295.5261,1042.5536 919.90022,707.81212 Z"
       id="path6" /><path
       style="fill:#ffffff;stroke:none;stroke-width:46.8;stroke-linejoin:round"
       d="m 927.56606,1208.6467 462.50544,373.0706 117.5428,-132.8744 -472.7265,-367.9601 z"
       id="path7" /><path
       style="fill:#ffffff;stroke:none;stroke-width:46.8;stroke-linejoin:round"
       d="m 1548.4987,981.22691 -155.872,235.08559 140.5403,86.8795 132.8745,-227.4198 z"
       id="path8" /><path
       style="fill:#ffffff;stroke:none;stroke-width:46.8;stroke-linejoin:round"
       d="m 1939.4563,1221.4231 242.7515,201.867 -125.2087,153.3167 -242.7514,-204.4223 z"
       id="path9" /><path
       style="fill:#ffffff;stroke:none;stroke-width:46.8;stroke-linejoin:round"
       d="m 1804.0266,1484.6168 178.8694,76.6583 -148.2061,311.744 -181.4248,-84.3242 z"
       id="path10" /></g><g
     inkscape:groupmode="layer"
     id="layer3"
     inkscape:label="Labels"><text
       xml:space="preserve"
       style="font-size:64px;line-height:1;font-family:sans-serif;-inkscape-font-specification:'sans-serif, Normal';text-align:center;writing-mode:lr-tb;direction:ltr;text-anchor:middle;fill:#ffffff;stroke:none;stroke-width:46.8;stroke-linejoin:round"
       x="1771.9583"
       y="525.61102"
       id="text10"
       transform="rotate(40.694166)"><tspan
         sodipodi:role="line"
         id="tspan10"
         x="1771.9583"
         y="525.61102">Starcrest</tspan></text><text
       xml:space="preserve"
       style="font-size:85.3333px;line-height:1;font-family:sans-serif;-inkscape-font-specification:'sans-serif, Normal';text-align:center;writing-mode:lr-tb;direction:ltr;text-anchor:middle;fill:#000000;stroke:none;stroke-width:46.8;stroke-linejoin:round"
       x="465.06067"
       y="633.70905"
       id="text11"><tspan
         sodipodi:role="line"
         id="tspan11"
         x="465.06067"
         y="633.70905">6</tspan></text><text
       xml:space="preserve"
       style="font-size:85.3333px;line-height:1;font-family:sans-serif;-inkscape-font-specification:'sans-serif, Normal';text-align:center;writing-mode:lr-tb;direction:ltr;text-anchor:middle;fill:#000000;stroke:none;stroke-width:46.8;stroke-linejoin:round"
       x="590.26929"
       y="306.63339"
       id="text12"><tspan
         sodipodi:role="line"
         id="tspan12"
         x="590.26929"
         y="306.63339">7</tspan></text><text
       xml:space="preserve"
       style="font-size:85.3333px;line-height:1;font-family:sans-serif;-inkscape-font-specification:'sans-serif, Normal';text-align:center;writing-mode:lr-tb;direction:ltr;text-anchor:middle;fill:#000000;stroke:none;stroke-width:46.8;stroke-linejoin:round"
       x="1226.5336"
       y="1354.2976"
       id="text13"><tspan
         sodipodi:role="line"
         id="tspan13"
         x="1226.5336"
         y="1354.2976">1</tspan></text><text
       xml:space="preserve"
       style="font-size:85.3333px;line-height:1;font-family:sans-serif;-inkscape-font-specification:'sans-serif, Normal';text-align:center;writing-mode:lr-tb;direction:ltr;text-anchor:middle;fill:#000000;stroke:none;stroke-width:46.8;stroke-linejoin:round"
       x="1167.7622"
       y="848.35242"
       id="text14"><tspan
         sodipodi:role="line"
         id="tspan14"
         x="1167.7622"
         y="848.35242">5</tspan></text><text
       xml:space="preserve"
       style="font-size:85.3333px;line-height:1;font-family:sans-serif;-inkscape-font-specification:'sans-serif, Normal';text-align:center;writing-mode:lr-tb;direction:ltr;text-anchor:middle;fill:#000000;stroke:none;stroke-width:46.8;stroke-linejoin:round"
       x="1538.2776"
       y="1172.8728"
       id="text15"><tspan
         sodipodi:role="line"
         id="tspan15"
         x="1538.2776"
         y="1172.8728">4</tspan></text><text
       xml:space="preserve"
       style="font-size:85.3333px;line-height:1;font-family:sans-serif;-inkscape-font-specification:'sans-serif, Normal';text-align:center;writing-mode:lr-tb;direction:ltr;text-anchor:middle;fill:#000000;stroke:none;stroke-width:46.8;stroke-linejoin:round"
       x="2003.3383"
       y="1428.4006"
       id="text16"><tspan
         sodipodi:role="line"
         id="tspan16"
         x="2003.3383"
         y="1428.4006">3</tspan></text><text
       xml:space="preserve"
       style="font-size:85.3333px;line-height:1;font-family:sans-serif;-inkscape-font-specification:'sans-serif, Normal';text-align:center;writing-mode:lr-tb;direction:ltr;text-anchor:middle;fill:#000000;stroke:none;stroke-width:46.8;stroke-linejoin:round"
       x="1816.803"
       y="1712.0365"
       id="text17"><tspan
         sodipodi:role="line"
         id="tspan17"
         x="1816.803"
         y="1712.0365">2</tspan></text></g><path
     id="rect1-3"
     style="baseline-shift:baseline;display:inline;overflow:visible;vector-effect:none;fill:#ffffff;stroke-width:0.263622;stroke-linejoin:round;enable-background:accumulate;stop-color:#000000"
     d="m 691.02324,1204.9921 c -4.71477,0 -8.61459,3.9003 -8.61459,8.6151 v 22.9761 c 2.30068,0 4.53826,0.012 6.68482,0.036 v -23.0118 c 0,-1.1271 0.80268,-1.9303 1.92977,-1.9303 h 36.27741 c 1.12709,0 1.92978,0.8032 1.92978,1.9303 v 59.105 c 0,1.1271 -0.80269,1.9303 -1.92978,1.9303 h -36.27741 c -1.12709,0 -1.92977,-0.8032 -1.92977,-1.9303 v -23.0118 c -2.14656,0.023 -4.38414,0.036 -6.68482,0.036 v 22.9762 c 0,4.7147 3.89982,8.6149 8.61459,8.6149 h 36.27741 c 4.71477,0 8.61459,-3.9002 8.61459,-8.6149 v -59.105 c 0,-4.7148 -3.89982,-8.6151 -8.61459,-8.6151 z m 15.81852,28.5377 0.01,6.3249 h -24.4963 v 6.7119 h 24.50645 l 0.01,6.3249 16.75276,-9.7067 z" /><path
     id="rect1-3-9"
     style="baseline-shift:baseline;display:inline;overflow:visible;vector-effect:none;fill:#ffffff;stroke-width:0.263622;stroke-linejoin:round;enable-background:accumulate;stop-color:#000000"
     d="m 1453.3311,1849.8894 c -4.7148,0 -8.6146,3.9003 -8.6146,8.6151 v 22.9761 c 2.3007,0 4.5382,0.012 6.6848,0.036 v -23.0118 c 0,-1.1271 0.8027,-1.9303 1.9298,-1.9303 h 36.2774 c 1.1271,0 1.9298,0.8032 1.9298,1.9303 v 59.105 c 0,1.1271 -0.8027,1.9303 -1.9298,1.9303 h -36.2774 c -1.1271,0 -1.9298,-0.8032 -1.9298,-1.9303 v -23.0118 c -2.1466,0.023 -4.3841,0.036 -6.6848,0.036 v 22.9762 c 0,4.7147 3.8998,8.6149 8.6146,8.6149 h 36.2774 c 4.7148,0 8.6146,-3.9002 8.6146,-8.6149 v -59.105 c 0,-4.7148 -3.8998,-8.6151 -8.6146,-8.6151 z m 15.8185,28.5377 0.01,6.3249 h -24.4963 v 6.7119 h 24.5064 l 0.01,6.3249 16.7527,-9.7067 z" /></svg>
