<?xml version="1.0" encoding="UTF-8" standalone="no"?>
<!-- Created with Inkscape (http://www.inkscape.org/) -->

<svg
   version="1.1"
   id="svg1"
   width="2057.3333"
   height="1968"
   viewBox="0 0 2057.3333 1968"
   sodipodi:docname="Summit at Henderson Pass.svg"
   inkscape:version="1.4.2 (ebf0e940d0, 2025-05-08)"
   xml:space="preserve"
   xmlns:inkscape="http://www.inkscape.org/namespaces/inkscape"
   xmlns:sodipodi="http://sodipodi.sourceforge.net/DTD/sodipodi-0.dtd"
   xmlns="http://www.w3.org/2000/svg"
   xmlns:svg="http://www.w3.org/2000/svg"><defs
     id="defs1" /><sodipodi:namedview
     id="namedview1"
     pagecolor="#ffffff"
     bordercolor="#000000"
     borderopacity="0.25"
     inkscape:showpageshadow="2"
     inkscape:pageopacity="0.0"
     inkscape:pagecheckerboard="0"
     inkscape:deskcolor="#d1d1d1"
     inkscape:zoom="0.40752033"
     inkscape:cx="1127.5511"
     inkscape:cy="952.09974"
     inkscape:window-width="1920"
     inkscape:window-height="1008"
     inkscape:window-x="0"
     inkscape:window-y="0"
     inkscape:window-maximized="1"
     inkscape:current-layer="layer9" /><rect
     style="fill:#1a1a1a;stroke-width:32.4;stroke-linejoin:round"
     id="rect1"
     width="2057.3333"
     height="1968"
     x="0"
     y="0" /><g
     inkscape:groupmode="layer"
     id="layer7"
     inkscape:label="Roads"><path
       style="baseline-shift:baseline;display:inline;overflow:visible;vector-effect:none;fill:#999999;stroke-linejoin:round;enable-background:accumulate;stop-color:#000000;stop-opacity:1;opacity:1"
       d="M 1033.6328,222.80859 902.60547,459.125 759.16602,373.78906 a 16.201621,16.201621 0 0 0 -7.63672,-2.26562 l -61.34571,-2.45313 a 16.201621,16.201621 0 0 0 -9.44726,2.58594 l -41.7168,26.99219 a 16.201621,16.201621 0 0 0 -4.35937,4.15234 L 291.11914,881.30469 a 16.201621,16.201621 0 0 0 2.81055,21.91211 l 262.47461,217.9473 -164.06836,201.0429 25.10351,20.4844 174.22461,-213.4863 a 16.201621,16.201621 0 0 0 2.83203,-13.7813 l 1.96875,1.6407 157.61133,-189.13286 68.02344,-38.54687 98.22851,-9.13868 100.02928,39.14063 a 16.201621,16.201621 0 0 0 0.2129,2.11914 l 66.2539,159.50194 a 16.201621,16.201621 0 0 0 1.9317,3.4102 l 19.9043,26.9433 -143.57036,145.9258 a 16.201621,16.201621 0 0 0 -2.06445,2.5781 l -97.42578,151.0118 -222.39844,244.3945 23.96289,21.8066 134.84961,-148.1855 175.5918,170.9726 a 16.201621,16.201621 0 0 0 22.75783,-0.1504 l 112.8769,-112.8789 a 16.201621,16.201621 0 0 0 -0.1484,-23.0566 l -188.86133,-184.0176 65.12109,-100.9355 138.80274,-141.0762 161.8184,219.0488 a 16.201621,16.201621 0 0 0 9.1015,6.0899 l 44.5215,11.1308 7.1953,46.7774 a 16.201621,16.201621 0 0 0 2.4395,6.3828 l 179.1328,274.834 a 16.201621,16.201621 0 0 0 8.0351,6.3789 l 26.9922,9.8144 a 16.201621,16.201621 0 0 0 8.9317,0.6153 l 34.3535,-7.3614 a 16.201621,16.201621 0 0 0 4.5488,-1.7207 l 353.3555,-198.7636 -15.8848,-28.2383 -351.2129,197.5566 -27.3945,5.8711 -17.5332,-6.375 -174.2715,-267.375 -7.6934,-50.0078 447.6504,-291.2129 -17.6679,-27.1582 -265.0489,172.4238 -291.0918,-495.58004 a 16.201621,16.201621 0 0 0 -2.6816,-18.26172 l -95.7012,-95.70117 a 16.201621,16.201621 0 0 0 -3.1718,-2.4668 L 930.46289,475.69922 1061.9688,238.51953 Z m -339.60936,178.83985 52.10742,2.08593 382.43944,227.52735 82.8828,82.88281 -174.707,176.86524 -108.18946,-42.33594 a 16.201621,16.201621 0 0 0 -7.4043,-1.04297 l -105.51562,9.81445 a 16.201621,16.201621 0 0 0 -6.48633,2.03711 l -73.61523,41.71485 a 16.201621,16.201621 0 0 0 -4.45899,3.72265 L 573.87695,1093.5586 326.24414,887.93555 l 332.94922,-463.75 z m 531.55666,344.29883 286.7578,488.19923 -164.1836,106.8086 a 16.201621,16.201621 0 0 0 -0.5684,0.664 l -35.0097,-8.7519 -196.5879,-266.1113 -61.3672,-147.73832 z m -319.26955,661.58983 172.41405,167.9942 -89.96874,89.9687 -164.92578,-160.584 66.63476,-73.2246 a 16.201621,16.201621 0 0 0 1.63086,-2.1211 z"
       id="path8" /><path
       style="fill:#4d4d4d;stroke-width:32.4;stroke-linejoin:round"
       d="M 2057.3333,1506.6733 V 1337.3566 L 1938.5536,1138.5935 1852.6683,1020.808 1783.9601,888.29924 1717.7057,728.798 1622.005,564.38902 1477.2269,395.07231 1295.6409,228.20947 907.93016,0 H 721.4364 l 449.0574,242.93267 245.3865,211.03241 174.2244,213.48628 110.424,201.21696 112.8778,220.84788 z"
       id="path1" /></g><g
     inkscape:groupmode="layer"
     id="layer8"
     inkscape:label="Buildings"><path
       style="fill:#ffffff;stroke:none;stroke-width:32.4;stroke-linejoin:round"
       d="M 921.42642,197.53616 898.1147,295.69077 734.93266,252.74813 759.47131,155.82045 Z"
       id="path9" /><path
       style="fill:#ffffff;stroke:none;stroke-width:32.4;stroke-linejoin:round"
       d="m 1276.01,450.28428 -163.1821,-114.10473 -62.5735,92.01995 159.5012,117.78553 z"
       id="path10" /><path
       style="fill:#ffffff;stroke:none;stroke-width:32.4;stroke-linejoin:round"
       d="m 1349.6259,495.68079 93.2469,147.23192 -87.1122,51.53117 -94.4738,-146.00498 z"
       id="path11" /><path
       style="fill:#ffffff;stroke:none;stroke-width:32.4;stroke-linejoin:round"
       d="m 1585.197,845.3566 84.6583,224.5287 -131.2818,53.985 -87.1122,-225.7556 z"
       id="path12" /><path
       style="fill:#ffffff;stroke:none;stroke-width:32.4;stroke-linejoin:round"
       d="m 1788.8678,1242.8828 109.197,179.1321 -105.5162,62.5736 -104.2893,-181.586 z"
       id="path13" /><path
       style="fill:#ffffff;stroke:none;stroke-width:32.4;stroke-linejoin:round"
       d="m 1504.2194,1341.0374 -41.7157,110.4239 181.5861,84.6584 50.3042,-121.4663 z"
       id="path14" /><path
       style="fill:#ffffff;stroke:none;stroke-width:32.4;stroke-linejoin:round"
       d="m 1131.2319,1242.8828 128.8279,144.778 -93.2468,90.793 -125.1472,-148.4588 z"
       id="path15" /><path
       style="fill:#ffffff;stroke:none;stroke-width:32.4;stroke-linejoin:round"
       d="m 964.36907,1806.0449 -111.65088,-123.9202 -82.20448,69.9351 121.46633,121.4664 z"
       id="path16" /><path
       style="fill:#ffffff;stroke:none;stroke-width:32.4;stroke-linejoin:round"
       d="m 1380.2992,1542.2543 -44.1695,92.02 -142.3242,-60.1197 45.3965,-89.5661 z"
       id="path17" /><path
       style="fill:#ffffff;stroke:none;stroke-width:32.4;stroke-linejoin:round"
       d="m 436.78803,1445.3267 130.05486,168.0897 94.47381,-85.8852 -125.14713,-165.636 z"
       id="path18" /><path
       style="fill:#ffffff;stroke:none;stroke-width:32.4;stroke-linejoin:round"
       d="m 559.48129,1288.2793 152.13965,184.0399 99.38154,-93.2469 -142.32418,-175.4514 z"
       id="path19" /><path
       style="fill:#ffffff;stroke:none;stroke-width:32.4;stroke-linejoin:round"
       d="m 684.62842,1141.0474 110.42394,131.2818 82.20449,-65.0275 -106.74314,-132.5087 z"
       id="path20" /><path
       style="fill:#ffffff;stroke:none;stroke-width:32.4;stroke-linejoin:round"
       d="M 795.05236,987.68079 916.51869,1147.182 1023.2618,1062.5237 898.1147,916.51869 Z"
       id="path21" /><path
       style="fill:#ffffff;stroke:none;stroke-width:32.4;stroke-linejoin:round"
       d="M 276.05985,979.09226 253.97506,1149.6359 153.36658,1138.5935 176.6783,965.596 Z"
       id="path22" /><path
       style="fill:#ffffff;stroke:none;stroke-width:32.4;stroke-linejoin:round"
       d="M 445.37655,878.48378 622.05486,961.9152 679.72069,851.49126 494.45386,771.74064 Z"
       id="path23" /><path
       style="fill:#ffffff;stroke:none;stroke-width:32.4;stroke-linejoin:round"
       d="M 560.70822,703.03241 736.15959,796.27929 798.73316,684.62842 619.60099,595.06234 Z"
       id="path24" /><path
       style="fill:#ffffff;stroke:none;stroke-width:32.4;stroke-linejoin:round"
       d="m 671.13216,550.89276 144.77806,71.1621 44.16957,-92.01995 -152.13965,-72.38903 z"
       id="path25" /><path
       style="fill:#ffffff;stroke:none;stroke-width:32.4;stroke-linejoin:round"
       d="m 1026.9426,635.55112 34.3541,128.82792 -195.08225,50.30424 -30.67331,-136.18952 z"
       id="path26" /><path
       style="fill:#ffffff;stroke:none;stroke-width:32.4;stroke-linejoin:round"
       d="m 1236.7481,876.02992 76.0698,152.13968 -94.4738,44.1695 -71.1621,-155.82041 z"
       id="path27" /><path
       style="fill:#ffffff;stroke:none;stroke-width:32.4;stroke-linejoin:round"
       d="m 1325.0873,1080.9277 100.6084,132.5087 -78.5236,60.1197 -99.3816,-136.1895 z"
       id="path28" /></g><g
     inkscape:groupmode="layer"
     id="layer9"
     inkscape:label="Labels"><text
       xml:space="preserve"
       style="font-style:normal;font-variant:normal;font-weight:normal;font-stretch:normal;font-size:63.2381px;line-height:1;font-family:sans-serif;-inkscape-font-specification:'sans-serif, Normal';font-variant-ligatures:normal;font-variant-caps:normal;font-variant-numeric:normal;font-variant-east-asian:normal;text-align:center;writing-mode:lr-tb;direction:ltr;text-anchor:middle;fill:#ffffff;stroke:none;stroke-width:32.4;stroke-linejoin:round"
       x="1223.5793"
       y="-520.20563"
       id="text28"
       transform="rotate(37.045621)"><tspan
         sodipodi:role="line"
         id="tspan28"
         x="1223.5793"
         y="-520.20563">Henderson Pass</tspan></text><text
       xml:space="preserve"
       style="font-weight:normal;font-size:63.23809433px;line-height:1;font-family:sans-serif;-inkscape-font-specification:'sans-serif, Normal';text-align:center;writing-mode:lr-tb;direction:ltr;text-anchor:middle;fill:#000000;stroke:none;stroke-width:32.4;stroke-linejoin:round;font-style:normal;font-stretch:normal;font-variant:normal;font-variant-ligatures:normal;font-variant-caps:normal;font-variant-numeric:normal;font-variant-east-asian:normal"
       x="1560.6583"
       y="1006.0848"
       id="text29"><tspan
         sodipodi:role="line"
         id="tspan29"
         x="1560.6583"
         y="1006.0848">1</tspan></text><text
       xml:space="preserve"
       style="font-weight:normal;font-size:63.23809433px;line-height:1;font-family:sans-serif;-inkscape-font-specification:'sans-serif, Normal';text-align:center;writing-mode:lr-tb;direction:ltr;text-anchor:middle;fill:#000000;stroke:none;stroke-width:32.4;stroke-linejoin:round;font-style:normal;font-stretch:normal;font-variant:normal;font-variant-ligatures:normal;font-variant-caps:normal;font-variant-numeric:normal;font-variant-east-asian:normal"
       x="1356.9875"
       y="620.82788"
       id="text30"><tspan
         sodipodi:role="line"
         id="tspan30"
         x="1356.9875"
         y="620.82788">2</tspan></text><text
       xml:space="preserve"
       style="font-weight:normal;font-size:63.23809433px;line-height:1;font-family:sans-serif;-inkscape-font-specification:'sans-serif, Normal';text-align:center;writing-mode:lr-tb;direction:ltr;text-anchor:middle;fill:#000000;stroke:none;stroke-width:32.4;stroke-linejoin:round;font-style:normal;font-stretch:normal;font-variant:normal;font-variant-ligatures:normal;font-variant-caps:normal;font-variant-numeric:normal;font-variant-east-asian:normal"
       x="1163.1321"
       y="463.78055"
       id="text31"><tspan
         sodipodi:role="line"
         id="tspan31"
         x="1163.1321"
         y="463.78055">19</tspan></text><text
       xml:space="preserve"
       style="font-weight:normal;font-size:63.23809433px;line-height:1;font-family:sans-serif;-inkscape-font-specification:'sans-serif, Normal';text-align:center;writing-mode:lr-tb;direction:ltr;text-anchor:middle;fill:#000000;stroke:none;stroke-width:32.4;stroke-linejoin:round;font-style:normal;font-stretch:normal;font-variant:normal;font-variant-ligatures:normal;font-variant-caps:normal;font-variant-numeric:normal;font-variant-east-asian:normal"
       x="826.95264"
       y="247.84041"
       id="text32"><tspan
         sodipodi:role="line"
         id="tspan32"
         x="826.95264"
         y="247.84041">18</tspan></text><text
       xml:space="preserve"
       style="font-weight:normal;font-size:63.23809433px;line-height:1;font-family:sans-serif;-inkscape-font-specification:'sans-serif, Normal';text-align:center;writing-mode:lr-tb;direction:ltr;text-anchor:middle;fill:#000000;stroke:none;stroke-width:32.4;stroke-linejoin:round;font-style:normal;font-stretch:normal;font-variant:normal;font-variant-ligatures:normal;font-variant-caps:normal;font-variant-numeric:normal;font-variant-east-asian:normal"
       x="765.60596"
       y="561.93518"
       id="text33"><tspan
         sodipodi:role="line"
         id="tspan33"
         x="765.60596"
         y="561.93518">16</tspan></text><text
       xml:space="preserve"
       style="font-weight:normal;font-size:63.23809433px;line-height:1;font-family:sans-serif;-inkscape-font-specification:'sans-serif, Normal';text-align:center;writing-mode:lr-tb;direction:ltr;text-anchor:middle;fill:#000000;stroke:none;stroke-width:32.4;stroke-linejoin:round;font-style:normal;font-stretch:normal;font-variant:normal;font-variant-ligatures:normal;font-variant-caps:normal;font-variant-numeric:normal;font-variant-east-asian:normal"
       x="944.73816"
       y="745.97504"
       id="text34"><tspan
         sodipodi:role="line"
         id="tspan34"
         x="944.73816"
         y="745.97504">17</tspan></text><text
       xml:space="preserve"
       style="font-weight:normal;font-size:63.23809433px;line-height:1;font-family:sans-serif;-inkscape-font-specification:'sans-serif, Normal';text-align:center;writing-mode:lr-tb;direction:ltr;text-anchor:middle;fill:#000000;stroke:none;stroke-width:32.4;stroke-linejoin:round;font-style:normal;font-stretch:normal;font-variant:normal;font-variant-ligatures:normal;font-variant-caps:normal;font-variant-numeric:normal;font-variant-east-asian:normal"
       x="674.81299"
       y="711.62091"
       id="text35"><tspan
         sodipodi:role="line"
         id="tspan35"
         x="674.81299"
         y="711.62091">15</tspan></text><text
       xml:space="preserve"
       style="font-weight:normal;font-size:63.23809433px;line-height:1;font-family:sans-serif;-inkscape-font-specification:'sans-serif, Normal';text-align:center;writing-mode:lr-tb;direction:ltr;text-anchor:middle;fill:#000000;stroke:none;stroke-width:32.4;stroke-linejoin:round;font-style:normal;font-stretch:normal;font-variant:normal;font-variant-ligatures:normal;font-variant-caps:normal;font-variant-numeric:normal;font-variant-east-asian:normal"
       x="561.93512"
       y="883.39148"
       id="text36"><tspan
         sodipodi:role="line"
         id="tspan36"
         x="561.93512"
         y="883.39148">14</tspan></text><text
       xml:space="preserve"
       style="font-weight:normal;font-size:63.23809433px;line-height:1;font-family:sans-serif;-inkscape-font-specification:'sans-serif, Normal';text-align:center;writing-mode:lr-tb;direction:ltr;text-anchor:middle;fill:#000000;stroke:none;stroke-width:32.4;stroke-linejoin:round;font-style:normal;font-stretch:normal;font-variant:normal;font-variant-ligatures:normal;font-variant-caps:normal;font-variant-numeric:normal;font-variant-east-asian:normal"
       x="215.94016"
       y="1084.6084"
       id="text37"><tspan
         sodipodi:role="line"
         id="tspan37"
         x="215.94016"
         y="1084.6084">9</tspan></text><text
       xml:space="preserve"
       style="font-weight:normal;font-size:63.23809433px;line-height:1;font-family:sans-serif;-inkscape-font-specification:'sans-serif, Normal';text-align:center;writing-mode:lr-tb;direction:ltr;text-anchor:middle;fill:#000000;stroke:none;stroke-width:32.4;stroke-linejoin:round;font-style:normal;font-stretch:normal;font-variant:normal;font-variant-ligatures:normal;font-variant-caps:normal;font-variant-numeric:normal;font-variant-east-asian:normal"
       x="907.93011"
       y="1055.1621"
       id="text38"><tspan
         sodipodi:role="line"
         id="tspan38"
         x="907.93011"
         y="1055.1621">13</tspan></text><text
       xml:space="preserve"
       style="font-weight:normal;font-size:63.23809433px;line-height:1;font-family:sans-serif;-inkscape-font-specification:'sans-serif, Normal';text-align:center;writing-mode:lr-tb;direction:ltr;text-anchor:middle;fill:#000000;stroke:none;stroke-width:32.4;stroke-linejoin:round;font-style:normal;font-stretch:normal;font-variant:normal;font-variant-ligatures:normal;font-variant-caps:normal;font-variant-numeric:normal;font-variant-east-asian:normal"
       x="785.23688"
       y="1195.0325"
       id="text39"><tspan
         sodipodi:role="line"
         id="tspan39"
         x="785.23688"
         y="1195.0325">12</tspan></text><text
       xml:space="preserve"
       style="font-weight:normal;font-size:63.23809433px;line-height:1;font-family:sans-serif;-inkscape-font-specification:'sans-serif, Normal';text-align:center;writing-mode:lr-tb;direction:ltr;text-anchor:middle;fill:#000000;stroke:none;stroke-width:32.4;stroke-linejoin:round;font-style:normal;font-stretch:normal;font-variant:normal;font-variant-ligatures:normal;font-variant-caps:normal;font-variant-numeric:normal;font-variant-east-asian:normal"
       x="691.98999"
       y="1352.0797"
       id="text40"><tspan
         sodipodi:role="line"
         id="tspan40"
         x="691.98999"
         y="1352.0797">11</tspan></text><text
       xml:space="preserve"
       style="font-weight:normal;font-size:63.23809433px;line-height:1;font-family:sans-serif;-inkscape-font-specification:'sans-serif, Normal';text-align:center;writing-mode:lr-tb;direction:ltr;text-anchor:middle;fill:#000000;stroke:none;stroke-width:32.4;stroke-linejoin:round;font-style:normal;font-stretch:normal;font-variant:normal;font-variant-ligatures:normal;font-variant-caps:normal;font-variant-numeric:normal;font-variant-east-asian:normal"
       x="552.11969"
       y="1504.2194"
       id="text41"><tspan
         sodipodi:role="line"
         id="tspan41"
         x="552.11969"
         y="1504.2194">10</tspan></text><text
       xml:space="preserve"
       style="font-weight:normal;font-size:63.23809433px;line-height:1;font-family:sans-serif;-inkscape-font-specification:'sans-serif, Normal';text-align:center;writing-mode:lr-tb;direction:ltr;text-anchor:middle;fill:#000000;stroke:none;stroke-width:32.4;stroke-linejoin:round;font-style:normal;font-stretch:normal;font-variant:normal;font-variant-ligatures:normal;font-variant-caps:normal;font-variant-numeric:normal;font-variant-east-asian:normal"
       x="1231.8403"
       y="996.26935"
       id="text42"><tspan
         sodipodi:role="line"
         id="tspan42"
         x="1231.8403"
         y="996.26935">3</tspan></text><text
       xml:space="preserve"
       style="font-weight:normal;font-size:63.23809433px;line-height:1;font-family:sans-serif;-inkscape-font-specification:'sans-serif, Normal';text-align:center;writing-mode:lr-tb;direction:ltr;text-anchor:middle;fill:#000000;stroke:none;stroke-width:32.4;stroke-linejoin:round;font-style:normal;font-stretch:normal;font-variant:normal;font-variant-ligatures:normal;font-variant-caps:normal;font-variant-numeric:normal;font-variant-east-asian:normal"
       x="1337.3567"
       y="1197.4863"
       id="text43"><tspan
         sodipodi:role="line"
         id="tspan43"
         x="1337.3567"
         y="1197.4863">4</tspan></text><text
       xml:space="preserve"
       style="font-weight:normal;font-size:63.23809433px;line-height:1;font-family:sans-serif;-inkscape-font-specification:'sans-serif, Normal';text-align:center;writing-mode:lr-tb;direction:ltr;text-anchor:middle;fill:#000000;stroke:none;stroke-width:32.4;stroke-linejoin:round;font-style:normal;font-stretch:normal;font-variant:normal;font-variant-ligatures:normal;font-variant-caps:normal;font-variant-numeric:normal;font-variant-east-asian:normal"
       x="1793.7755"
       y="1383.98"
       id="text44"><tspan
         sodipodi:role="line"
         id="tspan44"
         x="1793.7755"
         y="1383.98">5</tspan></text><text
       xml:space="preserve"
       style="font-weight:normal;font-size:63.23809433px;line-height:1;font-family:sans-serif;-inkscape-font-specification:'sans-serif, Normal';text-align:center;writing-mode:lr-tb;direction:ltr;text-anchor:middle;fill:#000000;stroke:none;stroke-width:32.4;stroke-linejoin:round;font-style:normal;font-stretch:normal;font-variant:normal;font-variant-ligatures:normal;font-variant-caps:normal;font-variant-numeric:normal;font-variant-east-asian:normal"
       x="1582.743"
       y="1457.5959"
       id="text45"><tspan
         sodipodi:role="line"
         id="tspan45"
         x="1582.743"
         y="1457.5959">6</tspan></text><text
       xml:space="preserve"
       style="font-weight:normal;font-size:63.23809433px;line-height:1;font-family:sans-serif;-inkscape-font-specification:'sans-serif, Normal';text-align:center;writing-mode:lr-tb;direction:ltr;text-anchor:middle;fill:#000000;stroke:none;stroke-width:32.4;stroke-linejoin:round;font-style:normal;font-stretch:normal;font-variant:normal;font-variant-ligatures:normal;font-variant-caps:normal;font-variant-numeric:normal;font-variant-east-asian:normal"
       x="1150.8628"
       y="1383.9801"
       id="text46"><tspan
         sodipodi:role="line"
         id="tspan46"
         x="1150.8628"
         y="1383.9801">7</tspan></text><text
       xml:space="preserve"
       style="font-weight:normal;font-size:63.23809433px;line-height:1;font-family:sans-serif;-inkscape-font-specification:'sans-serif, Normal';text-align:center;writing-mode:lr-tb;direction:ltr;text-anchor:middle;fill:#000000;stroke:none;stroke-width:32.4;stroke-linejoin:round;font-style:normal;font-stretch:normal;font-variant:normal;font-variant-ligatures:normal;font-variant-caps:normal;font-variant-numeric:normal;font-variant-east-asian:normal"
       x="1285.8254"
       y="1577.8354"
       id="text47"><tspan
         sodipodi:role="line"
         id="tspan47"
         x="1285.8254"
         y="1577.8354">20</tspan></text><text
       xml:space="preserve"
       style="font-weight:normal;font-size:63.23809433px;line-height:1;font-family:sans-serif;-inkscape-font-specification:'sans-serif, Normal';text-align:center;writing-mode:lr-tb;direction:ltr;text-anchor:middle;fill:#000000;stroke:none;stroke-width:32.4;stroke-linejoin:round;font-style:normal;font-stretch:normal;font-variant:normal;font-variant-ligatures:normal;font-variant-caps:normal;font-variant-numeric:normal;font-variant-east-asian:normal"
       x="873.57605"
       y="1803.5909"
       id="text48"><tspan
         sodipodi:role="line"
         id="tspan48"
         x="873.57605"
         y="1803.5909">8</tspan></text></g><path
     id="rect1-2"
     style="baseline-shift:baseline;display:inline;overflow:visible;vector-effect:none;fill:#ffffff;stroke-width:0.182241;stroke-linejoin:round;enable-background:accumulate;stop-color:#000000"
     d="m 1792.4241,1036.8703 c -3.2592,0 -5.9552,2.6962 -5.9552,5.9555 v 15.8833 c 1.5905,0 3.1373,0.01 4.6212,0.025 v -15.9079 c 0,-0.7792 0.5549,-1.3344 1.334,-1.3344 h 25.0785 c 0.7791,0 1.334,0.5552 1.334,1.3344 v 40.859 c 0,0.7792 -0.5549,1.3344 -1.334,1.3344 h -25.0785 c -0.7791,0 -1.334,-0.5552 -1.334,-1.3344 v -15.9079 c -1.4839,0.016 -3.0307,0.024 -4.6212,0.024 v 15.8833 c 0,3.2594 2.696,5.9555 5.9552,5.9555 h 25.0785 c 3.2593,0 5.9552,-2.6961 5.9552,-5.9555 v -40.859 c 0,-3.2593 -2.6959,-5.9556 -5.9552,-5.9556 z m 10.9353,19.7279 0.01,4.3724 h -16.9342 v 4.6399 h 16.9412 l 0.01,4.3724 11.5811,-6.7102 z" /></svg>
