<?xml version="1.0" encoding="UTF-8" standalone="no"?>
<!-- Created with Inkscape (http://www.inkscape.org/) -->

<svg
   version="1.1"
   id="svg1"
   width="1414.6667"
   height="2070.6667"
   viewBox="0 0 1414.6667 2070.6667"
   sodipodi:docname="Sunset Canyon.svg"
   inkscape:version="1.4.2 (ebf0e940d0, 2025-05-08)"
   xml:space="preserve"
   xmlns:inkscape="http://www.inkscape.org/namespaces/inkscape"
   xmlns:sodipodi="http://sodipodi.sourceforge.net/DTD/sodipodi-0.dtd"
   xmlns="http://www.w3.org/2000/svg"
   xmlns:svg="http://www.w3.org/2000/svg"><defs
     id="defs1" /><sodipodi:namedview
     id="namedview1"
     pagecolor="#ffffff"
     bordercolor="#000000"
     borderopacity="0.25"
     inkscape:showpageshadow="2"
     inkscape:pageopacity="0.0"
     inkscape:pagecheckerboard="0"
     inkscape:deskcolor="#d1d1d1"
     inkscape:zoom="0.38731486"
     inkscape:cx="623.52371"
     inkscape:cy="1048.2428"
     inkscape:window-width="1920"
     inkscape:window-height="1008"
     inkscape:window-x="0"
     inkscape:window-y="0"
     inkscape:window-maximized="1"
     inkscape:current-layer="layer4" /><rect
     style="fill:#1a1a1a;stroke:none;stroke-width:32.4;stroke-linejoin:round"
     id="rect12"
     width="1414.6667"
     height="2070.6667"
     x="0"
     y="0"
     inkscape:label="bg" /><g
     inkscape:groupmode="layer"
     id="layer1"
     inkscape:label="Roads"><path
       style="baseline-shift:baseline;display:inline;overflow:visible;vector-effect:none;fill:#999999;stroke-linejoin:round;enable-background:accumulate;stop-color:#000000;stop-opacity:1;opacity:1"
       d="M 1345.8438,85.451172 1238.1289,286.27539 a 16.201621,16.201621 0 0 0 -1.6348,4.61133 l -72.8925,380.85937 -81.9571,287.76758 a 16.201621,16.201621 0 0 0 -0.4726,2.24805 l -5.4766,40.16408 a 16.201621,16.201621 0 0 0 0.9942,8.164 l 91.2832,230.0352 a 16.201621,16.201621 0 0 0 1.4062,2.7461 l 77.7754,121.7344 -102.3984,129.7031 a 16.201621,16.201621 0 0 0 -2.7871,5.334 l -80.3282,264.7226 a 16.201621,16.201621 0 0 0 -0.6992,4.7032 v 181.4336 l -7.3301,5.1328 -233.04685,5.3574 -54.21093,-311.2793 -25.47852,-181.9941 -25.47461,-251.0997 -0.0449,-1.3007 35.6289,-1.1739 3.24805,175.4864 a 16.201621,16.201621 0 0 0 16.50391,15.8964 l 96.75976,-1.8261 a 16.201621,16.201621 0 0 0 15.89063,-15.8907 l 3.65234,-193.5214 a 16.201621,16.201621 0 0 0 -16.73047,-16.4961 l -156.07031,5.1445 -7.92383,-229.85742 7.33008,-163.73633 208.66211,19.12695 a 16.201621,16.201621 0 0 0 17.5332,-13.95508 l 14.60547,-107.71484 a 16.201621,16.201621 0 0 0 -13.96484,-18.24219 l -219.05664,-28.49414 6.7539,-111.4375 23.73047,-368.7539 -32.33203,-2.08008 -23.73437,368.7832 a 16.201621,16.201621 0 0 0 -0.004,0.0605 l -10.95312,180.74023 a 16.201621,16.201621 0 0 0 -0.0137,0.25586 l -5.59765,125.01563 -153.10547,-3.5625 a 16.201621,16.201621 0 0 0 -16.57617,16.05468 l -1.82618,209.95318 a 16.201621,16.201621 0 0 0 15.83985,16.3359 l 154.48828,3.4336 4.94531,143.4121 a 16.201621,16.201621 0 0 0 0.0723,1.0781 l 25.56054,251.9414 a 16.201621,16.201621 0 0 0 0.0723,0.6114 l 25.56055,182.5664 a 16.201621,16.201621 0 0 0 0.084,0.5332 l 53.42188,306.7382 -201.92578,4.6426 -31.2461,-14.9433 -71.40234,-346.3047 a 16.201621,16.201621 0 0 0 -1.08594,-3.3594 l -111.57812,-248.748 145.73437,3.2011 a 16.201621,16.201621 0 0 0 16.55469,-16.4648 l -1.82617,-109.541 a 16.201621,16.201621 0 0 0 -16.33789,-15.9278 l -205.55274,1.7852 -25.99023,-57.9414 a 16.201621,16.201621 0 0 0 -0.60743,-1.2129 l -150.70312,-272.35548 -11.64648,-38.26758 -1.63672,-60.00977 64.38281,-1.49609 a 16.201621,16.201621 0 0 0 15.8125,-16.80469 L 185.97461,428.42187 a 16.201621,16.201621 0 0 0 -16.99609,-15.57031 l -60.51954,3.02539 -4.63281,-169.85351 -32.38867,0.88281 16.431641,602.46875 a 16.201621,16.201621 0 0 0 0.695312,4.27539 l 12.779297,41.99023 a 16.201621,16.201621 0 0 0 1.32422,3.12696 l 151.20117,273.25582 197.99219,441.3965 72.66992,352.4395 a 16.201621,16.201621 0 0 0 8.875,11.3437 l 41.99023,20.0821 a 16.201621,16.201621 0 0 0 7.36329,1.582 l 476.49803,-10.9551 a 16.201621,16.201621 0 0 0 8.918,-2.9238 l 18.2558,-12.7793 a 16.201621,16.201621 0 0 0 6.9102,-13.2715 v -187.4648 l 22.0645,-72.711 43.0156,-12.7461 a 16.201621,16.201621 0 0 0 7.7441,-5.0449 l 175.2637,-206.2988 a 16.201621,16.201621 0 0 0 1.2988,-19.2227 l -58.4219,-91.2832 -1.4628,0.9356 a 16.201621,16.201621 0 0 0 -2.1817,-8.2266 l -83.1465,-130.1426 -89.1426,-224.6406 4.7461,-34.81055 81.8399,-287.34766 a 16.201621,16.201621 0 0 0 0.332,-1.39257 l 72.5606,-379.13282 106.5449,-198.64257 z m -756.4395,106.751948 -32.29297,2.63477 6.93554,84.94531 -10.61132,21.22071 -112.31836,16.04492 -21.06641,-17.34766 -15.29883,-76.49609 -31.77148,6.35351 16.43164,82.15625 a 16.201621,16.201621 0 0 0 5.58594,9.32813 l 31.03711,25.55859 a 16.201621,16.201621 0 0 0 12.58984,3.53125 l 127.79687,-18.25586 a 16.201621,16.201621 0 0 0 12.19727,-8.79297 l 16.43164,-32.86132 a 16.201621,16.201621 0 0 0 1.65625,-8.5625 z M 154.21484,446.0293 165.75977,752.79102 117.67773,753.9082 109.3418,448.27344 Z m 565.24414,226.45312 200.68946,26.10547 -10.33203,76.20117 -194.72071,-17.84961 2.13672,-47.72851 z m -177.61132,189.37891 75.37109,1.75195 -1.6582,177.45122 -75.25586,-1.6719 z m 107.76562,2.5039 28.21094,0.65625 -3.90625,87.25 a 16.201621,16.201621 0 0 0 -0.008,1.28321 l 3.06445,88.87501 -29.01953,-0.6445 z m 204.70899,346.37307 -3.03516,160.8633 -64.96094,1.2246 -2.95703,-159.75 z m -355.41407,36.0976 1.27539,76.6368 -144.29297,-3.1739 -32.26757,-71.9375 z m 766.1563,147.3711 43.916,68.6172 -164.3848,193.4961 -17.9219,5.3106 45.4102,-149.6485 z"
       id="path11" /><path
       style="fill:#4d4d4d;stroke-width:32.4;stroke-linejoin:round"
       d="M 1414.6667,109.53984 V 63.898239 L 1221.3692,52.944255 1027.8488,69.375231 785.0355,116.84249 659.06469,146.05312 483.80095,178.91507 244.63897,206.30003 41.990271,219.07968 0,217.25401 v 52.94426 l 195.34604,-10.95399 188.04339,-18.25664 189.86905,-29.21062 193.52038,-41.99027 292.10624,-54.76992 220.9053,-9.12832 z"
       id="path1" /></g><g
     inkscape:groupmode="layer"
     id="layer3"
     inkscape:label="Buildings"><path
       style="fill:#ffffff;stroke:none;stroke-width:32.4;stroke-linejoin:round"
       d="m 1179.9186,216.87781 -43.892,187.18621 -67.1288,-15.49127 49.0557,-184.60433 z"
       id="path12" /><path
       style="fill:#ffffff;stroke:none;stroke-width:32.4;stroke-linejoin:round"
       d="m 1139.8995,435.04657 -38.7282,176.85869 -81.3292,-14.20033 45.1829,-179.44058 z"
       id="path13" /><path
       style="fill:#ffffff;stroke:none;stroke-width:32.4;stroke-linejoin:round"
       d="M 1085.68,641.59687 1055.9884,795.21865 988.85956,782.30926 1022.424,628.68747 Z"
       id="path14" /><path
       style="fill:#ffffff;stroke:none;stroke-width:32.4;stroke-linejoin:round"
       d="m 994.02331,535.73984 -11.61845,78.7473 -238.82378,-30.98255 10.32751,-78.7473 z"
       id="path15" /><path
       style="fill:#ffffff;stroke:none;stroke-width:32.4;stroke-linejoin:round"
       d="m 809.41898,263.35163 -27.10972,211.71406 40.01912,3.87282 27.10972,-213.005 z"
       id="path16" /><path
       style="fill:#ffffff;stroke:none;stroke-width:32.4;stroke-linejoin:round"
       d="m 1052.1156,839.11059 -43.892,200.09561 -85.20195,-16.7822 47.76475,-196.22281 z"
       id="path17" /><path
       style="fill:#ffffff;stroke:none;stroke-width:32.4;stroke-linejoin:round"
       d="m 821.03744,848.14716 -3.87282,184.60434 -80.03824,-1.2909 -1.29094,-187.18625 z"
       id="path18" /><path
       style="fill:#ffffff;stroke:none;stroke-width:32.4;stroke-linejoin:round"
       d="m 944.96762,1068.8978 -1.29094,61.9651 -210.42312,-2.5819 2.58188,-54.2194 z"
       id="path19" /><path
       style="fill:#ffffff;stroke:none;stroke-width:32.4;stroke-linejoin:round"
       d="m 994.11506,1173.4639 2.58188,219.4597 h -69.89422 l 1.29094,-219.4597 z"
       id="path20"
       sodipodi:nodetypes="ccccc" /><path
       style="fill:#ffffff;stroke:none;stroke-width:32.4;stroke-linejoin:round"
       d="m 1000.478,1086.9709 78.7473,203.9685 50.3466,-21.946 -78.7473,-198.8047 z"
       id="path21" /><path
       style="fill:#ffffff;stroke:none;stroke-width:32.4;stroke-linejoin:round"
       d="m 1157.9726,1345.1588 -81.3292,153.6218 -63.256,-37.4372 81.3292,-148.4581 z"
       id="path22" /><path
       style="fill:#ffffff;stroke:none;stroke-width:32.4;stroke-linejoin:round"
       d="m 1068.8978,1534.9269 -64.547,233.66 -71.00164,-19.3641 68.41974,-231.0781 z"
       id="path23" /><path
       style="fill:#ffffff;stroke:none;stroke-width:32.4;stroke-linejoin:round"
       d="m 939.80386,1452.3068 -3.87282,77.4564 -163.9493,-1.291 -1.29094,-77.4564 z"
       id="path24" /><path
       style="fill:#ffffff;stroke:none;stroke-width:32.4;stroke-linejoin:round"
       d="m 835.32951,1563.2358 32.27349,187.1863 -53.02026,16.8739 -34.85536,-189.7681 z"
       id="path25"
       sodipodi:nodetypes="ccccc" /><path
       style="fill:#ffffff;stroke:none;stroke-width:32.4;stroke-linejoin:round"
       d="m 1030.1696,1816.3517 -2.5819,81.3292 -198.80463,1.2909 1.29094,-83.911 z"
       id="path26" /><path
       style="fill:#ffffff;stroke:none;stroke-width:32.4;stroke-linejoin:round"
       d="m 738.41732,1809.897 -1.29094,78.7473 -166.53118,-1.2909 5.16376,-80.0383 z"
       id="path27" /><path
       style="fill:#ffffff;stroke:none;stroke-width:32.4;stroke-linejoin:round"
       d="m 658.37908,1537.5088 -2.58188,247.8603 -73.58355,-2.5818 3.87282,-249.1513 z"
       id="path28" /><path
       style="fill:#ffffff;stroke:none;stroke-width:32.4;stroke-linejoin:round"
       d="m 664.83377,1404.542 -1.29094,82.6202 -179.44057,1.2909 1.29094,-83.9111 z"
       id="path29" /><path
       style="fill:#ffffff;stroke:none;stroke-width:32.4;stroke-linejoin:round"
       d="m 635.14217,1368.3957 -1.29094,-231.0781 h -58.09227 l 1.29094,229.7872 z"
       id="path30" /><path
       style="fill:#ffffff;stroke:none;stroke-width:32.4;stroke-linejoin:round"
       d="m 502.17541,1074.0616 v 83.911 l -174.27681,-1.2909 1.29094,-86.493 z"
       id="path31" /><path
       style="fill:#ffffff;stroke:none;stroke-width:32.4;stroke-linejoin:round"
       d="m 447.95596,804.25523 5.16376,214.29597 -55.51039,-1.291 V 802.96429 Z"
       id="path32" /><path
       style="fill:#ffffff;stroke:none;stroke-width:32.4;stroke-linejoin:round"
       d="M 220.75063,822.32838 343.38987,1034.0424 277.55196,1071.4797 157.4946,861.05656 Z"
       id="path33" /><path
       style="fill:#ffffff;stroke:none;stroke-width:32.4;stroke-linejoin:round"
       d="M 624.81465,769.39986 641.59687,602.86868 570.5952,597.70493 551.23111,762.94517 Z"
       id="path34" /><path
       style="fill:#ffffff;stroke:none;stroke-width:32.4;stroke-linejoin:round"
       d="m 487.97508,667.41565 v 95.52952 l -203.96842,-2.58188 3.87282,-90.36576 z"
       id="path35" /><path
       style="fill:#ffffff;stroke:none;stroke-width:32.4;stroke-linejoin:round"
       d="m 651.92438,385.99087 -3.87282,172.98588 h -74.87448 l 6.4547,-174.27682 z"
       id="path36" /><path
       style="fill:#ffffff;stroke:none;stroke-width:32.4;stroke-linejoin:round"
       d="M 314.98921,627.39653 V 423.42811 l -90.36576,-1.29094 6.4547,209.13218 z"
       id="path37" /><path
       style="fill:#ffffff;stroke:none;stroke-width:32.4;stroke-linejoin:round"
       d="m 360.17208,374.37242 -3.87281,-55.5104 -215.58688,18.07315 2.58188,58.09228 z"
       id="path38" /></g><g
     inkscape:groupmode="layer"
     id="layer4"
     inkscape:label="Labels"><text
       xml:space="preserve"
       style="font-weight:normal;font-size:43.73336029px;line-height:1;font-family:sans-serif;-inkscape-font-specification:'sans-serif, Normal';text-align:center;writing-mode:lr-tb;direction:ltr;text-anchor:middle;fill:#000000;stroke:none;stroke-width:32.4;stroke-linejoin:round;font-style:normal;font-stretch:normal;font-variant:normal;font-variant-ligatures:normal;font-variant-caps:normal;font-variant-numeric:normal;font-variant-east-asian:normal"
       x="251.08771"
       y="372.436"
       id="text38"><tspan
         sodipodi:role="line"
         id="tspan38"
         x="251.08771"
         y="372.436">3</tspan></text><text
       xml:space="preserve"
       style="font-weight:normal;font-size:43.73336029px;line-height:1;font-family:sans-serif;-inkscape-font-specification:'sans-serif, Normal';text-align:center;writing-mode:lr-tb;direction:ltr;text-anchor:middle;fill:#000000;stroke:none;stroke-width:32.4;stroke-linejoin:round;font-style:normal;font-stretch:normal;font-variant:normal;font-variant-ligatures:normal;font-variant-caps:normal;font-variant-numeric:normal;font-variant-east-asian:normal"
       x="272.38821"
       y="537.03076"
       id="text39"><tspan
         sodipodi:role="line"
         id="tspan39"
         x="272.38821"
         y="537.03076">4</tspan></text><text
       xml:space="preserve"
       style="font-weight:normal;font-size:43.73336029px;line-height:1;font-family:sans-serif;-inkscape-font-specification:'sans-serif, Normal';text-align:center;writing-mode:lr-tb;direction:ltr;text-anchor:middle;fill:#000000;stroke:none;stroke-width:32.4;stroke-linejoin:round;font-style:normal;font-stretch:normal;font-variant:normal;font-variant-ligatures:normal;font-variant-caps:normal;font-variant-numeric:normal;font-variant-east-asian:normal"
       x="613.84167"
       y="488.62057"
       id="text40"><tspan
         sodipodi:role="line"
         id="tspan40"
         x="613.84167"
         y="488.62057">1</tspan></text><text
       xml:space="preserve"
       style="font-weight:normal;font-size:43.73336029px;line-height:1;font-family:sans-serif;-inkscape-font-specification:'sans-serif, Normal';text-align:center;writing-mode:lr-tb;direction:ltr;text-anchor:middle;fill:#000000;stroke:none;stroke-width:32.4;stroke-linejoin:round;font-style:normal;font-stretch:normal;font-variant:normal;font-variant-ligatures:normal;font-variant-caps:normal;font-variant-numeric:normal;font-variant-east-asian:normal"
       x="595.76855"
       y="697.10724"
       id="text41"><tspan
         sodipodi:role="line"
         id="tspan41"
         x="595.76855"
         y="697.10724">2</tspan></text><text
       xml:space="preserve"
       style="font-weight:normal;font-size:43.73336029px;line-height:1;font-family:sans-serif;-inkscape-font-specification:'sans-serif, Normal';text-align:center;writing-mode:lr-tb;direction:ltr;text-anchor:middle;fill:#000000;stroke:none;stroke-width:32.4;stroke-linejoin:round;font-style:normal;font-stretch:normal;font-variant:normal;font-variant-ligatures:normal;font-variant-caps:normal;font-variant-numeric:normal;font-variant-east-asian:normal"
       x="385.34543"
       y="733.25354"
       id="text42"><tspan
         sodipodi:role="line"
         id="tspan42"
         x="385.34543"
         y="733.25354">5</tspan></text><text
       xml:space="preserve"
       style="font-weight:normal;font-size:43.73336029px;line-height:1;font-family:sans-serif;-inkscape-font-specification:'sans-serif, Normal';text-align:center;writing-mode:lr-tb;direction:ltr;text-anchor:middle;fill:#000000;stroke:none;stroke-width:32.4;stroke-linejoin:round;font-style:normal;font-stretch:normal;font-variant:normal;font-variant-ligatures:normal;font-variant-caps:normal;font-variant-numeric:normal;font-variant-east-asian:normal"
       x="425.36453"
       y="929.47632"
       id="text43"><tspan
         sodipodi:role="line"
         id="tspan43"
         x="425.36453"
         y="929.47632">6</tspan></text><text
       xml:space="preserve"
       style="font-weight:normal;font-size:43.73336029px;line-height:1;font-family:sans-serif;-inkscape-font-specification:'sans-serif, Normal';text-align:center;writing-mode:lr-tb;direction:ltr;text-anchor:middle;fill:#000000;stroke:none;stroke-width:32.4;stroke-linejoin:round;font-style:normal;font-stretch:normal;font-variant:normal;font-variant-ligatures:normal;font-variant-caps:normal;font-variant-numeric:normal;font-variant-east-asian:normal"
       x="249.15129"
       y="964.33173"
       id="text44"><tspan
         sodipodi:role="line"
         id="tspan44"
         x="249.15129"
         y="964.33173">7</tspan></text><text
       xml:space="preserve"
       style="font-weight:normal;font-size:43.73336029px;line-height:1;font-family:sans-serif;-inkscape-font-specification:'sans-serif, Normal';text-align:center;writing-mode:lr-tb;direction:ltr;text-anchor:middle;fill:#000000;stroke:none;stroke-width:32.4;stroke-linejoin:round;font-style:normal;font-stretch:normal;font-variant:normal;font-variant-ligatures:normal;font-variant-caps:normal;font-variant-numeric:normal;font-variant-east-asian:normal"
       x="414.39154"
       y="1128.9265"
       id="text45"><tspan
         sodipodi:role="line"
         id="tspan45"
         x="414.39154"
         y="1128.9265">8</tspan></text><text
       xml:space="preserve"
       style="font-weight:normal;font-size:43.73336029px;line-height:1;font-family:sans-serif;-inkscape-font-specification:'sans-serif, Normal';text-align:center;writing-mode:lr-tb;direction:ltr;text-anchor:middle;fill:#000000;stroke:none;stroke-width:32.4;stroke-linejoin:round;font-style:normal;font-stretch:normal;font-variant:normal;font-variant-ligatures:normal;font-variant-caps:normal;font-variant-numeric:normal;font-variant-east-asian:normal"
       x="604.80511"
       y="1267.7024"
       id="text46"><tspan
         sodipodi:role="line"
         id="tspan46"
         x="604.80511"
         y="1267.7024">9</tspan></text><text
       xml:space="preserve"
       style="font-weight:normal;font-size:43.73336029px;line-height:1;font-family:sans-serif;-inkscape-font-specification:'sans-serif, Normal';text-align:center;writing-mode:lr-tb;direction:ltr;text-anchor:middle;fill:#000000;stroke:none;stroke-width:32.4;stroke-linejoin:round;font-style:normal;font-stretch:normal;font-variant:normal;font-variant-ligatures:normal;font-variant-caps:normal;font-variant-numeric:normal;font-variant-east-asian:normal"
       x="575.75897"
       y="1461.9889"
       id="text47"><tspan
         sodipodi:role="line"
         id="tspan47"
         x="575.75897"
         y="1461.9889">10</tspan></text><text
       xml:space="preserve"
       style="font-weight:normal;font-size:43.73336029px;line-height:1;font-family:sans-serif;-inkscape-font-specification:'sans-serif, Normal';text-align:center;writing-mode:lr-tb;direction:ltr;text-anchor:middle;fill:#000000;stroke:none;stroke-width:32.4;stroke-linejoin:round;font-style:normal;font-stretch:normal;font-variant:normal;font-variant-ligatures:normal;font-variant-caps:normal;font-variant-numeric:normal;font-variant-east-asian:normal"
       x="855.89276"
       y="1505.8807"
       id="text48"><tspan
         sodipodi:role="line"
         id="tspan48"
         x="855.89276"
         y="1505.8807">12</tspan></text><text
       xml:space="preserve"
       style="font-weight:normal;font-size:43.73336029px;line-height:1;font-family:sans-serif;-inkscape-font-specification:'sans-serif, Normal';text-align:center;writing-mode:lr-tb;direction:ltr;text-anchor:middle;fill:#000000;stroke:none;stroke-width:32.4;stroke-linejoin:round;font-style:normal;font-stretch:normal;font-variant:normal;font-variant-ligatures:normal;font-variant-caps:normal;font-variant-numeric:normal;font-variant-east-asian:normal"
       x="823.81012"
       y="1678.2212"
       id="text49"><tspan
         sodipodi:role="line"
         id="tspan49"
         x="823.81012"
         y="1678.2212">14</tspan></text><text
       xml:space="preserve"
       style="font-weight:normal;font-size:43.73336029px;line-height:1;font-family:sans-serif;-inkscape-font-specification:'sans-serif, Normal';text-align:center;writing-mode:lr-tb;direction:ltr;text-anchor:middle;fill:#000000;stroke:none;stroke-width:32.4;stroke-linejoin:round;font-style:normal;font-stretch:normal;font-variant:normal;font-variant-ligatures:normal;font-variant-caps:normal;font-variant-numeric:normal;font-variant-east-asian:normal"
       x="619.65094"
       y="1683.3849"
       id="text50"><tspan
         sodipodi:role="line"
         id="tspan50"
         x="619.65094"
         y="1683.3849">11</tspan></text><text
       xml:space="preserve"
       style="font-weight:normal;font-size:43.73336029px;line-height:1;font-family:sans-serif;-inkscape-font-specification:'sans-serif, Normal';text-align:center;writing-mode:lr-tb;direction:ltr;text-anchor:middle;fill:#000000;stroke:none;stroke-width:32.4;stroke-linejoin:round;font-style:normal;font-stretch:normal;font-variant:normal;font-variant-ligatures:normal;font-variant-caps:normal;font-variant-numeric:normal;font-variant-east-asian:normal"
       x="998.54163"
       y="1651.1115"
       id="text51"><tspan
         sodipodi:role="line"
         id="tspan51"
         x="998.54163"
         y="1651.1115">13</tspan></text><text
       xml:space="preserve"
       style="font-weight:normal;font-size:43.73336029px;line-height:1;font-family:sans-serif;-inkscape-font-specification:'sans-serif, Normal';text-align:center;writing-mode:lr-tb;direction:ltr;text-anchor:middle;fill:#000000;stroke:none;stroke-width:32.4;stroke-linejoin:round;font-style:normal;font-stretch:normal;font-variant:normal;font-variant-ligatures:normal;font-variant-caps:normal;font-variant-numeric:normal;font-variant-east-asian:normal"
       x="657.73364"
       y="1862.8256"
       id="text52"><tspan
         sodipodi:role="line"
         id="tspan52"
         x="657.73364"
         y="1862.8256">12</tspan></text><text
       xml:space="preserve"
       style="font-weight:normal;font-size:43.73336029px;line-height:1;font-family:sans-serif;-inkscape-font-specification:'sans-serif, Normal';text-align:center;writing-mode:lr-tb;direction:ltr;text-anchor:middle;fill:#000000;stroke:none;stroke-width:32.4;stroke-linejoin:round;font-style:normal;font-stretch:normal;font-variant:normal;font-variant-ligatures:normal;font-variant-caps:normal;font-variant-numeric:normal;font-variant-east-asian:normal"
       x="931.41278"
       y="1871.2167"
       id="text53"><tspan
         sodipodi:role="line"
         id="tspan53"
         x="931.41278"
         y="1871.2167">15</tspan></text><text
       xml:space="preserve"
       style="font-weight:normal;font-size:43.73336029px;line-height:1;font-family:sans-serif;-inkscape-font-specification:'sans-serif, Normal';text-align:center;writing-mode:lr-tb;direction:ltr;text-anchor:middle;fill:#000000;stroke:none;stroke-width:32.4;stroke-linejoin:round;font-style:normal;font-stretch:normal;font-variant:normal;font-variant-ligatures:normal;font-variant-caps:normal;font-variant-numeric:normal;font-variant-east-asian:normal"
       x="1084.389"
       y="1417.4514"
       id="text54"><tspan
         sodipodi:role="line"
         id="tspan54"
         x="1084.389"
         y="1417.4514">11</tspan></text><text
       xml:space="preserve"
       style="font-weight:normal;font-size:43.73336029px;line-height:1;font-family:sans-serif;-inkscape-font-specification:'sans-serif, Normal';text-align:center;writing-mode:lr-tb;direction:ltr;text-anchor:middle;fill:#000000;stroke:none;stroke-width:32.4;stroke-linejoin:round;font-style:normal;font-stretch:normal;font-variant:normal;font-variant-ligatures:normal;font-variant-caps:normal;font-variant-numeric:normal;font-variant-east-asian:normal"
       x="961.74982"
       y="1299.976"
       id="text55"><tspan
         sodipodi:role="line"
         id="tspan55"
         x="961.74982"
         y="1299.976">10</tspan></text><text
       xml:space="preserve"
       style="font-weight:normal;font-size:43.73336029px;line-height:1;font-family:sans-serif;-inkscape-font-specification:'sans-serif, Normal';text-align:center;writing-mode:lr-tb;direction:ltr;text-anchor:middle;fill:#000000;stroke:none;stroke-width:32.4;stroke-linejoin:round;font-style:normal;font-stretch:normal;font-variant:normal;font-variant-ligatures:normal;font-variant-caps:normal;font-variant-numeric:normal;font-variant-east-asian:normal"
       x="1059.8612"
       y="1184.4369"
       id="text56"><tspan
         sodipodi:role="line"
         id="tspan56"
         x="1059.8612"
         y="1184.4369">9</tspan></text><text
       xml:space="preserve"
       style="font-weight:normal;font-size:43.73336029px;line-height:1;font-family:sans-serif;-inkscape-font-specification:'sans-serif, Normal';text-align:center;writing-mode:lr-tb;direction:ltr;text-anchor:middle;fill:#000000;stroke:none;stroke-width:32.4;stroke-linejoin:round;font-style:normal;font-stretch:normal;font-variant:normal;font-variant-ligatures:normal;font-variant-caps:normal;font-variant-numeric:normal;font-variant-east-asian:normal"
       x="838.46509"
       y="1112.7897"
       id="text57"><tspan
         sodipodi:role="line"
         id="tspan57"
         x="838.46509"
         y="1112.7897">8</tspan></text><text
       xml:space="preserve"
       style="font-weight:normal;font-size:43.73336029px;line-height:1;font-family:sans-serif;-inkscape-font-specification:'sans-serif, Normal';text-align:center;writing-mode:lr-tb;direction:ltr;text-anchor:middle;fill:#000000;stroke:none;stroke-width:32.4;stroke-linejoin:round;font-style:normal;font-stretch:normal;font-variant:normal;font-variant-ligatures:normal;font-variant-caps:normal;font-variant-numeric:normal;font-variant-east-asian:normal"
       x="779.72736"
       y="952.06775"
       id="text58"><tspan
         sodipodi:role="line"
         id="tspan58"
         x="779.72736"
         y="952.06775">7</tspan></text><text
       xml:space="preserve"
       style="font-weight:normal;font-size:43.73336029px;line-height:1;font-family:sans-serif;-inkscape-font-specification:'sans-serif, Normal';text-align:center;writing-mode:lr-tb;direction:ltr;text-anchor:middle;fill:#000000;stroke:none;stroke-width:32.4;stroke-linejoin:round;font-style:normal;font-stretch:normal;font-variant:normal;font-variant-ligatures:normal;font-variant-caps:normal;font-variant-numeric:normal;font-variant-east-asian:normal"
       x="992.08691"
       y="943.03119"
       id="text59"><tspan
         sodipodi:role="line"
         id="tspan59"
         x="992.08691"
         y="943.03119">6</tspan></text><text
       xml:space="preserve"
       style="font-weight:normal;font-size:43.73336029px;line-height:1;font-family:sans-serif;-inkscape-font-specification:'sans-serif, Normal';text-align:center;writing-mode:lr-tb;direction:ltr;text-anchor:middle;fill:#000000;stroke:none;stroke-width:32.4;stroke-linejoin:round;font-style:normal;font-stretch:normal;font-variant:normal;font-variant-ligatures:normal;font-variant-caps:normal;font-variant-numeric:normal;font-variant-east-asian:normal"
       x="1040.4971"
       y="720.34418"
       id="text60"><tspan
         sodipodi:role="line"
         id="tspan60"
         x="1040.4971"
         y="720.34418">5</tspan></text><text
       xml:space="preserve"
       style="font-weight:normal;font-size:43.73336029px;line-height:1;font-family:sans-serif;-inkscape-font-specification:'sans-serif, Normal';text-align:center;writing-mode:lr-tb;direction:ltr;text-anchor:middle;fill:#000000;stroke:none;stroke-width:32.4;stroke-linejoin:round;font-style:normal;font-stretch:normal;font-variant:normal;font-variant-ligatures:normal;font-variant-caps:normal;font-variant-numeric:normal;font-variant-east-asian:normal"
       x="866.86572"
       y="571.24066"
       id="text61"><tspan
         sodipodi:role="line"
         id="tspan61"
         x="866.86572"
         y="571.24066">3</tspan></text><text
       xml:space="preserve"
       style="font-weight:normal;font-size:43.73336029px;line-height:1;font-family:sans-serif;-inkscape-font-specification:'sans-serif, Normal';text-align:center;writing-mode:lr-tb;direction:ltr;text-anchor:middle;fill:#000000;stroke:none;stroke-width:32.4;stroke-linejoin:round;font-style:normal;font-stretch:normal;font-variant:normal;font-variant-ligatures:normal;font-variant-caps:normal;font-variant-numeric:normal;font-variant-east-asian:normal"
       x="1080.5164"
       y="524.76685"
       id="text62"><tspan
         sodipodi:role="line"
         id="tspan62"
         x="1080.5164"
         y="524.76685">4</tspan></text><text
       xml:space="preserve"
       style="font-weight:normal;font-size:43.73336029px;line-height:1;font-family:sans-serif;-inkscape-font-specification:'sans-serif, Normal';text-align:center;writing-mode:lr-tb;direction:ltr;text-anchor:middle;fill:#000000;stroke:none;stroke-width:32.4;stroke-linejoin:round;font-style:normal;font-stretch:normal;font-variant:normal;font-variant-ligatures:normal;font-variant-caps:normal;font-variant-numeric:normal;font-variant-east-asian:normal"
       x="815.87372"
       y="387.2818"
       id="text63"><tspan
         sodipodi:role="line"
         id="tspan63"
         x="815.87372"
         y="387.2818">2</tspan></text><text
       xml:space="preserve"
       style="font-weight:normal;font-size:43.73336029px;line-height:1;font-family:sans-serif;-inkscape-font-specification:'sans-serif, Normal';text-align:center;writing-mode:lr-tb;direction:ltr;text-anchor:middle;fill:#000000;stroke:none;stroke-width:32.4;stroke-linejoin:round;font-style:normal;font-stretch:normal;font-variant:normal;font-variant-ligatures:normal;font-variant-caps:normal;font-variant-numeric:normal;font-variant-east-asian:normal"
       x="1126.3446"
       y="314.9892"
       id="text64"><tspan
         sodipodi:role="line"
         id="tspan64"
         x="1126.3446"
         y="314.9892">1</tspan></text><text
       xml:space="preserve"
       style="font-style:normal;font-variant:normal;font-weight:normal;font-stretch:normal;font-size:43.7334px;line-height:1;font-family:sans-serif;-inkscape-font-specification:'sans-serif, Normal';font-variant-ligatures:normal;font-variant-caps:normal;font-variant-numeric:normal;font-variant-east-asian:normal;text-align:center;writing-mode:lr-tb;direction:ltr;text-anchor:middle;fill:#ffffff;stroke:none;stroke-width:32.4;stroke-linejoin:round"
       x="892.8656"
       y="285.30551"
       id="text65"
       transform="rotate(-9.6109178)"><tspan
         sodipodi:role="line"
         id="tspan65"
         x="892.8656"
         y="285.30551">Thousand Oaks</tspan></text><text
       xml:space="preserve"
       style="font-weight:normal;font-size:64px;line-height:1;font-family:sans-serif;-inkscape-font-specification:'sans-serif, Normal';text-align:center;writing-mode:lr-tb;direction:ltr;text-anchor:middle;fill:#ffffff;stroke-width:32.4;stroke-linejoin:round;font-style:normal;font-stretch:normal;font-variant:normal;font-variant-ligatures:normal;font-variant-caps:normal;font-variant-numeric:normal;font-variant-east-asian:normal"
       x="152.33086"
       y="1288.3575"
       id="text1"><tspan
         sodipodi:role="line"
         id="tspan1"
         x="152.33086"
         y="1288.3575">T side</tspan></text><text
       xml:space="preserve"
       style="font-weight:normal;font-size:64px;line-height:1;font-family:sans-serif;-inkscape-font-specification:'sans-serif, Normal';text-align:center;writing-mode:lr-tb;direction:ltr;text-anchor:middle;fill:#ffffff;stroke-width:32.4;stroke-linejoin:round;font-style:normal;font-stretch:normal;font-variant:normal;font-variant-ligatures:normal;font-variant-caps:normal;font-variant-numeric:normal;font-variant-east-asian:normal"
       x="1257.375"
       y="981.11395"
       id="text2"><tspan
         sodipodi:role="line"
         id="tspan2"
         x="1257.375"
         y="981.11395">Q side</tspan></text></g><path
     id="rect1"
     style="baseline-shift:baseline;display:inline;overflow:visible;vector-effect:none;fill:#ffffff;stroke-width:0.118423;stroke-linejoin:round;enable-background:accumulate;stop-color:#000000"
     d="m 726.90417,152.75581 c -2.11794,0 -3.86979,1.75208 -3.86979,3.87002 v 10.32119 c 1.0335,0 2.03865,0.006 3.00291,0.016 v -10.33721 c 0,-0.5063 0.36058,-0.86711 0.86688,-0.86711 h 16.29631 c 0.5063,0 0.86688,0.36081 0.86688,0.86711 v 26.55075 c 0,0.50631 -0.36058,0.86712 -0.86688,0.86712 h -16.29631 c -0.5063,0 -0.86688,-0.36081 -0.86688,-0.86712 v -10.3372 c -0.96426,0.0105 -1.96941,0.016 -3.00291,0.016 v 10.32119 c 0,2.11794 1.75185,3.86995 3.86979,3.86995 h 16.29631 c 2.11794,0 3.86979,-1.75201 3.86979,-3.86995 V 156.6258 c 0,-2.11794 -1.75185,-3.87002 -3.86979,-3.87002 z m 7.1059,12.8195 0.004,2.84127 h -11.00408 v 3.01505 h 11.00905 l 0.004,2.84126 7.52556,-4.36039 z" /></svg>
