<?xml version="1.0" encoding="UTF-8" standalone="no"?>
<!-- Created with Inkscape (http://www.inkscape.org/) -->

<svg
   version="1.1"
   id="svg1"
   width="1822.6667"
   height="1390.6667"
   viewBox="0 0 1822.6667 1390.6667"
   sodipodi:docname="Thousand Oaks Condominiums.svg"
   inkscape:version="1.4.2 (ebf0e940d0, 2025-05-08)"
   xml:space="preserve"
   xmlns:inkscape="http://www.inkscape.org/namespaces/inkscape"
   xmlns:sodipodi="http://sodipodi.sourceforge.net/DTD/sodipodi-0.dtd"
   xmlns="http://www.w3.org/2000/svg"
   xmlns:svg="http://www.w3.org/2000/svg"><defs
     id="defs1" /><sodipodi:namedview
     id="namedview1"
     pagecolor="#ffffff"
     bordercolor="#000000"
     borderopacity="0.25"
     inkscape:showpageshadow="2"
     inkscape:pageopacity="0.0"
     inkscape:pagecheckerboard="0"
     inkscape:deskcolor="#d1d1d1"
     inkscape:zoom="0.40778975"
     inkscape:cx="876.67727"
     inkscape:cy="684.1761"
     inkscape:window-width="1920"
     inkscape:window-height="1008"
     inkscape:window-x="0"
     inkscape:window-y="0"
     inkscape:window-maximized="1"
     inkscape:current-layer="svg1" /><rect
     style="fill:#1a1a1a;stroke-width:65.7;stroke-linejoin:round"
     id="rect1"
     width="1822.6667"
     height="1390.6667"
     x="0"
     y="0"
     inkscape:label="bg" /><g
     inkscape:groupmode="layer"
     id="layer4"
     inkscape:label="Roads"><path
       style="baseline-shift:baseline;display:inline;overflow:visible;vector-effect:none;fill:#999999;stroke-linejoin:round;enable-background:accumulate;stop-color:#000000;stop-opacity:1;opacity:1"
       d="m 1013.8906,53.207031 a 16.201621,16.201621 0 0 0 -9.2734,2.087891 l -72.82814,41.615234 a 16.201621,16.201621 0 0 0 -5.21289,4.746094 L 548.56445,639.19727 a 16.201621,16.201621 0 0 0 -0.32617,0.48242 l -71.09375,109.24218 a 16.201621,16.201621 0 0 0 -1.93164,4.1543 l -82.24609,272.43553 -58.61719,68.3887 -233.76563,147.8223 17.31641,27.3847 235.82422,-149.125 a 16.201621,16.201621 0 0 0 3.64062,-3.1484 l 55.20704,-64.4082 296.26757,38.7168 a 16.201621,16.201621 0 0 0 5.15821,-0.1543 l 45.08398,-8.6699 a 16.201621,16.201621 0 0 0 8.98242,-5.0723 l 31.21289,-34.6797 a 16.201621,16.201621 0 0 0 2.95508,-4.7129 l 18.61524,-45.58788 101.93945,32.36138 a 16.201621,16.201621 0 0 0 6.51367,0.6796 l 34.67969,-3.4687 a 16.201621,16.201621 0 0 0 9.79883,-4.6192 l 223.6855,-221.95112 a 16.201621,16.201621 0 0 0 2.8731,-3.85742 l 171.666,-320.78907 a 16.201621,16.201621 0 0 0 1.916,-7.64257 V 451.0332 l 257.166,207.29297 -10.9101,50.46094 -117.0567,139.11133 24.7911,20.86133 119.6464,-142.1875 a 16.201621,16.201621 0 0 0 3.4375,-7.00782 l 13.8731,-64.1582 a 16.201621,16.201621 0 0 0 -5.668,-16.03516 L 1373.9199,409.41797 v -29.67188 a 16.201621,16.201621 0 0 0 -6.9082,-13.27148 l -104.041,-72.82813 -0.2383,0.3418 -14.1992,-53.64062 a 16.201621,16.201621 0 0 0 -5.5762,-8.53321 L 1022.7383,56.681641 a 16.201621,16.201621 0 0 0 -8.8477,-3.47461 z m -2.7285,35.664063 207.4238,164.958986 12.3067,46.48828 -174.2832,248.73242 a 16.201621,16.201621 0 0 0 -2.8965,8.21875 l -1.4082,21.11133 -105.88673,137.82031 -86.30078,96.6582 a 16.201621,16.201621 0 0 0 -2.91407,4.66602 l -83.89843,205.46481 -25.6836,28.5371 -37.17382,7.1504 L 427.94531,1021.7578 505.5625,764.6543 575.23437,657.5957 951,123.25 Z m 241.3731,237.019526 88.9863,62.28907 v 70.73633 l -168.6035,315.06445 -217.87894,216.1914 -25.63476,2.5625 -96.26953,-30.56054 53.00976,-129.81641 84.83984,-95.02344 a 16.201621,16.201621 0 0 0 0.76368,-0.91796 L 1080.9902,594.22656 a 16.201621,16.201621 0 0 0 3.3164,-8.79101 l 1.4336,-21.4961 z"
       id="path4" /><path
       style="fill:#4d4d4d;stroke-width:65.7;stroke-linejoin:round"
       d="m 0,1070.4046 226.83258,320.2621 H 129.96894 L 0,1205.278 Z"
       id="path1" /></g><g
     inkscape:groupmode="layer"
     id="layer5"
     inkscape:label="Buildings"><path
       style="fill:#ffffff;stroke:none;stroke-width:32.4;stroke-linejoin:round;stroke-dasharray:none"
       d="M 917.28517,215.01581 1108.025,367.60767 1189.5229,273.97175 993.5811,116.17789 Z"
       id="path5" /><path
       style="fill:#ffffff;stroke:none;stroke-width:32.4;stroke-linejoin:round;stroke-dasharray:none"
       d="M 873.93521,289.57774 1071.611,421.36162 998.7831,523.66753 801.10728,390.14965 Z"
       id="path6" /><path
       style="fill:#ffffff;stroke:none;stroke-width:32.4;stroke-linejoin:round;stroke-dasharray:none"
       d="m 750.82132,456.04159 -81.49792,112.7099 194.20782,130.04988 78.02993,-114.4439 z"
       id="path7" /><path
       style="fill:#ffffff;stroke:none;stroke-width:32.4;stroke-linejoin:round;stroke-dasharray:none"
       d="m 629.44143,620.77144 -86.69992,105.7739 199.40982,138.71988 65.89194,-86.69992 z"
       id="path8" /><path
       style="fill:#ffffff;stroke:none;stroke-width:32.4;stroke-linejoin:round;stroke-dasharray:none"
       d="m 511.52954,816.71326 -36.41397,128.31589 234.08979,57.22195 29.47797,-112.7099 z"
       id="path9" /><path
       style="fill:#ffffff;stroke:none;stroke-width:32.4;stroke-linejoin:round;stroke-dasharray:none"
       d="M 1158.311,759.49131 974.50712,948.49714 896.47719,868.73321 1071.611,686.66338 Z"
       id="path10" /><path
       style="fill:#ffffff;stroke:none;stroke-width:32.4;stroke-linejoin:round;stroke-dasharray:none"
       d="m 1359.4548,525.40153 84.9659,48.55195 -130.0499,246.22778 -91.9019,-45.08396 z"
       id="path11" /><path
       style="fill:#ffffff;stroke:none;stroke-width:32.4;stroke-linejoin:round;stroke-dasharray:none"
       d="m 1538.0566,629.44143 -133.5179,124.84789 71.094,71.09393 130.0498,-123.11388 z"
       id="path12" /><path
       style="fill:#ffffff;stroke:none;stroke-width:32.4;stroke-linejoin:round;stroke-dasharray:none"
       d="m 1219.0009,951.96514 -58.9559,-78.02993 -138.7199,107.5079 58.9559,74.56189 z"
       id="path13" /></g><g
     inkscape:groupmode="layer"
     id="layer6"
     inkscape:label="Labels"><text
       xml:space="preserve"
       style="font-weight:bold;font-size:32px;line-height:1;font-family:Sans;-inkscape-font-specification:'Sans, Bold';text-align:center;writing-mode:lr-tb;direction:ltr;text-anchor:middle;fill:#ffffff;stroke:none;stroke-width:32.4;stroke-linejoin:round;stroke-dasharray:none"
       x="1085.525"
       y="667.33496"
       id="text13"
       transform="rotate(54.813168)"><tspan
         sodipodi:role="line"
         id="tspan13"
         x="1085.525"
         y="667.33496">Thousand Oaks</tspan></text><text
       xml:space="preserve"
       style="font-weight:bold;font-size:48px;line-height:1;font-family:Sans;-inkscape-font-specification:'Sans, Bold';text-align:center;writing-mode:lr-tb;direction:ltr;text-anchor:middle;fill:#000000;stroke:none;stroke-width:32.4;stroke-linejoin:round;stroke-dasharray:none"
       x="1021.0852"
       y="841.01904"
       id="text14-5"><tspan
         sodipodi:role="line"
         id="tspan14-66"
         x="1021.0852"
         y="841.01904">?</tspan></text><text
       xml:space="preserve"
       style="font-weight:bold;font-size:48px;line-height:1;font-family:Sans;-inkscape-font-specification:'Sans, Bold';text-align:center;writing-mode:lr-tb;direction:ltr;text-anchor:middle;fill:#000000;stroke:none;stroke-width:32.4;stroke-linejoin:round;stroke-dasharray:none"
       x="1503.2872"
       y="746.22101"
       id="text14-6"><tspan
         sodipodi:role="line"
         id="tspan14-2"
         x="1503.2872"
         y="746.22101">?</tspan></text><text
       xml:space="preserve"
       style="font-weight:bold;font-size:48px;line-height:1;font-family:Sans;-inkscape-font-specification:'Sans, Bold';text-align:center;writing-mode:lr-tb;direction:ltr;text-anchor:middle;fill:#000000;stroke:none;stroke-width:32.4;stroke-linejoin:round;stroke-dasharray:none"
       x="596.49548"
       y="925.95514"
       id="text14"><tspan
         sodipodi:role="line"
         id="tspan14"
         x="596.49548"
         y="925.95514">?</tspan></text><text
       xml:space="preserve"
       style="font-weight:bold;font-size:48px;line-height:1;font-family:Sans;-inkscape-font-specification:'Sans, Bold';text-align:center;writing-mode:lr-tb;direction:ltr;text-anchor:middle;fill:#000000;stroke:none;stroke-width:32.4;stroke-linejoin:round;stroke-dasharray:none"
       x="669.61719"
       y="761.625"
       id="text14-0"><tspan
         sodipodi:role="line"
         id="tspan14-6"
         x="669.61719"
         y="761.625">?</tspan></text><text
       xml:space="preserve"
       style="font-weight:bold;font-size:48px;line-height:1;font-family:Sans;-inkscape-font-specification:'Sans, Bold';text-align:center;writing-mode:lr-tb;direction:ltr;text-anchor:middle;fill:#000000;stroke:none;stroke-width:32.4;stroke-linejoin:round;stroke-dasharray:none"
       x="802.61719"
       y="586.625"
       id="text14-8"><tspan
         sodipodi:role="line"
         id="tspan14-1"
         x="802.61719"
         y="586.625">?</tspan></text><text
       xml:space="preserve"
       style="font-weight:bold;font-size:48px;line-height:1;font-family:Sans;-inkscape-font-specification:'Sans, Bold';text-align:center;writing-mode:lr-tb;direction:ltr;text-anchor:middle;fill:#000000;stroke:none;stroke-width:32.4;stroke-linejoin:round;stroke-dasharray:none"
       x="927.61719"
       y="419.625"
       id="text14-3"><tspan
         sodipodi:role="line"
         id="tspan14-4"
         x="927.61719"
         y="419.625">?</tspan></text><text
       xml:space="preserve"
       style="font-weight:bold;font-size:48px;line-height:1;font-family:Sans;-inkscape-font-specification:'Sans, Bold';text-align:center;writing-mode:lr-tb;direction:ltr;text-anchor:middle;fill:#000000;stroke:none;stroke-width:32.4;stroke-linejoin:round;stroke-dasharray:none"
       x="1050.6172"
       y="258.625"
       id="text14-9"><tspan
         sodipodi:role="line"
         id="tspan14-69"
         x="1050.6172"
         y="258.625">?</tspan></text><text
       xml:space="preserve"
       style="font-weight:bold;font-size:48px;line-height:1;font-family:Sans;-inkscape-font-specification:'Sans, Bold';text-align:center;writing-mode:lr-tb;direction:ltr;text-anchor:middle;fill:#000000;stroke:none;stroke-width:32.4;stroke-linejoin:round;stroke-dasharray:none"
       x="1125.365"
       y="979.70911"
       id="text15"><tspan
         sodipodi:role="line"
         id="tspan15"
         x="1125.365"
         y="979.70911">2</tspan></text><text
       xml:space="preserve"
       style="font-weight:bold;font-size:48px;line-height:1;font-family:Sans;-inkscape-font-specification:'Sans, Bold';text-align:center;writing-mode:lr-tb;direction:ltr;text-anchor:middle;fill:#000000;stroke:none;stroke-width:32.4;stroke-linejoin:round;stroke-dasharray:none"
       x="1335.1788"
       y="690.13135"
       id="text16"><tspan
         sodipodi:role="line"
         id="tspan16"
         x="1335.1788"
         y="690.13135">45</tspan></text></g><path
     id="rect1-6"
     style="baseline-shift:baseline;display:inline;overflow:visible;vector-effect:none;fill:#ffffff;stroke-width:0.150941;stroke-linejoin:round;enable-background:accumulate;stop-color:#000000"
     d="m 120.38088,1219.3995 c -2.69952,0 -4.93242,2.2332 -4.93242,4.9327 v 13.1554 c 1.31728,0 2.59847,0.01 3.82751,0.02 v -13.1758 c 0,-0.6453 0.45959,-1.1052 1.10491,-1.1052 h 20.77122 c 0.64532,0 1.10491,0.4599 1.10491,1.1052 v 33.8415 c 0,0.6454 -0.45959,1.1053 -1.10491,1.1053 h -20.77122 c -0.64532,0 -1.10491,-0.4599 -1.10491,-1.1053 v -13.1757 c -1.22904,0.013 -2.51023,0.02 -3.82751,0.02 v 13.1554 c 0,2.6995 2.2329,4.9326 4.93242,4.9326 h 20.77122 c 2.69952,0 4.93242,-2.2331 4.93242,-4.9326 v -33.8415 c 0,-2.6995 -2.2329,-4.9327 -4.93242,-4.9327 z m 9.05714,16.3397 0.005,3.6215 H 115.4173 v 3.8429 h 14.03154 l 0.006,3.6215 9.59201,-5.5578 z" /></svg>
