<?xml version="1.0" encoding="UTF-8" standalone="no"?>
<!-- Created with Inkscape (http://www.inkscape.org/) -->

<svg
   version="1.1"
   id="svg1"
   width="2465.3333"
   height="2045.3333"
   viewBox="0 0 2465.3333 2045.3333"
   sodipodi:docname="White Rock Apartments.svg"
   inkscape:version="1.4.2 (ebf0e940d0, 2025-05-08)"
   xml:space="preserve"
   xmlns:inkscape="http://www.inkscape.org/namespaces/inkscape"
   xmlns:sodipodi="http://sodipodi.sourceforge.net/DTD/sodipodi-0.dtd"
   xmlns="http://www.w3.org/2000/svg"
   xmlns:svg="http://www.w3.org/2000/svg"><defs
     id="defs1" /><sodipodi:namedview
     id="namedview1"
     pagecolor="#ffffff"
     bordercolor="#000000"
     borderopacity="0.25"
     inkscape:showpageshadow="2"
     inkscape:pageopacity="0.0"
     inkscape:pagecheckerboard="0"
     inkscape:deskcolor="#d1d1d1"
     inkscape:zoom="0.55453031"
     inkscape:cx="1538.2387"
     inkscape:cy="575.26161"
     inkscape:window-width="1920"
     inkscape:window-height="1008"
     inkscape:window-x="0"
     inkscape:window-y="0"
     inkscape:window-maximized="1"
     inkscape:current-layer="layer3" /><rect
     style="fill:#1a1a1a;stroke-width:50;stroke-linejoin:round"
     id="rect1"
     width="2465.3333"
     height="2045.3333"
     x="0"
     y="0"
     inkscape:label="bg" /><g
     inkscape:groupmode="layer"
     id="layer1"
     inkscape:label="Roads"><path
       style="baseline-shift:baseline;display:inline;overflow:visible;vector-effect:none;fill:#999999;stroke-linejoin:round;enable-background:accumulate;stop-color:#000000;stop-opacity:1;opacity:1"
       d="m 1038.2383,235.80859 -20.6817,8.06836 97.17,249.11328 -89.6309,78.42579 a 11.10111,11.10111 0 0 0 -1.3984,1.46875 L 901.07227,727.9707 a 11.10111,11.10111 0 0 0 -2.125,4.46289 l -12.41993,55.52344 -265.01172,-73.71289 a 11.10111,11.10111 0 0 0 -2.9746,-0.40625 h -45.08204 a 11.10111,11.10111 0 0 0 -1.95117,0.17188 l -50.49414,9.01757 a 11.10111,11.10111 0 0 0 -4.33789,1.7793 l -57.70508,39.67383 a 11.10111,11.10111 0 0 0 -1.92383,1.67773 L 202.7793,1045.6738 a 11.10111,11.10111 0 0 0 -1.17578,1.543 l -43.2793,68.5254 a 11.10111,11.10111 0 0 0 -1.36524,3.1641 l -16.23046,63.1152 a 11.10111,11.10111 0 0 0 -0.34571,2.498 l -3.60742,149.6758 a 11.10111,11.10111 0 0 0 1.28711,5.461 l 32.46094,61.3125 a 11.10111,11.10111 0 0 0 1.33593,1.9765 l 59.50977,70.3301 a 11.10111,11.10111 0 0 0 1.13867,1.1621 l 467.0625,411.1582 a 11.10111,11.10111 0 0 0 1.62305,1.1875 l 45.08398,27.0488 a 11.10111,11.10111 0 0 0 5.46289,1.5801 l 81.15039,1.8027 a 11.10111,11.10111 0 0 0 1.73047,-0.098 l 160.4961,-21.6387 a 11.10111,11.10111 0 0 0 4.0625,-1.3867 l 46.88671,-27.0488 a 11.10111,11.10111 0 0 0 4.5762,-5.0606 l 16.2304,-36.0664 a 11.10111,11.10111 0 0 0 0.9024,-5.8496 l -48.4356,-412.5879 11.7364,-41.916 51.791,-101.9102 206.7402,66.0547 a 11.10111,11.10111 0 0 0 4.002,0.5098 l 80.248,-4.5078 a 11.10111,11.10111 0 0 0 2.9668,-0.5801 l 71.2305,-24.3437 a 11.10111,11.10111 0 0 0 1.6289,-0.7071 l 82.9531,-44.1816 a 11.10111,11.10111 0 0 0 3.1387,-2.4922 l 238.0391,-272.30078 a 11.10111,11.10111 0 0 0 1.5039,-2.20704 l 24.8457,-48.04101 a 11.10111,11.10111 0 0 0 1.1953,-4.0957 l 6.3301,-69.62305 98.0527,3.32422 a 11.10111,11.10111 0 0 0 6.7851,-2.03125 l 73.9375,-52.29688 a 11.10111,11.10111 0 0 0 1.9278,-1.73437 l 52.2969,-59.50977 a 11.10111,11.10111 0 0 0 0.998,-1.32422 l 32.4609,-50.49414 a 11.10111,11.10111 0 0 0 0.8653,-1.6289 l 32.1113,-74.93164 42.1484,-66.73438 33.168,-33.16797 135.0176,-120.61328 -14.791,-16.55664 -135.25,120.82227 a 11.10111,11.10111 0 0 0 -0.4532,0.42968 l -34.2636,34.26367 a 11.10111,11.10111 0 0 0 -1.5352,1.92188 l -43.2812,68.52539 a 11.10111,11.10111 0 0 0 -0.8164,1.55469 l -32.0957,74.88867 -31.5098,49.01562 -50.8848,57.9043 -69.8203,49.38281 -94.8144,-3.21289 -17.8926,-89.45898 97.3125,-52.21484 a 11.10111,11.10111 0 0 0 1.8574,-1.25391 L 1935.125,653.75 a 11.10111,11.10111 0 0 0 2.2148,-2.49609 l 55.5997,-85.92774 26.6367,-29.05859 141.8711,-101.33594 a 11.10111,11.10111 0 0 0 2.2265,-2.11328 l 85.4082,-107.11133 -17.3574,-13.8418 -84.4414,105.90235 -141.5547,101.10937 a 11.10111,11.10111 0 0 0 -1.7305,1.53321 l -28.0546,30.60351 a 11.10111,11.10111 0 0 0 -1.1368,1.4707 l -55.1894,85.29297 -43.7442,36.45313 -96.0683,51.54883 -188,-175.75782 a 11.10111,11.10111 0 0 0 -1.1289,-0.92382 l -56.8047,-40.57422 a 11.10111,11.10111 0 0 0 -2.8633,-1.47266 l -71.2305,-24.34375 a 11.10111,11.10111 0 0 0 -1.8632,-0.46094 l -114.5118,-18.0332 a 11.10111,11.10111 0 0 0 -2.8808,-0.0762 l -204.8594,21.42969 z m 303.1465,250.5586 112.125,17.6582 68.7812,23.50781 54.8867,39.20508 190.0137,177.64063 19.5625,97.81445 -7.3066,80.39258 -23.2305,44.91797 -235.8145,269.75589 -80.3691,42.8066 -68.9453,23.5625 -76.6777,4.3086 -212.6289,-67.9355 -61.3282,-64.7364 -35.97263,-102.3847 26.22653,-50.7051 a 11.10111,11.10111 0 0 0 1.1758,-6.2988 l -9.0176,-82.95317 a 11.10111,11.10111 0 0 0 -2.6816,-6.10938 l -37.86915,-43.27929 a 11.10111,11.10111 0 0 0 -3.72851,-2.78125 l -38.54688,-17.66797 -14.19726,-59.77735 14.21679,-63.55664 120.42191,-152.29883 90.3554,-79.06054 z M 574.44141,736.03711 h 42.58593 l 267.70313,74.46094 33.18359,139.71484 a 11.10111,11.10111 0 0 0 0.32813,1.11523 l 82.05081,233.53128 a 11.10111,11.10111 0 0 0 2.414,3.9551 l 60.7188,64.0918 -52.6367,103.5781 a 11.10111,11.10111 0 0 0 -0.795,2.0351 l -12.62301,45.084 a 11.10111,11.10111 0 0 0 -0.33593,4.2871 l 5.33784,45.4629 -206.14839,50.6621 5.29883,21.5586 203.45706,-50.0019 40.3867,344.0332 -13.4981,29.998 -41.88668,24.166 -157.4668,21.2325 -77.33984,-1.7188 -41.69531,-25.0176 -465.69141,-409.9531 -58.20703,-68.791 -30.54297,-57.6895 3.50586,-145.5097 15.48047,-60.1993 41.83008,-66.2304 252.75,-277.84573 54.67187,-37.58593 z m 352.10546,154.45312 20.62696,9.45313 34,38.85742 8.27734,76.14842 -15.08203,29.1563 -34.99023,-99.58792 z"
       id="path7" /><path
       style="fill:#4d4d4d;stroke-width:50;stroke-linejoin:round"
       d="m 1836.2094,0 629.1239,558.51369 V 425.89857 L 1984.1263,0 Z"
       id="path1" /></g><g
     inkscape:groupmode="layer"
     id="layer2"
     inkscape:label="Buildings"><path
       style="fill:#ffffff;stroke:none;stroke-width:22.2;stroke-linejoin:round;stroke-dasharray:none"
       d="m 1161.3432,162.29952 48.6899,245.2526 102.7896,-21.63994 -45.0832,-239.84262 z"
       id="path8" /><path
       style="fill:#ffffff;stroke:none;stroke-width:22.2;stroke-linejoin:round;stroke-dasharray:none"
       d="m 1309.2161,542.80171 221.8093,54.09984 -36.0665,151.47955 -220.006,-59.50982 z"
       id="path9" /><path
       style="fill:#ffffff;stroke:none;stroke-width:22.2;stroke-linejoin:round;stroke-dasharray:none"
       d="M 912.48394,270.49919 1035.1102,483.29189 898.05732,553.62168 788.05431,339.02565 Z"
       id="path10" /><path
       style="fill:#ffffff;stroke:none;stroke-width:22.2;stroke-linejoin:round;stroke-dasharray:none"
       d="M 876.41738,578.86827 845.76081,674.44465 613.1315,595.09822 651.00139,492.30853 Z"
       id="path11" /><path
       style="fill:#ffffff;stroke:none;stroke-width:22.2;stroke-linejoin:round;stroke-dasharray:none"
       d="m 1127.08,580.6716 102.7897,77.5431 -162.2996,207.38271 -104.59298,-77.5431 z"
       id="path12" /><path
       style="fill:#ffffff;stroke:none;stroke-width:22.2;stroke-linejoin:round;stroke-dasharray:none"
       d="m 1123.4733,966.58378 200.1694,124.42962 -73.9364,128.0363 -201.9728,-124.4296 z"
       id="path13" /><path
       style="fill:#ffffff;stroke:none;stroke-width:22.2;stroke-linejoin:round;stroke-dasharray:none"
       d="m 1343.4793,1127.08 173.1195,-187.54614 97.3797,81.14974 -178.5295,191.1528 z"
       id="path14" /><path
       style="fill:#ffffff;stroke:none;stroke-width:22.2;stroke-linejoin:round;stroke-dasharray:none"
       d="M 1601.3552,926.91056 1565.2887,748.3811 1671.685,726.74116 1705.9482,903.4673 Z"
       id="path15" /><path
       style="fill:#ffffff;stroke:none;stroke-width:22.2;stroke-linejoin:round;stroke-dasharray:none"
       d="m 966.58378,1237.083 -117.21632,209.186 -90.16639,-52.2965 119.01964,-209.186 z"
       id="path16" /><path
       style="fill:#ffffff;stroke:none;stroke-width:22.2;stroke-linejoin:round;stroke-dasharray:none"
       d="m 1089.2101,1478.7289 239.8426,45.0832 19.8366,-108.1997 -241.6459,-41.4765 z"
       id="path17" /><path
       style="fill:#ffffff;stroke:none;stroke-width:22.2;stroke-linejoin:round;stroke-dasharray:none"
       d="m 1114.4567,1585.1253 19.8366,147.8729 -54.0999,1.8033 -18.0332,-147.8729 z"
       id="path18" /><path
       style="fill:#ffffff;stroke:none;stroke-width:22.2;stroke-linejoin:round;stroke-dasharray:none"
       d="m 490.5052,1772.6714 -104.59302,-86.5598 28.85325,-30.6565 100.98636,88.363 z"
       id="path19" /><path
       style="fill:#ffffff;stroke:none;stroke-width:22.2;stroke-linejoin:round;stroke-dasharray:none"
       d="m 948.5505,1644.6351 25.24659,146.0696 -234.43263,32.4599 -12.6233,-153.2829 z"
       id="path20" /><path
       style="fill:#ffffff;stroke:none;stroke-width:22.2;stroke-linejoin:round;stroke-dasharray:none"
       d="m 530.17842,1451.679 183.93945,158.6929 -64.91981,77.5431 -187.54611,-156.8896 z"
       id="path21" /><path
       style="fill:#ffffff;stroke:none;stroke-width:22.2;stroke-linejoin:round;stroke-dasharray:none"
       d="m 472.47192,1359.7093 -167.7095,-173.1195 -95.57638,95.5764 167.7095,173.1195 z"
       id="path22" /><path
       style="fill:#ffffff;stroke:none;stroke-width:22.2;stroke-linejoin:round;stroke-dasharray:none"
       d="M 277.7125,1081.9968 434.60203,914.28727 539.19506,1011.667 391.32216,1182.9831 Z"
       id="path23" /><path
       style="fill:#ffffff;stroke:none;stroke-width:22.2;stroke-linejoin:round;stroke-dasharray:none"
       d="m 584.27825,788.05431 -41.47654,124.42963 245.2526,79.34643 37.86989,-122.6263 z"
       id="path24" /><path
       style="fill:#ffffff;stroke:none;stroke-width:22.2;stroke-linejoin:round;stroke-dasharray:none"
       d="m 102.78969,1181.1798 v 144.2662 l -48.689852,-1.8033 1.803328,-144.2662 z"
       id="path25" /><path
       style="fill:#ffffff;stroke:none;stroke-width:22.2;stroke-linejoin:round;stroke-dasharray:none"
       d="M 948.70819,181.07065 1083.8736,132.61512 1060.921,84.159598 926.1047,132.81629 Z"
       id="path26"
       sodipodi:nodetypes="ccccc" /><path
       style="fill:#ffffff;stroke:none;stroke-width:22.2;stroke-linejoin:round;stroke-dasharray:none"
       d="m 1369.5062,428.44886 137.7157,28.0532 12.7514,-63.75727 -139.9168,-24.0532 z"
       id="path27"
       sodipodi:nodetypes="ccccc" /></g><g
     inkscape:groupmode="layer"
     id="layer3"
     inkscape:label="Labels"><text
       xml:space="preserve"
       style="font-weight:bold;font-size:48px;line-height:1;font-family:'DejaVu Sans Mono';-inkscape-font-specification:'DejaVu Sans Mono, Bold';text-align:center;writing-mode:lr-tb;direction:ltr;text-anchor:middle;fill:#ffffff;stroke:none;stroke-width:22.2;stroke-linejoin:round;stroke-dasharray:none"
       x="1662.8915"
       y="-1247.2721"
       id="text27"
       transform="rotate(41.243795)"><tspan
         sodipodi:role="line"
         id="tspan27"
         x="1662.8915"
         y="-1247.2721">Thousand Oaks</tspan></text><text
       xml:space="preserve"
       style="font-weight:bold;font-size:32px;line-height:1;font-family:'DejaVu Sans Mono';-inkscape-font-specification:'DejaVu Sans Mono, Bold';text-align:center;writing-mode:lr-tb;direction:ltr;text-anchor:middle;fill:#000000;stroke:none;stroke-width:22.2;stroke-linejoin:round;stroke-dasharray:none"
       x="1647.059"
       y="-794.19043"
       id="text28"
       transform="rotate(52.804638)"><tspan
         sodipodi:role="line"
         id="tspan28"
         x="1647.059"
         y="-794.19043">clubhouse</tspan></text><text
       xml:space="preserve"
       style="font-weight:bold;font-size:32px;line-height:1;font-family:'DejaVu Sans Mono';-inkscape-font-specification:'DejaVu Sans Mono, Bold';text-align:center;writing-mode:lr-tb;direction:ltr;text-anchor:middle;fill:#000000;stroke:none;stroke-width:22.2;stroke-linejoin:round;stroke-dasharray:none"
       x="1438.8745"
       y="419.55661"
       id="text29"><tspan
         sodipodi:role="line"
         id="tspan29"
         x="1438.8745"
         y="419.55661">18</tspan></text><text
       xml:space="preserve"
       style="font-weight:bold;font-size:32px;line-height:1;font-family:'DejaVu Sans Mono';-inkscape-font-specification:'DejaVu Sans Mono, Bold';text-align:center;writing-mode:lr-tb;direction:ltr;text-anchor:middle;fill:#000000;stroke:none;stroke-width:22.2;stroke-linejoin:round;stroke-dasharray:none"
       x="911.24634"
       y="426.76993"
       id="text30"><tspan
         sodipodi:role="line"
         id="tspan30"
         x="911.24634"
         y="426.76993">15</tspan></text><text
       xml:space="preserve"
       style="font-weight:bold;font-size:32px;line-height:1;font-family:'DejaVu Sans Mono';-inkscape-font-specification:'DejaVu Sans Mono, Bold';text-align:center;writing-mode:lr-tb;direction:ltr;text-anchor:middle;fill:#000000;stroke:none;stroke-width:22.2;stroke-linejoin:round;stroke-dasharray:none"
       x="1003.2071"
       y="142.65958"
       id="text31"><tspan
         sodipodi:role="line"
         id="tspan31"
         x="1003.2071"
         y="142.65958">16</tspan></text><text
       xml:space="preserve"
       style="font-weight:bold;font-size:32px;line-height:1;font-family:'DejaVu Sans Mono';-inkscape-font-specification:'DejaVu Sans Mono, Bold';text-align:center;writing-mode:lr-tb;direction:ltr;text-anchor:middle;fill:#000000;stroke:none;stroke-width:22.2;stroke-linejoin:round;stroke-dasharray:none"
       x="1235.7172"
       y="284.92581"
       id="text32"><tspan
         sodipodi:role="line"
         id="tspan32"
         x="1235.7172"
         y="284.92581">17</tspan></text><text
       xml:space="preserve"
       style="font-weight:bold;font-size:32px;line-height:1;font-family:'DejaVu Sans Mono';-inkscape-font-specification:'DejaVu Sans Mono, Bold';text-align:center;writing-mode:lr-tb;direction:ltr;text-anchor:middle;fill:#000000;stroke:none;stroke-width:22.2;stroke-linejoin:round;stroke-dasharray:none"
       x="1093.3824"
       y="732.89813"
       id="text33"><tspan
         sodipodi:role="line"
         id="tspan33"
         x="1093.3824"
         y="732.89813">14</tspan></text><text
       xml:space="preserve"
       style="font-weight:bold;font-size:32px;line-height:1;font-family:'DejaVu Sans Mono';-inkscape-font-specification:'DejaVu Sans Mono, Bold';text-align:center;writing-mode:lr-tb;direction:ltr;text-anchor:middle;fill:#000000;stroke:none;stroke-width:22.2;stroke-linejoin:round;stroke-dasharray:none"
       x="1401.0045"
       y="650.69196"
       id="text34"><tspan
         sodipodi:role="line"
         id="tspan34"
         x="1401.0045"
         y="650.69196">19</tspan></text><text
       xml:space="preserve"
       style="font-weight:bold;font-size:32px;line-height:1;font-family:'DejaVu Sans Mono';-inkscape-font-specification:'DejaVu Sans Mono, Bold';text-align:center;writing-mode:lr-tb;direction:ltr;text-anchor:middle;fill:#000000;stroke:none;stroke-width:22.2;stroke-linejoin:round;stroke-dasharray:none"
       x="1178.0106"
       y="1097.4797"
       id="text35"><tspan
         sodipodi:role="line"
         id="tspan35"
         x="1178.0106"
         y="1097.4797">2</tspan></text><text
       xml:space="preserve"
       style="font-weight:bold;font-size:32px;line-height:1;font-family:'DejaVu Sans Mono';-inkscape-font-specification:'DejaVu Sans Mono, Bold';text-align:center;writing-mode:lr-tb;direction:ltr;text-anchor:middle;fill:#000000;stroke:none;stroke-width:22.2;stroke-linejoin:round;stroke-dasharray:none"
       x="1469.7123"
       y="1085.6034"
       id="text36"><tspan
         sodipodi:role="line"
         id="tspan36"
         x="1469.7123"
         y="1085.6034">1</tspan></text><text
       xml:space="preserve"
       style="font-weight:bold;font-size:32px;line-height:1;font-family:'DejaVu Sans Mono';-inkscape-font-specification:'DejaVu Sans Mono, Bold';text-align:center;writing-mode:lr-tb;direction:ltr;text-anchor:middle;fill:#000000;stroke:none;stroke-width:22.2;stroke-linejoin:round;stroke-dasharray:none"
       x="739.802"
       y="595.97333"
       id="text37"><tspan
         sodipodi:role="line"
         id="tspan37"
         x="739.802"
         y="595.97333">13</tspan></text><text
       xml:space="preserve"
       style="font-weight:bold;font-size:32px;line-height:1;font-family:'DejaVu Sans Mono';-inkscape-font-specification:'DejaVu Sans Mono, Bold';text-align:center;writing-mode:lr-tb;direction:ltr;text-anchor:middle;fill:#000000;stroke:none;stroke-width:22.2;stroke-linejoin:round;stroke-dasharray:none"
       x="681.91431"
       y="899.55127"
       id="text38"><tspan
         sodipodi:role="line"
         id="tspan38"
         x="681.91431"
         y="899.55127">12</tspan></text><text
       xml:space="preserve"
       style="font-weight:bold;font-size:32px;line-height:1;font-family:'DejaVu Sans Mono';-inkscape-font-specification:'DejaVu Sans Mono, Bold';text-align:center;writing-mode:lr-tb;direction:ltr;text-anchor:middle;fill:#000000;stroke:none;stroke-width:22.2;stroke-linejoin:round;stroke-dasharray:none"
       x="400.46698"
       y="1060.3568"
       id="text39"><tspan
         sodipodi:role="line"
         id="tspan39"
         x="400.46698"
         y="1060.3568">11</tspan></text><text
       xml:space="preserve"
       style="font-weight:bold;font-size:32px;line-height:1;font-family:'DejaVu Sans Mono';-inkscape-font-specification:'DejaVu Sans Mono, Bold';text-align:center;writing-mode:lr-tb;direction:ltr;text-anchor:middle;fill:#000000;stroke:none;stroke-width:22.2;stroke-linejoin:round;stroke-dasharray:none"
       x="76.723137"
       y="1262.3296"
       id="text40"><tspan
         sodipodi:role="line"
         id="tspan40"
         x="76.723137"
         y="1262.3296">10</tspan></text><text
       xml:space="preserve"
       style="font-weight:bold;font-size:32px;line-height:1;font-family:'DejaVu Sans Mono';-inkscape-font-specification:'DejaVu Sans Mono, Bold';text-align:center;writing-mode:lr-tb;direction:ltr;text-anchor:middle;fill:#000000;stroke:none;stroke-width:22.2;stroke-linejoin:round;stroke-dasharray:none"
       x="340.95715"
       y="1332.0405"
       id="text41"><tspan
         sodipodi:role="line"
         id="tspan41"
         x="340.95715"
         y="1332.0405">9</tspan></text><text
       xml:space="preserve"
       style="font-weight:bold;font-size:32px;line-height:1;font-family:'DejaVu Sans Mono';-inkscape-font-specification:'DejaVu Sans Mono, Bold';text-align:center;writing-mode:lr-tb;direction:ltr;text-anchor:middle;fill:#000000;stroke:none;stroke-width:22.2;stroke-linejoin:round;stroke-dasharray:none"
       x="586.95673"
       y="1583.0126"
       id="text42"><tspan
         sodipodi:role="line"
         id="tspan42"
         x="586.95673"
         y="1583.0126">8</tspan></text><text
       xml:space="preserve"
       style="font-weight:bold;font-size:32px;line-height:1;font-family:'DejaVu Sans Mono';-inkscape-font-specification:'DejaVu Sans Mono, Bold';text-align:center;writing-mode:lr-tb;direction:ltr;text-anchor:middle;fill:#000000;stroke:none;stroke-width:22.2;stroke-linejoin:round;stroke-dasharray:none"
       x="839.60388"
       y="1738.8457"
       id="text43"><tspan
         sodipodi:role="line"
         id="tspan43"
         x="839.60388"
         y="1738.8457">6</tspan></text><text
       xml:space="preserve"
       style="font-weight:bold;font-size:32px;line-height:1;font-family:'DejaVu Sans Mono';-inkscape-font-specification:'DejaVu Sans Mono, Bold';text-align:center;writing-mode:lr-tb;direction:ltr;text-anchor:middle;fill:#000000;stroke:none;stroke-width:22.2;stroke-linejoin:round;stroke-dasharray:none"
       x="451.81534"
       y="1726.5715"
       id="text44"><tspan
         sodipodi:role="line"
         id="tspan44"
         x="451.81534"
         y="1726.5715">7</tspan></text><text
       xml:space="preserve"
       style="font-weight:bold;font-size:32px;line-height:1;font-family:'DejaVu Sans Mono';-inkscape-font-specification:'DejaVu Sans Mono, Bold';text-align:center;writing-mode:lr-tb;direction:ltr;text-anchor:middle;fill:#000000;stroke:none;stroke-width:22.2;stroke-linejoin:round;stroke-dasharray:none"
       x="1096.114"
       y="1668.5159"
       id="text45"><tspan
         sodipodi:role="line"
         id="tspan45"
         x="1096.114"
         y="1668.5159">5</tspan></text><text
       xml:space="preserve"
       style="font-weight:bold;font-size:32px;line-height:1;font-family:'DejaVu Sans Mono';-inkscape-font-specification:'DejaVu Sans Mono, Bold';text-align:center;writing-mode:lr-tb;direction:ltr;text-anchor:middle;fill:#000000;stroke:none;stroke-width:22.2;stroke-linejoin:round;stroke-dasharray:none"
       x="1215.6993"
       y="1458.5829"
       id="text46"><tspan
         sodipodi:role="line"
         id="tspan46"
         x="1215.6993"
         y="1458.5829">3</tspan></text><text
       xml:space="preserve"
       style="font-weight:bold;font-size:32px;line-height:1;font-family:'DejaVu Sans Mono';-inkscape-font-specification:'DejaVu Sans Mono, Bold';text-align:center;writing-mode:lr-tb;direction:ltr;text-anchor:middle;fill:#000000;stroke:none;stroke-width:22.2;stroke-linejoin:round;stroke-dasharray:none"
       x="860.31561"
       y="1326.193"
       id="text47"><tspan
         sodipodi:role="line"
         id="tspan47"
         x="860.31561"
         y="1326.193">4</tspan></text></g><path
     id="rect1-3"
     style="baseline-shift:baseline;display:inline;overflow:visible;vector-effect:none;fill:#ffffff;stroke-width:0.152663;stroke-linejoin:round;enable-background:accumulate;stop-color:#000000"
     d="m 2216.0267,311.53955 c -2.7303,0 -4.9887,2.25868 -4.9887,4.989 v 13.30544 c 1.3323,0 2.6281,0.007 3.8711,0.0206 v -13.32608 c 0,-0.6527 0.4649,-1.11783 1.1176,-1.11783 h 21.0082 c 0.6527,0 1.1175,0.46513 1.1175,1.11783 v 34.2276 c 0,0.6527 -0.4648,1.11783 -1.1175,1.11783 h -21.0082 c -0.6527,0 -1.1176,-0.46513 -1.1176,-1.11783 v -13.32609 c -1.243,0.0135 -2.5388,0.0206 -3.8711,0.0206 v 13.30546 c 0,2.73031 2.2584,4.98889 4.9887,4.98889 h 21.0082 c 2.7303,0 4.9887,-2.25858 4.9887,-4.98889 V 316.5285 c 0,-2.73032 -2.2584,-4.989 -4.9887,-4.989 z m 9.1604,16.52612 0.01,3.66278 h -14.1858 v 3.88682 h 14.1916 l 0.01,3.66278 9.7015,-5.62115 z" /></svg>
