<?xml version="1.0" encoding="UTF-8" standalone="no"?>
<!-- Created with Inkscape (http://www.inkscape.org/) -->

<svg
   width="210mm"
   height="297mm"
   viewBox="0 0 210 297"
   version="1.1"
   id="svg1"
   inkscape:version="1.4.2 (ebf0e940d0, 2025-05-08)"
   sodipodi:docname="Entrance Symbol.svg"
   xmlns:inkscape="http://www.inkscape.org/namespaces/inkscape"
   xmlns:sodipodi="http://sodipodi.sourceforge.net/DTD/sodipodi-0.dtd"
   xmlns="http://www.w3.org/2000/svg"
   xmlns:svg="http://www.w3.org/2000/svg">
  <sodipodi:namedview
     id="namedview1"
     pagecolor="#ffffff"
     bordercolor="#000000"
     borderopacity="0.25"
     inkscape:showpageshadow="2"
     inkscape:pageopacity="0.0"
     inkscape:pagecheckerboard="0"
     inkscape:deskcolor="#d1d1d1"
     inkscape:document-units="mm"
     inkscape:zoom="0.7180275"
     inkscape:cx="128.82515"
     inkscape:cy="545.94009"
     inkscape:window-width="1920"
     inkscape:window-height="1008"
     inkscape:window-x="0"
     inkscape:window-y="0"
     inkscape:window-maximized="1"
     inkscape:current-layer="layer1" />
  <defs
     id="defs1" />
  <g
     inkscape:label="Layer 1"
     inkscape:groupmode="layer"
     id="layer1">
    <path
       id="rect1"
       style="baseline-shift:baseline;display:inline;overflow:visible;opacity:1;vector-effect:none;fill:#008000;stroke-width:0.791217;stroke-linejoin:round;enable-background:accumulate;stop-color:#000000;stop-opacity:1"
       d="M 50.070329 34.851619 C 35.919732 34.851619 24.215059 46.557843 24.215059 60.708439 L 24.215059 129.66754 C 31.120167 129.66754 37.83589 129.70454 44.278434 129.77451 L 44.278434 60.708439 C 44.278434 57.325657 46.687547 54.914994 50.070329 54.914994 L 158.95102 54.914994 C 162.3338 54.914994 164.74292 57.325657 164.74292 60.708439 L 164.74292 238.10226 C 164.74292 241.48504 162.3338 243.89571 158.95102 243.89571 L 50.070329 243.89571 C 46.687547 243.89571 44.278434 241.48504 44.278434 238.10226 L 44.278434 169.03619 C 37.83589 169.10609 31.120167 169.14316 24.215059 169.14316 L 24.215059 238.10226 C 24.215059 252.25286 35.919732 263.95857 50.070329 263.95857 L 158.95102 263.95857 C 173.10161 263.95857 184.80629 252.25286 184.80629 238.10226 L 184.80629 60.708439 C 184.80629 46.557843 173.10161 34.851619 158.95102 34.851619 L 50.070329 34.851619 z M 97.547017 120.50272 L 97.576473 139.48606 L 24.054862 139.48606 L 24.054862 159.63057 L 97.606962 159.63057 L 97.636418 178.6139 L 147.91707 149.4808 L 97.547017 120.50272 z " />
  </g>
</svg>
