<?xml version="1.0" encoding="UTF-8" standalone="no"?>
<!-- Created with Inkscape (http://www.inkscape.org/) -->

<svg
   version="1.1"
   id="svg1"
   width="2394.6667"
   height="1062.6667"
   viewBox="0 0 2394.6667 1062.6667"
   sodipodi:docname="Sedona Ranch.svg"
   inkscape:version="1.4.2 (ebf0e940d0, 2025-05-08)"
   xml:space="preserve"
   xmlns:inkscape="http://www.inkscape.org/namespaces/inkscape"
   xmlns:sodipodi="http://sodipodi.sourceforge.net/DTD/sodipodi-0.dtd"
   xmlns="http://www.w3.org/2000/svg"
   xmlns:svg="http://www.w3.org/2000/svg"><defs
     id="defs1" /><sodipodi:namedview
     id="namedview1"
     pagecolor="#ffffff"
     bordercolor="#000000"
     borderopacity="0.25"
     inkscape:showpageshadow="2"
     inkscape:pageopacity="0.0"
     inkscape:pagecheckerboard="0"
     inkscape:deskcolor="#d1d1d1"
     inkscape:zoom="0.51822342"
     inkscape:cx="1383.5731"
     inkscape:cy="501.7141"
     inkscape:window-width="1920"
     inkscape:window-height="1008"
     inkscape:window-x="0"
     inkscape:window-y="0"
     inkscape:window-maximized="1"
     inkscape:current-layer="svg1" /><rect
     style="fill:#1a1a1a;stroke-width:16.725;stroke-linejoin:round"
     id="rect1"
     width="2394.6667"
     height="1062.6667"
     x="-4.2632564e-14"
     y="-8.5265128e-14"
     inkscape:label="bg" /><g
     inkscape:groupmode="layer"
     id="layer4"
     inkscape:label="Roads"><path
       style="baseline-shift:baseline;display:inline;overflow:visible;vector-effect:none;stroke-linejoin:round;enable-background:accumulate;stop-color:#000000;stop-opacity:1;opacity:1;fill:#999999"
       d="m 1796,99.103516 -9.1309,117.392574 -61.3418,10.33008 h -33.5683 a 6.50065,6.50065 0 0 0 -0.8067,0.0508 l -43.3769,5.42188 -37.7305,1.34765 -248.1484,-5.45312 a 6.50065,6.50065 0 0 0 -0.6211,0.0156 l -129.625,9.55079 a 6.50065,6.50065 0 0 0 -0.6953,0.0898 l -163.7383,30.01758 a 6.50065,6.50065 0 0 0 -0.3945,0.0859 L 627.45898,377.11133 a 6.50065,6.50065 0 0 0 -0.38086,0.10742 l -143.27148,45.02734 a 6.50065,6.50065 0 0 0 -0.8457,0.33203 l -28.6543,13.64649 a 6.50065,6.50065 0 0 0 -2.66211,2.33594 l -15.00976,23.19726 a 6.50065,6.50065 0 0 0 -0.86719,2.03321 l -12.07031,50.95898 -11.39258,20.25586 -39.68164,39.68164 -59.1875,33.62891 -94.8086,50.11328 -82.55859,23.00781 a 6.50065,6.50065 0 0 0 -4.07031,3.35547 l -8.18555,16.37305 a 6.50065,6.50065 0 0 0 -0.51172,4.40625 l 55.94336,236.05468 a 6.50065,6.50065 0 0 0 0.85742,2.01563 l 24.56055,38.20703 a 6.50065,6.50065 0 0 0 1.81836,1.86328 l 38.20508,25.92381 a 6.50065,6.50065 0 0 0 1.80273,0.8555 l 36.8418,10.914 a 6.50065,6.50065 0 0 0 2.79883,0.1993 l 36.84179,-5.459 a 6.50065,6.50065 0 0 0 2.49219,-0.918 l 32.74805,-20.46678 a 6.50065,6.50065 0 0 0 0.83398,-0.6211 l 32.51953,-28.45312 23.37305,-16.88086 810.75,-226.19336 a 6.50065,6.50065 0 0 0 0.1406,-0.0391 l 242.877,-73.6836 a 6.50065,6.50065 0 0 0 0.1699,-0.0527 l 53.207,-17.73633 34.3457,39.25391 26.9024,103.57617 a 6.50065,6.50065 0 0 0 1.2988,2.52734 l 20.4668,24.56055 a 6.50065,6.50065 0 0 0 2.3535,1.77734 l 24.5606,10.91602 a 6.50065,6.50065 0 0 0 4.3554,0.33008 l 618.1114,-169.19531 a 6.50065,6.50065 0 0 0 2.0625,-0.98047 l 9.5507,-6.82227 a 6.50065,6.50065 0 0 0 0.8184,-0.69336 l 8.1875,-8.1875 a 6.50065,6.50065 0 0 0 1.793,-3.40429 l 15.0097,-80.50391 a 6.50065,6.50065 0 0 0 -0.2617,-3.35547 l -8.1855,-23.19531 a 6.50065,6.50065 0 0 0 -2.9043,-3.48047 l -19.1035,-10.91602 a 6.50065,6.50065 0 0 0 -0.6856,-0.33984 l -233.5273,-99.11328 -27.8985,-27.89844 -13.1777,-48.75391 -12.2656,-49.06054 a 6.50065,6.50065 0 0 0 -1.709,-3.01953 l -21.832,-21.83203 a 6.50065,6.50065 0 0 0 -2.711,-1.625 l -44.9414,-13.61915 -51.9199,-17.30664 9.1504,-111.18164 -12.957,-1.0664 -9.0411,109.83984 -38.0019,-2.05273 9.0351,-116.16797 z m -3.6992,129.662104 a 6.50065,6.50065 0 0 0 0.2793,0.13477 l 49.6113,2.68164 56.4766,18.82617 a 6.50065,6.50065 0 0 0 0.1718,0.0547 l 43.4688,13.17188 19.4062,19.4082 11.8438,47.37305 a 6.50065,6.50065 0 0 0 0.031,0.12109 l 13.6446,50.48437 a 6.50065,6.50065 0 0 0 1.6777,2.90039 l 30.0195,30.01954 a 6.50065,6.50065 0 0 0 2.0567,1.38671 l 234.3379,99.45704 16.6699,9.52734 6.8027,19.27148 -14.3203,76.8125 -6.3828,6.38282 -8.1699,5.83593 -614.7559,168.27735 -21.0566,-9.35938 -18.5664,-22.27929 -26.9239,-103.65625 a 6.50065,6.50065 0 0 0 -1.3984,-2.64649 l -37.9043,-43.31836 4.6328,-374.65625 75.9942,1.66992 a 6.50065,6.50065 0 0 0 0.375,-0.002 l 38.205,-1.36328 a 6.50065,6.50065 0 0 0 0.5743,-0.0469 l 43.2617,-5.4082 h 33.707 a 6.50065,6.50065 0 0 0 1.0801,-0.0898 z m -430.3789,12.42969 159.0351,3.4961 -4.6328,374.62695 -51.4765,17.1582 -242.7247,73.63477 -811.79683,226.48437 a 6.50065,6.50065 0 0 0 -2.05859,0.99219 l -24.56055,17.73828 a 6.50065,6.50065 0 0 0 -0.47461,0.37695 l -32.35547,28.31055 -31.15429,19.47263 -34.07618,5.0489 -34.49609,-10.22075 -36.27148,-24.61328 -23.24024,-36.15234 -55.14453,-232.67969 5.8418,-11.68359 80.45508,-22.42188 a 6.50065,6.50065 0 0 0 1.29296,-0.51367 l 95.51368,-50.48633 a 6.50065,6.50065 0 0 0 0.17382,-0.0957 l 60.03711,-34.11133 a 6.50065,6.50065 0 0 0 1.38477,-1.05469 l 40.93359,-40.93554 a 6.50065,6.50065 0 0 0 1.07032,-1.40821 l 12.27929,-21.83203 a 6.50065,6.50065 0 0 0 0.66016,-1.68945 l 12.02148,-50.75781 13.40039,-20.70899 26.58008,-12.6582 142.64649,-44.83203 438.97654,-109.0625 163.1934,-29.91797 z"
       id="path4" /><path
       style="fill:#4d4d4d;stroke-width:13;stroke-linejoin:round"
       d="m 2394.6667,155.551 v 100.97171 l -296.0927,-87.32688 -302.9151,-54.5793 -242.8778,-8.1869 -376.5972,38.20551 L 772.29708,242.87788 442.09232,335.66269 201.94341,401.15785 0,428.4475 v -95.51378 l 125.53239,-10.91586 196.48547,-51.85033 234.69099,-65.49516 259.25167,-65.49516 286.54128,-70.953086 272.8965,-43.663439 398.4289,-2.728965 158.28,16.373789 261.9806,57.308264 z"
       id="path1" /></g><g
     inkscape:groupmode="layer"
     id="layer5"
     inkscape:label="Buildings"><path
       style="fill:#ffffff;stroke:none;stroke-width:13;stroke-linejoin:round"
       d="m 2035.8015,349.2702 293.3097,123.49886 36.6638,-94.55381 -291.3802,-121.56919 z"
       id="path5" /><path
       style="fill:#ffffff;stroke:none;stroke-width:13;stroke-linejoin:round"
       d="m 2132.2849,592.40857 -27.0153,-96.48348 -191.0373,48.24174 25.0857,98.41316 z"
       id="path6" /><path
       style="fill:#ffffff;stroke:none;stroke-width:13;stroke-linejoin:round"
       d="m 1923.8806,675.38437 -268.2241,71.39777 -25.0857,-88.7648 268.2241,-71.39777 z"
       id="path7" /><path
       style="fill:#ffffff;stroke:none;stroke-width:13;stroke-linejoin:round"
       d="m 2207.5421,793.09422 -268.2241,71.39777 -27.0154,-92.62414 268.2241,-75.25712 z"
       id="path8" /><path
       style="fill:#ffffff;stroke:none;stroke-width:13;stroke-linejoin:round"
       d="m 1879.4982,885.71836 -281.7318,69.4681 -21.2263,-98.41315 275.9427,-65.60876 z"
       id="path9" /><path
       style="fill:#ffffff;stroke:none;stroke-width:13;stroke-linejoin:round"
       d="m 1676.8829,567.32287 13.5077,-279.8021 -100.3428,-5.789 -9.6484,281.73176 z"
       id="path10" /><path
       style="fill:#ffffff;stroke:none;stroke-width:13;stroke-linejoin:round"
       d="m 1460.7599,258.57573 -3.8593,322.25483 -100.3429,-1.92967 V 256.64606 Z"
       id="path11" /><path
       style="fill:#ffffff;stroke:none;stroke-width:13;stroke-linejoin:round"
       d="m 1316.0347,378.21525 -23.1561,-98.41315 -306.81742,77.18678 28.94502,94.55381 z"
       id="path12" /><path
       style="fill:#ffffff;stroke:none;stroke-width:13;stroke-linejoin:round"
       d="m 1298.6677,470.83939 -285.5911,75.25711 28.945,104.20216 279.8021,-81.04612 z"
       id="path13" /><path
       style="fill:#ffffff;stroke:none;stroke-width:13;stroke-linejoin:round"
       d="m 995.70953,592.40857 28.94507,96.48349 -275.94279,69.4681 -25.0857,-94.55381 z"
       id="path14" /><path
       style="fill:#ffffff;stroke:none;stroke-width:13;stroke-linejoin:round"
       d="m 960.97547,480.48774 -274.01308,69.4681 -21.22637,-90.69447 274.01309,-67.53844 z"
       id="path15" /><path
       style="fill:#ffffff;stroke:none;stroke-width:13;stroke-linejoin:round"
       d="M 702.39974,762.2195 629.0723,465.05038 532.58882,488.20642 605.91626,789.23488 Z"
       id="path16" /><path
       style="fill:#ffffff;stroke:none;stroke-width:13;stroke-linejoin:round"
       d="m 590.47891,808.53157 -32.80439,-106.13183 -210.33399,61.74943 27.01538,108.0615 z"
       id="path17" /><path
       style="fill:#ffffff;stroke:none;stroke-width:13;stroke-linejoin:round"
       d="M 345.41086,908.87439 289.45044,696.61073 187.17795,721.69644 239.27903,935.88977 Z"
       id="path18" /><path
       style="fill:#ffffff;stroke:none;stroke-width:13;stroke-linejoin:round"
       d="M 366.63723,513.29212 82.975794,634.86131 38.593392,540.30749 324.1845,416.80864 Z"
       id="path19" /></g><g
     inkscape:groupmode="layer"
     id="layer6"
     inkscape:label="Labels"><text
       xml:space="preserve"
       style="font-weight:bold;font-size:48px;line-height:1;font-family:'DejaVu Sans Mono';-inkscape-font-specification:'DejaVu Sans Mono, Bold';text-align:center;writing-mode:lr-tb;direction:ltr;text-anchor:middle;fill:#000000;stroke:none;stroke-width:13;stroke-linejoin:round"
       x="2209.1807"
       y="381.21848"
       id="text19"><tspan
         sodipodi:role="line"
         id="tspan19"
         x="2209.1807"
         y="381.21848">1</tspan></text><text
       xml:space="preserve"
       style="font-weight:bold;font-size:48px;line-height:1;font-family:'DejaVu Sans Mono';-inkscape-font-specification:'DejaVu Sans Mono, Bold';text-align:center;writing-mode:lr-tb;direction:ltr;text-anchor:middle;fill:#000000;stroke:none;stroke-width:13;stroke-linejoin:round"
       x="2024.0295"
       y="584.59296"
       id="text20"><tspan
         sodipodi:role="line"
         id="tspan20"
         x="2024.0295"
         y="584.59296">2</tspan></text><text
       xml:space="preserve"
       style="font-weight:bold;font-size:48px;line-height:1;font-family:'DejaVu Sans Mono';-inkscape-font-specification:'DejaVu Sans Mono, Bold';text-align:center;writing-mode:lr-tb;direction:ltr;text-anchor:middle;fill:#000000;stroke:none;stroke-width:13;stroke-linejoin:round"
       x="2062.7197"
       y="796.29138"
       id="text21"><tspan
         sodipodi:role="line"
         id="tspan21"
         x="2062.7197"
         y="796.29138">3</tspan></text><text
       xml:space="preserve"
       style="font-weight:bold;font-size:48px;line-height:1;font-family:'DejaVu Sans Mono';-inkscape-font-specification:'DejaVu Sans Mono, Bold';text-align:center;writing-mode:lr-tb;direction:ltr;text-anchor:middle;fill:#000000;stroke:none;stroke-width:13;stroke-linejoin:round"
       x="1774.4398"
       y="683.4743"
       id="text22"><tspan
         sodipodi:role="line"
         id="tspan22"
         x="1774.4398"
         y="683.4743">5</tspan></text><text
       xml:space="preserve"
       style="font-weight:bold;font-size:48px;line-height:1;font-family:'DejaVu Sans Mono';-inkscape-font-specification:'DejaVu Sans Mono, Bold';text-align:center;writing-mode:lr-tb;direction:ltr;text-anchor:middle;fill:#000000;stroke:none;stroke-width:13;stroke-linejoin:round"
       x="1727.1914"
       y="888.3905"
       id="text23"><tspan
         sodipodi:role="line"
         id="tspan23"
         x="1727.1914"
         y="888.3905">4</tspan></text><text
       xml:space="preserve"
       style="font-weight:bold;font-size:48px;line-height:1;font-family:'DejaVu Sans Mono';-inkscape-font-specification:'DejaVu Sans Mono, Bold';text-align:center;writing-mode:lr-tb;direction:ltr;text-anchor:middle;fill:#000000;stroke:none;stroke-width:13;stroke-linejoin:round"
       x="1632.7347"
       y="437.51001"
       id="text24"><tspan
         sodipodi:role="line"
         id="tspan24"
         x="1632.7347"
         y="437.51001">6</tspan></text><text
       xml:space="preserve"
       style="font-weight:bold;font-size:48px;line-height:1;font-family:'DejaVu Sans Mono';-inkscape-font-specification:'DejaVu Sans Mono, Bold';text-align:center;writing-mode:lr-tb;direction:ltr;text-anchor:middle;fill:#000000;stroke:none;stroke-width:13;stroke-linejoin:round"
       x="1405.8329"
       y="426.82825"
       id="text25"><tspan
         sodipodi:role="line"
         id="tspan25"
         x="1405.8329"
         y="426.82825">7</tspan></text><text
       xml:space="preserve"
       style="font-weight:bold;font-size:48px;line-height:1;font-family:'DejaVu Sans Mono';-inkscape-font-specification:'DejaVu Sans Mono, Bold';text-align:center;writing-mode:lr-tb;direction:ltr;text-anchor:middle;fill:#000000;stroke:none;stroke-width:13;stroke-linejoin:round"
       x="1144.6085"
       y="382.8739"
       id="text26"><tspan
         sodipodi:role="line"
         id="tspan26"
         x="1144.6085"
         y="382.8739">15</tspan></text><text
       xml:space="preserve"
       style="font-weight:bold;font-size:48px;line-height:1;font-family:'DejaVu Sans Mono';-inkscape-font-specification:'DejaVu Sans Mono, Bold';text-align:center;writing-mode:lr-tb;direction:ltr;text-anchor:middle;fill:#000000;stroke:none;stroke-width:13;stroke-linejoin:round"
       x="801.5152"
       y="487.6814"
       id="text27"><tspan
         sodipodi:role="line"
         id="tspan27"
         x="801.5152"
         y="487.6814">14</tspan></text><text
       xml:space="preserve"
       style="font-weight:bold;font-size:48px;line-height:1;font-family:'DejaVu Sans Mono';-inkscape-font-specification:'DejaVu Sans Mono, Bold';text-align:center;writing-mode:lr-tb;direction:ltr;text-anchor:middle;fill:#000000;stroke:none;stroke-width:13;stroke-linejoin:round"
       x="868.39154"
       y="693.92194"
       id="text28"><tspan
         sodipodi:role="line"
         id="tspan28"
         x="868.39154"
         y="693.92194">9</tspan></text><text
       xml:space="preserve"
       style="font-weight:bold;font-size:48px;line-height:1;font-family:'DejaVu Sans Mono';-inkscape-font-specification:'DejaVu Sans Mono, Bold';text-align:center;writing-mode:lr-tb;direction:ltr;text-anchor:middle;fill:#000000;stroke:none;stroke-width:13;stroke-linejoin:round"
       x="1165.2296"
       y="575.50977"
       id="text29"><tspan
         sodipodi:role="line"
         id="tspan29"
         x="1165.2296"
         y="575.50977">8</tspan></text><text
       xml:space="preserve"
       style="font-weight:bold;font-size:48px;line-height:1;font-family:'DejaVu Sans Mono';-inkscape-font-specification:'DejaVu Sans Mono, Bold';text-align:center;writing-mode:lr-tb;direction:ltr;text-anchor:middle;fill:#000000;stroke:none;stroke-width:13;stroke-linejoin:round"
       x="618.99585"
       y="643.18536"
       id="text30"><tspan
         sodipodi:role="line"
         id="tspan30"
         x="618.99585"
         y="643.18536">10</tspan></text><text
       xml:space="preserve"
       style="font-weight:bold;font-size:48px;line-height:1;font-family:'DejaVu Sans Mono';-inkscape-font-specification:'DejaVu Sans Mono, Bold';text-align:center;writing-mode:lr-tb;direction:ltr;text-anchor:middle;fill:#000000;stroke:none;stroke-width:13;stroke-linejoin:round"
       x="464.29123"
       y="802.97668"
       id="text31"><tspan
         sodipodi:role="line"
         id="tspan31"
         x="464.29123"
         y="802.97668">11</tspan></text><text
       xml:space="preserve"
       style="font-weight:bold;font-size:48px;line-height:1;font-family:'DejaVu Sans Mono';-inkscape-font-specification:'DejaVu Sans Mono, Bold';text-align:center;writing-mode:lr-tb;direction:ltr;text-anchor:middle;fill:#000000;stroke:none;stroke-width:13;stroke-linejoin:round"
       x="267.93317"
       y="828.53058"
       id="text32"><tspan
         sodipodi:role="line"
         id="tspan32"
         x="267.93317"
         y="828.53058">12</tspan></text><text
       xml:space="preserve"
       style="font-weight:bold;font-size:48px;line-height:1;font-family:'DejaVu Sans Mono';-inkscape-font-specification:'DejaVu Sans Mono, Bold';text-align:center;writing-mode:lr-tb;direction:ltr;text-anchor:middle;fill:#000000;stroke:none;stroke-width:13;stroke-linejoin:round"
       x="197.33469"
       y="542.93951"
       id="text33"><tspan
         sodipodi:role="line"
         id="tspan33"
         x="197.33469"
         y="542.93951">13</tspan></text><text
       xml:space="preserve"
       style="font-weight:bold;font-size:48px;line-height:1;font-family:'DejaVu Sans Mono';-inkscape-font-specification:'DejaVu Sans Mono, Bold';text-align:center;writing-mode:lr-tb;direction:ltr;text-anchor:middle;fill:#ffffff;stroke:none;stroke-width:13;stroke-linejoin:round"
       x="979.05768"
       y="366.6622"
       id="text34"
       transform="rotate(-12.309483)"><tspan
         sodipodi:role="line"
         id="tspan34"
         x="979.05768"
         y="366.6622">Henderson Pass</tspan></text></g><path
     id="rect1-2"
     style="baseline-shift:baseline;display:inline;overflow:visible;vector-effect:none;fill:#ffffff;stroke-width:0.130037;stroke-linejoin:round;enable-background:accumulate;stop-color:#000000"
     d="m 1818.3188,92.602515 c -2.3256,0 -4.2493,1.923915 -4.2493,4.249566 v 11.333439 c 1.1349,0 2.2386,0.006 3.2974,0.0176 V 96.852101 c 0,-0.555961 0.396,-0.952151 0.9519,-0.952151 h 17.8946 c 0.5559,0 0.9519,0.39619 0.9519,0.952151 v 29.154689 c 0,0.55596 -0.396,0.95216 -0.9519,0.95216 h -17.8946 c -0.5559,0 -0.9519,-0.3962 -0.9519,-0.95216 v -11.35101 c -1.0588,0.0115 -2.1625,0.0176 -3.2974,0.0176 v 11.33344 c 0,2.32565 1.9237,4.24948 4.2493,4.24948 h 17.8946 c 2.3256,0 4.2493,-1.92383 4.2493,-4.24948 V 96.852121 c 0,-2.325652 -1.9237,-4.249566 -4.2493,-4.249566 z m 7.8029,14.076765 0.01,3.11991 h -12.0833 v 3.31075 h 12.0883 l 0.01,3.11992 8.2636,-4.78803 z"
     inkscape:label="entrance" /></svg>
